<svg width="29" height="61" viewBox="0 0 29 61" fill="none" xmlns="http://www.w3.org/2000/svg">
<path d="M0.324089 1.62355C-9.98236e-09 2.25961 -1.36608e-08 3.09226 -2.10177e-08 4.75756L-2.48465e-07 56.2424C-2.55821e-07 57.9077 -2.595e-07 58.7404 0.324089 59.3764C0.609166 59.9359 1.06405 60.3908 1.62354 60.6759C2.25961 61 3.09226 61 4.75756 61L23.4467 61C25.112 61 25.9447 61 26.5807 60.6759C27.1402 60.3908 27.5951 59.9359 27.8802 59.3764C28.2043 58.7403 28.2043 57.9077 28.2043 56.2424L28.2043 4.75756C28.2043 3.09226 28.2043 2.25961 27.8802 1.62355C27.5951 1.06405 27.1402 0.609166 26.5807 0.324089C25.9447 -1.14617e-07 25.112 -1.10939e-07 23.4467 -1.03582e-07L21.9852 -9.71252e-08C21.9129 -9.68054e-08 21.8767 -9.66455e-08 21.8477 0.0105483C21.7991 0.0282315 21.7608 0.0665031 21.7431 0.115087C21.7326 0.144069 21.7326 0.180262 21.7326 0.252648C21.7326 0.831738 21.7326 1.12128 21.6482 1.35313C21.5067 1.74181 21.2006 2.04798 20.8119 2.18945C20.58 2.27383 20.2905 2.27383 19.7114 2.27383L8.49286 2.27383C7.91377 2.27383 7.62423 2.27383 7.39238 2.18945C7.0037 2.04798 6.69753 1.74181 6.55607 1.35313C6.47168 1.12128 6.47168 0.831738 6.47168 0.252648C6.47168 0.180262 6.47168 0.144069 6.46113 0.115087C6.44345 0.0665032 6.40518 0.0282316 6.35659 0.0105484C6.32761 -2.79538e-08 6.29142 -2.77939e-08 6.21903 -2.74741e-08L4.75756 -2.10177e-08C3.09226 -1.36608e-08 2.25961 -9.98236e-09 1.62355 0.324089C1.06405 0.609166 0.609166 1.06405 0.324089 1.62355Z" fill="white"/>
<path d="M0.324089 1.62355C-9.98236e-09 2.25961 -1.36608e-08 3.09226 -2.10177e-08 4.75756L-2.48465e-07 56.2424C-2.55821e-07 57.9077 -2.595e-07 58.7404 0.324089 59.3764C0.609166 59.9359 1.06405 60.3908 1.62354 60.6759C2.25961 61 3.09226 61 4.75756 61L23.4467 61C25.112 61 25.9447 61 26.5807 60.6759C27.1402 60.3908 27.5951 59.9359 27.8802 59.3764C28.2043 58.7403 28.2043 57.9077 28.2043 56.2424L28.2043 4.75756C28.2043 3.09226 28.2043 2.25961 27.8802 1.62355C27.5951 1.06405 27.1402 0.609166 26.5807 0.324089C25.9447 -1.14617e-07 25.112 -1.10939e-07 23.4467 -1.03582e-07L21.9852 -9.71252e-08C21.9129 -9.68054e-08 21.8767 -9.66455e-08 21.8477 0.0105483C21.7991 0.0282315 21.7608 0.0665031 21.7431 0.115087C21.7326 0.144069 21.7326 0.180262 21.7326 0.252648C21.7326 0.831738 21.7326 1.12128 21.6482 1.35313C21.5067 1.74181 21.2006 2.04798 20.8119 2.18945C20.58 2.27383 20.2905 2.27383 19.7114 2.27383L8.49286 2.27383C7.91377 2.27383 7.62423 2.27383 7.39238 2.18945C7.0037 2.04798 6.69753 1.74181 6.55607 1.35313C6.47168 1.12128 6.47168 0.831738 6.47168 0.252648C6.47168 0.180262 6.47168 0.144069 6.46113 0.115087C6.44345 0.0665032 6.40518 0.0282316 6.35659 0.0105484C6.32761 -2.79538e-08 6.29142 -2.77939e-08 6.21903 -2.74741e-08L4.75756 -2.10177e-08C3.09226 -1.36608e-08 2.25961 -9.98236e-09 1.62355 0.324089C1.06405 0.609166 0.609166 1.06405 0.324089 1.62355Z" fill="#231F20"/>
</svg>
