<svg width="8" height="8" viewBox="0 0 8 8" fill="none" xmlns="http://www.w3.org/2000/svg">
<path d="M3.98775 8.00001C3.19783 7.99845 2.42609 7.76254 1.77006 7.32207C1.11402 6.8816 0.603114 6.25634 0.3019 5.5253C0.000686629 4.79426 -0.0773209 3.99024 0.0777354 3.21483C0.232792 2.43942 0.613952 1.72743 1.17306 1.1688C1.73216 0.610176 2.44412 0.229993 3.21898 0.0762878C3.99383 -0.0774174 4.79681 0.0022539 5.52645 0.305234C6.25609 0.608215 6.87966 1.12091 7.31835 1.77854C7.75705 2.43616 7.99119 3.20921 7.99119 4C7.99068 4.5258 7.88672 5.04636 7.68525 5.53194C7.48377 6.01752 7.18874 6.45863 6.81699 6.83006C6.44523 7.2015 6.00404 7.49599 5.5186 7.69673C5.03315 7.89747 4.51297 8.00052 3.98775 8.00001Z" fill="white"/>
</svg>
