<svg width="14" height="14" viewBox="0 0 14 14" fill="none" xmlns="http://www.w3.org/2000/svg">
<path fill-rule="evenodd" clip-rule="evenodd" d="M12.5685 2.98141C12.7325 3.1455 12.8247 3.36802 12.8247 3.60004C12.8247 3.83205 12.7325 4.05457 12.5685 4.21866L6.01007 10.7771C5.92339 10.8638 5.8205 10.9325 5.70724 10.9795C5.59399 11.0264 5.47261 11.0505 5.35002 11.0505C5.22744 11.0505 5.10605 11.0264 4.9928 10.9795C4.87955 10.9325 4.77665 10.8638 4.68998 10.7771L1.43148 7.51917C1.34791 7.43845 1.28125 7.3419 1.23539 7.23514C1.18953 7.12839 1.16539 7.01357 1.16438 6.89739C1.16337 6.78121 1.18551 6.66599 1.22951 6.55845C1.2735 6.45092 1.33848 6.35322 1.42063 6.27107C1.50279 6.18891 1.60048 6.12394 1.70802 6.07994C1.81555 6.03595 1.93077 6.01381 2.04695 6.01482C2.16314 6.01583 2.27795 6.03997 2.38471 6.08582C2.49146 6.13168 2.58801 6.19834 2.66873 6.28191L5.34973 8.96292L11.3307 2.98141C11.4119 2.9001 11.5084 2.8356 11.6146 2.79159C11.7208 2.74758 11.8346 2.72493 11.9496 2.72493C12.0645 2.72493 12.1784 2.74758 12.2846 2.79159C12.3907 2.8356 12.4872 2.9001 12.5685 2.98141Z" fill="white"/>
</svg>
