<svg width="8" height="8" viewBox="0 0 8 8" fill="none" xmlns="http://www.w3.org/2000/svg">
<path d="M3.99752 0.204786C4.74694 0.204786 5.47953 0.42726 6.10265 0.844075C6.72577 1.26089 7.21143 1.85333 7.49822 2.54647C7.78501 3.2396 7.86005 4.00231 7.71385 4.73814C7.56764 5.47398 7.20676 6.14988 6.67684 6.68039C6.14692 7.21089 5.47176 7.57217 4.73674 7.71854C4.00172 7.8649 3.23985 7.78978 2.54748 7.50268C1.85511 7.21557 1.26332 6.72937 0.846968 6.10556C0.430613 5.48175 0.208384 4.74835 0.208384 3.99811C0.209396 2.99237 0.608932 2.02811 1.31931 1.31694C2.0297 0.605778 2.99289 0.205799 3.99752 0.204786ZM3.99752 4.57859e-07C3.2071 -0.00037806 2.43433 0.233946 1.77696 0.673328C1.11959 1.11271 0.60717 1.73741 0.304516 2.46839C0.00186056 3.19938 -0.0774275 4.00381 0.0766829 4.77991C0.230793 5.55602 0.611377 6.26893 1.17029 6.82846C1.7292 7.38799 2.44132 7.76899 3.21657 7.92327C3.99182 8.07755 4.79536 7.99818 5.52554 7.69519C6.25572 7.3922 6.87973 6.87921 7.31863 6.22112C7.75753 5.56302 7.99159 4.7894 7.99121 3.99811C7.99121 2.93774 7.57045 1.92081 6.82149 1.17102C6.07252 0.421229 5.05671 4.57859e-07 3.99752 4.57859e-07Z" fill="#231F20"/>
</svg>
