<svg width="6" height="5" viewBox="0 0 6 5" fill="none" xmlns="http://www.w3.org/2000/svg">
<path d="M4.9572 4.9698C4.95856 4.80269 5.01013 4.63986 5.1052 4.50249C5.20027 4.36513 5.33443 4.25959 5.49024 4.1996C3.66925 3.22304 2.08725 1.85435 0.858186 0.192107C0.820854 0.141885 0.774006 0.0995178 0.720317 0.0674218C0.666629 0.0353259 0.607151 0.0141299 0.545281 0.00504551C0.48341 -0.00403889 0.420358 -0.000833041 0.359724 0.0144771C0.29909 0.0297873 0.242062 0.0569043 0.191896 0.0942782C0.141731 0.131652 0.0994097 0.17855 0.0673492 0.232298C0.0352886 0.286045 0.0141168 0.345589 0.0050424 0.407528C-0.0132841 0.532619 0.0187771 0.659878 0.0941739 0.761305C1.38986 2.51306 3.05272 3.9598 4.96609 5.00003C4.96076 4.98936 4.9572 4.97869 4.9572 4.9698Z" fill="#231F20"/>
</svg>
