<svg width="101" height="82" viewBox="0 0 101 82" fill="none" xmlns="http://www.w3.org/2000/svg">
<g clip-path="url(#clip0_392_2865)">
<path d="M17.5514 55.4235H17.2306C17.188 55.4235 17.1472 55.4066 17.1172 55.3765C17.0871 55.3464 17.0702 55.3056 17.0701 55.2631V54.9422C17.0702 54.8997 17.0871 54.8589 17.1172 54.8289C17.1472 54.7988 17.188 54.7819 17.2306 54.7818H17.5514C17.5939 54.7819 17.6347 54.7988 17.6648 54.8289C17.6949 54.8589 17.7118 54.8997 17.7118 54.9422V55.2631C17.7118 55.3056 17.6949 55.3464 17.6648 55.3765C17.6347 55.4066 17.5939 55.4235 17.5514 55.4235Z" fill="#CCCCCC"/>
<path d="M17.3981 55.0704C17.3919 55.0704 17.3858 55.0699 17.3798 55.0688C17.3659 55.0665 17.3527 55.0614 17.3408 55.0539C17.3289 55.0464 17.3186 55.0366 17.3105 55.0251C17.3024 55.0136 17.2966 55.0007 17.2935 54.987C17.2904 54.9732 17.29 54.959 17.2924 54.9452L18.3514 48.7831C18.3564 48.7552 18.3721 48.7305 18.3953 48.7142C18.4184 48.698 18.4471 48.6916 18.4749 48.6964C18.5028 48.7012 18.5277 48.7168 18.5441 48.7398C18.5604 48.7628 18.5671 48.7914 18.5625 48.8193L17.5035 54.9815C17.4992 55.0063 17.4863 55.0289 17.467 55.0452C17.4477 55.0614 17.4233 55.0704 17.3981 55.0704Z" fill="#CCCCCC"/>
<path d="M17.3975 55.0704C17.3723 55.0704 17.3479 55.0614 17.3286 55.0452C17.3093 55.0289 17.2964 55.0063 17.2921 54.9815L16.2331 48.8193C16.2285 48.7914 16.2351 48.7628 16.2515 48.7398C16.2679 48.7168 16.2928 48.7012 16.3206 48.6964C16.3485 48.6916 16.3771 48.698 16.4003 48.7142C16.4234 48.7305 16.4392 48.7552 16.4442 48.7831L17.5032 54.9452C17.5055 54.959 17.5052 54.9732 17.5021 54.987C17.499 55.0007 17.4932 55.0136 17.4851 55.0251C17.477 55.0366 17.4667 55.0464 17.4548 55.0539C17.4429 55.0614 17.4296 55.0665 17.4158 55.0688C17.4097 55.0699 17.4036 55.0704 17.3975 55.0704Z" fill="#CCCCCC"/>
<path d="M19.6772 47.7286C19.7804 46.9973 19.3898 46.3375 18.8048 46.2549C18.2197 46.1723 17.6618 46.6982 17.5586 47.4295C17.4715 48.0462 17.7364 48.6107 18.1723 48.8223L18.1475 48.9981L18.6771 49.0729L18.7019 48.8971C19.1793 48.8144 19.5901 48.3453 19.6772 47.7286Z" fill="#FF6584"/>
<path d="M17.2179 47.3957C17.0911 46.6681 16.5166 46.1605 15.9345 46.2618C15.3524 46.3632 14.9833 47.0352 15.11 47.7628C15.2169 48.3764 15.6426 48.832 16.1224 48.8993L16.1529 49.0743L16.6798 48.9825L16.6494 48.8075C17.0782 48.582 17.3247 48.0093 17.2179 47.3957Z" fill="#CCCCCC"/>
<path d="M17.3916 54.9428C17.3632 54.9428 17.3359 54.9315 17.3159 54.9114C17.2958 54.8914 17.2845 54.8641 17.2845 54.8357V48.5011C17.2844 48.4869 17.2871 48.4729 17.2924 48.4598C17.2977 48.4467 17.3056 48.4348 17.3155 48.4247C17.3255 48.4147 17.3373 48.4067 17.3504 48.4013C17.3634 48.3958 17.3774 48.393 17.3916 48.393C17.4057 48.393 17.4197 48.3958 17.4328 48.4013C17.4458 48.4067 17.4577 48.4147 17.4676 48.4247C17.4776 48.4348 17.4855 48.4467 17.4908 48.4598C17.4961 48.4729 17.4988 48.4869 17.4987 48.5011V54.8357C17.4987 54.8641 17.4874 54.8914 17.4673 54.9114C17.4472 54.9315 17.42 54.9428 17.3916 54.9428Z" fill="#CCCCCC"/>
<path d="M18.3952 47.2838C18.3952 46.5453 17.9162 45.9466 17.3254 45.9466C16.7345 45.9466 16.2556 46.5453 16.2556 47.2838C16.2556 47.9066 16.5968 48.4285 17.0579 48.5772V48.7547H17.5928V48.5772C18.054 48.4285 18.3952 47.9066 18.3952 47.2838Z" fill="#362FD9"/>
<path d="M67.256 81.5906L67.2345 81.5886L33.7437 78.4775L3.28931 81.3065C2.87221 81.3453 2.45162 81.2966 2.05442 81.1635C1.65723 81.0305 1.29216 80.816 0.98256 80.5339C0.672962 80.2517 0.425647 79.908 0.256423 79.5248C0.087198 79.1416 -0.000212286 78.7274 -0.000219032 78.3085V5.87892C-0.00329326 5.12769 0.275823 4.40269 0.781869 3.84746C1.28791 3.29223 1.98399 2.94726 2.73229 2.88085L33.7437 0L33.7651 0.00203458L67.256 3.11314L97.7102 0.284092C98.1273 0.245345 98.5479 0.294054 98.9451 0.427104C99.3423 0.560155 99.7074 0.774617 100.017 1.05678C100.327 1.33895 100.574 1.68261 100.743 2.0658C100.912 2.44899 101 2.86327 101 3.28216V75.7117C101.003 76.4629 100.724 77.1879 100.218 77.7431C99.7116 78.2984 99.0156 78.6434 98.2673 78.7098L67.256 81.5906ZM33.7437 78.0122L33.7651 78.0143L67.256 81.1254L98.2244 78.2486C98.8576 78.1924 99.4466 77.9005 99.8748 77.4306C100.303 76.9608 100.539 76.3473 100.537 75.7117V3.28216C100.537 2.92771 100.463 2.57716 100.319 2.25293C100.176 1.92869 99.9669 1.63789 99.7049 1.39913C99.443 1.16037 99.1341 0.978896 98.798 0.866312C98.4619 0.753727 98.106 0.712508 97.7531 0.74529L67.256 3.57841L67.2345 3.57638L33.7437 0.46527L2.77514 3.34205C2.14196 3.39827 1.55298 3.69018 1.12479 4.15999C0.696596 4.6298 0.460419 5.24326 0.463012 5.87892V78.3085C0.463016 78.6629 0.536977 79.0135 0.680165 79.3377C0.823354 79.6619 1.03262 79.9527 1.29459 80.1915C1.55655 80.4303 1.86546 80.6117 2.20155 80.7243C2.53764 80.8369 2.89352 80.8781 3.24645 80.8453L33.7437 78.0122Z" fill="#E6E6E6"/>
<path d="M96.4984 18.5371C96.4984 16.4775 94.8276 11.5901 92.7666 11.5901C90.7055 11.5901 89.0347 16.4775 89.0347 18.5371C89.0354 19.5265 89.4288 20.4751 90.1286 21.1745C90.8284 21.8738 91.7772 22.2667 92.7666 22.2667C93.7559 22.2667 94.7048 21.8738 95.4046 21.1745C96.1043 20.4751 96.4978 19.5265 96.4984 18.5371Z" fill="#3F3D56"/>
<path d="M92.7659 26.801C92.7546 26.801 92.7438 26.7965 92.7358 26.7885C92.7278 26.7805 92.7233 26.7697 92.7233 26.7583V18.0467C92.7233 18.0354 92.7278 18.0246 92.7358 18.0167C92.7438 18.0087 92.7547 18.0043 92.7659 18.0043C92.7772 18.0043 92.788 18.0087 92.796 18.0167C92.804 18.0246 92.8085 18.0354 92.8086 18.0467V26.7583C92.8086 26.7639 92.8075 26.7695 92.8054 26.7747C92.8032 26.7798 92.8001 26.7846 92.7961 26.7885C92.7921 26.7925 92.7874 26.7956 92.7823 26.7978C92.7771 26.7999 92.7715 26.801 92.7659 26.801Z" fill="#CCCCCC"/>
<path d="M92.7665 19.6741C92.7603 19.6741 92.7543 19.6728 92.7487 19.6703C92.7432 19.6677 92.7382 19.664 92.7342 19.6594L90.5879 17.1843C90.5806 17.1757 90.5769 17.1646 90.5777 17.1533C90.5785 17.142 90.5838 17.1316 90.5923 17.1241C90.6008 17.1167 90.612 17.113 90.6232 17.1138C90.6345 17.1146 90.645 17.1198 90.6524 17.1283L92.7987 19.6035C92.804 19.6096 92.8075 19.6172 92.8087 19.6253C92.8098 19.6334 92.8087 19.6417 92.8053 19.6491C92.8019 19.6566 92.7964 19.6629 92.7895 19.6673C92.7827 19.6717 92.7746 19.6741 92.7665 19.6741Z" fill="#CCCCCC"/>
<path d="M92.7659 21.1027C92.7575 21.1026 92.7492 21.1001 92.7422 21.0955C92.7352 21.0908 92.7297 21.0841 92.7265 21.0763C92.7233 21.0685 92.7224 21.0599 92.7241 21.0517C92.7257 21.0434 92.7298 21.0358 92.7358 21.0298L93.9553 19.8102C93.9593 19.8063 93.964 19.8031 93.9691 19.801C93.9743 19.7988 93.9799 19.7977 93.9855 19.7977C93.9911 19.7977 93.9966 19.7988 94.0018 19.801C94.007 19.8031 94.0117 19.8063 94.0156 19.8102C94.0196 19.8142 94.0227 19.8189 94.0249 19.8241C94.027 19.8293 94.0281 19.8348 94.0281 19.8404C94.0281 19.846 94.027 19.8516 94.0249 19.8567C94.0227 19.8619 94.0196 19.8666 94.0156 19.8706L92.7961 21.0901C92.7921 21.0941 92.7874 21.0973 92.7823 21.0994C92.7771 21.1016 92.7715 21.1027 92.7659 21.1027Z" fill="#CCCCCC"/>
<path d="M88.7247 26.7444C88.7247 26.3312 88.8888 25.9349 89.181 25.6428C89.4731 25.3506 89.8694 25.1865 90.2826 25.1865C90.6958 25.1865 91.0921 25.3506 91.3842 25.6428C91.6764 25.9349 91.8406 26.3312 91.8406 26.7444" fill="#F2F2F2"/>
<path d="M90.2825 26.7443C90.2713 26.7443 90.2606 26.7398 90.2527 26.7319C90.2448 26.724 90.2404 26.7133 90.2404 26.7022V25.8811C90.2404 25.8699 90.2448 25.8592 90.2527 25.8513C90.2606 25.8434 90.2713 25.839 90.2825 25.839C90.2937 25.839 90.3044 25.8434 90.3123 25.8513C90.3202 25.8592 90.3246 25.8699 90.3246 25.8811V26.7022C90.3246 26.7133 90.3202 26.724 90.3123 26.7319C90.3044 26.7398 90.2937 26.7443 90.2825 26.7443Z" fill="#CCCCCC"/>
<path d="M90.2812 26.4617C90.2712 26.4617 90.2614 26.4581 90.2538 26.4516L89.7492 26.0184C89.745 26.0148 89.7415 26.0104 89.739 26.0055C89.7365 26.0006 89.735 25.9952 89.7346 25.9897C89.7342 25.9842 89.7349 25.9787 89.7366 25.9734C89.7383 25.9682 89.7411 25.9633 89.7447 25.9591C89.7482 25.9549 89.7526 25.9515 89.7576 25.949C89.7625 25.9465 89.7679 25.945 89.7734 25.9446C89.7789 25.9442 89.7844 25.9448 89.7897 25.9465C89.7949 25.9483 89.7998 25.951 89.804 25.9546L90.3086 26.3877C90.3151 26.3933 90.3198 26.4008 90.3219 26.4091C90.3241 26.4174 90.3237 26.4262 90.3207 26.4343C90.3177 26.4423 90.3123 26.4493 90.3052 26.4542C90.2982 26.4591 90.2898 26.4617 90.2812 26.4617Z" fill="#CCCCCC"/>
<path d="M93.5239 26.7444C93.5239 26.3312 93.688 25.9349 93.9802 25.6428C94.2723 25.3506 94.6686 25.1865 95.0818 25.1865C95.495 25.1865 95.8913 25.3506 96.1834 25.6428C96.4756 25.9349 96.6397 26.3312 96.6397 26.7444" fill="#F2F2F2"/>
<path d="M95.0827 26.7443C95.0715 26.7443 95.0608 26.7398 95.0529 26.7319C95.045 26.724 95.0406 26.7133 95.0406 26.7022V25.8811C95.0406 25.8699 95.045 25.8592 95.0529 25.8513C95.0608 25.8434 95.0715 25.839 95.0827 25.839C95.0938 25.839 95.1045 25.8434 95.1124 25.8513C95.1203 25.8592 95.1248 25.8699 95.1248 25.8811V26.7022C95.1248 26.7133 95.1203 26.724 95.1124 26.7319C95.1045 26.7398 95.0938 26.7443 95.0827 26.7443Z" fill="#CCCCCC"/>
<path d="M95.0815 26.4618C95.0714 26.4618 95.0617 26.4582 95.0541 26.4517L94.5494 26.0185C94.541 26.0112 94.5358 26.0009 94.535 25.9898C94.5342 25.9787 94.5378 25.9678 94.5451 25.9594C94.5523 25.9509 94.5626 25.9457 94.5737 25.9448C94.5847 25.9439 94.5957 25.9475 94.6042 25.9547L95.1089 26.3878C95.1154 26.3934 95.12 26.4009 95.1222 26.4092C95.1243 26.4175 95.1239 26.4263 95.1209 26.4344C95.1179 26.4424 95.1125 26.4494 95.1055 26.4543C95.0984 26.4592 95.0901 26.4618 95.0815 26.4618Z" fill="#CCCCCC"/>
<path d="M47.4126 12.6381C48.4361 11.173 49.6764 6.86611 48.2103 5.84189C46.7442 4.81768 43.127 7.46398 42.1035 8.92907C41.612 9.63312 41.4202 10.5035 41.5704 11.3489C41.7205 12.1943 42.2003 12.9455 42.9042 13.4372C43.608 13.929 44.4784 14.121 45.3238 13.9712C46.1693 13.8213 46.9206 13.3418 47.4126 12.6381Z" fill="#F2F2F2"/>
<path d="M40.6517 16.662C40.6436 16.6564 40.6381 16.6478 40.6364 16.6381C40.6347 16.6285 40.6369 16.6185 40.6425 16.6105L44.9717 10.4136C44.9773 10.4055 44.9859 10.4 44.9956 10.3983C45.0053 10.3966 45.0152 10.3988 45.0233 10.4044C45.0313 10.41 45.0368 10.4186 45.0385 10.4283C45.0403 10.438 45.0381 10.4479 45.0324 10.456L40.7032 16.6529C40.6976 16.6609 40.689 16.6664 40.6794 16.6681C40.6697 16.6698 40.6597 16.6677 40.6517 16.662Z" fill="#CCCCCC"/>
<path d="M44.193 11.5923C44.1887 11.5893 44.185 11.5853 44.1823 11.5808C44.1796 11.5762 44.1779 11.5711 44.1774 11.5658L43.8807 8.73858C43.8797 8.72881 43.8826 8.71903 43.8887 8.7114C43.8949 8.70376 43.9039 8.6989 43.9137 8.69788C43.9234 8.69685 43.9332 8.69975 43.9408 8.70593C43.9485 8.71211 43.9533 8.72107 43.9544 8.73084L44.2511 11.5581C44.2518 11.5651 44.2505 11.5722 44.2473 11.5786C44.2441 11.5849 44.2392 11.5902 44.233 11.5938C44.2269 11.5974 44.2199 11.5992 44.2128 11.5989C44.2057 11.5987 44.1989 11.5964 44.193 11.5923Z" fill="#CCCCCC"/>
<path d="M43.4827 12.6086C43.4767 12.6044 43.4721 12.5985 43.4694 12.5917C43.4667 12.5849 43.4662 12.5774 43.4678 12.5703C43.4693 12.5631 43.473 12.5566 43.4783 12.5515C43.4836 12.5465 43.4902 12.5431 43.4974 12.5418L44.971 12.2803C44.9758 12.2795 44.9807 12.2795 44.9855 12.2806C44.9903 12.2816 44.9948 12.2836 44.9988 12.2863C45.0028 12.2891 45.0062 12.2927 45.0088 12.2968C45.0115 12.3009 45.0133 12.3055 45.0141 12.3103C45.015 12.3151 45.0149 12.32 45.0138 12.3248C45.0128 12.3295 45.0108 12.3341 45.008 12.338C45.0051 12.342 45.0016 12.3454 44.9975 12.348C44.9933 12.3507 44.9887 12.3524 44.9839 12.3532L43.5104 12.6147C43.5056 12.6156 43.5007 12.6155 43.4959 12.6144C43.4912 12.6134 43.4867 12.6114 43.4827 12.6086Z" fill="#CCCCCC"/>
<path d="M37.8041 14.6132C38.0098 14.3202 38.3233 14.1207 38.6759 14.0586C39.0285 13.9964 39.3913 14.0767 39.6848 14.2817C39.9782 14.4867 40.1784 14.7998 40.2414 15.1522C40.3043 15.5046 40.2249 15.8676 40.0205 16.1616" fill="#F2F2F2"/>
<path d="M38.9126 15.3864C38.9046 15.3809 38.8992 15.3724 38.8975 15.3629C38.8958 15.3533 38.898 15.3435 38.9035 15.3356L39.3111 14.7522C39.3166 14.7444 39.3251 14.739 39.3346 14.7374C39.3441 14.7357 39.3539 14.7379 39.3618 14.7434C39.3697 14.7489 39.3751 14.7573 39.3768 14.7668C39.3785 14.7763 39.3764 14.7861 39.3709 14.794L38.9634 15.3774C38.9578 15.3853 38.9494 15.3907 38.9398 15.3924C38.9303 15.3941 38.9205 15.3919 38.9126 15.3864Z" fill="#CCCCCC"/>
<path d="M39.0526 15.1857C39.0455 15.1808 39.0404 15.1734 39.0382 15.1649L38.8945 14.606C38.8933 14.6014 38.893 14.5965 38.8936 14.5918C38.8943 14.587 38.8959 14.5824 38.8983 14.5783C38.9008 14.5741 38.904 14.5705 38.9078 14.5676C38.9117 14.5647 38.916 14.5626 38.9207 14.5614C38.9254 14.5602 38.9302 14.56 38.935 14.5607C38.9397 14.5613 38.9443 14.563 38.9484 14.5654C38.9525 14.5679 38.9562 14.5711 38.959 14.575C38.9619 14.5788 38.964 14.5832 38.9652 14.5878L39.1089 15.1467C39.1108 15.154 39.1104 15.1616 39.1078 15.1686C39.1052 15.1756 39.1005 15.1816 39.0944 15.1858C39.0882 15.1901 39.0809 15.1923 39.0735 15.1923C39.066 15.1923 39.0588 15.19 39.0526 15.1857Z" fill="#CCCCCC"/>
<path d="M41.2189 16.9984C41.3204 16.8524 41.4497 16.7279 41.5994 16.632C41.749 16.536 41.9162 16.4705 42.0912 16.4393C42.2662 16.408 42.4457 16.4116 42.6193 16.4498C42.793 16.488 42.9574 16.5601 43.1031 16.6619C43.2489 16.7637 43.3731 16.8933 43.4687 17.0432C43.5643 17.1931 43.6294 17.3603 43.6602 17.5354C43.6911 17.7105 43.6871 17.89 43.6485 18.0635C43.6099 18.2371 43.5375 18.4013 43.4353 18.5468" fill="#F2F2F2"/>
<path d="M42.3269 17.772C42.3189 17.7665 42.3135 17.758 42.3118 17.7485C42.3101 17.7389 42.3123 17.7291 42.3178 17.7212L42.7254 17.1378C42.7309 17.1299 42.7394 17.1245 42.7489 17.1228C42.7585 17.1211 42.7683 17.1233 42.7762 17.1288C42.7841 17.1344 42.7895 17.1428 42.7912 17.1524C42.7929 17.1619 42.7908 17.1717 42.7852 17.1796L42.3777 17.763C42.3721 17.7709 42.3637 17.7763 42.3541 17.778C42.3446 17.7797 42.3348 17.7776 42.3269 17.772Z" fill="#CCCCCC"/>
<path d="M42.4674 17.571C42.4602 17.566 42.4551 17.5586 42.4529 17.5501L42.3092 16.9912C42.3069 16.9819 42.3083 16.972 42.3132 16.9637C42.3182 16.9554 42.3262 16.9494 42.3355 16.947C42.3448 16.9446 42.3548 16.946 42.3631 16.9509C42.3714 16.9558 42.3774 16.9637 42.3799 16.9731L42.5236 17.532C42.5255 17.5392 42.5251 17.5468 42.5225 17.5538C42.5199 17.5608 42.5152 17.5668 42.5091 17.5711C42.5029 17.5753 42.4957 17.5776 42.4882 17.5775C42.4808 17.5775 42.4735 17.5752 42.4674 17.571Z" fill="#CCCCCC"/>
<path d="M68.4124 44.5962C69.2358 45.3524 70.0538 46.1141 70.8664 46.8811C70.6579 46.8927 70.4414 46.902 70.219 46.9089C69.9051 46.9193 69.5786 46.924 69.2358 46.924C65.4755 46.924 63.5669 46.3067 61.7233 45.7091C59.9722 45.1428 58.3185 44.6078 54.923 44.6078C51.5264 44.6078 49.8726 45.1428 48.1227 45.7091C46.2779 46.3067 44.3694 46.924 40.6091 46.924C36.8477 46.924 34.9403 46.3067 33.0955 45.7091C31.385 45.1556 29.7671 44.6321 26.5268 44.6089C26.4503 44.6078 26.374 44.6078 26.2952 44.6078V42.2916C26.3728 42.2916 26.4503 42.2916 26.5268 42.2928C30.1354 42.3171 32.0023 42.9216 33.8088 43.5053C35.5599 44.0728 37.2136 44.6078 40.6091 44.6078C44.0046 44.6078 45.6584 44.0728 47.4094 43.5053C49.2542 42.9089 51.1616 42.2916 54.923 42.2916C58.6833 42.2916 60.5907 42.9089 62.4355 43.5053C63.8982 43.9789 65.2937 44.4306 67.6932 44.5661C67.9237 44.58 68.1622 44.5893 68.4124 44.5962Z" fill="#362FD9"/>
<path d="M97.8646 44.6078V46.924C94.1032 46.924 92.1958 46.3067 90.351 45.7091C88.5999 45.1428 86.9462 44.6078 83.5507 44.6078C80.154 44.6078 78.5003 45.1428 76.7493 45.7091C76.6543 45.7404 76.5582 45.7705 76.4621 45.8018C76.2976 45.855 76.1309 45.9083 75.9618 45.9604C75.3225 45.3339 74.6809 44.7128 74.037 44.0971C74.2165 44.0531 74.3902 44.0067 74.5617 43.9593C75.0724 43.818 75.5506 43.6628 76.0371 43.5053C77.8819 42.9089 79.7892 42.2916 83.5507 42.2916C87.3121 42.2916 89.2195 42.9089 91.0644 43.5053C92.8154 44.0728 94.4691 44.6078 97.8646 44.6078Z" fill="#362FD9"/>
<path d="M46.6855 26.7952C40.2025 22.0737 33.3814 17.5965 26.4132 13.4888L26.0635 13.2827V27.2144H47.2611L46.6855 26.7952ZM26.5267 26.7512V14.0945C33.1556 18.0158 39.6467 22.2706 45.8366 26.7512H26.5267ZM79.4951 55.4265C76.6914 52.5116 73.8151 49.6631 70.8663 46.881C70.0533 46.1132 69.2353 45.3516 68.4123 44.5961C63.3897 39.9823 58.2019 35.5943 52.8488 31.4322L52.7863 31.3835H26.0635V55.8191H79.8727L79.4951 55.4265ZM26.5267 55.3559V31.8468H52.6276C57.7892 35.8618 62.8111 40.1016 67.6931 44.566C68.5408 45.3408 69.3828 46.1217 70.2189 46.9088C73.1419 49.6558 75.9966 52.4715 78.7829 55.3559H26.5267ZM79.4951 55.4265C76.6914 52.5116 73.8151 49.6631 70.8663 46.881C70.0533 46.1132 69.2353 45.3516 68.4123 44.5961C63.3897 39.9823 58.2019 35.5943 52.8488 31.4322L52.7863 31.3835H26.0635V55.8191H79.8727L79.4951 55.4265ZM26.5267 55.3559V31.8468H52.6276C57.7892 35.8618 62.8111 40.1016 67.6931 44.566C68.5408 45.3408 69.3828 46.1217 70.2189 46.9088C73.1419 49.6558 75.9966 52.4715 78.7829 55.3559H26.5267ZM46.6855 26.7952C40.2025 22.0737 33.3814 17.5965 26.4132 13.4888L26.0635 13.2827V27.2144H47.2611L46.6855 26.7952ZM26.5267 26.7512V14.0945C33.1556 18.0158 39.6467 22.2706 45.8366 26.7512H26.5267ZM46.6855 26.7952C40.2025 22.0737 33.3814 17.5965 26.4132 13.4888L26.0635 13.2827V27.2144H47.2611L46.6855 26.7952ZM26.5267 26.7512V14.0945C33.1556 18.0158 39.6467 22.2706 45.8366 26.7512H26.5267ZM79.4951 55.4265C76.6914 52.5116 73.8151 49.6631 70.8663 46.881C70.0533 46.1132 69.2353 45.3516 68.4123 44.5961C63.3897 39.9823 58.2019 35.5943 52.8488 31.4322L52.7863 31.3835H26.0635V55.8191H79.8727L79.4951 55.4265ZM26.5267 55.3559V31.8468H52.6276C57.7892 35.8618 62.8111 40.1016 67.6931 44.566C68.5408 45.3408 69.3828 46.1217 70.2189 46.9088C73.1419 49.6558 75.9966 52.4715 78.7829 55.3559H26.5267ZM3.13573 59.9882V60.4514H21.4311V67.1683H3.13573V67.6316H21.8944V59.9882H3.13573ZM26.0635 71.8007V76.4944L26.5267 76.4515V72.2639H97.8647V71.8007H26.0635ZM97.8647 60.4514V59.9882H26.0635V67.6316H97.8647V67.1683H26.5267V60.4514H97.8647ZM54.6045 26.7512C45.7175 19.8958 36.3323 13.7119 26.5267 8.25081V3.56057L26.0635 3.60342V8.32996L26.4202 8.72215C36.1858 14.1684 45.533 20.3333 54.3844 27.1658L54.4469 27.2144H97.8647V26.7512H54.6045ZM21.4311 26.7512H3.13573V27.2144H21.8944V3.99022L21.4311 4.03307V26.7512ZM97.8647 31.3835H59.6954L60.1946 31.7935C64.894 35.6603 69.5082 39.7615 74.0371 44.097C74.681 44.7131 75.3226 45.3342 75.9619 45.9603C79.1443 49.0698 82.2645 52.2808 85.3227 55.5933L85.7046 55.8191H97.8647V55.3559H85.7338C82.7088 52.0762 79.6183 48.8914 76.4621 45.8017C75.831 45.1833 75.1976 44.5691 74.5617 43.9592C70.1309 39.7078 65.6055 35.6704 60.9855 31.8468H97.8647V31.3835ZM3.13573 71.8007V72.2639H21.4311V76.924L21.8944 76.8812V71.8007H3.13573ZM3.13573 31.3835V31.8468H21.4311V55.3559H3.13573V55.8191H21.8944V31.3835H3.13573ZM46.6855 26.7952C40.2025 22.0737 33.3814 17.5965 26.4132 13.4888L26.0635 13.2827V27.2144H47.2611L46.6855 26.7952ZM26.5267 26.7512V14.0945C33.1556 18.0158 39.6467 22.2706 45.8366 26.7512H26.5267ZM79.4951 55.4265C76.6914 52.5116 73.8151 49.6631 70.8663 46.881C70.0533 46.1132 69.2353 45.3516 68.4123 44.5961C63.3897 39.9823 58.2019 35.5943 52.8488 31.4322L52.7863 31.3835H26.0635V55.8191H79.8727L79.4951 55.4265ZM26.5267 55.3559V31.8468H52.6276C57.7892 35.8618 62.8111 40.1016 67.6931 44.566C68.5408 45.3408 69.3828 46.1217 70.2189 46.9088C73.1419 49.6558 75.9966 52.4715 78.7829 55.3559H26.5267ZM46.6855 26.7952C40.2025 22.0737 33.3814 17.5965 26.4132 13.4888L26.0635 13.2827V27.2144H47.2611L46.6855 26.7952ZM26.5267 26.7512V14.0945C33.1556 18.0158 39.6467 22.2706 45.8366 26.7512H26.5267ZM79.4951 55.4265C76.6914 52.5116 73.8151 49.6631 70.8663 46.881C70.0533 46.1132 69.2353 45.3516 68.4123 44.5961C63.3897 39.9823 58.2019 35.5943 52.8488 31.4322L52.7863 31.3835H26.0635V55.8191H79.8727L79.4951 55.4265ZM26.5267 55.3559V31.8468H52.6276C57.7892 35.8618 62.8111 40.1016 67.6931 44.566C68.5408 45.3408 69.3828 46.1217 70.2189 46.9088C73.1419 49.6558 75.9966 52.4715 78.7829 55.3559H26.5267Z" fill="#3F3D56"/>
<path d="M58.801 42.5478C58.801 40.5083 60.4544 35.6684 62.494 35.6684C64.5336 35.6684 66.187 40.5083 66.187 42.5478C66.187 43.5273 65.7979 44.4666 65.1053 45.1592C64.4128 45.8517 63.4735 46.2408 62.494 46.2408C61.5146 46.2408 60.5753 45.8517 59.8827 45.1592C59.1901 44.4666 58.801 43.5273 58.801 42.5478Z" fill="#F2F2F2"/>
<path d="M62.4938 51.5326C62.4898 51.5326 62.4859 51.5319 62.4822 51.5303C62.4785 51.5288 62.4751 51.5266 62.4723 51.5237C62.4695 51.5209 62.4673 51.5176 62.4657 51.5139C62.4642 51.5102 62.4634 51.5063 62.4634 51.5023V38.7701C62.4634 38.762 62.4666 38.7543 62.4723 38.7486C62.478 38.7429 62.4857 38.7397 62.4938 38.7397C62.5018 38.7397 62.5096 38.7429 62.5153 38.7486C62.521 38.7543 62.5242 38.762 62.5242 38.7701V51.5023C62.5242 51.5063 62.5234 51.5102 62.5219 51.5139C62.5203 51.5176 62.5181 51.5209 62.5153 51.5237C62.5124 51.5266 62.5091 51.5288 62.5054 51.5303C62.5017 51.5319 62.4978 51.5326 62.4938 51.5326Z" fill="#3F3D56"/>
<path d="M62.4942 41.228C62.4902 41.228 62.4862 41.2272 62.4826 41.2257C62.4789 41.2242 62.4755 41.2219 62.4727 41.2191L61.011 39.7575C61.0082 39.7546 61.006 39.7513 61.0044 39.7476C61.0029 39.7439 61.0021 39.74 61.0021 39.736C61.0021 39.732 61.0029 39.728 61.0044 39.7244C61.006 39.7207 61.0082 39.7173 61.011 39.7145C61.0138 39.7117 61.0172 39.7095 61.0209 39.7079C61.0246 39.7064 61.0285 39.7056 61.0325 39.7056C61.0365 39.7056 61.0404 39.7064 61.0441 39.7079C61.0478 39.7095 61.0511 39.7117 61.054 39.7145L62.5157 41.1762C62.5199 41.1804 62.5228 41.1858 62.524 41.1917C62.5251 41.1976 62.5245 41.2037 62.5222 41.2093C62.5199 41.2148 62.516 41.2196 62.511 41.2229C62.5061 41.2262 62.5002 41.228 62.4942 41.228Z" fill="#3F3D56"/>
<path d="M62.4938 43.7587C62.4878 43.7587 62.4819 43.757 62.4769 43.7536C62.4719 43.7503 62.468 43.7456 62.4657 43.74C62.4634 43.7345 62.4628 43.7283 62.464 43.7225C62.4652 43.7166 62.4681 43.7112 62.4723 43.7069L64.9201 41.2591C64.923 41.2562 64.9263 41.254 64.93 41.2525C64.9337 41.2509 64.9376 41.2502 64.9416 41.2502C64.9456 41.2502 64.9496 41.2509 64.9532 41.2525C64.9569 41.254 64.9603 41.2562 64.9631 41.2591C64.9659 41.2619 64.9682 41.2652 64.9697 41.2689C64.9712 41.2726 64.972 41.2765 64.972 41.2805C64.972 41.2845 64.9712 41.2885 64.9697 41.2921C64.9682 41.2958 64.9659 41.2992 64.9631 41.302L62.5153 43.7498C62.5124 43.7527 62.5091 43.7549 62.5054 43.7564C62.5017 43.758 62.4978 43.7588 62.4938 43.7587Z" fill="#3F3D56"/>
<path d="M79.5077 32.1253C79.5077 30.0857 81.1611 25.2459 83.2006 25.2459C85.2402 25.2459 86.8936 30.0857 86.8936 32.1253C86.893 33.1044 86.5037 34.0431 85.8112 34.7352C85.1187 35.4272 84.1797 35.816 83.2006 35.816C82.2216 35.816 81.2826 35.4272 80.5901 34.7352C79.8976 34.0431 79.5083 33.1044 79.5077 32.1253Z" fill="#362FD9"/>
<path d="M83.2007 41.1097C83.1967 41.1097 83.1927 41.1089 83.189 41.1074C83.1854 41.1059 83.182 41.1037 83.1792 41.1008C83.1764 41.098 83.1741 41.0947 83.1726 41.091C83.1711 41.0873 83.1703 41.0834 83.1703 41.0794V28.3472C83.1703 28.3391 83.1735 28.3314 83.1792 28.3257C83.1849 28.32 83.1926 28.3168 83.2007 28.3168C83.2087 28.3168 83.2164 28.32 83.2221 28.3257C83.2278 28.3314 83.231 28.3391 83.231 28.3472V41.0794C83.231 41.0834 83.2302 41.0873 83.2287 41.091C83.2272 41.0947 83.225 41.098 83.2221 41.1008C83.2193 41.1037 83.216 41.1059 83.2123 41.1074C83.2086 41.1089 83.2047 41.1097 83.2007 41.1097Z" fill="#3F3D56"/>
<path d="M83.2011 30.8052C83.1971 30.8052 83.1931 30.8045 83.1894 30.8029C83.1857 30.8014 83.1824 30.7992 83.1796 30.7963L81.7179 29.3347C81.7122 29.329 81.709 29.3213 81.709 29.3132C81.709 29.3051 81.7122 29.2974 81.7179 29.2917C81.7236 29.286 81.7313 29.2828 81.7394 29.2828C81.7474 29.2828 81.7551 29.286 81.7608 29.2917L83.2225 30.7534C83.2268 30.7576 83.2297 30.7631 83.2308 30.7689C83.232 30.7748 83.2314 30.7809 83.2291 30.7865C83.2268 30.792 83.2229 30.7968 83.2179 30.8001C83.2129 30.8035 83.2071 30.8052 83.2011 30.8052Z" fill="#3F3D56"/>
<path d="M83.2007 33.3357C83.1947 33.3357 83.1888 33.3339 83.1838 33.3306C83.1788 33.3273 83.1749 33.3225 83.1726 33.317C83.1703 33.3114 83.1697 33.3053 83.1709 33.2994C83.172 33.2935 83.1749 33.2881 83.1792 33.2839L85.627 30.836C85.6327 30.8304 85.6404 30.8272 85.6485 30.8273C85.6565 30.8273 85.6642 30.8305 85.6698 30.8362C85.6755 30.8418 85.6787 30.8495 85.6787 30.8575C85.6788 30.8656 85.6756 30.8733 85.67 30.879L83.2221 33.3268C83.2193 33.3296 83.216 33.3319 83.2123 33.3334C83.2086 33.3349 83.2047 33.3357 83.2007 33.3357Z" fill="#3F3D56"/>
<path d="M34.1678 33.1675C34.1678 31.1279 35.8212 26.2881 37.8608 26.2881C39.9004 26.2881 41.5538 31.1279 41.5538 33.1675C41.5538 34.1469 41.1647 35.0863 40.4722 35.7788C39.7796 36.4714 38.8403 36.8605 37.8608 36.8605C36.8814 36.8605 35.9421 36.4714 35.2495 35.7788C34.5569 35.0863 34.1678 34.1469 34.1678 33.1675Z" fill="#362FD9"/>
<path d="M37.8608 42.152C37.8568 42.152 37.8529 42.1513 37.8492 42.1497C37.8455 42.1482 37.8422 42.146 37.8394 42.1432C37.8365 42.1403 37.8343 42.137 37.8328 42.1333C37.8313 42.1296 37.8305 42.1257 37.8305 42.1217V29.3895C37.8305 29.3814 37.8337 29.3737 37.8394 29.368C37.8451 29.3623 37.8528 29.3591 37.8608 29.3591C37.8689 29.3591 37.8766 29.3623 37.8823 29.368C37.888 29.3737 37.8912 29.3814 37.8912 29.3895V42.1217C37.8912 42.1257 37.8904 42.1296 37.8889 42.1333C37.8874 42.137 37.8851 42.1403 37.8823 42.1432C37.8795 42.146 37.8761 42.1482 37.8725 42.1497C37.8688 42.1513 37.8648 42.152 37.8608 42.152Z" fill="#3F3D56"/>
<path d="M37.861 31.8477C37.857 31.8477 37.853 31.8469 37.8494 31.8454C37.8457 31.8438 37.8423 31.8416 37.8395 31.8388L36.3778 30.3771C36.375 30.3743 36.3728 30.3709 36.3712 30.3673C36.3697 30.3636 36.3689 30.3596 36.3689 30.3556C36.3689 30.3516 36.3697 30.3477 36.3712 30.344C36.3728 30.3403 36.375 30.337 36.3778 30.3342C36.3807 30.3313 36.384 30.3291 36.3877 30.3276C36.3914 30.3261 36.3953 30.3253 36.3993 30.3253C36.4033 30.3253 36.4072 30.3261 36.4109 30.3276C36.4146 30.3291 36.418 30.3313 36.4208 30.3342L37.8825 31.7958C37.8867 31.8001 37.8896 31.8055 37.8908 31.8114C37.8919 31.8173 37.8913 31.8234 37.889 31.8289C37.8867 31.8345 37.8828 31.8392 37.8779 31.8426C37.8729 31.8459 37.867 31.8477 37.861 31.8477Z" fill="#3F3D56"/>
<path d="M37.8608 34.3779C37.8548 34.3779 37.849 34.3761 37.844 34.3728C37.839 34.3694 37.8351 34.3647 37.8328 34.3591C37.8305 34.3536 37.8299 34.3475 37.8311 34.3416C37.8322 34.3357 37.8351 34.3303 37.8394 34.326L40.2872 31.8782C40.2929 31.8725 40.3006 31.8693 40.3087 31.8693C40.3167 31.8693 40.3244 31.8725 40.3301 31.8782C40.3358 31.8839 40.339 31.8916 40.339 31.8997C40.339 31.9077 40.3358 31.9154 40.3302 31.9211L37.8823 34.369C37.8795 34.3718 37.8761 34.374 37.8725 34.3756C37.8688 34.3771 37.8648 34.3779 37.8608 34.3779Z" fill="#3F3D56"/>
<path d="M68.2398 22.9929C66.1423 22.9929 64.0919 22.3709 62.3479 21.2056C60.6039 20.0403 59.2446 18.384 58.442 16.4461C57.6393 14.5083 57.4293 12.376 57.8385 10.3188C58.2477 8.26159 59.2577 6.37194 60.7409 4.88878C62.224 3.40563 64.1137 2.39558 66.1709 1.98638C68.2281 1.57718 70.3604 1.7872 72.2982 2.58988C74.2361 3.39255 75.8924 4.75184 77.0577 6.49585C78.223 8.23985 78.845 10.2902 78.845 12.3877C78.8418 15.1994 77.7234 17.895 75.7353 19.8832C73.7471 21.8713 71.0515 22.9897 68.2398 22.9929ZM68.2398 1.92496C66.1705 1.92496 64.1476 2.53859 62.427 3.68826C60.7064 4.83792 59.3654 6.47199 58.5735 8.38381C57.7816 10.2956 57.5744 12.3993 57.9781 14.4289C58.3818 16.4585 59.3783 18.3228 60.8415 19.786C62.3048 21.2493 64.1691 22.2458 66.1986 22.6495C68.2282 23.0532 70.3319 22.846 72.2438 22.0541C74.1556 21.2622 75.7896 19.9211 76.9393 18.2005C78.089 16.48 78.7026 14.4571 78.7026 12.3877C78.6995 9.6138 77.5961 6.95437 75.6347 4.9929C73.6732 3.03143 71.0138 1.9281 68.2398 1.92496Z" fill="#CCCCCC"/>
<path d="M68.2399 11.6048C68.221 11.6048 68.2029 11.5973 68.1895 11.584C68.1762 11.5706 68.1687 11.5525 68.1687 11.5336V1.85378C68.1687 1.8349 68.1762 1.8168 68.1895 1.80345C68.2029 1.7901 68.221 1.7826 68.2399 1.7826C68.2587 1.7826 68.2768 1.7901 68.2902 1.80345C68.3035 1.8168 68.311 1.8349 68.311 1.85378V11.5336C68.311 11.5525 68.3035 11.5706 68.2902 11.584C68.2768 11.5973 68.2587 11.6048 68.2399 11.6048Z" fill="#CCCCCC"/>
<path d="M78.7738 12.4586H69.0939C69.075 12.4586 69.0569 12.4511 69.0436 12.4377C69.0303 12.4244 69.0228 12.4063 69.0228 12.3874C69.0228 12.3685 69.0303 12.3504 69.0436 12.3371C69.0569 12.3237 69.075 12.3162 69.0939 12.3162H78.7738C78.7926 12.3162 78.8108 12.3237 78.8241 12.3371C78.8374 12.3504 78.8449 12.3685 78.8449 12.3874C78.8449 12.4063 78.8374 12.4244 78.8241 12.4377C78.8108 12.4511 78.7926 12.4586 78.7738 12.4586Z" fill="#CCCCCC"/>
<path d="M67.3853 12.4586H57.71C57.6911 12.4586 57.673 12.4511 57.6597 12.4377C57.6463 12.4244 57.6388 12.4063 57.6388 12.3874C57.6388 12.3685 57.6463 12.3504 57.6597 12.3371C57.673 12.3237 57.6911 12.3162 57.71 12.3162H67.3853C67.4042 12.3162 67.4223 12.3237 67.4356 12.3371C67.449 12.3504 67.4564 12.3685 67.4564 12.3874C67.4564 12.4063 67.449 12.4244 67.4356 12.4377C67.4223 12.4511 67.4042 12.4586 67.3853 12.4586Z" fill="#CCCCCC"/>
<path d="M68.2399 22.9926C68.221 22.9926 68.2029 22.9851 68.1895 22.9718C68.1762 22.9584 68.1687 22.9403 68.1687 22.9214V13.2416C68.1687 13.2227 68.1762 13.2046 68.1895 13.1913C68.2029 13.1779 68.221 13.1704 68.2399 13.1704C68.2587 13.1704 68.2768 13.1779 68.2902 13.1913C68.3035 13.2046 68.311 13.2227 68.311 13.2416V22.9214C68.311 22.9403 68.3035 22.9584 68.2902 22.9718C68.2768 22.9851 68.2587 22.9926 68.2399 22.9926Z" fill="#CCCCCC"/>
<path d="M68.8671 11.8806C68.853 11.8806 68.8393 11.8764 68.8275 11.8686C68.8158 11.8608 68.8067 11.8496 68.8013 11.8366C68.796 11.8236 68.7946 11.8093 68.7973 11.7955C68.8 11.7817 68.8068 11.769 68.8168 11.7591L75.6313 4.94448C75.6447 4.93122 75.6628 4.9238 75.6816 4.92383C75.7004 4.92387 75.7185 4.93136 75.7318 4.94467C75.7451 4.95799 75.7526 4.97604 75.7526 4.99486C75.7527 5.01369 75.7452 5.03177 75.732 5.04513L68.9174 11.8597C68.9108 11.8663 68.903 11.8716 68.8943 11.8752C68.8857 11.8788 68.8764 11.8806 68.8671 11.8806Z" fill="#CCCCCC"/>
<path d="M67.612 11.8806C67.6027 11.8806 67.5934 11.8788 67.5848 11.8752C67.5762 11.8716 67.5683 11.8663 67.5617 11.8597L60.7471 5.04513C60.7339 5.03177 60.7264 5.01369 60.7265 4.99486C60.7265 4.97604 60.734 4.95799 60.7473 4.94467C60.7606 4.93136 60.7787 4.92387 60.7975 4.92383C60.8163 4.9238 60.8344 4.93122 60.8478 4.94448L67.6624 11.7591C67.6723 11.769 67.6791 11.7817 67.6818 11.7955C67.6846 11.8093 67.6832 11.8236 67.6778 11.8366C67.6724 11.8496 67.6633 11.8608 67.6516 11.8686C67.6399 11.8764 67.6261 11.8806 67.612 11.8806Z" fill="#CCCCCC"/>
<path d="M75.6817 19.8518C75.6724 19.8518 75.6631 19.8499 75.6545 19.8464C75.6458 19.8428 75.638 19.8375 75.6314 19.8309L68.8168 13.0163C68.8036 13.0029 68.7961 12.9849 68.7962 12.966C68.7962 12.9472 68.8037 12.9292 68.817 12.9159C68.8303 12.9025 68.8484 12.895 68.8672 12.895C68.886 12.895 68.9041 12.9024 68.9175 12.9157L75.732 19.7303C75.742 19.7402 75.7488 19.7529 75.7515 19.7667C75.7543 19.7805 75.7529 19.7948 75.7475 19.8078C75.7421 19.8208 75.733 19.8319 75.7213 19.8398C75.7096 19.8476 75.6958 19.8518 75.6817 19.8518Z" fill="#CCCCCC"/>
<path d="M60.7976 19.8518C60.7836 19.8518 60.7698 19.8476 60.7581 19.8398C60.7464 19.832 60.7373 19.8209 60.7319 19.8079C60.7265 19.7949 60.7251 19.7806 60.7278 19.7668C60.7306 19.753 60.7374 19.7403 60.7473 19.7303L67.5619 12.9157C67.5753 12.9024 67.5934 12.8949 67.6122 12.8949C67.6311 12.8949 67.6492 12.9024 67.6625 12.9157C67.6759 12.9291 67.6834 12.9472 67.6834 12.9661C67.6834 12.9849 67.6759 13.003 67.6625 13.0164L60.848 19.831C60.8414 19.8376 60.8335 19.8428 60.8249 19.8464C60.8162 19.85 60.807 19.8518 60.7976 19.8518Z" fill="#CCCCCC"/>
<path d="M68.2397 19.6831C66.7968 19.6831 65.3863 19.2553 64.1866 18.4536C62.9869 17.652 62.0518 16.5126 61.4996 15.1795C60.9474 13.8464 60.803 12.3796 61.0844 10.9644C61.3659 9.5492 62.0608 8.24927 63.0811 7.22898C64.1013 6.20869 65.4013 5.51386 66.8165 5.23236C68.2316 4.95087 69.6985 5.09534 71.0316 5.64752C72.3647 6.19969 73.5041 7.13477 74.3057 8.33451C75.1073 9.53424 75.5352 10.9447 75.5352 12.3877C75.533 14.3219 74.7637 16.1762 73.396 17.5439C72.0283 18.9116 70.1739 19.6809 68.2397 19.6831ZM68.2397 5.23454C66.825 5.23454 65.442 5.65406 64.2657 6.44006C63.0893 7.22605 62.1725 8.34322 61.6311 9.65028C61.0897 10.9573 60.9481 12.3956 61.2241 13.7832C61.5001 15.1707 62.1813 16.4453 63.1817 17.4457C64.1821 18.4461 65.4567 19.1273 66.8442 19.4033C68.2318 19.6793 69.6701 19.5377 70.9771 18.9963C72.2842 18.4549 73.4013 17.5381 74.1873 16.3617C74.9733 15.1854 75.3929 13.8024 75.3929 12.3877C75.3907 10.4912 74.6364 8.67301 73.2954 7.33201C71.9544 5.991 70.1362 5.23668 68.2397 5.23454Z" fill="#CCCCCC"/>
<path d="M68.2398 13.2415C68.7115 13.2415 69.0939 12.8591 69.0939 12.3874C69.0939 11.9157 68.7115 11.5333 68.2398 11.5333C67.7681 11.5333 67.3857 11.9157 67.3857 12.3874C67.3857 12.8591 67.7681 13.2415 68.2398 13.2415Z" fill="#3F3D56"/>
<path d="M64.9329 26.8145L64.1825 26.8362L67.845 12.0534L68.5257 12.2611L64.9329 26.8145Z" fill="#3F3D56"/>
<path d="M71.5464 26.8145L72.2967 26.8362L68.6343 12.0534L67.9536 12.2611L71.5464 26.8145Z" fill="#3F3D56"/>
<path d="M69.3785 3.98882H67.0297V5.26998H69.3785V3.98882Z" fill="#CCCCCC"/>
<path d="M68.0973 4.27364H67.172V5.27009H68.0973V4.27364Z" fill="white"/>
<path d="M69.2363 4.27364H68.311V5.27009H69.2363V4.27364Z" fill="white"/>
<path d="M68.204 6.6578C67.8455 6.65739 67.5018 6.51478 67.2482 6.26126C66.9947 6.00774 66.8521 5.664 66.8517 5.30547V5.26988C66.8518 5.18496 66.8856 5.10355 66.9456 5.04351C67.0057 4.98346 67.0871 4.94969 67.172 4.94959H69.2361C69.321 4.94969 69.4024 4.98346 69.4624 5.04351C69.5225 5.10355 69.5563 5.18496 69.5564 5.26988V5.30547C69.5559 5.664 69.4133 6.00774 69.1598 6.26126C68.9063 6.51478 68.5626 6.65739 68.204 6.6578Z" fill="#CCCCCC"/>
<path d="M69.2906 4.30909H67.1178C67.0874 4.30909 67.0576 4.30134 67.0311 4.28657C67.0046 4.2718 66.9824 4.2505 66.9664 4.2247C66.9505 4.1989 66.9414 4.16945 66.94 4.13915C66.9386 4.10884 66.9451 4.0787 66.9586 4.05157L67.3857 3.19746C67.4004 3.16783 67.4231 3.14292 67.4512 3.12553C67.4793 3.10815 67.5118 3.09899 67.5448 3.09911H68.8636C68.8966 3.09899 68.9291 3.10815 68.9572 3.12553C68.9853 3.14292 69.008 3.16783 69.0227 3.19746L69.4498 4.05157C69.4633 4.0787 69.4697 4.10884 69.4684 4.13915C69.467 4.16945 69.4579 4.1989 69.442 4.2247C69.426 4.2505 69.4038 4.2718 69.3773 4.28657C69.3508 4.30134 69.3209 4.30909 69.2906 4.30909Z" fill="#362FD9"/>
<path d="M75.7132 6.83584H73.3644V8.117H75.7132V6.83584Z" fill="#CCCCCC"/>
<path d="M74.432 7.12053H73.5067V8.11698H74.432V7.12053Z" fill="white"/>
<path d="M75.5705 7.12053H74.6452V8.11698H75.5705V7.12053Z" fill="white"/>
<path d="M74.539 9.50505C74.1804 9.50465 73.8367 9.36204 73.5832 9.10852C73.3297 8.85499 73.187 8.51126 73.1866 8.15272V8.11714C73.1867 8.03222 73.2205 7.95081 73.2806 7.89076C73.3406 7.83072 73.422 7.79694 73.5069 7.79685H75.571C75.6559 7.79694 75.7373 7.83072 75.7974 7.89076C75.8574 7.95081 75.8912 8.03222 75.8913 8.11714V8.15273C75.8909 8.51126 75.7483 8.85499 75.4948 9.10852C75.2412 9.36204 74.8975 9.50465 74.539 9.50505Z" fill="#CCCCCC"/>
<path d="M73.8794 6.0173C73.8596 6.01723 73.8401 6.02273 73.8232 6.03316C73.8063 6.04359 73.7927 6.05854 73.7839 6.07631L73.3569 6.93041C73.3487 6.94669 73.3449 6.96478 73.3457 6.98296C73.3465 7.00114 73.352 7.01881 73.3615 7.0343C73.3711 7.04978 73.3845 7.06256 73.4004 7.07142C73.4163 7.08028 73.4342 7.08493 73.4524 7.08493H75.6252C75.6434 7.08493 75.6613 7.08028 75.6772 7.07142C75.6931 7.06256 75.7064 7.04978 75.716 7.0343C75.7256 7.01881 75.731 7.00114 75.7318 6.98296C75.7327 6.96478 75.7288 6.94669 75.7207 6.93041L75.2936 6.07631C75.2848 6.05854 75.2712 6.04359 75.2543 6.03316C75.2374 6.02273 75.218 6.01723 75.1981 6.0173H73.8794Z" fill="#362FD9"/>
<path d="M78.2041 13.2417H75.8553V14.5229H78.2041V13.2417Z" fill="#CCCCCC"/>
<path d="M76.9232 13.5263H75.9979V14.5227H76.9232V13.5263Z" fill="white"/>
<path d="M78.0619 13.5263H77.1366V14.5227H78.0619V13.5263Z" fill="white"/>
<path d="M77.0296 15.9107C76.6711 15.9103 76.3274 15.7677 76.0738 15.5141C75.8203 15.2606 75.6777 14.9169 75.6773 14.5584V14.5228C75.6774 14.4379 75.7112 14.3564 75.7712 14.2964C75.8313 14.2364 75.9127 14.2026 75.9976 14.2025H78.0617C78.1466 14.2026 78.228 14.2364 78.288 14.2964C78.3481 14.3564 78.3819 14.4379 78.382 14.5228V14.5584C78.3816 14.9169 78.2389 15.2606 77.9854 15.5141C77.7319 15.7677 77.3882 15.9103 77.0296 15.9107Z" fill="#CCCCCC"/>
<path d="M78.1157 13.5617H75.9429C75.9126 13.5617 75.8827 13.554 75.8562 13.5392C75.8298 13.5244 75.8075 13.5031 75.7915 13.4773C75.7756 13.4515 75.7665 13.4221 75.7651 13.3918C75.7638 13.3615 75.7702 13.3313 75.7837 13.3042L76.2108 12.4501C76.2255 12.4205 76.2482 12.3956 76.2763 12.3782C76.3044 12.3608 76.3369 12.3516 76.37 12.3518H77.6887C77.7217 12.3516 77.7542 12.3608 77.7823 12.3782C77.8104 12.3956 77.8331 12.4205 77.8478 12.4501L78.2749 13.3042C78.2884 13.3313 78.2949 13.3615 78.2935 13.3918C78.2921 13.4221 78.283 13.4515 78.2671 13.4773C78.2512 13.5031 78.2289 13.5244 78.2024 13.5392C78.1759 13.554 78.1461 13.5617 78.1157 13.5617Z" fill="#362FD9"/>
<path d="M75.5711 19.2204H73.2223V20.5016H75.5711V19.2204Z" fill="#CCCCCC"/>
<path d="M74.2897 19.505H73.3644V20.5015H74.2897V19.505Z" fill="white"/>
<path d="M75.4284 19.505H74.5031V20.5015H75.4284V19.505Z" fill="white"/>
<path d="M74.3966 21.8895C74.0381 21.8891 73.6944 21.7465 73.4408 21.493C73.1873 21.2395 73.0447 20.8957 73.0443 20.5372V20.5016C73.0444 20.4167 73.0782 20.3353 73.1382 20.2752C73.1983 20.2152 73.2797 20.1814 73.3646 20.1813H75.4287C75.5136 20.1814 75.595 20.2152 75.655 20.2752C75.7151 20.3353 75.7489 20.4167 75.749 20.5016V20.5372C75.7485 20.8957 75.6059 21.2395 75.3524 21.493C75.0989 21.7465 74.7552 21.8891 74.3966 21.8895Z" fill="#CCCCCC"/>
<path d="M75.4825 19.5407H73.3096C73.2793 19.5407 73.2495 19.533 73.223 19.5182C73.1965 19.5034 73.1742 19.4821 73.1583 19.4563C73.1423 19.4305 73.1332 19.4011 73.1319 19.3708C73.1305 19.3404 73.1369 19.3103 73.1505 19.2832L73.5775 18.4291C73.5922 18.3994 73.6149 18.3745 73.6431 18.3571C73.6712 18.3398 73.7036 18.3306 73.7367 18.3307H75.0554C75.0885 18.3306 75.1209 18.3398 75.1491 18.3571C75.1772 18.3745 75.1999 18.3994 75.2146 18.4291L75.6416 19.2832C75.6552 19.3103 75.6616 19.3404 75.6602 19.3708C75.6589 19.4011 75.6498 19.4305 75.6338 19.4563C75.6179 19.4821 75.5956 19.5034 75.5691 19.5182C75.5426 19.533 75.5128 19.5407 75.4825 19.5407Z" fill="#362FD9"/>
<path d="M60.7663 8.11706H63.1151V6.83591H60.7663V8.11706Z" fill="#CCCCCC"/>
<path d="M62.0472 8.11706H62.9725V7.12061H62.0472V8.11706Z" fill="white"/>
<path d="M60.9085 8.11706H61.8337V7.12061H60.9085V8.11706Z" fill="white"/>
<path d="M61.9406 9.50505C61.5821 9.50465 61.2383 9.36204 60.9848 9.10852C60.7313 8.85499 60.5887 8.51126 60.5883 8.15272V8.11714C60.5884 8.03222 60.6222 7.95081 60.6822 7.89076C60.7422 7.83072 60.8236 7.79694 60.9086 7.79685H62.9727C63.0576 7.79694 63.139 7.83072 63.199 7.89076C63.2591 7.95081 63.2928 8.03222 63.2929 8.11714V8.15273C63.2925 8.51126 63.1499 8.85499 62.8964 9.10852C62.6429 9.36204 62.2991 9.50465 61.9406 9.50505Z" fill="#CCCCCC"/>
<path d="M63.027 7.15623H60.8541C60.8238 7.15623 60.794 7.14848 60.7675 7.13371C60.741 7.11894 60.7187 7.09764 60.7028 7.07184C60.6868 7.04604 60.6777 7.01658 60.6764 6.98628C60.675 6.95598 60.6814 6.92583 60.695 6.8987L61.122 6.0446C61.1367 6.01497 61.1594 5.99005 61.1875 5.97267C61.2157 5.95529 61.2481 5.94613 61.2812 5.94625H62.5999C62.633 5.94613 62.6654 5.95528 62.6935 5.97267C62.7217 5.99005 62.7444 6.01497 62.7591 6.0446L63.1861 6.8987C63.1997 6.92583 63.2061 6.95598 63.2047 6.98628C63.2033 7.01658 63.1943 7.04604 63.1783 7.07184C63.1624 7.09764 63.1401 7.11894 63.1136 7.13371C63.0871 7.14848 63.0573 7.15623 63.027 7.15623Z" fill="#362FD9"/>
<path d="M58.2751 14.5228H60.6239V13.2417H58.2751V14.5228Z" fill="#CCCCCC"/>
<path d="M59.5563 14.5228H60.4816V13.5264H59.5563V14.5228Z" fill="white"/>
<path d="M58.4176 14.5228H59.3428V13.5264H58.4176V14.5228Z" fill="white"/>
<path d="M59.4495 15.9107C59.0909 15.9103 58.7472 15.7677 58.4937 15.5141C58.2401 15.2606 58.0975 14.9169 58.0971 14.5584V14.5228C58.0972 14.4379 58.131 14.3564 58.191 14.2964C58.2511 14.2364 58.3325 14.2026 58.4174 14.2025H60.4815C60.5664 14.2026 60.6478 14.2364 60.7079 14.2964C60.7679 14.3564 60.8017 14.4379 60.8018 14.5228V14.5584C60.8014 14.9169 60.6588 15.2606 60.4053 15.5141C60.1517 15.7677 59.808 15.9103 59.4495 15.9107Z" fill="#CCCCCC"/>
<path d="M60.5358 13.5617H58.363C58.3326 13.5617 58.3028 13.554 58.2763 13.5392C58.2498 13.5244 58.2275 13.5031 58.2116 13.4773C58.1956 13.4515 58.1866 13.4221 58.1852 13.3918C58.1838 13.3615 58.1902 13.3313 58.2038 13.3042L58.6309 12.4501C58.6456 12.4205 58.6682 12.3956 58.6964 12.3782C58.7245 12.3608 58.7569 12.3516 58.79 12.3518H60.1087C60.1418 12.3516 60.1743 12.3608 60.2024 12.3782C60.2305 12.3956 60.2532 12.4205 60.2679 12.4501L60.6949 13.3042C60.7085 13.3313 60.7149 13.3615 60.7136 13.3918C60.7122 13.4221 60.7031 13.4515 60.6872 13.4773C60.6712 13.5031 60.6489 13.5244 60.6224 13.5392C60.596 13.554 60.5661 13.5617 60.5358 13.5617Z" fill="#362FD9"/>
<path d="M60.9086 20.5015H63.2574V19.2204L60.9086 19.2204V20.5015Z" fill="#CCCCCC"/>
<path d="M62.1898 20.5015H63.1151V19.5051H62.1898V20.5015Z" fill="white"/>
<path d="M61.0513 20.5015H61.9766V19.5051H61.0513V20.5015Z" fill="white"/>
<path d="M62.083 21.8895C61.7244 21.8891 61.3807 21.7465 61.1272 21.493C60.8736 21.2395 60.731 20.8957 60.7306 20.5372V20.5016C60.7307 20.4167 60.7645 20.3353 60.8245 20.2752C60.8846 20.2152 60.966 20.1814 61.0509 20.1813H63.115C63.1999 20.1814 63.2813 20.2152 63.3414 20.2752C63.4014 20.3353 63.4352 20.4167 63.4353 20.5016V20.5372C63.4349 20.8957 63.2923 21.2395 63.0387 21.493C62.7852 21.7465 62.4415 21.8891 62.083 21.8895Z" fill="#CCCCCC"/>
<path d="M63.1691 19.5407H60.9962C60.9659 19.5407 60.9361 19.533 60.9096 19.5182C60.8831 19.5034 60.8608 19.4821 60.8449 19.4563C60.8289 19.4305 60.8198 19.4011 60.8185 19.3708C60.8171 19.3404 60.8235 19.3103 60.8371 19.2832L61.2641 18.4291C61.2788 18.3994 61.3015 18.3745 61.3296 18.3571C61.3578 18.3398 61.3902 18.3306 61.4233 18.3307H62.742C62.7751 18.3306 62.8075 18.3398 62.8356 18.3571C62.8638 18.3745 62.8865 18.3994 62.9012 18.4291L63.3282 19.2832C63.3418 19.3103 63.3482 19.3404 63.3468 19.3708C63.3455 19.4011 63.3364 19.4305 63.3204 19.4563C63.3045 19.4821 63.2822 19.5034 63.2557 19.5182C63.2292 19.533 63.1994 19.5407 63.1691 19.5407Z" fill="#362FD9"/>
<path d="M69.3785 21.925H67.0297V23.2061H69.3785V21.925Z" fill="#CCCCCC"/>
<path d="M68.0973 22.2097H67.172V23.2061H68.0973V22.2097Z" fill="white"/>
<path d="M69.2363 22.2097H68.311V23.2061H69.2363V22.2097Z" fill="white"/>
<path d="M67.1719 22.957C67.1058 22.9571 67.0425 22.9834 66.9958 23.0301C66.9491 23.0768 66.9228 23.1401 66.9227 23.2062V23.2417C66.9226 23.4101 66.9556 23.5768 67.0199 23.7324C67.0842 23.888 67.1785 24.0294 67.2975 24.1485C67.4165 24.2676 67.5578 24.3621 67.7133 24.4266C67.8688 24.4911 68.0355 24.5242 68.2039 24.5242C68.3723 24.5242 68.539 24.4911 68.6945 24.4266C68.85 24.3621 68.9913 24.2676 69.1103 24.1485C69.2293 24.0294 69.3236 23.888 69.3879 23.7324C69.4522 23.5768 69.4852 23.4101 69.4851 23.2417V23.2062C69.485 23.1401 69.4587 23.0768 69.412 23.0301C69.3653 22.9834 69.302 22.9571 69.2359 22.957H67.1719Z" fill="#CCCCCC"/>
<path d="M67.5447 21.1067C67.5249 21.1066 67.5054 21.1121 67.4885 21.1225C67.4716 21.133 67.458 21.1479 67.4492 21.1657L67.0222 22.0198C67.014 22.0361 67.0102 22.0542 67.011 22.0723C67.0118 22.0905 67.0173 22.1082 67.0268 22.1237C67.0364 22.1392 67.0498 22.1519 67.0657 22.1608C67.0816 22.1697 67.0994 22.1743 67.1176 22.1743H69.2905C69.3087 22.1743 69.3266 22.1697 69.3425 22.1608C69.3584 22.1519 69.3717 22.1392 69.3813 22.1237C69.3909 22.1082 69.3963 22.0905 69.3971 22.0723C69.398 22.0542 69.3941 22.0361 69.386 22.0198L68.9589 21.1657C68.9501 21.1479 68.9365 21.133 68.9196 21.1225C68.9027 21.1121 68.8833 21.1066 68.8634 21.1067H67.5447Z" fill="#362FD9"/>
<path d="M36.8688 39.6875C36.8901 39.6875 36.9105 39.6791 36.9256 39.664C36.9406 39.6489 36.9491 39.6285 36.9491 39.6072C36.9491 39.5859 36.9406 39.5655 36.9256 39.5504C36.9105 39.5354 36.8901 39.5269 36.8688 39.5269H36.1058V39.2057H36.8688C36.8901 39.2057 36.9105 39.1972 36.9256 39.1821C36.9406 39.1671 36.9491 39.1467 36.9491 39.1254C36.9491 39.1041 36.9406 39.0836 36.9256 39.0686C36.9105 39.0535 36.8901 39.045 36.8688 39.045H30.3636C30.3423 39.045 30.3219 39.0535 30.3068 39.0686C30.2917 39.0836 30.2833 39.1041 30.2833 39.1254C30.2833 39.1467 30.2917 39.1671 30.3068 39.1821C30.3219 39.1972 30.3423 39.2057 30.3636 39.2057H31.1265V39.5269H30.3636C30.3423 39.5269 30.3219 39.5354 30.3068 39.5504C30.2917 39.5655 30.2833 39.5859 30.2833 39.6072C30.2833 39.6285 30.2917 39.6489 30.3068 39.664C30.3219 39.6791 30.3423 39.6875 30.3636 39.6875H31.1265V40.0088H30.3636C30.3423 40.0088 30.3219 40.0172 30.3068 40.0323C30.2917 40.0474 30.2833 40.0678 30.2833 40.0891C30.2833 40.1104 30.2917 40.1308 30.3068 40.1459C30.3219 40.1609 30.3423 40.1694 30.3636 40.1694H31.1265V40.4906H30.4439C30.4013 40.4906 30.3604 40.5076 30.3303 40.5377C30.3002 40.5678 30.2833 40.6087 30.2833 40.6513C30.2833 40.6939 30.3002 40.7347 30.3303 40.7648C30.3604 40.795 30.4013 40.8119 30.4439 40.8119H31.0938C31.089 40.8248 31.0865 40.8383 31.0864 40.852V41.9764C31.0864 42.0083 31.0991 42.039 31.1217 42.0616C31.1443 42.0842 31.1749 42.0969 31.2069 42.0969C31.2388 42.0969 31.2694 42.0842 31.292 42.0616C31.3146 42.039 31.3273 42.0083 31.3273 41.9764V40.852C31.3272 40.8383 31.3247 40.8248 31.3199 40.8119H35.9124C35.9077 40.8248 35.9052 40.8383 35.905 40.852V41.9764C35.905 42.0083 35.9177 42.039 35.9403 42.0616C35.9629 42.0842 35.9936 42.0969 36.0255 42.0969C36.0575 42.0969 36.0881 42.0842 36.1107 42.0616C36.1333 42.039 36.146 42.0083 36.146 41.9764V40.852C36.1458 40.8383 36.1433 40.8248 36.1386 40.8119H36.7885C36.8311 40.8119 36.8719 40.795 36.902 40.7648C36.9322 40.7347 36.9491 40.6939 36.9491 40.6513C36.9491 40.6087 36.9322 40.5678 36.902 40.5377C36.8719 40.5076 36.8311 40.4906 36.7885 40.4906H36.1058V40.1694H36.8688C36.8901 40.1694 36.9105 40.1609 36.9256 40.1459C36.9406 40.1308 36.9491 40.1104 36.9491 40.0891C36.9491 40.0678 36.9406 40.0474 36.9256 40.0323C36.9105 40.0172 36.8901 40.0088 36.8688 40.0088H36.1058V39.6875H36.8688ZM31.2872 39.2057H35.9452V39.5269H31.2872V39.2057ZM35.9452 40.4906H31.2872V40.1694H35.9452V40.4906ZM35.9452 40.0088H31.2872V39.6875H35.9452V40.0088Z" fill="#3F3D56"/>
<path d="M61.9659 49.2995C61.9872 49.2995 62.0076 49.291 62.0227 49.2759C62.0377 49.2609 62.0462 49.2404 62.0462 49.2191C62.0462 49.1978 62.0377 49.1774 62.0227 49.1624C62.0076 49.1473 61.9872 49.1388 61.9659 49.1388H61.2029V48.8176H61.9659C61.9872 48.8176 62.0076 48.8091 62.0227 48.7941C62.0377 48.779 62.0462 48.7586 62.0462 48.7373C62.0462 48.716 62.0377 48.6955 62.0227 48.6805C62.0076 48.6654 61.9872 48.657 61.9659 48.657H55.4607C55.4394 48.657 55.4189 48.6654 55.4039 48.6805C55.3888 48.6955 55.3804 48.716 55.3804 48.7373C55.3804 48.7586 55.3888 48.779 55.4039 48.7941C55.4189 48.8091 55.4394 48.8176 55.4607 48.8176H56.2236V49.1388H55.4607C55.4394 49.1388 55.4189 49.1473 55.4039 49.1624C55.3888 49.1774 55.3804 49.1978 55.3804 49.2191C55.3804 49.2404 55.3888 49.2609 55.4039 49.2759C55.4189 49.291 55.4394 49.2995 55.4607 49.2995H56.2236V49.6207H55.4607C55.4394 49.6207 55.4189 49.6292 55.4039 49.6442C55.3888 49.6593 55.3804 49.6797 55.3804 49.701C55.3804 49.7223 55.3888 49.7427 55.4039 49.7578C55.4189 49.7729 55.4394 49.7813 55.4607 49.7813H56.2236V50.1026H55.541C55.4984 50.1026 55.4575 50.1195 55.4274 50.1496C55.3973 50.1797 55.3804 50.2206 55.3804 50.2632C55.3804 50.3058 55.3973 50.3466 55.4274 50.3768C55.4575 50.4069 55.4984 50.4238 55.541 50.4238H56.1909C56.1861 50.4367 56.1836 50.4503 56.1835 50.464V51.5883C56.1834 51.6042 56.1865 51.6199 56.1925 51.6345C56.1986 51.6492 56.2074 51.6625 56.2186 51.6738C56.2298 51.685 56.2431 51.6939 56.2578 51.7C56.2724 51.7061 56.2881 51.7092 56.3039 51.7092C56.3198 51.7092 56.3355 51.7061 56.3501 51.7C56.3648 51.6939 56.3781 51.685 56.3893 51.6738C56.4005 51.6625 56.4093 51.6492 56.4154 51.6345C56.4214 51.6199 56.4245 51.6042 56.4244 51.5883V50.464C56.4243 50.4503 56.4218 50.4367 56.417 50.4238H61.0095C61.0048 50.4367 61.0023 50.4503 61.0021 50.464V51.5883C61.0021 51.6203 61.0148 51.6509 61.0374 51.6735C61.06 51.6961 61.0907 51.7088 61.1226 51.7088C61.1546 51.7088 61.1852 51.6961 61.2078 51.6735C61.2304 51.6509 61.2431 51.6203 61.2431 51.5883V50.464C61.2429 50.4503 61.2404 50.4367 61.2357 50.4238H61.8856C61.9282 50.4238 61.969 50.4069 61.9991 50.3768C62.0293 50.3466 62.0462 50.3058 62.0462 50.2632C62.0462 50.2206 62.0293 50.1797 61.9991 50.1496C61.969 50.1195 61.9282 50.1026 61.8856 50.1026H61.2029V49.7813H61.9659C61.9872 49.7813 62.0076 49.7729 62.0227 49.7578C62.0377 49.7427 62.0462 49.7223 62.0462 49.701C62.0462 49.6797 62.0377 49.6593 62.0227 49.6442C62.0076 49.6292 61.9872 49.6207 61.9659 49.6207H61.2029V49.2994L61.9659 49.2995ZM56.3843 48.8176H61.0423V49.1388H56.3843V48.8176ZM61.0423 50.1026H56.3843V49.7813H61.0423V50.1026ZM61.0423 49.6207H56.3843V49.2995H61.0423V49.6207Z" fill="#3F3D56"/>
<path d="M82.2089 38.7609C82.2302 38.7609 82.2506 38.7525 82.2656 38.7374C82.2807 38.7224 82.2892 38.7019 82.2892 38.6806C82.2892 38.6593 82.2807 38.6389 82.2656 38.6238C82.2506 38.6088 82.2302 38.6003 82.2089 38.6003H81.4459V38.2791H82.2089C82.2302 38.2791 82.2506 38.2706 82.2656 38.2556C82.2807 38.2405 82.2892 38.2201 82.2892 38.1988C82.2892 38.1775 82.2807 38.157 82.2656 38.142C82.2506 38.1269 82.2302 38.1185 82.2089 38.1185H75.7037C75.6824 38.1185 75.6619 38.1269 75.6469 38.142C75.6318 38.157 75.6233 38.1775 75.6233 38.1988C75.6233 38.2201 75.6318 38.2405 75.6469 38.2556C75.6619 38.2706 75.6824 38.2791 75.7037 38.2791H76.4666V38.6003H75.7037C75.6824 38.6003 75.6619 38.6088 75.6469 38.6238C75.6318 38.6389 75.6233 38.6593 75.6233 38.6806C75.6233 38.7019 75.6318 38.7224 75.6469 38.7374C75.6619 38.7525 75.6824 38.7609 75.7037 38.7609H76.4666V39.0822H75.7037C75.6824 39.0822 75.6619 39.0907 75.6469 39.1057C75.6318 39.1208 75.6233 39.1412 75.6233 39.1625C75.6233 39.1838 75.6318 39.2042 75.6469 39.2193C75.6619 39.2344 75.6824 39.2428 75.7037 39.2428H76.4666V39.5641H75.784C75.7414 39.5642 75.7007 39.5812 75.6707 39.6113C75.6407 39.6414 75.6238 39.6822 75.6238 39.7247C75.6238 39.7672 75.6407 39.808 75.6707 39.8381C75.7007 39.8682 75.7414 39.8852 75.784 39.8853H76.4338C76.4291 39.8982 76.4266 39.9117 76.4265 39.9255V41.0498C76.4265 41.0818 76.4391 41.1124 76.4617 41.135C76.4843 41.1576 76.515 41.1703 76.5469 41.1703C76.5789 41.1703 76.6095 41.1576 76.6321 41.135C76.6547 41.1124 76.6674 41.0818 76.6674 41.0498V39.9255C76.6673 39.9117 76.6648 39.8982 76.66 39.8853H81.2525C81.2477 39.8982 81.2453 39.9117 81.2451 39.9255V41.0498C81.2451 41.0818 81.2578 41.1124 81.2804 41.135C81.303 41.1576 81.3336 41.1703 81.3656 41.1703C81.3975 41.1703 81.4282 41.1576 81.4508 41.135C81.4734 41.1124 81.486 41.0818 81.486 41.0498V39.9255C81.4859 39.9117 81.4834 39.8982 81.4787 39.8853H82.1285C82.1497 39.8854 82.1706 39.8813 82.1901 39.8732C82.2097 39.8652 82.2275 39.8533 82.2424 39.8384C82.2574 39.8235 82.2693 39.8058 82.2774 39.7863C82.2855 39.7667 82.2896 39.7458 82.2896 39.7247C82.2896 39.7035 82.2855 39.6826 82.2774 39.6631C82.2693 39.6436 82.2574 39.6259 82.2424 39.6109C82.2275 39.596 82.2097 39.5842 82.1901 39.5761C82.1706 39.5681 82.1497 39.564 82.1285 39.5641H81.4459V39.2428H82.2088C82.2301 39.2428 82.2506 39.2344 82.2656 39.2193C82.2807 39.2042 82.2892 39.1838 82.2892 39.1625C82.2892 39.1412 82.2807 39.1208 82.2656 39.1057C82.2506 39.0907 82.2301 39.0822 82.2088 39.0822H81.4459V38.7609H82.2089ZM76.6272 38.2791H81.2853V38.6003H76.6272V38.2791ZM81.2853 39.5641H76.6272V39.2428H81.2853V39.5641ZM81.2853 39.0822H76.6272V38.7609H81.2853V39.0822Z" fill="#3F3D56"/>
<path d="M51.7211 58.9544C51.7211 56.8947 50.0503 52.0073 47.9893 52.0073C45.9283 52.0073 44.2575 56.8947 44.2575 58.9544C44.2581 59.9437 44.6515 60.8923 45.3513 61.5917C46.0511 62.291 46.9999 62.6839 47.9893 62.6839C48.9786 62.6839 49.9275 62.291 50.6273 61.5917C51.3271 60.8923 51.7205 59.9437 51.7211 58.9544Z" fill="#F2F2F2"/>
<path d="M47.9891 67.2181C47.9778 67.2181 47.967 67.2136 47.959 67.2056C47.951 67.1976 47.9465 67.1867 47.9465 67.1754V58.4638C47.9464 58.4582 47.9475 58.4526 47.9496 58.4474C47.9518 58.4422 47.9549 58.4375 47.9589 58.4335C47.9628 58.4295 47.9675 58.4263 47.9727 58.4242C47.9779 58.422 47.9835 58.4209 47.9891 58.4209C47.9948 58.4209 48.0003 58.422 48.0055 58.4242C48.0107 58.4263 48.0154 58.4295 48.0194 58.4335C48.0234 58.4375 48.0265 58.4422 48.0286 58.4474C48.0308 58.4526 48.0318 58.4582 48.0318 58.4638V67.1754C48.0318 67.1867 48.0273 67.1976 48.0193 67.2056C48.0113 67.2136 48.0004 67.2181 47.9891 67.2181Z" fill="#CCCCCC"/>
<path d="M47.9894 60.0915C47.9832 60.0915 47.9772 60.0902 47.9716 60.0876C47.9661 60.0851 47.9611 60.0814 47.9571 60.0768L45.8108 57.6016C45.8035 57.5931 45.7998 57.5819 45.8007 57.5707C45.8015 57.5595 45.8067 57.549 45.8153 57.5416C45.8238 57.5342 45.8349 57.5305 45.8461 57.5313C45.8574 57.532 45.8679 57.5372 45.8753 57.5457L48.0216 60.0208C48.0269 60.027 48.0304 60.0346 48.0316 60.0427C48.0327 60.0508 48.0316 60.0591 48.0282 60.0665C48.0248 60.0739 48.0193 60.0803 48.0124 60.0847C48.0055 60.0891 47.9975 60.0915 47.9894 60.0915Z" fill="#CCCCCC"/>
<path d="M47.9891 61.5197C47.9807 61.5197 47.9724 61.5172 47.9654 61.5125C47.9584 61.5078 47.9529 61.5012 47.9497 61.4934C47.9465 61.4856 47.9456 61.477 47.9473 61.4687C47.9489 61.4604 47.953 61.4528 47.959 61.4469L49.1785 60.2273C49.1865 60.2193 49.1974 60.2148 49.2087 60.2148C49.22 60.2148 49.2308 60.2193 49.2388 60.2273C49.2468 60.2353 49.2513 60.2462 49.2513 60.2575C49.2513 60.2688 49.2468 60.2797 49.2388 60.2877L48.0193 61.5072C48.0153 61.5112 48.0106 61.5143 48.0055 61.5165C48.0003 61.5186 47.9947 61.5197 47.9891 61.5197Z" fill="#CCCCCC"/>
<path d="M16.1269 18.5371C16.1269 16.4775 14.4561 11.5901 12.3951 11.5901C10.334 11.5901 8.66325 16.4775 8.66325 18.5371C8.66385 19.5265 9.05729 20.4751 9.75708 21.1745C10.4569 21.8738 11.4057 22.2667 12.3951 22.2667C13.3844 22.2667 14.3333 21.8738 15.0331 21.1745C15.7328 20.4751 16.1263 19.5265 16.1269 18.5371Z" fill="#3F3D56"/>
<path d="M12.3954 26.801C12.3841 26.801 12.3732 26.7965 12.3652 26.7885C12.3572 26.7805 12.3527 26.7697 12.3527 26.7583V18.0467C12.3528 18.0354 12.3573 18.0246 12.3653 18.0167C12.3733 18.0087 12.3841 18.0043 12.3954 18.0043C12.4067 18.0043 12.4175 18.0087 12.4255 18.0167C12.4335 18.0246 12.438 18.0354 12.4381 18.0467V26.7583C12.4381 26.7639 12.437 26.7695 12.4348 26.7747C12.4327 26.7798 12.4295 26.7846 12.4256 26.7885C12.4216 26.7925 12.4169 26.7956 12.4117 26.7978C12.4066 26.7999 12.401 26.801 12.3954 26.801Z" fill="#CCCCCC"/>
<path d="M12.3955 19.6741C12.3893 19.6741 12.3833 19.6728 12.3777 19.6703C12.3721 19.6677 12.3672 19.664 12.3632 19.6594L10.2169 17.1843C10.2096 17.1757 10.2059 17.1646 10.2067 17.1533C10.2075 17.142 10.2128 17.1316 10.2213 17.1241C10.2298 17.1167 10.241 17.113 10.2522 17.1138C10.2635 17.1146 10.274 17.1198 10.2814 17.1283L12.4277 19.6035C12.433 19.6096 12.4365 19.6172 12.4377 19.6253C12.4388 19.6334 12.4376 19.6417 12.4343 19.6491C12.4309 19.6566 12.4254 19.6629 12.4185 19.6673C12.4116 19.6717 12.4036 19.6741 12.3955 19.6741Z" fill="#CCCCCC"/>
<path d="M12.3954 21.1027C12.387 21.1026 12.3787 21.1001 12.3717 21.0955C12.3647 21.0908 12.3592 21.0841 12.356 21.0763C12.3528 21.0685 12.3519 21.0599 12.3536 21.0517C12.3552 21.0434 12.3593 21.0358 12.3652 21.0298L13.5848 19.8102C13.5887 19.8063 13.5934 19.8031 13.5986 19.801C13.6038 19.7988 13.6093 19.7977 13.6149 19.7977C13.6205 19.7977 13.6261 19.7988 13.6313 19.801C13.6364 19.8031 13.6412 19.8063 13.6451 19.8102C13.6491 19.8142 13.6522 19.8189 13.6544 19.8241C13.6565 19.8293 13.6576 19.8348 13.6576 19.8404C13.6576 19.846 13.6565 19.8516 13.6544 19.8567C13.6522 19.8619 13.6491 19.8666 13.6451 19.8706L12.4256 21.0901C12.4216 21.0941 12.4169 21.0973 12.4117 21.0994C12.4066 21.1016 12.401 21.1027 12.3954 21.1027Z" fill="#CCCCCC"/>
<path d="M8.35341 26.7444C8.35341 26.3312 8.51755 25.9349 8.80972 25.6428C9.10189 25.3506 9.49816 25.1865 9.91135 25.1865C10.3245 25.1865 10.7208 25.3506 11.013 25.6428C11.3052 25.9349 11.4693 26.3312 11.4693 26.7444" fill="#F2F2F2"/>
<path d="M9.9115 26.7443C9.90033 26.7443 9.88962 26.7398 9.88173 26.7319C9.87383 26.724 9.86939 26.7133 9.86939 26.7022V25.8811C9.86939 25.8699 9.87383 25.8592 9.88172 25.8513C9.88962 25.8434 9.90033 25.839 9.9115 25.839C9.92267 25.839 9.93338 25.8434 9.94127 25.8513C9.94917 25.8592 9.9536 25.8699 9.9536 25.8811V26.7022C9.9536 26.7133 9.94917 26.724 9.94127 26.7319C9.93338 26.7398 9.92267 26.7443 9.9115 26.7443Z" fill="#CCCCCC"/>
<path d="M9.91068 26.4617C9.90064 26.4617 9.89092 26.4581 9.88331 26.4516L9.37865 26.0184C9.37446 26.0148 9.37101 26.0104 9.36852 26.0055C9.36602 26.0006 9.36452 25.9952 9.3641 25.9897C9.36368 25.9842 9.36435 25.9787 9.36607 25.9734C9.36779 25.9682 9.37053 25.9633 9.37413 25.9591C9.37773 25.9549 9.38211 25.9515 9.38704 25.949C9.39197 25.9465 9.39734 25.945 9.40284 25.9446C9.40835 25.9442 9.41389 25.9448 9.41913 25.9465C9.42438 25.9483 9.42924 25.951 9.43343 25.9546L9.9381 26.3877C9.94462 26.3933 9.94927 26.4008 9.95142 26.4091C9.95357 26.4174 9.95313 26.4262 9.95014 26.4343C9.94715 26.4423 9.94177 26.4493 9.93472 26.4542C9.92766 26.4591 9.91928 26.4617 9.91068 26.4617Z" fill="#CCCCCC"/>
<path d="M13.1538 26.7444C13.1538 26.3312 13.318 25.9349 13.6101 25.6428C13.9023 25.3506 14.2986 25.1865 14.7118 25.1865C15.125 25.1865 15.5212 25.3506 15.8134 25.6428C16.1056 25.9349 16.2697 26.3312 16.2697 26.7444" fill="#F2F2F2"/>
<path d="M14.7117 26.7443C14.7005 26.7443 14.6898 26.7398 14.6819 26.7319C14.674 26.724 14.6696 26.7133 14.6696 26.7022V25.8811C14.6696 25.8699 14.674 25.8592 14.6819 25.8513C14.6898 25.8434 14.7005 25.839 14.7117 25.839C14.7228 25.839 14.7335 25.8434 14.7414 25.8513C14.7493 25.8592 14.7538 25.8699 14.7538 25.8811V26.7022C14.7538 26.7133 14.7493 26.724 14.7414 26.7319C14.7335 26.7398 14.7228 26.7443 14.7117 26.7443Z" fill="#CCCCCC"/>
<path d="M14.7109 26.4618C14.7009 26.4618 14.6912 26.4582 14.6836 26.4517L14.1789 26.0185C14.1705 26.0112 14.1653 26.0009 14.1645 25.9898C14.1637 25.9787 14.1673 25.9678 14.1745 25.9594C14.1818 25.9509 14.1921 25.9457 14.2031 25.9448C14.2142 25.9439 14.2252 25.9475 14.2337 25.9547L14.7383 26.3878C14.7449 26.3934 14.7495 26.4009 14.7517 26.4092C14.7538 26.4175 14.7534 26.4263 14.7504 26.4344C14.7474 26.4424 14.742 26.4494 14.735 26.4543C14.7279 26.4592 14.7195 26.4618 14.7109 26.4618Z" fill="#CCCCCC"/>
<path d="M94.5297 58.8385C94.5297 56.7789 92.8589 51.8915 90.7979 51.8915C88.7369 51.8915 87.0661 56.7789 87.0661 58.8385C87.0667 59.8279 87.4601 60.7765 88.1599 61.4758C88.8597 62.1752 89.8086 62.5681 90.7979 62.5681C91.7873 62.5681 92.7361 62.1752 93.4359 61.4758C94.1357 60.7765 94.5291 59.8279 94.5297 58.8385Z" fill="#362FD9"/>
<path d="M90.7978 67.1025C90.7864 67.1025 90.7756 67.098 90.7676 67.09C90.7596 67.082 90.7551 67.0711 90.7551 67.0598V58.3482C90.7551 58.3426 90.7561 58.337 90.7583 58.3318C90.7604 58.3266 90.7635 58.3218 90.7675 58.3179C90.7715 58.3139 90.7762 58.3107 90.7814 58.3085C90.7866 58.3064 90.7921 58.3053 90.7978 58.3053C90.8034 58.3053 90.809 58.3064 90.8142 58.3085C90.8193 58.3107 90.8241 58.3139 90.828 58.3179C90.832 58.3218 90.8351 58.3266 90.8373 58.3318C90.8394 58.337 90.8405 58.3426 90.8404 58.3482V67.0598C90.8404 67.0711 90.8359 67.082 90.8279 67.09C90.8199 67.098 90.8091 67.1025 90.7978 67.1025Z" fill="#CCCCCC"/>
<path d="M90.7975 59.9756C90.7914 59.9756 90.7853 59.9743 90.7798 59.9718C90.7742 59.9693 90.7692 59.9655 90.7652 59.9609L88.619 57.4858C88.6116 57.4772 88.608 57.4661 88.6088 57.4549C88.6096 57.4436 88.6149 57.4331 88.6234 57.4257C88.6319 57.4184 88.643 57.4146 88.6543 57.4154C88.6655 57.4162 88.676 57.4214 88.6835 57.4299L90.8297 59.905C90.8351 59.9112 90.8385 59.9188 90.8397 59.9269C90.8409 59.935 90.8397 59.9432 90.8363 59.9507C90.8329 59.9581 90.8274 59.9644 90.8206 59.9688C90.8137 59.9733 90.8057 59.9756 90.7975 59.9756Z" fill="#CCCCCC"/>
<path d="M90.7978 61.404C90.7893 61.404 90.7811 61.4015 90.7741 61.3968C90.767 61.3921 90.7616 61.3855 90.7583 61.3777C90.7551 61.3699 90.7543 61.3613 90.7559 61.353C90.7576 61.3447 90.7616 61.3371 90.7676 61.3312L91.9871 60.1116C91.9911 60.1076 91.9958 60.1045 92.001 60.1024C92.0061 60.1002 92.0117 60.0991 92.0173 60.0991C92.0229 60.0991 92.0285 60.1002 92.0336 60.1024C92.0388 60.1045 92.0435 60.1076 92.0475 60.1116C92.0514 60.1156 92.0546 60.1203 92.0567 60.1254C92.0589 60.1306 92.06 60.1362 92.06 60.1418C92.06 60.1474 92.0589 60.1529 92.0567 60.1581C92.0546 60.1633 92.0514 60.168 92.0475 60.172L90.8279 61.3915C90.824 61.3955 90.8193 61.3986 90.8141 61.4008C90.8089 61.4029 90.8034 61.404 90.7978 61.404Z" fill="#CCCCCC"/>
<path d="M35.95 59.4915H35.2268C35.1729 59.4914 35.1212 59.47 35.083 59.4319C35.0449 59.3937 35.0234 59.342 35.0234 59.2881V58.3389C35.0234 58.2849 35.0449 58.2332 35.083 58.1951C35.1212 58.157 35.1729 58.1355 35.2268 58.1355H35.95C36.0039 58.1355 36.0556 58.157 36.0938 58.1951C36.1319 58.2332 36.1534 58.2849 36.1534 58.3389V59.2881C36.1534 59.342 36.1319 59.3937 36.0938 59.4319C36.0556 59.47 36.0039 59.4914 35.95 59.4915Z" fill="#3F3D56"/>
<path d="M42.0521 67.2209H38.3456C38.2437 67.2208 38.146 67.1802 38.074 67.1082C38.002 67.0362 37.9615 66.9385 37.9613 66.8367V59.6496C37.9615 59.5478 38.002 59.4501 38.074 59.3781C38.146 59.3061 38.2437 59.2655 38.3456 59.2654H42.0521C42.1539 59.2655 42.2516 59.3061 42.3236 59.3781C42.3957 59.4501 42.4362 59.5478 42.4363 59.6496V66.8367C42.4362 66.9385 42.3957 67.0362 42.3236 67.1082C42.2516 67.1802 42.1539 67.2208 42.0521 67.2209Z" fill="#3F3D56"/>
<path d="M39.8373 67.2209H33.4187C33.3168 67.2208 33.2191 67.1802 33.1471 67.1082C33.0751 67.0362 33.0346 66.9385 33.0345 66.8367V59.6496C33.0346 59.5478 33.0751 59.4501 33.1471 59.3781C33.2191 59.3061 33.3168 59.2655 33.4187 59.2654H39.8373C39.9391 59.2655 40.0368 59.3061 40.1088 59.3781C40.1808 59.4501 40.2214 59.5478 40.2215 59.6496V66.8367C40.2214 66.9385 40.1808 67.0362 40.1088 67.1082C40.0368 67.1802 39.9391 67.2208 39.8373 67.2209Z" fill="#362FD9"/>
<path d="M35.2715 59.4915H34.5483C34.4943 59.4914 34.4426 59.47 34.4045 59.4319C34.3664 59.3937 34.3449 59.342 34.3449 59.2881V58.3389C34.3449 58.2849 34.3664 58.2332 34.4045 58.1951C34.4426 58.157 34.4943 58.1355 34.5483 58.1355H35.2715C35.3254 58.1355 35.3771 58.157 35.4153 58.1951C35.4534 58.2332 35.4748 58.2849 35.4749 58.3389V59.2881C35.4748 59.342 35.4534 59.3937 35.4153 59.4319C35.3771 59.47 35.3254 59.4914 35.2715 59.4915Z" fill="#362FD9"/>
<path d="M36.2208 62.8137H35.362C35.332 62.8136 35.3033 62.8017 35.2821 62.7805C35.2609 62.7593 35.249 62.7306 35.249 62.7007V61.3898C35.249 61.3599 35.2609 61.3311 35.2821 61.31C35.3033 61.2888 35.332 61.2768 35.362 61.2768H36.2208C36.2508 61.2768 36.2795 61.2888 36.3007 61.31C36.3219 61.3311 36.3338 61.3599 36.3338 61.3898V62.7007C36.3338 62.7306 36.3219 62.7593 36.3007 62.7805C36.2795 62.8017 36.2508 62.8136 36.2208 62.8137Z" fill="white"/>
<path d="M37.8935 62.8137H37.0347C37.0048 62.8136 36.976 62.8017 36.9549 62.7805C36.9337 62.7593 36.9217 62.7306 36.9217 62.7007V61.3898C36.9217 61.3599 36.9337 61.3311 36.9549 61.31C36.976 61.2888 37.0048 61.2768 37.0347 61.2768H37.8935C37.9235 61.2768 37.9522 61.2888 37.9734 61.31C37.9946 61.3311 38.0065 61.3599 38.0065 61.3898V62.7007C38.0065 62.7306 37.9946 62.7593 37.9734 62.7805C37.9522 62.8017 37.9235 62.8136 37.8935 62.8137Z" fill="white"/>
<path d="M36.2208 65.2093H35.362C35.332 65.2093 35.3033 65.1974 35.2821 65.1762C35.2609 65.155 35.249 65.1263 35.249 65.0963V63.7855C35.249 63.7555 35.2609 63.7268 35.2821 63.7056C35.3033 63.6844 35.332 63.6725 35.362 63.6725H36.2208C36.2508 63.6725 36.2795 63.6844 36.3007 63.7056C36.3219 63.7268 36.3338 63.7555 36.3338 63.7855V65.0963C36.3338 65.1263 36.3219 65.155 36.3007 65.1762C36.2795 65.1974 36.2508 65.2093 36.2208 65.2093Z" fill="white"/>
<path d="M37.8935 65.2093H37.0347C37.0048 65.2093 36.976 65.1974 36.9549 65.1762C36.9337 65.155 36.9217 65.1263 36.9217 65.0963V63.7855C36.9217 63.7555 36.9337 63.7268 36.9549 63.7056C36.976 63.6844 37.0048 63.6725 37.0347 63.6725H37.8935C37.9235 63.6725 37.9522 63.6844 37.9734 63.7056C37.9946 63.7268 38.0065 63.7555 38.0065 63.7855V65.0963C38.0065 65.1263 37.9946 65.155 37.9734 65.1762C37.9522 65.1974 37.9235 65.2093 37.8935 65.2093Z" fill="white"/>
<path d="M10.2228 36.9629H9.36974C9.30614 36.9629 9.24515 36.9376 9.20018 36.8926C9.1552 36.8476 9.1299 36.7866 9.12983 36.723V34.7504C9.1299 34.6868 9.1552 34.6258 9.20018 34.5809C9.24515 34.5359 9.30614 34.5106 9.36974 34.5105H10.2228C10.2864 34.5106 10.3473 34.5359 10.3923 34.5809C10.4373 34.6258 10.4626 34.6868 10.4627 34.7504V36.723C10.4626 36.7866 10.4373 36.8476 10.3923 36.8926C10.3473 36.9376 10.2864 36.9629 10.2228 36.9629Z" fill="#3F3D56"/>
<path d="M13.5816 55.3558H9.20992C9.08978 55.3557 8.9746 55.3079 8.88964 55.223C8.80468 55.138 8.75689 55.0228 8.75676 54.9027V37.256C8.75689 37.1358 8.80468 37.0206 8.88964 36.9357C8.9746 36.8507 9.08978 36.8029 9.20992 36.8028H13.5816C13.7018 36.8029 13.8169 36.8507 13.9019 36.9357C13.9869 37.0206 14.0346 37.1358 14.0348 37.256V54.9027C14.0346 55.0228 13.9869 55.138 13.9019 55.223C13.8169 55.3079 13.7018 55.3557 13.5816 55.3558Z" fill="#3F3D56"/>
<path d="M10.9694 55.3558H6.59766C6.47752 55.3557 6.36234 55.3079 6.27738 55.223C6.19242 55.138 6.14464 55.0228 6.1445 54.9027V37.256C6.14464 37.1358 6.19242 37.0206 6.27738 36.9357C6.36234 36.8507 6.47752 36.8029 6.59766 36.8028H10.9694C11.0895 36.8029 11.2047 36.8507 11.2896 36.9357C11.3746 37.0206 11.4224 37.1358 11.4225 37.256V54.9027C11.4224 55.0228 11.3746 55.138 11.2896 55.223C11.2047 55.3079 11.0895 55.3557 10.9694 55.3558Z" fill="#362FD9"/>
<path d="M9.4229 36.9629H8.56988C8.50627 36.9629 8.44529 36.9376 8.40032 36.8926C8.35534 36.8476 8.33004 36.7866 8.32997 36.723V34.7504C8.33004 34.6868 8.35534 34.6258 8.40032 34.5809C8.44529 34.5359 8.50627 34.5106 8.56988 34.5105H9.4229C9.4865 34.5106 9.54748 34.5359 9.59246 34.5809C9.63744 34.6258 9.66273 34.6868 9.66281 34.7504V36.723C9.66274 36.7866 9.63744 36.8476 9.59246 36.8926C9.54748 36.9376 9.4865 36.9629 9.4229 36.9629Z" fill="#362FD9"/>
<path d="M8.30375 40.8017H7.2908C7.25546 40.8016 7.22159 40.7876 7.1966 40.7626C7.17161 40.7376 7.15756 40.7037 7.15752 40.6684V39.1223C7.15756 39.087 7.17161 39.0531 7.1966 39.0281C7.22159 39.0031 7.25546 38.989 7.2908 38.989H8.30375C8.33909 38.989 8.37297 39.0031 8.39796 39.0281C8.42294 39.0531 8.437 39.087 8.43704 39.1223V40.6684C8.437 40.7037 8.42294 40.7376 8.39796 40.7626C8.37297 40.7876 8.33909 40.8016 8.30375 40.8017Z" fill="white"/>
<path d="M10.2761 40.8017H9.26312C9.22778 40.8016 9.19391 40.7876 9.16892 40.7626C9.14393 40.7376 9.12988 40.7037 9.12983 40.6684V39.1223C9.12987 39.087 9.14393 39.0531 9.16892 39.0281C9.19391 39.0031 9.22778 38.989 9.26312 38.989H10.2761C10.3114 38.989 10.3453 39.0031 10.3703 39.0281C10.3953 39.0531 10.4093 39.087 10.4094 39.1223V40.6684C10.4093 40.7037 10.3953 40.7376 10.3703 40.7626C10.3453 40.7876 10.3114 40.8016 10.2761 40.8017Z" fill="white"/>
<path d="M8.30375 43.6272H7.2908C7.25546 43.6271 7.22159 43.6131 7.1966 43.5881C7.17161 43.5631 7.15756 43.5292 7.15752 43.4939V41.9478C7.15756 41.9125 7.17161 41.8786 7.1966 41.8536C7.22159 41.8286 7.25546 41.8146 7.2908 41.8145H8.30375C8.33909 41.8146 8.37297 41.8286 8.39796 41.8536C8.42294 41.8786 8.437 41.9125 8.43704 41.9478V43.4939C8.437 43.5292 8.42294 43.5631 8.39796 43.5881C8.37297 43.6131 8.33909 43.6271 8.30375 43.6272Z" fill="white"/>
<path d="M10.2761 43.6272H9.26312C9.22778 43.6271 9.19391 43.6131 9.16892 43.5881C9.14393 43.5631 9.12988 43.5292 9.12983 43.4939V41.9478C9.12987 41.9125 9.14393 41.8786 9.16892 41.8536C9.19391 41.8286 9.22778 41.8146 9.26312 41.8145H10.2761C10.3114 41.8146 10.3453 41.8286 10.3703 41.8536C10.3953 41.8786 10.4093 41.9125 10.4094 41.9478V43.4939C10.4093 43.5292 10.3953 43.5631 10.3703 43.5881C10.3453 43.6131 10.3114 43.6271 10.2761 43.6272Z" fill="white"/>
<path d="M8.30375 46.4527H7.2908C7.25546 46.4527 7.22159 46.4386 7.1966 46.4136C7.17161 46.3886 7.15756 46.3548 7.15752 46.3194V44.7733C7.15756 44.738 7.17161 44.7041 7.1966 44.6791C7.22159 44.6542 7.25546 44.6401 7.2908 44.6401H8.30375C8.33909 44.6401 8.37297 44.6542 8.39796 44.6791C8.42294 44.7041 8.437 44.738 8.43704 44.7733V46.3194C8.437 46.3548 8.42294 46.3886 8.39796 46.4136C8.37297 46.4386 8.33909 46.4527 8.30375 46.4527Z" fill="white"/>
<path d="M10.2761 46.4527H9.26312C9.22778 46.4527 9.19391 46.4386 9.16892 46.4136C9.14393 46.3886 9.12987 46.3548 9.12983 46.3194V44.7733C9.12988 44.738 9.14393 44.7041 9.16892 44.6791C9.19391 44.6542 9.22778 44.6401 9.26312 44.6401H10.2761C10.3114 44.6401 10.3453 44.6542 10.3703 44.6791C10.3953 44.7041 10.4093 44.738 10.4094 44.7733V46.3194C10.4093 46.3548 10.3953 46.3886 10.3703 46.4136C10.3453 46.4386 10.3114 46.4527 10.2761 46.4527Z" fill="white"/>
<path d="M8.30375 49.2781H7.2908C7.25546 49.2781 7.22159 49.264 7.1966 49.239C7.17161 49.2141 7.15756 49.1802 7.15752 49.1448V47.5988C7.15756 47.5634 7.17161 47.5295 7.1966 47.5046C7.22159 47.4796 7.25546 47.4655 7.2908 47.4655H8.30375C8.33909 47.4655 8.37297 47.4796 8.39796 47.5046C8.42294 47.5295 8.437 47.5634 8.43704 47.5988V49.1448C8.437 49.1802 8.42294 49.2141 8.39796 49.239C8.37297 49.264 8.33909 49.2781 8.30375 49.2781Z" fill="white"/>
<path d="M10.2761 49.2781H9.26312C9.22778 49.2781 9.19391 49.264 9.16892 49.239C9.14393 49.2141 9.12987 49.1802 9.12983 49.1448V47.5988C9.12988 47.5634 9.14393 47.5295 9.16892 47.5046C9.19391 47.4796 9.22778 47.4655 9.26312 47.4655H10.2761C10.3114 47.4655 10.3453 47.4796 10.3703 47.5046C10.3953 47.5295 10.4093 47.5634 10.4094 47.5988V49.1448C10.4093 49.1802 10.3953 49.2141 10.3703 49.239C10.3453 49.264 10.3114 49.2781 10.2761 49.2781Z" fill="white"/>
<path d="M8.30375 52.1039H7.2908C7.25546 52.1038 7.22159 52.0898 7.1966 52.0648C7.17161 52.0398 7.15756 52.0059 7.15752 51.9706V50.4245C7.15756 50.3892 7.17161 50.3553 7.1966 50.3303C7.22159 50.3053 7.25546 50.2913 7.2908 50.2912H8.30375C8.33909 50.2913 8.37297 50.3053 8.39796 50.3303C8.42294 50.3553 8.437 50.3892 8.43704 50.4245V51.9706C8.437 52.0059 8.42294 52.0398 8.39796 52.0648C8.37297 52.0898 8.33909 52.1038 8.30375 52.1039Z" fill="white"/>
<path d="M10.2761 52.1039H9.26312C9.22778 52.1038 9.19391 52.0898 9.16892 52.0648C9.14393 52.0398 9.12988 52.0059 9.12983 51.9706V50.4245C9.12988 50.3892 9.14393 50.3553 9.16892 50.3303C9.19391 50.3053 9.22778 50.2913 9.26312 50.2912H10.2761C10.3114 50.2913 10.3453 50.3053 10.3703 50.3303C10.3953 50.3553 10.4093 50.3892 10.4094 50.4245V51.9706C10.4093 52.0059 10.3953 52.0398 10.3703 52.0648C10.3453 52.0898 10.3114 52.1038 10.2761 52.1039Z" fill="white"/>
<path d="M78.0691 59.5158H77.3459C77.292 59.5157 77.2403 59.4943 77.2021 59.4562C77.164 59.418 77.1426 59.3663 77.1425 59.3124V58.3632C77.1426 58.3092 77.164 58.2575 77.2021 58.2194C77.2403 58.1813 77.292 58.1598 77.3459 58.1598H78.0691C78.1231 58.1598 78.1748 58.1813 78.2129 58.2194C78.251 58.2575 78.2725 58.3092 78.2725 58.3632V59.3124C78.2725 59.3663 78.251 59.418 78.2129 59.4562C78.1748 59.4943 78.1231 59.5157 78.0691 59.5158Z" fill="#3F3D56"/>
<path d="M84.171 67.2449H80.4644C80.3626 67.2448 80.2649 67.2043 80.1929 67.1323C80.1209 67.0602 80.0803 66.9626 80.0802 66.8607V59.6737C80.0803 59.5718 80.1209 59.4742 80.1929 59.4021C80.2649 59.3301 80.3626 59.2896 80.4644 59.2895H84.171C84.2728 59.2896 84.3705 59.3301 84.4425 59.4021C84.5145 59.4742 84.5551 59.5718 84.5552 59.6737V66.8607C84.5551 66.9626 84.5145 67.0602 84.4425 67.1323C84.3705 67.2043 84.2728 67.2448 84.171 67.2449Z" fill="#3F3D56"/>
<path d="M81.9562 67.2449H75.5375C75.4357 67.2448 75.338 67.2043 75.266 67.1323C75.194 67.0602 75.1535 66.9626 75.1533 66.8607V59.6737C75.1535 59.5718 75.194 59.4742 75.266 59.4021C75.338 59.3301 75.4357 59.2896 75.5375 59.2895H81.9562C82.058 59.2896 82.1557 59.3301 82.2277 59.4021C82.2997 59.4742 82.3403 59.5718 82.3404 59.6737V66.8607C82.3403 66.9626 82.2997 67.0602 82.2277 67.1323C82.1557 67.2043 82.058 67.2448 81.9562 67.2449Z" fill="#362FD9"/>
<path d="M77.3911 59.5158H76.6679C76.6139 59.5157 76.5622 59.4943 76.5241 59.4562C76.486 59.418 76.4645 59.3663 76.4645 59.3124V58.3632C76.4645 58.3092 76.486 58.2575 76.5241 58.2194C76.5622 58.1813 76.6139 58.1598 76.6679 58.1598H77.3911C77.445 58.1598 77.4967 58.1813 77.5349 58.2194C77.573 58.2575 77.5944 58.3092 77.5945 58.3632V59.3124C77.5944 59.3663 77.573 59.418 77.5349 59.4562C77.4967 59.4943 77.445 59.5157 77.3911 59.5158Z" fill="#362FD9"/>
<path d="M78.3402 62.8381H77.4814C77.4514 62.838 77.4227 62.8261 77.4015 62.8049C77.3803 62.7838 77.3684 62.755 77.3683 62.7251V61.4142C77.3684 61.3843 77.3803 61.3556 77.4015 61.3344C77.4227 61.3132 77.4514 61.3013 77.4814 61.3012H78.3402C78.3701 61.3013 78.3989 61.3132 78.42 61.3344C78.4412 61.3556 78.4531 61.3843 78.4532 61.4142V62.7251C78.4531 62.755 78.4412 62.7838 78.42 62.8049C78.3989 62.8261 78.3701 62.838 78.3402 62.8381Z" fill="white"/>
<path d="M80.0127 62.8381H79.1538C79.1239 62.838 79.0952 62.8261 79.074 62.8049C79.0528 62.7838 79.0409 62.755 79.0408 62.7251V61.4142C79.0409 61.3843 79.0528 61.3556 79.074 61.3344C79.0952 61.3132 79.1239 61.3013 79.1538 61.3012H80.0127C80.0426 61.3013 80.0714 61.3132 80.0925 61.3344C80.1137 61.3556 80.1256 61.3843 80.1257 61.4142V62.7251C80.1256 62.755 80.1137 62.7838 80.0925 62.8049C80.0714 62.8261 80.0426 62.838 80.0127 62.8381Z" fill="white"/>
<path d="M78.3402 65.2339H77.4814C77.4514 65.2338 77.4227 65.2219 77.4015 65.2007C77.3803 65.1796 77.3684 65.1508 77.3683 65.1209V63.81C77.3684 63.7801 77.3803 63.7514 77.4015 63.7302C77.4227 63.709 77.4514 63.6971 77.4814 63.697H78.3402C78.3701 63.6971 78.3989 63.709 78.42 63.7302C78.4412 63.7514 78.4531 63.7801 78.4532 63.81V65.1209C78.4531 65.1508 78.4412 65.1796 78.42 65.2007C78.3989 65.2219 78.3701 65.2338 78.3402 65.2339Z" fill="white"/>
<path d="M80.0127 65.2339H79.1538C79.1239 65.2338 79.0952 65.2219 79.074 65.2007C79.0528 65.1796 79.0409 65.1508 79.0408 65.1209V63.81C79.0409 63.7801 79.0528 63.7514 79.074 63.7302C79.0952 63.709 79.1239 63.6971 79.1538 63.697H80.0127C80.0426 63.6971 80.0714 63.709 80.0925 63.7302C80.1137 63.7514 80.1256 63.7801 80.1257 63.81V65.1209C80.1256 65.1508 80.1137 65.1796 80.0925 65.2007C80.0714 65.2219 80.0426 65.2338 80.0127 65.2339Z" fill="white"/>
</g>
<defs>
<clipPath id="clip0_392_2865">
<rect width="100.992" height="81.5845" fill="white"/>
</clipPath>
</defs>
</svg>
