<svg width="8" height="8" viewBox="0 0 8 8" fill="none" xmlns="http://www.w3.org/2000/svg">
<path d="M3.99562 0.204886C4.7454 0.204886 5.47835 0.427467 6.10177 0.844483C6.72519 1.2615 7.21109 1.85422 7.49802 2.54769C7.78495 3.24117 7.86002 4.00424 7.71374 4.74043C7.56747 5.47662 7.20641 6.15285 6.67624 6.68361C6.14606 7.21437 5.47058 7.57582 4.7352 7.72226C3.99983 7.86869 3.23759 7.79354 2.54488 7.50629C1.85218 7.21904 1.26011 6.73261 0.843552 6.1085C0.426996 5.4844 0.20466 4.75064 0.20466 4.00003C0.205673 2.99381 0.605401 2.02909 1.31613 1.31758C2.02685 0.606069 2.99051 0.2059 3.99562 0.204886ZM3.99562 0C3.20536 0 2.43285 0.234598 1.77578 0.674127C1.1187 1.11366 0.606569 1.73838 0.30415 2.46929C0.00173092 3.2002 -0.0773953 4.00447 0.0767767 4.7804C0.230949 5.55633 0.611494 6.26907 1.17029 6.82848C1.72909 7.3879 2.44104 7.76886 3.21612 7.92321C3.99119 8.07755 4.79458 7.99833 5.52468 7.69558C6.25479 7.39283 6.87882 6.88013 7.31786 6.22233C7.75691 5.56453 7.99124 4.79116 7.99124 4.00003C7.99124 2.93916 7.57028 1.92173 6.82095 1.17158C6.07163 0.421432 5.05533 0 3.99562 0Z" fill="#231F20"/>
</svg>
