<svg width="38" height="42" viewBox="0 0 38 42" fill="none" xmlns="http://www.w3.org/2000/svg">
<path d="M37.865 12.9168C37.865 11.3151 37.801 10.5214 37.6748 10.112C37.5485 9.70271 37.4259 9.61017 37.2197 9.50695C37.0612 9.41798 36.88 9.37774 36.6988 9.39127C36.4562 9.37715 36.2134 9.41664 35.9877 9.50695C36.0335 9.42015 36.0883 9.33843 36.1513 9.26314C36.1104 8.76661 36.0517 7.80559 35.9628 7.30551C35.8094 6.41689 35.5229 5.55653 35.1131 4.75347C34.7121 3.97427 34.1894 3.26415 33.5647 2.64991C32.9382 2.03329 32.2182 1.51974 31.4315 1.1283C30.6126 0.723482 29.7387 0.441643 28.8378 0.291864C27.7658 0.126714 26.6834 0.0386924 25.5989 0.0284745C25.0655 0.0106779 24.5145 0.00177966 23.9989 0H12.2661C11.7328 0 11.1995 0.0106779 10.6662 0.0284745C9.5857 0.0403975 8.50745 0.129608 7.43967 0.295424C6.53814 0.444932 5.66357 0.72678 4.84423 1.13186C4.05766 1.52364 3.33774 2.03715 2.71099 2.65348C2.08192 3.26678 1.55498 3.97695 1.15017 4.75703C0.73876 5.55943 0.452208 6.42003 0.300431 7.30907C0.132297 8.35869 0.0413896 9.41925 0.0284432 10.4822C0.0106662 11.0161 0.0017777 11.55 0 12.0643V29.9357C0 30.4518 0.0106662 30.9875 0.0284432 31.5178C0.0413896 32.5807 0.132297 33.6413 0.300431 34.6909C0.452208 35.58 0.73876 36.4406 1.15017 37.243C1.55119 38.0222 2.0739 38.7323 2.69855 39.3465C3.32529 39.9628 4.04522 40.4764 4.83178 40.8681C5.65113 41.2732 6.52569 41.5551 7.42722 41.7046C8.49911 41.871 9.58155 41.9602 10.6662 41.9715C11.1995 41.9893 11.7506 41.9982 12.2661 42H23.9989C24.5233 42 25.0655 41.9893 25.5989 41.9715C26.6793 41.9595 27.7576 41.8703 28.8254 41.7046C29.7263 41.5548 30.6002 41.273 31.419 40.8681C32.2058 40.4767 32.9258 39.9631 33.5523 39.3465C34.1769 38.7323 34.6996 38.0222 35.1006 37.243C35.5105 36.4399 35.7969 35.5795 35.9504 34.6909C36.0268 34.2691 36.0802 33.8367 36.1193 33.4096C36.1262 33.3092 36.1226 33.2084 36.1086 33.1088C36.0926 33.0127 36.073 32.9593 36.0624 32.8935H36.1602C36.1939 32.4041 36.2117 31.9342 36.2224 31.5178C36.2384 30.9839 36.249 30.45 36.2508 29.9357V22.2653H36.1637L36.2508 21.9717V16.8107C36.2202 16.7383 36.1846 16.6681 36.1442 16.6007C36.3216 16.6434 36.504 16.6619 36.6864 16.6558C36.8676 16.6694 37.0487 16.6291 37.2072 16.5402C37.4134 16.4369 37.5432 16.3213 37.6623 15.9351C37.7814 15.5489 37.8525 14.5576 37.8525 12.9506L37.865 12.9168Z" fill="#D0D0D0"/>
</svg>
