<svg width="29" height="62" viewBox="0 0 29 62" fill="none" xmlns="http://www.w3.org/2000/svg">
<path d="M0.329403 1.65016C-1.0146e-08 2.29665 -1.38848e-08 3.14295 -2.13623e-08 4.83556L-2.52538e-07 57.1644C-2.60015e-07 58.8571 -2.63754e-07 59.7034 0.329402 60.3498C0.619153 60.9185 1.08149 61.3809 1.65016 61.6706C2.29665 62 3.14295 62 4.83556 62L23.8311 62C25.5237 62 26.37 62 27.0165 61.6706C27.5852 61.3809 28.0475 60.9185 28.3373 60.3498C28.6667 59.7034 28.6667 58.8571 28.6667 57.1644L28.6667 4.83556C28.6667 3.14295 28.6667 2.29665 28.3373 1.65016C28.0475 1.08149 27.5852 0.619153 27.0165 0.329402C26.37 -1.16496e-07 25.5237 -1.12757e-07 23.8311 -1.0528e-07L22.3457 -9.87175e-08C22.2721 -9.83925e-08 22.2353 -9.823e-08 22.2059 0.0107212C22.1565 0.0286943 22.1176 0.0675934 22.0996 0.116974C22.0889 0.146431 22.0889 0.183217 22.0889 0.25679C22.0889 0.845373 22.0889 1.13967 22.0031 1.37532C21.8593 1.77036 21.5481 2.08156 21.1531 2.22534C20.9174 2.31111 20.6232 2.31111 20.0346 2.31111L8.6321 2.31111C8.04352 2.31111 7.74922 2.31111 7.51357 2.22534C7.11853 2.08156 6.80733 1.77036 6.66355 1.37532C6.57778 1.13967 6.57778 0.845373 6.57778 0.25679C6.57778 0.183217 6.57778 0.146431 6.56706 0.116974C6.54908 0.0675935 6.51019 0.0286944 6.4608 0.0107213C6.43135 -2.84121e-08 6.39456 -2.82495e-08 6.32099 -2.79245e-08L4.83556 -2.13623e-08C3.14295 -1.38848e-08 2.29665 -1.0146e-08 1.65016 0.329403C1.08149 0.619153 0.619153 1.08149 0.329403 1.65016Z" fill="white"/>
<path d="M0.329403 1.65016C-1.0146e-08 2.29665 -1.38848e-08 3.14295 -2.13623e-08 4.83556L-2.52538e-07 57.1644C-2.60015e-07 58.8571 -2.63754e-07 59.7034 0.329402 60.3498C0.619153 60.9185 1.08149 61.3809 1.65016 61.6706C2.29665 62 3.14295 62 4.83556 62L23.8311 62C25.5237 62 26.37 62 27.0165 61.6706C27.5852 61.3809 28.0475 60.9185 28.3373 60.3498C28.6667 59.7034 28.6667 58.8571 28.6667 57.1644L28.6667 4.83556C28.6667 3.14295 28.6667 2.29665 28.3373 1.65016C28.0475 1.08149 27.5852 0.619153 27.0165 0.329402C26.37 -1.16496e-07 25.5237 -1.12757e-07 23.8311 -1.0528e-07L22.3457 -9.87175e-08C22.2721 -9.83925e-08 22.2353 -9.823e-08 22.2059 0.0107212C22.1565 0.0286943 22.1176 0.0675934 22.0996 0.116974C22.0889 0.146431 22.0889 0.183217 22.0889 0.25679C22.0889 0.845373 22.0889 1.13967 22.0031 1.37532C21.8593 1.77036 21.5481 2.08156 21.1531 2.22534C20.9174 2.31111 20.6232 2.31111 20.0346 2.31111L8.6321 2.31111C8.04352 2.31111 7.74922 2.31111 7.51357 2.22534C7.11853 2.08156 6.80733 1.77036 6.66355 1.37532C6.57778 1.13967 6.57778 0.845373 6.57778 0.25679C6.57778 0.183217 6.57778 0.146431 6.56706 0.116974C6.54908 0.0675935 6.51019 0.0286944 6.4608 0.0107213C6.43135 -2.84121e-08 6.39456 -2.82495e-08 6.32099 -2.79245e-08L4.83556 -2.13623e-08C3.14295 -1.38848e-08 2.29665 -1.0146e-08 1.65016 0.329403C1.08149 0.619153 0.619153 1.08149 0.329403 1.65016Z" fill="white"/>
</svg>
