<svg width="33" height="39" viewBox="0 0 33 39" fill="none" xmlns="http://www.w3.org/2000/svg">
<path d="M33 28.4922C33 28.9245 32.9912 29.3708 32.9772 29.8224C32.9662 30.7187 32.8918 31.613 32.7543 32.4987C32.6277 33.2454 32.3911 33.969 32.0521 34.6461C31.7244 35.2993 31.2948 35.896 30.7795 36.4139C30.2634 36.9317 29.6715 37.3678 29.0242 37.7072C28.35 38.0442 27.6304 38.281 26.888 38.4101C26.0134 38.5493 25.13 38.6257 24.2445 38.6386C23.9601 38.6386 23.6758 38.6386 23.3914 38.6474H22.8771C22.3365 38.6474 10.6741 38.6474 10.1335 38.6474H9.61916C9.33479 38.6474 9.05043 38.6474 8.76607 38.6386C7.88058 38.6257 6.99715 38.5493 6.12256 38.4101C5.38015 38.281 4.6605 38.0442 3.98633 37.7072C3.33903 37.3678 2.74714 36.9317 2.23101 36.4139C1.71574 35.896 1.28615 35.2993 0.958405 34.6461C0.615827 33.9696 0.375646 33.2459 0.245745 32.4987C0.108602 31.6154 0.0341073 30.7234 0.0228192 29.8295C0.00877662 29.3831 0.00175532 28.9315 0 28.4992V10.1464C0 9.71412 0.00877662 9.26778 0.0228192 8.81616C0.0337757 7.91991 0.108271 7.02556 0.245745 6.13986C0.372315 5.39322 0.608939 4.66954 0.947873 3.99249C1.27562 3.33931 1.70521 2.74257 2.22048 2.22469C2.73661 1.70687 3.3285 1.27075 3.9758 0.931347C4.64997 0.594367 5.36961 0.357576 6.11202 0.228444C6.98662 0.0892479 7.87005 0.0129044 8.75554 0C9.0399 0 9.32426 0 9.60862 0H10.1229C10.6636 0 22.3259 0 22.8666 0H23.3809C23.6652 0 23.9496 0 24.234 0C25.1194 0.0129044 26.0029 0.0892479 26.8775 0.228444C27.6199 0.357576 28.3395 0.594367 29.0137 0.931347C29.661 1.27075 30.2529 1.70687 30.769 2.22469C31.2843 2.74257 31.7139 3.33931 32.0416 3.99249C32.3805 4.66954 32.6172 5.39322 32.7437 6.13986C32.8809 7.02324 32.9554 7.91522 32.9667 8.80913C32.9807 9.25548 32.9877 9.70709 32.9895 10.1394L33 28.4922Z" fill="#231F20"/>
</svg>
