<svg width="34" height="39" viewBox="0 0 34 39" fill="none" xmlns="http://www.w3.org/2000/svg">
<path d="M33.3012 28.7522C33.3012 29.1884 33.2923 29.6388 33.2781 30.0946C33.2671 30.999 33.1919 31.9015 33.0532 32.7953C32.9254 33.5488 32.6867 34.279 32.3446 34.9623C32.0139 35.6214 31.5804 36.2236 31.0604 36.7462C30.5396 37.2687 29.9423 37.7088 29.2891 38.0513C28.6088 38.3914 27.8825 38.6304 27.1334 38.7607C26.2508 38.9011 25.3593 38.9782 24.4657 38.9912C24.1788 38.9912 23.8918 38.9912 23.6049 39.0001H23.0859C22.5403 39.0001 10.7715 39.0001 10.2259 39.0001H9.70693C9.41998 39.0001 9.13302 39.0001 8.84606 38.9912C7.9525 38.9782 7.06101 38.9011 6.17843 38.7607C5.42924 38.6304 4.70303 38.3914 4.02271 38.0513C3.3695 37.7088 2.77221 37.2687 2.25137 36.7462C1.7314 36.2236 1.29789 35.6214 0.967151 34.9623C0.621446 34.2796 0.379074 33.5493 0.247987 32.7953C0.109593 31.9039 0.0344186 31.0037 0.0230274 30.1017C0.00885671 29.6513 0.00177134 29.1955 0 28.7593V10.239C0 9.80277 0.00885671 9.35235 0.0230274 8.89662C0.0340839 7.99218 0.109259 7.08967 0.247987 6.19589C0.375713 5.44244 0.614496 4.71215 0.956523 4.02892C1.28726 3.36979 1.72077 2.7676 2.24074 2.24499C2.76158 1.72244 3.35887 1.28235 4.01208 0.939846C4.6924 0.599791 5.41861 0.36084 6.1678 0.230529C7.05038 0.0900623 7.94187 0.0130222 8.83544 0C9.12239 0 9.40935 0 9.69631 0H10.2153C10.7609 0 22.5297 0 23.0752 0H23.5942C23.8812 0 24.1681 0 24.4551 0C25.3487 0.0130222 26.2402 0.0900623 27.1227 0.230529C27.8719 0.36084 28.5981 0.599791 29.2784 0.939846C29.9317 1.28235 30.5289 1.72244 31.0498 2.24499C31.5698 2.7676 32.0033 3.36979 32.334 4.02892C32.676 4.71215 32.9148 5.44244 33.0425 6.19589C33.1809 7.08733 33.2561 7.98746 33.2675 8.88952C33.2817 9.33994 33.2888 9.79568 33.2905 10.2319L33.3012 28.7522Z" fill="#D0D0D0"/>
</svg>
