<svg width="6" height="5" viewBox="0 0 6 5" fill="none" xmlns="http://www.w3.org/2000/svg">
<path d="M4.95721 4.9698C4.95857 4.80269 5.01014 4.63987 5.10521 4.5025C5.20028 4.36514 5.33444 4.25959 5.49025 4.19961C3.66926 3.22304 2.08726 1.85435 0.858188 0.192107C0.820855 0.141886 0.774007 0.0995179 0.720319 0.0674219C0.66663 0.0353259 0.607153 0.0141299 0.545282 0.00504552C0.483411 -0.0040389 0.420359 -0.000833043 0.359725 0.0144772C0.299091 0.0297874 0.242063 0.0569044 0.191897 0.0942784C0.141731 0.131652 0.0994099 0.17855 0.0673493 0.232298C0.0352887 0.286046 0.0141168 0.345589 0.00504241 0.407528C-0.0132842 0.53262 0.0187772 0.659879 0.094174 0.761306C1.38986 2.51307 3.05272 3.9598 4.9661 5.00004C4.96077 4.98937 4.95721 4.9787 4.95721 4.9698Z" fill="white"/>
</svg>
