<svg width="16" height="13" viewBox="0 0 16 13" fill="none" xmlns="http://www.w3.org/2000/svg">
<path d="M12.7509 7.78271V10.6118C12.7509 11.4193 12.0997 12.0738 11.2965 12.0738C10.4934 12.0738 9.84208 11.4193 9.84208 10.6118V4.9536C9.84208 4.14615 10.4934 3.49158 11.2965 3.49158C12.0997 3.49158 12.7509 4.14615 12.7509 4.9536V5.63715" stroke="#362FD9" stroke-width="1.45327" stroke-linejoin="round"/>
<path d="M15.2722 12.0738V4.71205C15.2722 2.5116 13.4814 0.727799 11.2725 0.727799C9.0635 0.727799 7.27278 2.5116 7.27278 4.71205V6.45139" stroke="#231F20" stroke-width="1.45327" stroke-linejoin="round"/>
<path d="M0.727827 9.20604V8.5668C0.727827 7.66521 1.46337 6.93433 2.37015 6.93433C3.27731 6.93433 4.01286 7.66521 4.01286 8.5668V9.09628C4.01286 9.99103 4.74269 10.7163 5.64262 10.7163C6.54293 10.7163 7.27277 9.99103 7.27277 9.09628V8.44464" stroke="#362FD9" stroke-width="1.45327" stroke-linejoin="round"/>
</svg>
