<svg width="94" height="107" viewBox="0 0 94 107" fill="none" xmlns="http://www.w3.org/2000/svg">
<g clip-path="url(#clip0_392_2724)">
<path d="M44.9859 100.379L44.8664 97.6946C44.854 97.688 44.8416 97.6814 44.8291 97.6749C43.549 97.0036 42.0818 98.2188 42.4907 99.6046C42.8754 100.908 43.1339 102.314 43.8381 103.455C44.2542 104.118 44.8142 104.679 45.4766 105.096C46.1391 105.513 46.8869 105.776 47.6649 105.865L49.2913 106.86C49.5144 105.617 49.4652 104.34 49.147 103.118C48.8289 101.895 48.2492 100.756 47.4481 99.779C46.9933 99.2353 46.4718 98.751 45.8958 98.3376C45.5063 99.364 44.9859 100.379 44.9859 100.379Z" fill="#F2F2F2"/>
<path d="M30.4244 73.1361C27.2932 69.9089 22.7555 68.0581 17.975 68.0581L17.7906 68.0586C14.6418 68.0598 11.5492 67.2252 8.82906 65.6401L8.54601 65.4753L8.77398 65.2405C10.0082 63.9644 11.0388 62.5063 11.8296 60.9172C11.268 61.4405 10.5981 61.834 9.86735 62.0699C9.13663 62.3058 8.36295 62.3783 7.60108 62.2823C6.79673 62.1865 6.02453 61.9099 5.34241 61.4733C4.66029 61.0367 4.08596 60.4513 3.6625 59.7612C1.99167 57.0521 0 53.2079 0 50.2794C0.00260092 47.8041 0.521226 45.3565 1.52282 43.0926C2.52442 40.8287 3.987 38.7981 5.81736 37.1304C6.97614 36.0862 7.90171 34.8097 8.53372 33.3841C9.16572 31.9585 9.48999 30.4158 9.48537 28.8565L9.48444 28.6346C9.48413 26.5818 9.73516 24.5366 10.2319 22.5447L10.2824 22.3435L10.4895 22.3508C11.8249 22.3962 13.1611 22.2843 14.4703 22.0175C13.2422 21.8669 12.0408 21.5476 10.9002 21.0685L10.6774 20.9785L10.753 20.7503C15.9648 17.5255 27.7295 19.1955 34.558 3.58243C40.095 -9.07763 59.6315 14.8208 59.6315 28.6346C59.6315 30.0442 58.2357 31.9068 59.2806 32.8385C70.5766 42.9095 62.7825 49.3765 60.3252 55.8839C59.7421 57.4278 61.0063 59.1228 61.0063 60.7932C61.0063 61.0766 60.9991 61.3692 60.9848 61.6627L60.9631 62.114L60.5864 61.8636C59.8413 61.3758 59.1507 60.8097 58.5263 60.1749C59.1741 61.6647 59.4793 63.2806 59.4197 64.9039C59.36 66.5271 58.9369 68.1163 58.1814 69.5546C56.9977 71.7874 55.8524 73.3859 54.7775 74.3054C51.3343 77.2501 46.8954 78.7691 42.3687 78.5517C37.842 78.3344 33.5693 76.3971 30.4244 73.1361Z" fill="#E6E6E6"/>
<path d="M49.3358 106.728C49.4128 106.728 49.4872 106.7 49.5453 106.649C49.6034 106.599 49.6414 106.529 49.6522 106.453C49.6658 106.358 50.9972 96.7615 49.8014 84.0078C48.6971 72.2295 45.1508 55.2646 34.5272 41.3315C34.5018 41.2981 34.47 41.2699 34.4337 41.2488C34.3973 41.2276 34.3572 41.2138 34.3155 41.2082C34.2739 41.2025 34.2315 41.2051 34.1908 41.2158C34.1502 41.2266 34.112 41.2452 34.0786 41.2707C34.0451 41.2961 34.017 41.328 33.9959 41.3643C33.9748 41.4006 33.961 41.4408 33.9554 41.4824C33.9498 41.5241 33.9525 41.5664 33.9632 41.607C33.974 41.6476 33.9927 41.6857 34.0183 41.7191C44.55 55.5318 48.0678 72.3723 49.1643 84.0675C50.3532 96.7469 49.0322 106.268 49.0187 106.363C49.0123 106.408 49.0157 106.455 49.0287 106.498C49.0417 106.542 49.0639 106.583 49.094 106.618C49.1241 106.652 49.1612 106.68 49.203 106.699C49.2447 106.718 49.29 106.728 49.3358 106.728Z" fill="#3F3D56"/>
<path d="M40.6672 60.9847C40.7347 60.9847 40.8006 60.9634 40.8553 60.9237C40.91 60.8841 40.9507 60.8281 40.9717 60.7639C40.9926 60.6997 40.9926 60.6305 40.9717 60.5662C40.9509 60.502 40.9102 60.446 40.8555 60.4063C40.817 60.3783 36.9306 57.5799 31.1205 55.4539C25.7495 53.4888 17.5821 51.7074 9.17385 54.3816C9.13375 54.3943 9.09655 54.4148 9.06438 54.4418C9.0322 54.4689 9.00568 54.502 8.98633 54.5393C8.96698 54.5767 8.95518 54.6174 8.95161 54.6593C8.94804 54.7012 8.95277 54.7433 8.96552 54.7834C8.97827 54.8234 8.9988 54.8606 9.02593 54.8927C9.05307 54.9248 9.08627 54.9513 9.12364 54.9705C9.16101 54.9898 9.20182 55.0015 9.24373 55.005C9.28564 55.0085 9.32783 55.0037 9.36788 54.9909C17.6038 52.3716 25.6232 54.1236 30.9004 56.0544C36.6276 58.15 40.4415 60.8961 40.4793 60.9236C40.5339 60.9633 40.5997 60.9847 40.6672 60.9847Z" fill="#3F3D56"/>
<path d="M55.3104 24.5375C55.3153 24.4701 55.2988 24.4029 55.2631 24.3456C55.2275 24.2882 55.1746 24.2436 55.112 24.2181C55.0494 24.1926 54.9803 24.1876 54.9147 24.2038C54.8491 24.2199 54.7903 24.2565 54.7467 24.3081C54.716 24.3445 51.6431 28.0167 49.1028 33.6549C46.7548 38.8669 44.3886 46.8794 46.4522 55.4529C46.472 55.5354 46.5238 55.6065 46.5962 55.6508C46.6686 55.6951 46.7556 55.7088 46.838 55.689C46.9205 55.6692 46.9918 55.6174 47.0361 55.5451C47.0804 55.4728 47.0941 55.3858 47.0743 55.3034C45.0531 46.9056 47.3793 39.0385 49.6864 33.9174C52.1903 28.3598 55.2058 24.7561 55.2359 24.7203C55.2795 24.6688 55.3056 24.6048 55.3104 24.5375Z" fill="#3F3D56"/>
<path d="M54.8776 41.024C55.1475 43.2005 56.6566 44.9951 58.8513 44.9951C59.9051 44.9951 60.9159 44.5767 61.6611 43.832C62.4063 43.0873 62.825 42.0772 62.825 41.024C62.825 38.8308 61.0365 37.2557 58.8513 37.0529C56.5326 36.8377 54.531 38.2296 54.8776 41.024Z" fill="#231F20"/>
<path d="M60.6917 104.979L62.205 104.979L62.9248 99.1457L60.6914 99.1459L60.6917 104.979Z" fill="#FFB6B6"/>
<path d="M60.6382 106.556L65.2916 106.556V106.497C65.2915 106.017 65.1007 105.557 64.761 105.217C64.4214 104.878 63.9607 104.687 63.4804 104.687L62.6303 104.043L61.0443 104.687L60.6381 104.687L60.6382 106.556Z" fill="#231F20"/>
<path d="M54.7306 104.979L56.2438 104.979L56.9636 99.1457L54.7303 99.1459L54.7306 104.979Z" fill="#FFB6B6"/>
<path d="M54.6773 106.556L59.3307 106.556V106.497C59.3306 106.017 59.1398 105.557 58.8001 105.217C58.4605 104.878 57.9998 104.687 57.5194 104.687L56.6693 104.043L55.0834 104.687L54.6772 104.687L54.6773 106.556Z" fill="#231F20"/>
<path d="M65.8986 68.4456L66.9684 72.1112L65.7081 87.6359C65.7081 87.6359 66.3571 88.6066 65.8986 88.6066C65.4401 88.6066 64.8521 88.8218 65.2225 89.4015C65.5929 89.9812 64.3269 92.0623 64.3269 92.0623L62.5362 103.116L60.2545 103.083C60.2545 103.083 59.0945 102.437 59.7455 101.784C60.3965 101.131 60.855 101.131 60.2437 100.52C59.6323 99.9089 59.6323 100.093 59.6323 99.6191C59.6323 99.1452 59.0199 93.3546 60.4724 91.1333L60.0347 82.0768L59.0039 90.9601L56.8813 102.811L54.6833 102.793C54.6833 102.793 53.668 101.815 53.6699 101.091C53.6718 100.367 54.2972 100.307 53.8316 99.8788C53.3661 99.4507 53.3661 92.8735 54.7416 89.2175C54.7416 89.2175 55.5197 87.1748 54.7399 86.4749C53.96 85.7749 54.7389 84.974 54.7389 84.974C54.7389 84.974 55.9741 84.5278 54.7378 83.2422C53.5015 81.9566 54.7311 72.864 54.7311 72.864C54.7311 72.864 53.3796 69.1937 54.7484 67.7505C56.1172 66.3073 65.8986 68.4456 65.8986 68.4456Z" fill="#231F20"/>
<path d="M46.8442 74.7615L48.753 70.1516L50.2569 70.9866L49.3487 75.676C49.4397 75.9731 49.4459 76.2896 49.3667 76.5901C49.2875 76.8905 49.126 77.1629 48.9004 77.3766C48.6748 77.5904 48.3939 77.737 48.0895 77.8C47.7851 77.863 47.4691 77.8399 47.1771 77.7333C46.8851 77.6267 46.6286 77.4407 46.4365 77.1964C46.2445 76.9521 46.1244 76.6591 46.0898 76.3504C46.0552 76.0416 46.1075 75.7293 46.2408 75.4487C46.3741 75.168 46.583 74.93 46.8442 74.7615Z" fill="#FFB6B6"/>
<path d="M78.8744 38.308L75.9701 42.3658L74.6946 41.212L76.6424 36.8502C76.6212 36.5403 76.6869 36.2305 76.8322 35.9558C76.9774 35.6811 77.1965 35.4524 77.4647 35.2953C77.7329 35.1382 78.0397 35.059 78.3505 35.0665C78.6613 35.0741 78.9638 35.1682 79.224 35.3381C79.4843 35.5081 79.6919 35.7473 79.8236 36.0287C79.9553 36.3101 80.0058 36.6227 79.9695 36.9313C79.9332 37.2398 79.8114 37.5321 79.618 37.7753C79.4245 38.0186 79.167 38.203 78.8744 38.308Z" fill="#FFB6B6"/>
<path d="M66.1871 68.8218C68.0709 71.7419 58.6017 75.4475 54.9683 73.9598C54.3321 73.6993 52.1436 72.8389 53.6395 71.646C55.1354 70.453 53.4661 70.2852 53.4266 69.5086C53.4003 68.9894 53.8025 67.8505 53.3828 67.8994C52.9631 67.9482 52.472 67.2302 53.3859 66.9212C54.2999 66.6123 53.3957 66.3305 53.4038 66.0372C53.4912 62.8366 55.9484 57.7457 55.9484 57.7457L51.5206 69.0568C51.5206 69.0568 51.5534 71.0136 50.9887 70.4157C50.4241 69.8177 50.4651 71.7531 50.4651 71.7531C50.4651 71.7531 49.6255 72.3387 50.1083 72.6646C50.5912 72.9905 49.5886 73.9924 49.5886 73.9924L47.2492 73.8254C47.2492 73.8254 47.2858 72.0887 47.6852 71.7046C48.0847 71.3206 47.8885 70.7162 47.8885 70.7162C47.8885 70.7162 48.9284 69.7962 48.2312 69.0492C47.3345 68.0885 50.6039 51.862 51.7321 52.0227C51.8916 51.2469 52.2627 50.5303 52.8043 49.9521C53.3459 49.3739 54.037 48.9566 54.8011 48.7463L57.3278 48.0511L57.7764 46.2721H61.3342L61.9539 47.441L64.6588 48.6609C65.1682 47.9425 65.549 47.1855 67.6353 46.9401C67.6353 46.9401 73.2569 41.8285 72.9825 41.4294C72.708 41.0303 73.5794 40.0959 73.5794 40.0959C73.5794 40.0959 74.3237 39.8524 73.9037 39.7225C73.4838 39.5925 74.2775 39.292 74.2775 39.292C74.2775 39.292 75.0127 39.099 74.666 38.8448C74.3193 38.5906 75.8231 38.4236 75.8231 38.4236L77.7744 40.0146L77.38 40.6829C77.38 40.6829 77.6205 41.5929 77.3067 41.2607C76.9928 40.9284 76.9338 41.8925 76.9338 41.8925C76.9338 41.8925 76.7735 42.9482 75.8231 43.2663C74.8728 43.5844 74.1522 46.6061 74.1522 46.6061C71.9109 49.5183 69.2658 51.7901 66.1314 53.2857C67.353 54.6869 66.1871 68.8218 66.1871 68.8218Z" fill="#362FD9"/>
<path d="M59.2896 45.231C61.2357 45.231 62.8133 43.6544 62.8133 41.7096C62.8133 39.7648 61.2357 38.1882 59.2896 38.1882C57.3435 38.1882 55.7659 39.7648 55.7659 41.7096C55.7659 43.6544 57.3435 45.231 59.2896 45.231Z" fill="#FFB6B6"/>
<path d="M55.6415 42.093C55.7531 42.8582 56.4057 43.9259 56.2528 43.9259C56.1 43.9259 55.0133 40.7714 56.1 40.5657C56.8882 40.4165 57.0644 40.5474 57.801 40.2282L57.6971 40.3259C58.1847 40.6803 58.8633 40.4618 59.4196 40.2312C59.9774 40.0021 60.6545 39.7837 61.1435 40.1365C61.4507 40.358 61.5806 40.7429 61.7717 41.0697C61.9627 41.3981 62.3158 41.7082 62.6795 41.6074C62.9714 41.5264 63.1396 41.1995 63.138 40.8971C63.1365 40.5947 62.7425 40.307 62.8752 40.0357C63.2684 39.2316 62.9148 38.6836 62.0575 38.3052C61.7457 38.2579 61.4339 38.2095 61.1221 38.1601C61.2855 37.934 61.4836 37.735 61.709 37.5706C61.6138 37.3265 61.4491 37.1157 61.2352 36.9642C60.9861 36.8161 60.6774 36.8268 60.3885 36.842C59.7436 36.8756 59.0991 36.9092 58.4552 36.9428C57.9783 36.9673 57.4847 36.9963 57.0583 37.2147C56.5264 37.4881 56.1779 38.0211 55.9242 38.5634C55.3557 39.7822 55.4459 40.7627 55.6415 42.093Z" fill="#231F20"/>
<path d="M40.9832 106.953L75.6385 107C75.6868 107 75.7331 106.981 75.7672 106.947C75.8013 106.912 75.8205 106.866 75.8205 106.818C75.8205 106.77 75.8013 106.723 75.7672 106.689C75.7331 106.655 75.6868 106.636 75.6385 106.636L40.9832 106.589C40.935 106.589 40.8887 106.608 40.8545 106.642C40.8204 106.676 40.8013 106.723 40.8013 106.771C40.8013 106.819 40.8204 106.865 40.8545 106.9C40.8887 106.934 40.935 106.953 40.9832 106.953Z" fill="#CACACA"/>
<path d="M28.449 91.1003C28.5129 90.6615 28.053 90.2314 27.4218 90.1396C26.7906 90.0478 26.2271 90.3291 26.1632 90.7679C26.0993 91.2067 26.5593 91.6369 27.1904 91.7286C27.8216 91.8204 28.3851 91.5391 28.449 91.1003Z" fill="#E6E6E6"/>
<path d="M35.9645 90.3675C36.0284 89.9286 35.5685 89.4985 34.9373 89.4068C34.3061 89.315 33.7426 89.5963 33.6787 90.0351C33.6148 90.4739 34.0747 90.904 34.7059 90.9958C35.3371 91.0876 35.9006 90.8063 35.9645 90.3675Z" fill="#3F3D56"/>
<path d="M26.3915 85.0199C26.4554 84.5811 25.9955 84.151 25.3643 84.0592C24.7331 83.9674 24.1696 84.2487 24.1057 84.6875C24.0418 85.1263 24.5017 85.5565 25.1329 85.6482C25.7641 85.74 26.3276 85.4587 26.3915 85.0199Z" fill="#FF6584"/>
<path d="M23.1254 82.5292C23.1285 82.1261 22.9036 81.7976 22.6232 81.7955C22.3428 81.7933 22.113 82.1184 22.1099 82.5215C22.1069 82.9246 22.3317 83.2531 22.6121 83.2552C22.8926 83.2573 23.1224 82.9323 23.1254 82.5292Z" fill="#E6E6E6"/>
<path d="M22.0183 77.8906C22.0214 77.4875 21.7965 77.159 21.5161 77.1569C21.2357 77.1548 21.0059 77.4799 21.0028 77.883C20.9998 78.2861 21.2246 78.6146 21.505 78.6167C21.7855 78.6188 22.0153 78.2937 22.0183 77.8906Z" fill="#3F3D56"/>
<path d="M30.6294 86.0546C30.6324 85.6515 30.4076 85.323 30.1271 85.3209C29.8467 85.3187 29.6169 85.6438 29.6139 86.0469C29.6108 86.45 29.8357 86.7785 30.1161 86.7806C30.3965 86.7828 30.6263 86.4577 30.6294 86.0546Z" fill="#E6E6E6"/>
<path d="M26.9983 87.8665C27.0014 87.4634 26.7765 87.1349 26.4961 87.1328C26.2157 87.1307 25.9859 87.4558 25.9828 87.8589C25.9798 88.262 26.2046 88.5905 26.4851 88.5926C26.7655 88.5947 26.9953 88.2696 26.9983 87.8665Z" fill="#FF6584"/>
<path d="M32.0535 91.2154C32.0566 90.8123 31.8317 90.4838 31.5513 90.4817C31.2709 90.4795 31.0411 90.8046 31.038 91.2077C31.035 91.6108 31.2598 91.9393 31.5403 91.9414C31.8207 91.9436 32.0505 91.6185 32.0535 91.2154Z" fill="#3F3D56"/>
<path d="M86.2204 67.5792C86.2843 67.1404 85.8244 66.7103 85.1932 66.6185C84.562 66.5267 83.9985 66.808 83.9346 67.2469C83.8707 67.6857 84.3306 68.1158 84.9618 68.2076C85.593 68.2993 86.1565 68.018 86.2204 67.5792Z" fill="#E6E6E6"/>
<path d="M93.7354 66.8464C93.7993 66.4076 93.3394 65.9775 92.7082 65.8857C92.077 65.7939 91.5135 66.0752 91.4496 66.514C91.3857 66.9528 91.8456 67.383 92.4768 67.4747C93.108 67.5665 93.6715 67.2852 93.7354 66.8464Z" fill="#3F3D56"/>
<path d="M84.1626 61.4989C84.2265 61.0601 83.7666 60.63 83.1354 60.5382C82.5042 60.4465 81.9407 60.7278 81.8768 61.1666C81.813 61.6054 82.2729 62.0355 82.9041 62.1273C83.5353 62.2191 84.0987 61.9377 84.1626 61.4989Z" fill="#FF6584"/>
<path d="M80.8971 59.0081C80.9001 58.605 80.6752 58.2765 80.3948 58.2744C80.1144 58.2723 79.8846 58.5973 79.8816 59.0004C79.8785 59.4035 80.1034 59.732 80.3838 59.7342C80.6642 59.7363 80.894 59.4112 80.8971 59.0081Z" fill="#E6E6E6"/>
<path d="M79.7899 54.3696C79.793 53.9665 79.5681 53.638 79.2877 53.6358C79.0073 53.6337 78.7775 53.9588 78.7744 54.3619C78.7714 54.765 78.9962 55.0935 79.2767 55.0956C79.5571 55.0977 79.7869 54.7727 79.7899 54.3696Z" fill="#3F3D56"/>
<path d="M88.4012 62.5332C88.4043 62.13 88.1794 61.8015 87.899 61.7994C87.6186 61.7973 87.3888 62.1224 87.3857 62.5255C87.3827 62.9286 87.6075 63.2571 87.888 63.2592C88.1684 63.2613 88.3982 62.9363 88.4012 62.5332Z" fill="#E6E6E6"/>
<path d="M84.7695 64.3453C84.7725 63.9422 84.5477 63.6137 84.2673 63.6116C83.9868 63.6095 83.757 63.9346 83.754 64.3377C83.7509 64.7408 83.9758 65.0693 84.2562 65.0714C84.5366 65.0735 84.7664 64.7485 84.7695 64.3453Z" fill="#FF6584"/>
<path d="M89.8254 67.6946C89.8285 67.2914 89.6036 66.963 89.3232 66.9608C89.0428 66.9587 88.813 67.2838 88.8099 67.6869C88.8069 68.09 89.0317 68.4185 89.3121 68.4206C89.5926 68.4227 89.8224 68.0977 89.8254 67.6946Z" fill="#3F3D56"/>
<path d="M58.2516 24.0496C58.3155 23.6108 57.8556 23.1807 57.2244 23.0889C56.5932 22.9971 56.0297 23.2784 55.9658 23.7172C55.9019 24.156 56.3618 24.5862 56.993 24.6779C57.6242 24.7697 58.1877 24.4884 58.2516 24.0496Z" fill="white"/>
<path d="M65.7668 23.3171C65.8307 22.8783 65.3708 22.4482 64.7396 22.3564C64.1084 22.2647 63.545 22.546 63.4811 22.9848C63.4172 23.4236 63.8771 23.8537 64.5083 23.9455C65.1395 24.0373 65.703 23.7559 65.7668 23.3171Z" fill="#3F3D56"/>
<path d="M56.1943 17.9696C56.2582 17.5308 55.7983 17.1006 55.1671 17.0089C54.5359 16.9171 53.9724 17.1984 53.9085 17.6372C53.8447 18.076 54.3046 18.5061 54.9357 18.5979C55.5669 18.6897 56.1304 18.4084 56.1943 17.9696Z" fill="#FF6584"/>
<path d="M52.9285 15.4787C52.9316 15.0756 52.7067 14.7471 52.4263 14.745C52.1459 14.7429 51.9161 15.068 51.913 15.4711C51.91 15.8742 52.1348 16.2027 52.4152 16.2048C52.6957 16.2069 52.9255 15.8818 52.9285 15.4787Z" fill="#E6E6E6"/>
<path d="M51.8211 10.8399C51.8242 10.4368 51.5993 10.1083 51.3189 10.1062C51.0385 10.1041 50.8087 10.4292 50.8057 10.8323C50.8026 11.2354 51.0275 11.5639 51.3079 11.566C51.5883 11.5681 51.8181 11.2431 51.8211 10.8399Z" fill="#3F3D56"/>
<path d="M60.4332 19.0043C60.4362 18.6012 60.2114 18.2727 59.931 18.2705C59.6505 18.2684 59.4207 18.5935 59.4177 18.9966C59.4146 19.3997 59.6395 19.7282 59.9199 19.7303C60.2003 19.7324 60.4301 19.4074 60.4332 19.0043Z" fill="#E6E6E6"/>
<path d="M56.8014 20.8161C56.8045 20.413 56.5796 20.0845 56.2992 20.0824C56.0188 20.0803 55.789 20.4053 55.7859 20.8084C55.7829 21.2115 56.0077 21.54 56.2882 21.5422C56.5686 21.5443 56.7984 21.2192 56.8014 20.8161Z" fill="#FF6584"/>
<path d="M61.8561 24.1651C61.8592 23.762 61.6343 23.4335 61.3539 23.4313C61.0735 23.4292 60.8437 23.7543 60.8406 24.1574C60.8376 24.5605 61.0624 24.889 61.3428 24.8911C61.6233 24.8932 61.8531 24.5682 61.8561 24.1651Z" fill="#3F3D56"/>
</g>
<defs>
<clipPath id="clip0_392_2724">
<rect width="93.1892" height="106.369" fill="white" transform="scale(1.00593)"/>
</clipPath>
</defs>
</svg>
