<svg width="8" height="8" viewBox="0 0 8 8" fill="none" xmlns="http://www.w3.org/2000/svg">
<path d="M3.99748 0.204784C4.74689 0.204784 5.47947 0.427255 6.10259 0.844066C6.7257 1.26088 7.21136 1.85331 7.49814 2.54644C7.78493 3.23957 7.85997 4.00227 7.71377 4.73809C7.56756 5.47392 7.20669 6.14982 6.67677 6.68032C6.14686 7.21082 5.47171 7.57209 4.73669 7.71845C4.00168 7.86482 3.23982 7.7897 2.54745 7.50259C1.85509 7.21549 1.26331 6.7293 0.846959 6.10549C0.430608 5.48169 0.208382 4.7483 0.208382 3.99806C0.209394 2.99233 0.608926 2.02809 1.3193 1.31693C2.02967 0.605771 2.99286 0.205797 3.99748 0.204784ZM3.99748 4.57854e-07C3.20707 -0.000378056 2.4343 0.233943 1.77694 0.673321C1.11958 1.1127 0.607164 1.73739 0.304512 2.46837C0.00186054 3.19934 -0.0774267 4.00376 0.0766821 4.77986C0.230791 5.55596 0.61137 6.26886 1.17028 6.82839C1.72918 7.38791 2.4413 7.76891 3.21654 7.92319C3.99178 8.07746 4.79531 7.99809 5.52549 7.69511C6.25566 7.39212 6.87966 6.87913 7.31855 6.22105C7.75745 5.56296 7.99151 4.78935 7.99113 3.99806C7.99113 2.93771 7.57037 1.92079 6.82142 1.17101C6.07246 0.421225 5.05666 4.57854e-07 3.99748 4.57854e-07Z" fill="white"/>
</svg>
