<svg width="2" height="2" viewBox="0 0 2 2" fill="none" xmlns="http://www.w3.org/2000/svg">
<path d="M1.64799 0.498706C1.19403 0.353489 0.749607 0.185343 0.312813 0C0.342036 0.0881167 0.35685 0.180387 0.356684 0.273239C0.355287 0.410312 0.322382 0.54522 0.260525 0.667495C0.198668 0.789769 0.109521 0.896124 0 0.978306C0.43743 1.16174 0.882489 1.32734 1.33518 1.4751C1.384 1.49016 1.43478 1.49789 1.48586 1.49803C1.60789 1.49874 1.72615 1.4557 1.81927 1.37667C1.91238 1.29765 1.9742 1.18786 1.99355 1.06716C2.0129 0.94646 1.98851 0.822803 1.92478 0.718546C1.86106 0.61429 1.7622 0.536312 1.64608 0.498706H1.64799Z" fill="#231F20"/>
</svg>
