<svg width="8" height="8" viewBox="0 0 8 8" fill="none" xmlns="http://www.w3.org/2000/svg">
<path d="M3.99556 0.204883C4.74533 0.204883 5.47827 0.427461 6.10168 0.84447C6.72509 1.26148 7.21098 1.85419 7.4979 2.54765C7.78483 3.24112 7.8599 4.00418 7.71363 4.74036C7.56736 5.47653 7.20631 6.15275 6.67614 6.68351C6.14597 7.21426 5.4705 7.57571 4.73513 7.72214C3.99977 7.86858 3.23754 7.79342 2.54485 7.50618C1.85215 7.21894 1.26009 6.73251 0.843539 6.10841C0.426989 5.48431 0.204657 4.75057 0.204657 3.99997C0.20567 2.99376 0.605392 2.02906 1.31611 1.31756C2.02682 0.60606 2.99046 0.205896 3.99556 0.204883ZM3.99556 0C3.20532 0 2.43282 0.234594 1.77575 0.674117C1.11868 1.11364 0.60656 1.73835 0.304146 2.46925C0.0017309 3.20015 -0.0773941 4.00441 0.0767755 4.78033C0.230945 5.55625 0.611485 6.26897 1.17027 6.82838C1.72906 7.38779 2.44101 7.76875 3.21607 7.92309C3.99113 8.07743 4.7945 7.99821 5.5246 7.69546C6.25469 7.39272 6.87871 6.88003 7.31775 6.22224C7.75679 5.56444 7.99113 4.79109 7.99113 3.99997C7.99113 2.93911 7.57017 1.92171 6.82085 1.17157C6.07154 0.421425 5.05525 0 3.99556 0Z" fill="white"/>
</svg>
