<svg width="27" height="33" viewBox="0 0 27 33" fill="none" xmlns="http://www.w3.org/2000/svg">
<path d="M27.0001 26.4622C27.0001 26.7325 27.0001 27.0136 26.9857 27.293C26.9784 27.8507 26.9308 28.4071 26.8435 28.958C26.7629 29.4248 26.6124 29.8768 26.3971 30.2987C26.1873 30.7076 25.9139 31.0804 25.5871 31.4033C25.2572 31.7264 24.8788 31.9958 24.4657 32.2016C24.0362 32.4145 23.5776 32.5627 23.1049 32.6413C22.5455 32.7282 21.9807 32.7752 21.4146 32.7818C21.132 32.7908 20.8458 32.7944 20.5722 32.7962H6.42781C6.15421 32.7962 5.86801 32.7962 5.58541 32.7818C5.01939 32.7752 4.45457 32.7282 3.89521 32.6413C3.42243 32.5627 2.96387 32.4145 2.53441 32.2016C2.12125 31.9958 1.74285 31.7264 1.413 31.4033C1.0862 31.0804 0.812778 30.7076 0.603001 30.2987C0.387703 29.8768 0.237209 29.4248 0.1566 28.958C0.0692244 28.4071 0.0217005 27.8507 0.0144 27.293C0.0144 27.0136 0.0018 26.7325 0 26.4622V6.334C0 6.0637 -1.34111e-08 5.78259 0.0144 5.50328C0.0217005 4.94556 0.0692244 4.3891 0.1566 3.83824C0.237209 3.37142 0.387703 2.91944 0.603001 2.49756C0.812778 2.08868 1.0862 1.71581 1.413 1.39294C1.74285 1.06984 2.12125 0.800474 2.53441 0.594658C2.96387 0.381728 3.42243 0.233563 3.89521 0.154971C4.45278 0.0683046 5.0158 0.0213353 5.58001 0.0144163C5.86261 0.0144163 6.14881 0.00180199 6.42241 0H20.5668C20.8404 0 21.1266 3.30277e-07 21.4092 0.0144163C21.9753 0.0210794 22.5401 0.0680496 23.0995 0.154971C23.5722 0.233563 24.0308 0.381728 24.4603 0.594658C24.8734 0.800474 25.2518 1.06984 25.5817 1.39294C25.9085 1.71581 26.1819 2.08868 26.3917 2.49756C26.607 2.91944 26.7575 3.37142 26.8381 3.83824C26.9254 4.3891 26.973 4.94556 26.9803 5.50328C26.9893 5.78259 26.9929 6.0637 26.9947 6.334L27.0001 26.4622Z" fill="white"/>
</svg>
