<svg width="8" height="8" viewBox="0 0 8 8" fill="none" xmlns="http://www.w3.org/2000/svg">
<path d="M3.99557 0.204785C4.74498 0.204785 5.47756 0.427257 6.10067 0.844068C6.72379 1.26088 7.20944 1.85331 7.49623 2.54644C7.78302 3.23957 7.85806 4.00227 7.71185 4.73809C7.56565 5.47392 7.20477 6.14982 6.67486 6.68032C6.14495 7.21082 5.46979 7.57209 4.73478 7.71845C3.99977 7.86482 3.23791 7.7897 2.54554 7.50259C1.85318 7.21549 1.2614 6.7293 0.845048 6.10549C0.428697 5.48169 0.206471 4.7483 0.206471 3.99806C0.207987 2.99249 0.607682 2.02854 1.31795 1.31749C2.02821 0.606439 2.9911 0.206304 3.99557 0.204785ZM3.99557 4.58128e-07C3.20524 5.48694e-07 2.43266 0.234643 1.77555 0.674251C1.11844 1.11386 0.606322 1.73868 0.303963 2.4697C0.00160452 3.20071 -0.0774093 4.00506 0.0769154 4.78104C0.23124 5.55701 0.611971 6.26973 1.17095 6.82906C1.72993 7.38839 2.44205 7.7692 3.21724 7.92333C3.99243 8.07745 4.79587 7.99796 5.52593 7.69492C6.25599 7.39188 6.87988 6.87889 7.31869 6.22085C7.75749 5.56281 7.99151 4.78926 7.99113 3.99806C7.99113 3.47287 7.88777 2.95282 7.68695 2.46763C7.48613 1.98244 7.19179 1.54161 6.82074 1.17033C6.44969 0.79905 6.00921 0.504593 5.52446 0.303784C5.0397 0.102975 4.52018 -0.000250951 3.99557 4.58128e-07Z" fill="white"/>
</svg>
