<svg width="8" height="8" viewBox="0 0 8 8" fill="none" xmlns="http://www.w3.org/2000/svg">
<path d="M3.98773 7.99997C3.19781 7.99841 2.42608 7.7625 1.77005 7.32203C1.11401 6.88156 0.603111 6.25631 0.301899 5.52527C0.000686625 4.79424 -0.0773205 3.99022 0.077735 3.21482C0.232791 2.43941 0.613949 1.72742 1.17305 1.1688C1.73215 0.610173 2.44411 0.229992 3.21896 0.0762874C3.99381 -0.0774171 4.79679 0.00225389 5.52642 0.305233C6.25606 0.608212 6.87962 1.1209 7.31832 1.77853C7.75701 2.43615 7.99115 3.20919 7.99115 3.99998C7.99064 4.52578 7.88668 5.04633 7.68521 5.53191C7.48374 6.01749 7.1887 6.45859 6.81695 6.83003C6.4452 7.20146 6.00401 7.49595 5.51857 7.69669C5.03313 7.89743 4.51295 8.00048 3.98773 7.99997Z" fill="#231F20"/>
</svg>
