<svg width="8" height="8" viewBox="0 0 8 8" fill="none" xmlns="http://www.w3.org/2000/svg">
<path d="M3.9956 8.00001C3.20534 8.00001 2.43283 7.76541 1.77576 7.32588C1.11869 6.88636 0.606565 6.26164 0.304148 5.53074C0.00173105 4.79983 -0.0773948 3.99557 0.0767761 3.21964C0.230947 2.44372 0.61149 1.73098 1.17028 1.17157C1.72908 0.612163 2.44102 0.231202 3.21609 0.0768608C3.99116 -0.0774802 4.79454 0.00173296 5.52464 0.304484C6.25474 0.607234 6.87877 1.11993 7.31781 1.77772C7.75685 2.43552 7.99119 3.20888 7.99119 4C7.99015 5.06055 7.56885 6.07736 6.81976 6.82728C6.07066 7.57721 5.05497 7.99897 3.9956 8.00001Z" fill="white"/>
</svg>
