<svg width="8" height="8" viewBox="0 0 8 8" fill="none" xmlns="http://www.w3.org/2000/svg">
<path d="M3.99558 7.99997C3.20533 7.99997 2.43282 7.76537 1.77575 7.32585C1.11868 6.88633 0.606562 6.26162 0.304146 5.53071C0.00173104 4.79981 -0.0773944 3.99555 0.0767757 3.21963C0.230946 2.44371 0.611487 1.73098 1.17028 1.17157C1.72907 0.61216 2.44101 0.231201 3.21608 0.0768604C3.99114 -0.0774798 4.79452 0.00173295 5.52462 0.304482C6.25471 0.607232 6.87873 1.11992 7.31777 1.77771C7.75681 2.43551 7.99115 3.20886 7.99115 3.99998C7.99011 5.06053 7.56881 6.07734 6.81972 6.82725C6.07063 7.57717 5.05495 7.99893 3.99558 7.99997Z" fill="#231F20"/>
</svg>
