<svg width="8" height="8" viewBox="0 0 8 8" fill="none" xmlns="http://www.w3.org/2000/svg">
<path d="M3.99561 0.204788C4.74503 0.204788 5.47762 0.427262 6.10074 0.844077C6.72386 1.26089 7.20952 1.85333 7.49631 2.54647C7.7831 3.2396 7.85814 4.00231 7.71194 4.73814C7.56573 5.47398 7.20485 6.14988 6.67493 6.68039C6.14501 7.21089 5.46985 7.57217 4.73483 7.71854C3.99981 7.8649 3.23794 7.78978 2.54557 7.50268C1.85319 7.21557 1.26141 6.72937 0.845057 6.10556C0.428701 5.48175 0.206473 4.74835 0.206473 3.99811C0.20799 2.99252 0.607688 2.02856 1.31796 1.3175C2.02823 0.606445 2.99113 0.206306 3.99561 0.204788ZM3.99561 4.58133e-07C3.20527 5.487e-07 2.43268 0.234646 1.77557 0.674258C1.11845 1.11387 0.606328 1.7387 0.303966 2.46972C0.00160454 3.20074 -0.0774102 4.00511 0.0769162 4.78109C0.231243 5.55707 0.611977 6.2698 1.17096 6.82914C1.72995 7.38847 2.44208 7.76929 3.21728 7.92341C3.99247 8.07754 4.79592 7.99805 5.52599 7.69501C6.25605 7.39196 6.87995 6.87897 7.31876 6.22092C7.75758 5.56287 7.99159 4.78932 7.99121 3.99811C7.99121 3.47291 7.88785 2.95285 7.68703 2.46765C7.48621 1.98246 7.19186 1.54163 6.82081 1.17034C6.44976 0.799059 6.00927 0.504599 5.52452 0.303788C5.03976 0.102977 4.52023 -0.000250954 3.99561 4.58133e-07Z" fill="#231F20"/>
</svg>
