<svg width="2" height="2" viewBox="0 0 2 2" fill="none" xmlns="http://www.w3.org/2000/svg">
<path d="M1.64793 0.498686C1.19398 0.353475 0.749577 0.185336 0.312801 0C0.342022 0.0881132 0.356836 0.18038 0.35667 0.273228C0.355273 0.410296 0.32237 0.545198 0.260515 0.667468C0.19866 0.789738 0.109516 0.896089 0 0.978268C0.437412 1.16169 0.882454 1.32729 1.33512 1.47504C1.38394 1.4901 1.43472 1.49783 1.4858 1.49797C1.60783 1.49868 1.72609 1.45564 1.81919 1.37662C1.9123 1.2976 1.97412 1.18782 1.99347 1.06712C2.01282 0.946422 1.98843 0.822771 1.92471 0.718518C1.86098 0.614265 1.76213 0.536291 1.64602 0.498686H1.64793Z" fill="white"/>
</svg>
