<svg width="27" height="32" viewBox="0 0 27 32" fill="none" xmlns="http://www.w3.org/2000/svg">
<path d="M26.3445 25.8198C26.3445 26.0835 26.3445 26.3578 26.3305 26.6303C26.3233 27.1745 26.277 27.7174 26.1917 28.2549C26.1131 28.7104 25.9662 29.1514 25.7562 29.5631C25.5515 29.962 25.2847 30.3258 24.9658 30.6409C24.644 30.9561 24.2748 31.2189 23.8716 31.4198C23.4526 31.6275 23.0052 31.7721 22.5439 31.8488C21.9981 31.9336 21.447 31.9794 20.8947 31.9859C20.619 31.9947 20.3397 31.9982 20.0728 32H6.27175C6.00479 32 5.72554 32 5.4498 31.9859C4.89753 31.9794 4.34641 31.9336 3.80064 31.8488C3.33934 31.7721 2.89191 31.6275 2.47287 31.4198C2.06974 31.2189 1.70054 30.9561 1.3787 30.6409C1.05982 30.3258 0.793044 29.962 0.588361 29.5631C0.37829 29.1514 0.23145 28.7104 0.152798 28.2549C0.0675437 27.7174 0.0211737 27.1745 0.0140504 26.6303C0.0140504 26.3578 0.0017563 26.0835 0 25.8198V6.18022C0 5.91648 -1.30855e-08 5.64219 0.0140504 5.36967C0.0211737 4.82549 0.0675437 4.28254 0.152798 3.74505C0.23145 3.28956 0.37829 2.84856 0.588361 2.43692C0.793044 2.03797 1.05982 1.67415 1.3787 1.35912C1.70054 1.04386 2.06974 0.78104 2.47287 0.58022C2.89191 0.37246 3.33934 0.227892 3.80064 0.151209C4.34467 0.0666463 4.89402 0.0208173 5.44453 0.0140662C5.72027 0.0140662 5.99953 0.00175824 6.26648 0H20.0675C20.3345 0 20.6137 3.22258e-07 20.8894 0.0140662C21.4417 0.0205677 21.9928 0.0663974 22.5386 0.151209C22.9999 0.227892 23.4473 0.37246 23.8664 0.58022C24.2695 0.78104 24.6387 1.04386 24.9606 1.35912C25.2794 1.67415 25.5462 2.03797 25.7509 2.43692C25.961 2.84856 26.1078 3.28956 26.1865 3.74505C26.2717 4.28254 26.3181 4.82549 26.3252 5.36967C26.334 5.64219 26.3375 5.91648 26.3393 6.18022L26.3445 25.8198Z" fill="#231F20"/>
</svg>
