<svg width="116" height="88" viewBox="0 0 116 88" fill="none" xmlns="http://www.w3.org/2000/svg">
<g clip-path="url(#clip0_392_2830)">
<path d="M70.133 26.5182C70.2769 26.5248 70.4193 26.487 70.541 26.41C70.6628 26.333 70.7578 26.2205 70.8134 26.0877C70.869 25.9548 70.8824 25.8082 70.8517 25.6675C70.8211 25.5268 70.7479 25.399 70.6421 25.3013C70.6244 25.2309 70.6117 25.1804 70.594 25.11C70.6003 25.0947 70.6067 25.0794 70.6131 25.0641C71.2599 23.5228 73.452 23.5334 74.0933 25.077C74.6625 26.447 75.3872 27.8194 75.5657 29.2679C75.6443 29.9082 75.6111 30.5573 75.4677 31.1863C76.8046 28.2719 77.4988 25.1043 77.5033 21.8983C77.5036 21.0937 77.4589 20.2898 77.3693 19.4903C77.2953 18.8349 77.1927 18.1841 77.0614 17.538C76.3448 14.0322 74.8063 10.7464 72.5723 7.95022C71.491 7.36064 70.6166 6.45399 70.0668 5.35246C69.8676 4.95649 69.7269 4.5338 69.6489 4.09753C69.7709 4.11352 70.1088 2.2571 70.0168 2.1432C70.1868 1.88542 70.491 1.75729 70.6767 1.50575C71.6 0.254781 72.872 0.473209 73.5361 2.17318C74.9547 2.88869 74.9684 4.07531 74.098 5.21656C73.5442 5.94263 73.4681 6.92509 72.9822 7.70241C73.0322 7.76637 73.0842 7.82832 73.1342 7.89227C74.048 9.06656 74.8445 10.3275 75.5122 11.6571C75.3233 10.1825 75.6021 8.40597 76.0776 7.26081C76.6188 5.95603 77.6333 4.85715 78.5266 3.72917C79.5996 2.37429 81.8 2.96558 81.989 4.6831C81.9909 4.69973 81.9926 4.71636 81.9944 4.73298C81.8617 4.80778 81.7318 4.88718 81.6047 4.97118C81.4451 5.07778 81.3214 5.23009 81.2498 5.40814C81.1783 5.5862 81.1622 5.78171 81.2037 5.96905C81.2453 6.15639 81.3424 6.32682 81.4826 6.45802C81.6227 6.58921 81.7992 6.67505 81.9889 6.70428L82.0084 6.70728C81.9611 7.18519 81.8776 7.65882 81.7584 8.12407C82.9045 12.5532 80.4303 14.1664 76.8974 14.2388C76.8194 14.2788 76.7434 14.3187 76.6655 14.3567C77.3363 16.2565 77.7571 18.2354 77.9172 20.2437C78.0079 21.4285 78.0025 22.6187 77.9012 23.8026L77.9072 23.7606C78.1632 22.4441 78.8659 21.2562 79.8968 20.3975C81.4279 19.1406 83.5911 18.6777 85.2429 17.6674C86.038 17.1811 87.0569 17.8096 86.9181 18.7308C86.9159 18.7455 86.9137 18.7602 86.9114 18.7749C86.6651 18.8751 86.4254 18.9906 86.1935 19.1206C86.0608 19.1954 85.931 19.2748 85.8039 19.3588C85.6442 19.4654 85.5205 19.6177 85.449 19.7958C85.3774 19.9739 85.3613 20.1694 85.4029 20.3567C85.4444 20.544 85.5416 20.7145 85.6817 20.8457C85.8218 20.9769 85.9983 21.0627 86.1881 21.0919L86.2075 21.0949C86.2215 21.0969 86.2335 21.0989 86.2475 21.1009C85.8268 22.1048 85.2363 23.0289 84.5019 23.8326C83.7853 27.699 80.7076 28.0659 77.4153 26.9399H77.4133C77.0521 28.5086 76.5287 30.0355 75.8516 31.496H70.2728C70.2528 31.4341 70.2348 31.3701 70.2168 31.3082C70.7332 31.3406 71.2516 31.3097 71.7605 31.2163C71.3465 30.7087 70.9326 30.1971 70.5187 29.6895C70.5095 29.6801 70.5008 29.6701 70.4927 29.6596C70.2828 29.3998 70.0708 29.142 69.8608 28.8823L69.8607 28.8819C69.8495 28.0856 69.941 27.2912 70.1328 26.5183L70.133 26.5182Z" fill="#F2F2F2"/>
<path d="M88.0458 12.25C87.0084 8.47046 95.375 5.22945 97.5721 8.2731C97.8776 7.84039 99.0066 7.57755 99.5246 7.71029C100.043 7.84303 100.478 8.17488 100.903 8.49611C101.488 8.94477 102.093 9.40936 102.452 10.0545C102.813 10.6969 102.869 11.573 102.383 12.1305C101.998 12.5738 100.861 12.8606 100.282 12.9774C99.8779 13.0597 99.5379 13.126 99.2457 13.1738C98.9802 12.7917 98.858 12.3283 98.9003 11.865C98.7036 11.9976 98.5387 12.1721 98.4175 12.3759C98.2962 12.5797 98.2216 12.8077 98.199 13.0438C98.191 13.142 101.464 25.1761 101.464 25.1761C101.071 25.3998 100.657 25.5855 100.229 25.7309C99.381 24.4365 98.7319 23.0227 98.3026 21.5364C98.2039 22.5302 98.2164 23.532 98.3398 24.523C98.4054 25.0788 98.4994 25.6308 98.6214 26.1769C94.7322 27.0159 88.8826 26.7398 86.3376 23.1717C86.3372 23.157 86.3368 23.1422 86.3364 23.1274C86.3344 22.9866 86.2835 22.8508 86.1923 22.7434C86.1012 22.6359 85.9755 22.5635 85.8368 22.5385C85.6981 22.5135 85.555 22.5374 85.432 22.6062C85.3091 22.675 85.2138 22.7844 85.1627 22.9157C85.101 23.0731 85.0441 23.2094 84.9934 23.3178C84.2523 20.6683 85.2113 17.602 88.0458 12.25Z" fill="#231F20"/>
<path d="M81.4264 75.6147V75.7373C81.4216 75.6965 81.4216 75.6554 81.4264 75.6147Z" fill="#231F20"/>
<path d="M85.2361 54.2251C85.3347 54.1983 85.4351 54.1788 85.5366 54.1667C85.4201 54.1857 85.3199 54.2051 85.2361 54.2251Z" fill="#231F20"/>
<path d="M85.1479 54.2478C85.1745 54.2404 85.204 54.2329 85.2355 54.2255C85.2062 54.2331 85.178 54.2387 85.1479 54.2478Z" fill="#231F20"/>
<path d="M113.286 87.9995H99.0304C98.827 87.8373 98.6857 87.6101 98.6301 87.3561C98.5745 87.102 98.6081 86.8366 98.7252 86.6044C99.1146 85.7118 98.3515 84.8962 98.3515 84.8962C98.0925 84.5929 97.9123 84.2304 97.8271 83.8408C97.7419 83.4512 97.7542 83.0466 97.8629 82.663C98.2406 81.3447 96.7605 77.6237 96.7605 77.6237C96.7605 77.6237 95.9625 82.4284 94.9848 87.9995H81.427C81.1999 87.6129 81.0802 87.1728 81.0802 86.7244C81.0802 86.2761 81.1999 85.8359 81.427 85.4493C82.2171 84.1105 81.427 83.8538 81.427 83.8538C81.427 83.8538 80.6369 82.3556 81.427 81.2679C82.2171 80.1801 81.427 75.7385 81.427 75.7385C81.4568 75.9348 81.6819 75.5778 82.0285 74.8292C82.5561 73.6902 83.3623 71.6419 84.1769 69.264C84.7593 67.5668 85.3464 65.6994 85.8371 63.8737H85.8383C85.9669 63.3941 86.0888 62.9188 86.2039 62.4479C86.429 61.5243 86.6219 60.6269 86.7684 59.7843C87.0864 57.9693 87.1912 56.4102 86.9471 55.3962C86.7446 54.5523 86.3016 54.087 85.537 54.1667C85.9467 54.0989 86.5469 54.0346 87.2865 53.9739C87.4199 53.9632 87.558 53.9525 87.7009 53.9406C93.2174 53.524 105.053 53.2848 105.053 53.2848L108.678 59.7724L113.269 67.9905C113.269 67.9905 113.144 79.015 113.286 87.9995Z" fill="#231F20"/>
<path d="M98.0702 25.2442L89.718 23.4737L88.0597 26.8095L82.4751 30.0406C82.4751 30.0406 86.0749 44.7497 86.0543 46.8184C86.0022 52.0707 77.5929 63.8446 83.9447 62.9388C90.2966 62.0331 91.5868 58.2391 93.6259 58.839C95.465 59.38 97.7105 61.7869 99.2138 60.0655C100.717 58.3441 101.247 60.3319 102.197 60.4006C102.649 60.4332 102.377 58.227 103.513 60.4691C104.65 62.7113 110.677 59.6931 108.635 57.6516C105.232 54.2516 104.541 29.1882 104.541 29.1882L100.754 28.0236L98.0702 25.2442Z" fill="#E6E6E6"/>
<path d="M82.3174 78.6612C82.653 78.2613 82.8192 77.7463 82.7806 77.2258C82.742 76.7053 82.5018 76.2204 82.1109 75.8743C82.0304 75.8052 81.9442 75.7428 81.8534 75.6879L83.2498 68.8388L80.0215 66.9079L79.1235 76.497C78.9249 76.8911 78.8624 77.3398 78.9457 77.7732C79.0291 78.2065 79.2536 78.6001 79.5844 78.8924C79.7741 79.057 79.9945 79.1826 80.2329 79.2621C80.4712 79.3415 80.7229 79.3733 80.9735 79.3555C81.2242 79.3378 81.4689 79.2709 81.6936 79.1586C81.9184 79.0464 82.1188 78.891 82.2835 78.7013C82.295 78.6881 82.3063 78.6747 82.3174 78.6612Z" fill="#A0616A"/>
<path d="M92.3408 42.5589C92.3205 42.3387 92.0395 42.2388 91.65 42.1007C91.2589 41.9803 90.8871 41.8043 90.546 41.5782C89.6838 40.9558 90.0232 40.3047 90.4924 39.405C90.5842 39.23 90.6794 39.0479 90.7688 38.8587C91.0343 38.2981 90.6115 35.9856 89.5099 31.9843C89.1705 30.7525 89.1717 29.8825 88.9371 29.3052C88.7036 28.728 88.2356 28.4435 86.9601 28.384C85.4184 28.3063 83.9087 28.8425 82.762 29.8753C82.7311 29.9027 82.6989 29.9325 82.6679 29.961C82.6096 30.0158 82.5524 30.0717 82.4964 30.1288C81.436 31.1949 80.8292 32.6296 80.8029 34.1325L80.797 34.3884L80.5338 46.6138L79.7942 57.342L78.7747 72.1202L79.5298 72.1571L82.5429 72.3071L82.9085 72.3249L83.7755 68.6902L84.8188 64.3163L85.2023 62.7096L86.392 57.7252L86.947 55.396L87.2864 53.9738L87.4246 53.393L88.0986 50.5699C88.1141 50.5104 89.6647 44.3965 91.4524 43.3742C92.1193 42.9933 92.3599 42.7719 92.3408 42.5589Z" fill="#E6E6E6"/>
<path d="M112.398 78.5885C112.021 78.2269 111.801 77.7327 111.783 77.2111C111.765 76.6895 111.952 76.1816 112.303 75.7955C112.376 75.7181 112.455 75.6469 112.54 75.5826L110.415 68.923L113.417 66.6567L115.34 76.094C115.58 76.4645 115.691 76.9039 115.654 77.3437C115.618 77.7835 115.437 78.1989 115.14 78.5251C114.969 78.709 114.763 78.8576 114.535 78.9621C114.306 79.0667 114.06 79.1253 113.808 79.1346C113.557 79.1438 113.307 79.1036 113.071 79.0161C112.836 78.9286 112.62 78.7956 112.436 78.6247C112.423 78.6128 112.41 78.6007 112.398 78.5885Z" fill="#A0616A"/>
<path d="M113.866 64.138C113.866 64.138 111.525 55.9053 112.239 55.014C112.953 54.1228 110.844 53.9487 111.753 52.2889C112.662 50.629 111.407 50.3514 111.407 50.3514L110.727 46.5351L109.51 37.1611L109.473 36.8824L109.119 34.1552C109.02 33.3762 108.765 32.6252 108.369 31.947C107.973 31.2688 107.444 30.6774 106.815 30.208C106.782 30.1834 106.75 30.1598 106.717 30.1361C106.567 30.0284 106.414 29.9285 106.257 29.8366C105.089 29.1479 103.718 28.8875 102.378 29.1002C99.8544 29.493 100.64 30.4336 100.231 32.9533C99.5654 37.0503 99.3928 39.3942 99.7171 39.9238C99.8264 40.1021 99.9412 40.2727 100.051 40.4365C100.614 41.2819 101.022 41.8917 100.231 42.6045C99.9156 42.865 99.565 43.0794 99.1895 43.2412C98.8177 43.4211 98.5487 43.5501 98.5523 43.7712C98.5565 43.9854 98.8192 44.1788 99.5228 44.4856C100.375 44.8584 101.291 46.2681 102.041 47.7081C102.636 48.8688 103.167 50.0614 103.631 51.2804L110.077 69.3983L111.128 72.353L111.491 72.2957L114.47 71.8238L115.216 71.7057L113.866 64.138Z" fill="#E6E6E6"/>
<path d="M94.5468 23.3486C98.3101 23.3486 101.361 20.2998 101.361 16.5389C101.361 12.7781 98.3101 9.7293 94.5468 9.7293C90.7834 9.7293 87.7326 12.7781 87.7326 16.5389C87.7326 20.2998 90.7834 23.3486 94.5468 23.3486Z" fill="#A0616A"/>
<path d="M84.326 12.7809C83.2887 9.00137 91.6553 5.76037 93.8523 8.80402C94.1578 8.3713 95.2869 8.10847 95.8049 8.2412C96.3229 8.37394 96.7586 8.70579 97.1836 9.02703C97.7681 9.47569 98.3737 9.94027 98.7324 10.5854C99.0937 11.2278 99.1494 12.1039 98.6633 12.6614C98.2781 13.1048 97.1411 13.3915 96.562 13.5083C96.1582 13.5906 95.8182 13.657 95.526 13.7047C95.2605 13.3226 95.1383 12.8592 95.1806 12.3959C94.9839 12.5285 94.819 12.703 94.6978 12.9068C94.5765 13.1106 94.5019 13.3387 94.4793 13.5747C94.4713 13.6729 97.7442 25.707 97.7442 25.707C97.3509 25.9307 96.9373 26.1165 96.5089 26.2619C95.6613 24.9674 95.0122 23.5536 94.5829 22.0673C94.4842 23.0611 94.4967 24.0629 94.6201 25.0539C94.6857 25.6097 94.7797 26.1617 94.9017 26.7079C91.0125 27.5468 85.1629 27.2707 82.6179 23.7027C82.6175 23.6879 82.617 23.6731 82.6166 23.6583C82.6146 23.5175 82.5637 23.3817 82.4726 23.2743C82.3815 23.1669 82.2558 23.0944 82.1171 23.0694C81.9784 23.0444 81.8353 23.0683 81.7123 23.1372C81.5893 23.206 81.4941 23.3154 81.443 23.4466C81.3813 23.604 81.3244 23.7403 81.2737 23.8487C80.5325 21.1992 81.4915 18.1329 84.326 12.7809Z" fill="#231F20"/>
<path d="M50.5325 36.3109C50.3886 36.3175 50.2461 36.2798 50.1244 36.2028C50.0027 36.1258 49.9076 36.0132 49.852 35.8804C49.7964 35.7476 49.7831 35.6009 49.8137 35.4603C49.8443 35.3196 49.9175 35.1917 50.0233 35.094C50.041 35.0236 50.0537 34.9731 50.0714 34.9027C50.0651 34.8874 50.0587 34.8721 50.0523 34.8568C49.4055 33.3155 47.2134 33.3262 46.5721 34.8698C46.0029 36.2398 45.2782 37.6121 45.0997 39.0607C45.0212 39.701 45.0543 40.3501 45.1977 40.979C43.8608 38.0646 43.1666 34.897 43.1621 31.691C43.1618 30.8865 43.2066 30.0826 43.2961 29.2831C43.3701 28.6276 43.4727 27.9769 43.6041 27.3308C44.3206 23.825 45.8591 20.5392 48.0931 17.743C49.1744 17.1534 50.0488 16.2468 50.5986 15.1452C50.7978 14.7493 50.9386 14.3266 51.0165 13.8903C50.8946 13.9063 50.5566 12.0499 50.6486 11.936C50.4786 11.6782 50.1744 11.5501 49.9888 11.2985C49.0655 10.0475 47.7934 10.266 47.1293 11.9659C45.7107 12.6815 45.697 13.8681 46.5674 15.0093C47.1212 15.7354 47.1973 16.7179 47.6832 17.4952C47.6332 17.5591 47.5812 17.6211 47.5312 17.685C46.6174 18.8593 45.821 20.1203 45.1533 21.4498C45.3422 19.9752 45.0633 18.1987 44.5878 17.0536C44.0466 15.7488 43.0322 14.6499 42.1389 13.5219C41.0658 12.1671 38.8655 12.7584 38.6764 14.4759C38.6746 14.4925 38.6728 14.5091 38.6711 14.5257C38.8037 14.6005 38.9336 14.68 39.0607 14.764C39.2204 14.8705 39.3441 15.0229 39.4156 15.2009C39.4872 15.379 39.5032 15.5745 39.4617 15.7618C39.4202 15.9492 39.323 16.1196 39.1829 16.2508C39.0428 16.382 38.8663 16.4678 38.6765 16.4971L38.6571 16.5C38.7043 16.978 38.7879 17.4516 38.907 17.9168C37.761 22.3459 40.2352 23.9591 43.768 24.0316C43.846 24.0716 43.922 24.1115 44 24.1495C43.3292 26.0493 42.9084 28.0282 42.7482 30.0364C42.6576 31.2212 42.6629 32.4114 42.7642 33.5954L42.7582 33.5534C42.5023 32.2369 41.7995 31.049 40.7686 30.1903C39.2375 28.9334 37.0743 28.4705 35.4226 27.4602C34.6274 26.9738 33.6085 27.6023 33.7473 28.5236C33.7495 28.5383 33.7518 28.553 33.754 28.5677C34.0003 28.6679 34.24 28.7834 34.4719 28.9134C34.6046 28.9882 34.7345 29.0676 34.8616 29.1516C35.0212 29.2582 35.1449 29.4105 35.2165 29.5886C35.288 29.7666 35.3041 29.9621 35.2626 30.1495C35.221 30.3368 35.1238 30.5072 34.9837 30.6384C34.8436 30.7696 34.6671 30.8555 34.4773 30.8847L34.4579 30.8877C34.4439 30.8897 34.4319 30.8917 34.4179 30.8937C34.8386 31.8976 35.4291 32.8216 36.1636 33.6253C36.8801 37.4918 39.9579 37.8586 43.2501 36.7327H43.2521C43.6133 38.3013 44.1367 39.8282 44.8138 41.2888H50.3927C50.4127 41.2268 50.4307 41.1629 50.4487 41.1009C49.9323 41.1334 49.4138 41.1025 48.905 41.009C49.3189 40.5014 49.7328 39.9899 50.1467 39.4823C50.1559 39.4728 50.1646 39.4628 50.1727 39.4523C50.3827 39.1926 50.5946 38.9348 50.8046 38.675L50.8047 38.6747C50.8159 37.8784 50.7244 37.084 50.5326 36.311L50.5325 36.3109Z" fill="#F2F2F2"/>
<path d="M24.5012 8.27319C24.3745 8.56806 20.4704 8.53647 20.2916 8.79904C18.9129 10.8262 23.8827 19.4513 22.504 21.4811L22.312 21.7099C22.7617 21.5027 23.1938 21.2592 23.6038 20.9816C23.6406 20.1507 23.6774 19.3172 23.7169 18.4864C24.1298 19.0143 24.4631 19.5998 24.7062 20.2243C25.0271 19.9982 25.2905 19.5791 26.6663 18.7546C27.2232 18.1431 27.8653 17.6149 28.5728 17.1862L24.5012 8.27319Z" fill="#231F20"/>
<path d="M27.3357 24.8872C26.9049 24.6067 26.4133 24.433 25.9018 24.3804C25.3903 24.3278 24.8737 24.3978 24.3947 24.5847C23.9157 24.7716 23.4883 25.0699 23.1478 25.455C22.8073 25.84 22.5636 26.3006 22.4369 26.7987L16.504 42.2473L6.30592 36.4614C6.26114 35.7964 6.00676 35.1626 5.57925 34.651C5.15175 34.1393 4.57309 33.7761 3.92626 33.6135C3.27944 33.4508 2.59768 33.497 1.97877 33.7455C1.35986 33.994 0.835598 34.432 0.481171 34.9967C0.126745 35.5613 -0.0396358 36.2236 0.00589328 36.8886C0.0514223 37.5536 0.306522 38.1871 0.734605 38.6983C1.16269 39.2095 1.74176 39.572 2.38877 39.7339C3.03577 39.8959 3.71748 39.8489 4.33611 39.5997C6.48373 41.8903 15.7944 51.2819 19.649 47.6124C22.889 44.528 27.5646 32.5739 28.6901 28.446C28.8704 27.7859 28.8364 27.0856 28.593 26.4461C28.3496 25.8066 27.9094 25.2607 27.3357 24.8872Z" fill="#FFB6B6"/>
<path d="M16.1955 48.2596L18.0678 56.7164L31.7583 57.9539L33.0165 50.5903L16.1955 48.2596Z" fill="#FFB6B6"/>
<path d="M37.1082 69.946C37.1019 70.0672 37.0944 70.1872 37.0857 70.3084C36.9544 72.0607 36.8043 74.0817 36.6417 76.2963C36.3853 79.8108 36.0989 83.8128 35.81 87.9997H7.094L12.6632 71.2713C12.6632 71.2713 14.9119 70.034 13.767 67.9556C12.6222 65.8771 14.8748 67.5334 14.8958 64.5651C14.9167 61.5968 16.9353 58.4389 16.9353 58.4389L17.2667 53.9445L17.4556 53.9482L32.3995 54.197L32.6722 54.202L33.1311 58.0602C35.918 61.3743 37.3397 65.6233 37.1082 69.946Z" fill="#231F20"/>
<path d="M24.7403 20.7888L31.5547 20.4379L34.7199 25.436C34.7199 25.436 40.6751 26.4309 40.2623 33.4439C39.8495 40.4568 33.0165 46.6107 33.0165 46.6107L33.3086 45.61L32.8013 47.0585L32.8664 47.8719L33.5584 48.7333L33.6297 49.6241L33.0165 51.0335C33.0963 51.1612 33.1386 51.3087 33.1387 51.4593C33.1388 51.6098 33.0967 51.7573 33.0171 51.8852C32.9375 52.013 32.8237 52.116 32.6886 52.1824C32.5534 52.2489 32.4023 52.2761 32.2524 52.2611L22.4061 51.275C22.1819 50.6587 22.002 49.9214 21.1035 51.1489L20.1759 51.0591L16.3201 50.6858L16.0932 49.8596C15.9642 49.3901 15.9441 48.8975 16.0344 48.4191C16.1247 47.9407 16.323 47.4892 16.6142 47.0989C16.2793 46.0509 16.367 44.9136 16.8587 43.9292L16.8771 43.8923L17.2866 43.5512C17.2866 43.5512 12.8069 36.8255 17.9495 31.7598L20.0134 28.2533L22.3229 25.4376L24.7403 20.7888Z" fill="#362FD9"/>
<path d="M26.4364 17.8383C30.0052 17.8383 32.8984 14.9471 32.8984 11.3806C32.8984 7.81406 30.0052 4.92284 26.4364 4.92284C22.8675 4.92284 19.9744 7.81406 19.9744 11.3806C19.9744 14.9471 22.8675 17.8383 26.4364 17.8383Z" fill="#FFB6B6"/>
<path d="M31.3437 20.6834C30.8174 20.244 30.4512 19.6432 30.3018 18.9744C30.1823 19.7865 30.2135 20.6136 30.3939 21.4144C30.0439 21.6773 29.7046 21.9271 29.3836 22.1532C29.1405 21.5287 28.8072 20.9432 28.3943 20.4153C28.3549 21.2461 28.318 22.0796 28.2812 22.9104C27.8712 23.188 27.4391 23.4316 26.9894 23.6387L27.1814 23.41C28.5601 21.3802 24.9924 17.644 26.3711 15.6168C26.7578 15.0489 25.0109 10.5607 23.6796 10.3583C22.4956 10.1795 22.5456 10.5213 21.3985 10.7711C21.2794 10.2746 21.0944 9.79622 20.8486 9.34864C20.9141 9.84737 20.899 10.3534 20.8039 10.8473C20.3961 10.8631 20.0752 10.6034 19.641 10.5371C16.8706 10.1138 17.1521 7.11903 17.9229 6.16986C18.6965 5.22332 21.2643 4.93936 22.4483 4.63172C22.5561 4.52656 22.8008 4.59229 22.9087 4.49238C25.1777 2.41722 28.2123 2.07355 30.9431 2.99331C33.8554 3.97416 35.6711 5.87255 36.603 8.79913L36.8703 11.1411C37.1101 11.8942 36.8084 15.398 36.603 16.1611C35.8045 19.1274 34.1039 17.6466 31.3437 20.6834Z" fill="#231F20"/>
<path d="M40.7657 51.2784L40.5113 31.4781C40.498 30.6393 40.1553 29.8393 39.557 29.2508C38.9587 28.6623 38.1528 28.3324 37.3134 28.3324C36.8791 28.3324 36.4493 28.4208 36.0503 28.5922C35.6513 28.7636 35.2914 29.0144 34.9926 29.3293C34.6938 29.6442 34.4622 30.0167 34.3121 30.4239C34.162 30.8312 34.0965 31.2647 34.1195 31.6981L35.0147 52.2577L35.0317 64.7733C34.5041 64.997 34.0582 65.3774 33.7545 65.8632C33.4508 66.3489 33.3041 66.9162 33.3343 67.4882C33.3645 68.0601 33.5701 68.6089 33.9233 69.0599C34.2765 69.511 34.76 69.8425 35.3083 70.0093C35.8565 70.1762 36.4428 70.1703 36.9876 69.9926C37.5324 69.8148 38.0093 69.4737 38.3534 69.0157C38.6974 68.5577 38.8921 68.005 38.9109 67.4325C38.9296 66.8601 38.7716 66.2958 38.4583 65.8162L40.7657 51.2784Z" fill="#FFB6B6"/>
<path d="M74.1178 76.8952C74.1178 76.8952 73.7244 83.9669 73.5436 88H59.9983C59.7195 84.3297 59.6256 81.6331 59.6256 81.6331L58.8844 88H45.1928L44.344 76.2083L48.4459 66.047C48.4459 66.047 70.6756 64.5063 72.7376 66.4608C74.7982 68.4139 74.1178 76.8952 74.1178 76.8952Z" fill="#231F20"/>
<path d="M62.1389 17.4079C66.2252 17.4079 69.5378 14.0974 69.5378 10.0138C69.5378 5.93025 66.2252 2.61983 62.1389 2.61983C58.0527 2.61983 54.7401 5.93025 54.7401 10.0138C54.7401 14.0974 58.0527 17.4079 62.1389 17.4079Z" fill="#FFB6B6"/>
<path d="M70.7631 7.61093C70.0032 7.95723 69.5108 10.4653 68.9134 9.88224C68.3161 9.29916 68.356 8.54037 67.5507 8.32519C66.9003 8.15067 66.2005 8.35012 65.6073 8.66468C65.5014 8.72018 65.3987 8.78053 65.2986 8.84055C65.2325 8.79644 65.1668 8.75493 65.0962 8.71664C64.5656 8.43288 63.9463 8.36326 63.3659 8.52214C63.8245 8.67566 64.2233 8.96937 64.5058 9.36175C64.3072 9.49471 64.1061 9.62801 63.9004 9.74612C62.1821 10.7371 59.7369 8.58223 57.9281 7.77269C59.0611 9.89737 58.5032 10.7773 57.5195 12.9747L57.4855 13.0998C57.5414 12.5491 55.8361 12.1386 55.935 12.9139C56.0052 13.4643 56.4819 14.6878 56.7488 15.1738C54.8471 12.9763 53.5476 10.2872 53.8218 7.51319C53.8815 6.93045 53.8635 6.3156 54.1643 5.80982C54.4653 5.30665 55.093 4.95355 55.6484 5.14543C55.6013 4.26076 55.795 3.37988 56.2089 2.59645C56.6228 1.81302 57.2414 1.15631 57.9989 0.696142C58.7564 0.235976 59.6246 -0.0104475 60.5111 -0.0169316C61.3975 -0.0234156 62.2692 0.210284 63.0334 0.659319C63.7435 1.07571 64.3363 1.66462 64.9871 2.17261C65.6379 2.68058 66.3882 3.12337 67.2134 3.16531C67.737 3.19054 68.3067 3.06281 68.7565 3.33379C69.2775 3.64821 69.3667 4.30652 69.4449 4.93997C68.9802 4.98576 68.5397 5.16896 68.1796 5.46617C68.6605 5.41716 69.1445 5.52092 69.563 5.76268C69.5709 5.76627 69.5785 5.77058 69.5856 5.77555C69.8611 6.82244 69.8328 7.05452 70.7631 7.61093Z" fill="#231F20"/>
<path d="M45.2246 69.6243C51.5254 62.254 49.3971 52.8795 46.8964 43.4165L47.3723 29.4368C47.3956 28.751 47.5837 28.0809 47.9207 27.4831C48.2578 26.8853 48.7338 26.3773 49.3086 26.002L55.7408 21.8026L58.2444 18.1853L65.1454 18.8749L68.9723 22.9193L73.2082 26.151C74.2718 26.9624 75.081 28.0608 75.5406 29.3167C76.0001 30.5726 76.0908 31.9336 75.8019 33.2392L71.7483 51.5592C71.7483 51.5592 73.4437 61.0564 72.4092 62.1053C71.3747 63.1542 68.7091 62.1058 70.8229 63.2833C73.3597 64.6963 75.6663 64.4356 74.3825 65.7185C73.0988 67.0014 74.7235 68.785 74.7235 68.785L45.2246 69.6243Z" fill="#362FD9"/>
<path d="M47.919 80.336L48.9694 72.8573L44.7781 71.6616L43.949 79.608C43.6021 79.9258 43.3509 80.334 43.2234 80.7868C43.096 81.2395 43.0975 81.7188 43.2277 82.1707C43.3579 82.6227 43.6116 83.0294 43.9604 83.3451C44.3092 83.6608 44.7392 83.873 45.2021 83.9579C45.665 84.0428 46.1424 83.997 46.5806 83.8256C47.0189 83.6542 47.4006 83.364 47.6829 82.9877C47.9651 82.6114 48.1368 82.1639 48.1785 81.6954C48.2202 81.227 48.1303 80.7562 47.919 80.336Z" fill="#FFB6B6"/>
<path d="M55.8981 23.1507C55.8981 23.1507 43.9678 27.0311 43.6833 29.8703C43.3989 32.7095 43.4932 34.4476 42.234 45.8089L42.3004 76.4133C42.3004 76.4133 50.2989 78.1247 49.4786 76.2949C48.6583 74.4651 48.9446 73.6043 48.9446 73.6043C48.9446 73.6043 50.6595 72.928 50.2302 70.7795C49.8009 68.6311 51.9537 57.984 51.9537 57.984L53.3124 38.8891L55.8981 23.1507Z" fill="#362FD9"/>
<path d="M70.609 79.9398L70.0501 72.4085L74.3106 71.4891L74.6181 79.4727C74.9435 79.8125 75.1675 80.2363 75.265 80.6963C75.3626 81.1564 75.3298 81.6346 75.1703 82.0771C75.0108 82.5195 74.731 82.9088 74.3623 83.201C73.9936 83.4933 73.5506 83.677 73.0832 83.7314C72.6158 83.7859 72.1424 83.709 71.7163 83.5093C71.2902 83.3097 70.9283 82.9952 70.6712 82.6013C70.4142 82.2073 70.2722 81.7495 70.2612 81.2794C70.2502 80.8092 70.3707 80.3453 70.609 79.9398Z" fill="#FFB6B6"/>
<path d="M66.3868 22.3559C66.3868 22.3559 78.0378 27.0072 78.1359 29.859C78.2341 32.7107 78.0263 34.4389 78.5396 45.8582L76.4716 76.3928C76.4716 76.3928 68.3783 77.5781 69.3165 75.8058C70.2547 74.0335 70.0254 73.1557 70.0254 73.1557C70.0254 73.1557 68.3584 72.3689 68.9273 70.2531C69.4962 68.1373 68.0444 57.3724 68.0444 57.3724L67.9375 38.2295L66.3868 22.3559Z" fill="#362FD9"/>
</g>
<defs>
<clipPath id="clip0_392_2830">
<rect width="115.016" height="87.5093" fill="white" transform="scale(1.00561)"/>
</clipPath>
</defs>
</svg>
