<svg width="91" height="73" viewBox="0 0 91 73" fill="none" xmlns="http://www.w3.org/2000/svg">
<path d="M72.4239 44.269V60.3013C72.4239 64.8771 68.7332 68.5865 64.1818 68.5865C59.6304 68.5865 55.9396 64.8771 55.9396 60.3013V28.2366C55.9396 23.6609 59.6304 19.9515 64.1818 19.9515C68.7332 19.9515 72.4239 23.6609 72.4239 28.2366V32.1102" stroke="white" stroke-width="8.48493" stroke-linejoin="round"/>
<path d="M86.7107 68.5865V26.8678C86.7107 14.398 76.5629 4.28935 64.0448 4.28935C51.5268 4.28935 41.3789 14.398 41.3789 26.8678V36.7245" stroke="white" stroke-width="8.48493" stroke-linejoin="round"/>
<path d="M4.28929 52.3338V48.7113C4.28929 43.6021 8.45756 39.4603 13.5962 39.4603C18.737 39.4603 22.9053 43.6021 22.9053 48.7113V51.7119C22.9053 56.7823 27.0412 60.8926 32.141 60.8926C37.243 60.8926 41.379 56.7823 41.379 51.7119V48.0191" stroke="white" stroke-width="8.48493" stroke-linejoin="round"/>
</svg>
