<svg width="63" height="136" viewBox="0 0 63 136" fill="none" xmlns="http://www.w3.org/2000/svg">
<path d="M0.72256 3.61971C-2.22558e-08 5.03781 -3.04569e-08 6.89422 -4.68591e-08 10.607L-5.53954e-07 125.393C-5.70356e-07 129.106 -5.78557e-07 130.962 0.722559 132.38C1.35814 133.628 2.37231 134.642 3.61971 135.277C5.03781 136 6.89421 136 10.607 136L52.2747 136C55.9875 136 57.8439 136 59.262 135.277C60.5094 134.642 61.5235 133.628 62.1591 132.38C62.8817 130.962 62.8817 129.106 62.8817 125.393L62.8817 10.607C62.8817 6.89421 62.8817 5.03781 62.1591 3.61971C61.5235 2.37231 60.5094 1.35814 59.262 0.72256C57.8439 -2.55539e-07 55.9875 -2.47338e-07 52.2747 -2.30936e-07L49.0163 -2.16542e-07C48.8549 -2.15829e-07 48.7742 -2.15472e-07 48.7096 0.0235175C48.6013 0.0629423 48.516 0.148269 48.4765 0.256588C48.453 0.321203 48.453 0.401895 48.453 0.563281C48.453 1.85437 48.453 2.49991 48.2649 3.01682C47.9495 3.88337 47.2669 4.56599 46.4003 4.88139C45.8834 5.06953 45.2379 5.06953 43.9468 5.06953L18.9349 5.06953C17.6438 5.06953 16.9983 5.06953 16.4814 4.88139C15.6148 4.56599 14.9322 3.88338 14.6168 3.01682C14.4287 2.49991 14.4287 1.85437 14.4287 0.563281C14.4287 0.401896 14.4287 0.321203 14.4051 0.256588C14.3657 0.148269 14.2804 0.0629425 14.1721 0.0235176C14.1075 -6.23232e-08 14.0268 -6.19667e-08 13.8654 -6.12537e-08L10.607 -4.68591e-08C6.89421 -3.04569e-08 5.03781 -2.22558e-08 3.61971 0.72256C2.37231 1.35814 1.35814 2.37231 0.72256 3.61971Z" fill="white"/>
<path d="M0.72256 3.61971C-2.22558e-08 5.03781 -3.04569e-08 6.89422 -4.68591e-08 10.607L-5.53954e-07 125.393C-5.70356e-07 129.106 -5.78557e-07 130.962 0.722559 132.38C1.35814 133.628 2.37231 134.642 3.61971 135.277C5.03781 136 6.89421 136 10.607 136L52.2747 136C55.9875 136 57.8439 136 59.262 135.277C60.5094 134.642 61.5235 133.628 62.1591 132.38C62.8817 130.962 62.8817 129.106 62.8817 125.393L62.8817 10.607C62.8817 6.89421 62.8817 5.03781 62.1591 3.61971C61.5235 2.37231 60.5094 1.35814 59.262 0.72256C57.8439 -2.55539e-07 55.9875 -2.47338e-07 52.2747 -2.30936e-07L49.0163 -2.16542e-07C48.8549 -2.15829e-07 48.7742 -2.15472e-07 48.7096 0.0235175C48.6013 0.0629423 48.516 0.148269 48.4765 0.256588C48.453 0.321203 48.453 0.401895 48.453 0.563281C48.453 1.85437 48.453 2.49991 48.2649 3.01682C47.9495 3.88337 47.2669 4.56599 46.4003 4.88139C45.8834 5.06953 45.2379 5.06953 43.9468 5.06953L18.9349 5.06953C17.6438 5.06953 16.9983 5.06953 16.4814 4.88139C15.6148 4.56599 14.9322 3.88338 14.6168 3.01682C14.4287 2.49991 14.4287 1.85437 14.4287 0.563281C14.4287 0.401896 14.4287 0.321203 14.4051 0.256588C14.3657 0.148269 14.2804 0.0629425 14.1721 0.0235176C14.1075 -6.23232e-08 14.0268 -6.19667e-08 13.8654 -6.12537e-08L10.607 -4.68591e-08C6.89421 -3.04569e-08 5.03781 -2.22558e-08 3.61971 0.72256C2.37231 1.35814 1.35814 2.37231 0.72256 3.61971Z" fill="#231F20"/>
</svg>
