<svg width="279" height="225" viewBox="0 0 279 225" fill="none" xmlns="http://www.w3.org/2000/svg">
<g clip-path="url(#clip0_225_992)">
<path d="M48.403 152.842H47.5172C47.3997 152.842 47.2871 152.795 47.2041 152.712C47.121 152.629 47.0743 152.517 47.0742 152.399V151.513C47.0743 151.396 47.121 151.283 47.2041 151.2C47.2871 151.117 47.3997 151.07 47.5172 151.07H48.403C48.5205 151.07 48.6331 151.117 48.7161 151.2C48.7992 151.283 48.8459 151.396 48.846 151.513V152.399C48.8459 152.517 48.7992 152.629 48.7161 152.712C48.6331 152.795 48.5205 152.842 48.403 152.842Z" fill="#CCCCCC"/>
<path d="M47.9768 151.866C47.9599 151.867 47.9431 151.865 47.9264 151.862C47.8882 151.856 47.8517 151.842 47.8189 151.821C47.7861 151.8 47.7577 151.773 47.7353 151.742C47.7129 151.71 47.697 151.674 47.6884 151.636C47.6799 151.598 47.6789 151.559 47.6854 151.521L50.6058 134.528C50.6195 134.451 50.663 134.383 50.7269 134.338C50.7907 134.293 50.8697 134.276 50.9465 134.289C51.0234 134.302 51.0919 134.345 51.1371 134.409C51.1823 134.472 51.2006 134.551 51.1878 134.628L48.2675 151.621C48.2557 151.69 48.22 151.752 48.1669 151.797C48.1137 151.842 48.0464 151.866 47.9768 151.866Z" fill="#CCCCCC"/>
<path d="M47.9761 151.866C47.9066 151.866 47.8393 151.842 47.7861 151.797C47.7329 151.752 47.6973 151.69 47.6855 151.621L44.7652 134.628C44.7525 134.551 44.7707 134.472 44.8159 134.409C44.8611 134.345 44.9297 134.302 45.0065 134.289C45.0834 134.276 45.1623 134.293 45.2262 134.338C45.29 134.383 45.3335 134.451 45.3472 134.528L48.2675 151.521C48.2741 151.559 48.2731 151.598 48.2645 151.636C48.256 151.674 48.24 151.71 48.2177 151.742C48.1953 151.773 48.1669 151.8 48.1341 151.821C48.1013 151.842 48.0647 151.856 48.0265 151.862C48.0099 151.865 47.993 151.867 47.9761 151.866Z" fill="#CCCCCC"/>
<path d="M54.2634 131.619C54.5481 129.602 53.4711 127.783 51.8577 127.555C50.2444 127.328 48.7058 128.778 48.4211 130.794C48.1811 132.495 48.9115 134.052 50.1135 134.635L50.045 135.12L51.5056 135.326L51.574 134.842C52.8906 134.613 54.0233 133.32 54.2634 131.619Z" fill="#FF6584"/>
<path d="M47.4814 130.702C47.1319 128.695 45.5475 127.296 43.9422 127.575C42.337 127.855 41.3192 129.708 41.6687 131.714C41.9634 133.406 43.1372 134.663 44.4605 134.848L44.5445 135.331L45.9977 135.078L45.9137 134.595C47.0962 133.973 47.7761 132.394 47.4814 130.702Z" fill="#CCCCCC"/>
<path d="M47.9602 151.514C47.8819 151.514 47.8068 151.483 47.7514 151.427C47.696 151.372 47.6649 151.297 47.6649 151.219V133.75C47.6646 133.711 47.672 133.672 47.6867 133.636C47.7013 133.6 47.723 133.567 47.7505 133.539C47.7779 133.511 47.8106 133.489 47.8466 133.474C47.8826 133.459 47.9212 133.452 47.9602 133.452C47.9992 133.452 48.0378 133.459 48.0738 133.474C48.1098 133.489 48.1425 133.511 48.1699 133.539C48.1974 133.567 48.2191 133.6 48.2338 133.636C48.2485 133.672 48.2558 133.711 48.2555 133.75V151.219C48.2555 151.297 48.2244 151.372 48.169 151.427C48.1136 151.483 48.0385 151.514 47.9602 151.514Z" fill="#CCCCCC"/>
<path d="M50.7275 130.394C50.7275 128.357 49.4067 126.706 47.7774 126.706C46.148 126.706 44.8273 128.357 44.8273 130.394C44.8273 132.111 45.7681 133.55 47.0398 133.96V134.45H48.5149V133.96C49.7867 133.55 50.7275 132.111 50.7275 130.394Z" fill="#362FD9"/>
<path d="M185.47 225L185.411 224.994L93.0544 216.415L9.07125 224.217C7.92104 224.323 6.76119 224.189 5.66585 223.822C4.57051 223.455 3.56377 222.864 2.71 222.086C1.85624 221.308 1.17422 220.36 0.707558 219.303C0.240893 218.246 -0.000156246 217.104 -0.000174848 215.949V16.2121C-0.00865256 14.1405 0.761059 12.1412 2.15657 10.61C3.55207 9.07889 5.47163 8.12757 7.53518 7.94442L93.0544 0L93.1135 0.00561071L185.47 8.58502L269.453 0.783431C270.603 0.676582 271.763 0.810905 272.858 1.17781C273.954 1.54472 274.96 2.13614 275.814 2.91426C276.668 3.69239 277.35 4.64009 277.817 5.6968C278.283 6.7535 278.524 7.89595 278.524 9.05112V208.788C278.533 210.859 277.763 212.859 276.368 214.39C274.972 215.921 273.053 216.872 270.989 217.056L185.47 225ZM93.0544 215.132L93.1135 215.138L185.47 223.717L270.871 215.784C272.617 215.629 274.241 214.824 275.422 213.528C276.603 212.232 277.254 210.541 277.247 208.788V9.05112C277.247 8.07367 277.043 7.10697 276.648 6.21282C276.253 5.31868 275.676 4.51677 274.954 3.85834C274.231 3.19992 273.379 2.69947 272.453 2.389C271.526 2.07853 270.544 1.96486 269.571 2.05526L185.47 9.86808L185.411 9.86247L93.0544 1.28306L7.65334 9.21627C5.90725 9.3713 4.28302 10.1763 3.10222 11.4719C1.92141 12.7675 1.27011 14.4592 1.27726 16.2121V215.949C1.27727 216.926 1.48123 217.893 1.8761 218.787C2.27097 219.681 2.84805 220.483 3.57047 221.142C4.29289 221.8 5.14474 222.301 6.07157 222.611C6.9984 222.921 7.97981 223.035 8.95307 222.945L93.0544 215.132Z" fill="#E6E6E6"/>
<path d="M266.11 51.1196C266.11 45.4398 261.502 31.9619 255.818 31.9619C250.135 31.9619 245.527 45.4398 245.527 51.1196C245.529 53.8479 246.614 56.4638 248.544 58.3924C250.474 60.321 253.09 61.4044 255.818 61.4044C258.547 61.4044 261.163 60.321 263.093 58.3924C265.023 56.4638 266.108 53.8479 266.11 51.1196Z" fill="#3F3D56"/>
<path d="M255.818 73.9084C255.787 73.9084 255.757 73.896 255.735 73.8739C255.713 73.8519 255.701 73.8219 255.701 73.7907V49.7669C255.701 49.7358 255.713 49.7061 255.736 49.6841C255.758 49.6622 255.787 49.6499 255.818 49.6499C255.85 49.6499 255.879 49.6622 255.901 49.6841C255.924 49.7061 255.936 49.7358 255.936 49.7669V73.7907C255.936 73.8062 255.933 73.8215 255.927 73.8357C255.921 73.85 255.913 73.863 255.902 73.8739C255.891 73.8849 255.878 73.8935 255.864 73.8994C255.849 73.9054 255.834 73.9084 255.818 73.9084Z" fill="#CCCCCC"/>
<path d="M255.819 54.2551C255.802 54.2551 255.785 54.2515 255.77 54.2445C255.754 54.2375 255.741 54.2272 255.73 54.2145L249.811 47.3889C249.791 47.3653 249.78 47.3346 249.783 47.3035C249.785 47.2724 249.799 47.2435 249.823 47.2231C249.846 47.2027 249.877 47.1925 249.908 47.1946C249.939 47.1968 249.968 47.2112 249.989 47.2347L255.907 54.0603C255.922 54.0773 255.932 54.0982 255.935 54.1206C255.938 54.1429 255.935 54.1657 255.926 54.1862C255.916 54.2067 255.901 54.2241 255.882 54.2363C255.863 54.2485 255.841 54.255 255.819 54.2551Z" fill="#CCCCCC"/>
<path d="M255.818 58.1942C255.795 58.1942 255.772 58.1873 255.753 58.1744C255.734 58.1614 255.719 58.1431 255.71 58.1216C255.701 58.1 255.699 58.0764 255.703 58.0536C255.708 58.0307 255.719 58.0098 255.735 57.9933L259.098 54.6302C259.109 54.6192 259.122 54.6106 259.137 54.6046C259.151 54.5987 259.166 54.5957 259.182 54.5957C259.197 54.5957 259.212 54.5987 259.227 54.6046C259.241 54.6106 259.254 54.6192 259.265 54.6302C259.276 54.6411 259.284 54.6541 259.29 54.6683C259.296 54.6826 259.299 54.6979 259.299 54.7134C259.299 54.7288 259.296 54.7441 259.29 54.7584C259.284 54.7727 259.276 54.7856 259.265 54.7966L255.902 58.1597C255.891 58.1707 255.878 58.1794 255.864 58.1853C255.849 58.1912 255.834 58.1942 255.818 58.1942Z" fill="#CCCCCC"/>
<path d="M244.672 73.7523C244.672 72.6129 245.125 71.5201 245.93 70.7144C246.736 69.9087 247.829 69.4561 248.968 69.4561C250.108 69.4561 251.201 69.9087 252.006 70.7144C252.812 71.5201 253.265 72.6129 253.265 73.7523" fill="#F2F2F2"/>
<path d="M248.968 73.7524C248.938 73.7524 248.908 73.7401 248.886 73.7183C248.865 73.6966 248.852 73.667 248.852 73.6362V71.372C248.852 71.3412 248.865 71.3116 248.886 71.2899C248.908 71.2681 248.938 71.2559 248.968 71.2559C248.999 71.2559 249.029 71.2681 249.051 71.2899C249.072 71.3116 249.085 71.3412 249.085 71.372V73.6362C249.085 73.667 249.072 73.6966 249.051 73.7183C249.029 73.7401 248.999 73.7524 248.968 73.7524Z" fill="#CCCCCC"/>
<path d="M248.968 72.974C248.941 72.9741 248.914 72.9641 248.893 72.946L247.499 71.7501C247.488 71.7402 247.478 71.7281 247.472 71.7145C247.465 71.7009 247.46 71.686 247.459 71.6708C247.458 71.6556 247.46 71.6403 247.465 71.6259C247.47 71.6114 247.477 71.598 247.487 71.5864C247.497 71.5748 247.509 71.5653 247.523 71.5584C247.536 71.5515 247.551 71.5474 247.566 71.5462C247.581 71.5451 247.597 71.5469 247.611 71.5517C247.626 71.5564 247.639 71.564 247.651 71.5739L249.044 72.7698C249.062 72.7853 249.075 72.8059 249.081 72.8288C249.087 72.8518 249.086 72.876 249.077 72.8983C249.069 72.9205 249.054 72.9397 249.035 72.9532C249.015 72.9668 248.992 72.9741 248.968 72.974Z" fill="#CCCCCC"/>
<path d="M257.909 73.7523C257.909 72.6129 258.362 71.5201 259.168 70.7144C259.973 69.9087 261.066 69.4561 262.206 69.4561C263.345 69.4561 264.438 69.9087 265.244 70.7144C266.049 71.5201 266.502 72.6129 266.502 73.7523" fill="#F2F2F2"/>
<path d="M262.206 73.7524C262.175 73.7524 262.145 73.7401 262.124 73.7183C262.102 73.6966 262.09 73.667 262.09 73.6362V71.372C262.09 71.3412 262.102 71.3116 262.124 71.2899C262.145 71.2681 262.175 71.2559 262.206 71.2559C262.236 71.2559 262.266 71.2681 262.288 71.2899C262.31 71.3116 262.322 71.3412 262.322 71.372V73.6362C262.322 73.667 262.31 73.6966 262.288 73.7183C262.266 73.7401 262.236 73.7524 262.206 73.7524Z" fill="#CCCCCC"/>
<path d="M262.206 72.9746C262.178 72.9747 262.151 72.9647 262.13 72.9466L260.737 71.7507C260.713 71.7306 260.699 71.7021 260.697 71.6715C260.695 71.6409 260.705 71.6106 260.725 71.5874C260.745 71.5641 260.773 71.5496 260.804 71.5472C260.834 71.5448 260.864 71.5546 260.888 71.5745L262.281 72.7704C262.299 72.7858 262.312 72.8064 262.318 72.8294C262.324 72.8524 262.323 72.8766 262.314 72.8988C262.306 72.9211 262.291 72.9403 262.272 72.9538C262.252 72.9674 262.229 72.9746 262.206 72.9746Z" fill="#CCCCCC"/>
<path d="M130.748 34.8519C133.57 30.8116 136.991 18.9347 132.948 16.1102C128.905 13.2858 118.93 20.5834 116.107 24.6236C114.752 26.5652 114.223 28.9655 114.637 31.2968C115.051 33.6282 116.374 35.6996 118.315 37.0557C120.256 38.4117 122.656 38.9413 124.988 38.5281C127.319 38.1148 129.391 36.7925 130.748 34.8519Z" fill="#F2F2F2"/>
<path d="M112.103 45.9482C112.081 45.9326 112.066 45.9089 112.061 45.8823C112.056 45.8556 112.062 45.8282 112.078 45.806L124.016 28.717C124.032 28.6948 124.055 28.6796 124.082 28.6749C124.109 28.6702 124.136 28.6762 124.158 28.6917C124.18 28.7073 124.196 28.7309 124.2 28.7576C124.205 28.7843 124.199 28.8117 124.184 28.8339L112.245 45.9229C112.23 45.9451 112.206 45.9602 112.179 45.965C112.152 45.9697 112.125 45.9637 112.103 45.9482Z" fill="#CCCCCC"/>
<path d="M121.869 31.9683C121.857 31.9599 121.847 31.949 121.84 31.9364C121.832 31.9238 121.828 31.9097 121.826 31.8952L121.008 24.0986C121.005 24.0717 121.013 24.0447 121.03 24.0237C121.047 24.0026 121.072 23.9892 121.099 23.9864C121.126 23.9836 121.153 23.9916 121.174 24.0086C121.195 24.0257 121.208 24.0504 121.211 24.0773L122.029 31.8738C122.031 31.8933 122.028 31.913 122.019 31.9304C122.01 31.9479 121.997 31.9625 121.98 31.9724C121.963 31.9824 121.943 31.9873 121.924 31.9865C121.904 31.9858 121.885 31.9794 121.869 31.9683Z" fill="#CCCCCC"/>
<path d="M119.912 34.7707C119.895 34.7592 119.882 34.743 119.875 34.7241C119.868 34.7053 119.866 34.6848 119.871 34.665C119.875 34.6453 119.885 34.6273 119.9 34.6134C119.914 34.5994 119.933 34.59 119.952 34.5865L124.016 33.8654C124.029 33.863 124.043 33.8632 124.056 33.8661C124.069 33.8689 124.082 33.8743 124.093 33.882C124.104 33.8897 124.113 33.8995 124.12 33.9108C124.128 33.9221 124.133 33.9348 124.135 33.948C124.137 33.9613 124.137 33.9749 124.134 33.988C124.131 34.0011 124.126 34.0136 124.118 34.0246C124.11 34.0356 124.1 34.045 124.089 34.0522C124.078 34.0594 124.065 34.0642 124.052 34.0665L119.988 34.7876C119.975 34.7899 119.961 34.7897 119.948 34.7868C119.935 34.7839 119.923 34.7784 119.912 34.7707Z" fill="#CCCCCC"/>
<path d="M104.252 40.2984C104.819 39.4904 105.683 38.9404 106.656 38.769C107.628 38.5976 108.629 38.8189 109.438 39.3843C110.247 39.9497 110.799 40.8131 110.973 41.7849C111.146 42.7568 110.927 43.7578 110.364 44.5685" fill="#F2F2F2"/>
<path d="M107.308 42.4327C107.286 42.4173 107.271 42.394 107.266 42.3677C107.261 42.3413 107.267 42.3143 107.283 42.2924L108.408 40.6817C108.423 40.66 108.447 40.6452 108.473 40.6407C108.499 40.6361 108.526 40.6421 108.548 40.6573C108.57 40.6726 108.585 40.6958 108.589 40.722C108.594 40.7482 108.588 40.7752 108.573 40.7971L107.448 42.4078C107.433 42.4297 107.409 42.4446 107.383 42.4493C107.357 42.4539 107.329 42.448 107.308 42.4327Z" fill="#CCCCCC"/>
<path d="M107.694 41.8797C107.675 41.8659 107.66 41.8455 107.655 41.8222L107.258 40.2791C107.254 40.2662 107.254 40.2529 107.255 40.2397C107.257 40.2266 107.262 40.2139 107.268 40.2025C107.275 40.1911 107.284 40.1811 107.295 40.1731C107.305 40.1651 107.317 40.1593 107.33 40.156C107.343 40.1527 107.356 40.152 107.369 40.1538C107.383 40.1557 107.395 40.1602 107.407 40.1669C107.418 40.1737 107.428 40.1827 107.436 40.1933C107.444 40.2039 107.45 40.216 107.453 40.2289L107.85 41.772C107.855 41.792 107.854 41.813 107.847 41.8323C107.839 41.8516 107.826 41.8682 107.81 41.8799C107.793 41.8917 107.772 41.8979 107.752 41.8979C107.731 41.8978 107.711 41.8915 107.694 41.8797Z" fill="#CCCCCC"/>
<path d="M113.668 46.8759C113.948 46.4733 114.304 46.1299 114.717 45.8653C115.13 45.6007 115.591 45.4202 116.073 45.334C116.556 45.2477 117.051 45.2576 117.53 45.3629C118.008 45.4683 118.462 45.667 118.864 45.9478C119.266 46.2286 119.608 46.5859 119.872 46.9993C120.136 47.4126 120.315 47.8739 120.4 48.3568C120.485 48.8396 120.474 49.3345 120.368 49.8131C120.261 50.2917 120.062 50.7446 119.78 51.1459" fill="#F2F2F2"/>
<path d="M116.724 49.0113C116.702 48.996 116.687 48.9726 116.682 48.9463C116.678 48.92 116.684 48.8929 116.699 48.871L117.824 47.2603C117.839 47.2384 117.863 47.2235 117.889 47.2188C117.915 47.2142 117.942 47.2201 117.964 47.2354C117.986 47.2507 118.001 47.2741 118.006 47.3004C118.01 47.3267 118.005 47.3538 117.989 47.3757L116.864 48.9864C116.849 49.0083 116.825 49.0232 116.799 49.0279C116.773 49.0326 116.746 49.0266 116.724 49.0113Z" fill="#CCCCCC"/>
<path d="M117.11 48.4574C117.091 48.4436 117.077 48.4232 117.071 48.3999L116.674 46.8568C116.667 46.8309 116.671 46.8036 116.685 46.7807C116.698 46.7578 116.721 46.7412 116.746 46.7346C116.772 46.728 116.799 46.7318 116.822 46.7453C116.845 46.7588 116.862 46.7808 116.869 46.8066L117.266 48.3497C117.271 48.3697 117.27 48.3907 117.263 48.41C117.255 48.4293 117.242 48.4459 117.226 48.4576C117.209 48.4694 117.189 48.4756 117.168 48.4756C117.147 48.4755 117.127 48.4692 117.11 48.4574Z" fill="#CCCCCC"/>
<path d="M188.658 122.982C190.929 125.067 193.184 127.168 195.425 129.283C194.85 129.315 194.253 129.34 193.64 129.359C192.775 129.388 191.874 129.401 190.929 129.401C180.559 129.401 175.296 127.699 170.212 126.051C165.383 124.489 160.823 123.014 151.459 123.014C142.092 123.014 137.531 124.489 132.706 126.051C127.618 127.699 122.355 129.401 111.986 129.401C101.613 129.401 96.353 127.699 91.2657 126.051C86.5487 124.524 82.0871 123.081 73.1514 123.017C72.9406 123.014 72.7299 123.014 72.5127 123.014V116.626C72.7266 116.626 72.9406 116.626 73.1514 116.63C83.1028 116.697 88.2509 118.364 93.2328 119.973C98.0616 121.538 102.622 123.014 111.986 123.014C121.349 123.014 125.91 121.538 130.739 119.973C135.826 118.329 141.086 116.626 151.459 116.626C161.828 116.626 167.088 118.329 172.176 119.973C176.209 121.28 180.058 122.525 186.675 122.899C187.31 122.937 187.968 122.963 188.658 122.982Z" fill="#362FD9"/>
<path d="M269.878 123.014V129.401C259.505 129.401 254.245 127.699 249.158 126.051C244.329 124.489 239.769 123.014 230.405 123.014C221.038 123.014 216.477 124.489 211.649 126.051C211.387 126.137 211.122 126.22 210.857 126.306C210.403 126.453 209.943 126.6 209.477 126.744C207.714 125.016 205.945 123.303 204.169 121.605C204.664 121.484 205.143 121.356 205.616 121.225C207.024 120.836 208.343 120.408 209.685 119.973C214.772 118.329 220.032 116.626 230.405 116.626C240.778 116.626 246.038 118.329 251.125 119.973C255.954 121.538 260.514 123.014 269.878 123.014Z" fill="#362FD9"/>
<path d="M128.742 73.8928C110.865 60.8724 92.0543 48.5259 72.8383 37.1982L71.8739 36.6297V75.0489H130.33L128.742 73.8928ZM73.1513 73.7714V38.8684C91.4316 49.682 109.332 61.4153 126.402 73.7714H73.1513ZM219.221 152.848C211.489 144.81 203.557 136.955 195.425 129.283C193.183 127.165 190.928 125.065 188.658 122.982C174.807 110.258 160.501 98.1578 145.739 86.68L145.567 86.5459H71.8739V153.931H220.262L219.221 152.848ZM73.1513 152.654V87.8233H145.129C159.363 98.8956 173.212 110.587 186.675 122.899C189.012 125.035 191.334 127.189 193.64 129.359C201.701 136.935 209.573 144.699 217.257 152.654H73.1513ZM219.221 152.848C211.489 144.81 203.557 136.955 195.425 129.283C193.183 127.165 190.928 125.065 188.658 122.982C174.807 110.258 160.501 98.1578 145.739 86.68L145.567 86.5459H71.8739V153.931H220.262L219.221 152.848ZM73.1513 152.654V87.8233H145.129C159.363 98.8956 173.212 110.587 186.675 122.899C189.012 125.035 191.334 127.189 193.64 129.359C201.701 136.935 209.573 144.699 217.257 152.654H73.1513ZM128.742 73.8928C110.865 60.8724 92.0543 48.5259 72.8383 37.1982L71.8739 36.6297V75.0489H130.33L128.742 73.8928ZM73.1513 73.7714V38.8684C91.4316 49.682 109.332 61.4153 126.402 73.7714H73.1513ZM128.742 73.8928C110.865 60.8724 92.0543 48.5259 72.8383 37.1982L71.8739 36.6297V75.0489H130.33L128.742 73.8928ZM73.1513 73.7714V38.8684C91.4316 49.682 109.332 61.4153 126.402 73.7714H73.1513ZM219.221 152.848C211.489 144.81 203.557 136.955 195.425 129.283C193.183 127.165 190.928 125.065 188.658 122.982C174.807 110.258 160.501 98.1578 145.739 86.68L145.567 86.5459H71.8739V153.931H220.262L219.221 152.848ZM73.1513 152.654V87.8233H145.129C159.363 98.8956 173.212 110.587 186.675 122.899C189.012 125.035 191.334 127.189 193.64 129.359C201.701 136.935 209.573 144.699 217.257 152.654H73.1513ZM8.64673 165.428V166.706H59.0994V185.228H8.64673V186.506H60.3769V165.428H8.64673ZM71.8739 198.003V210.947L73.1513 210.828V199.28H269.878V198.003H71.8739ZM269.878 166.706V165.428H71.8739V186.506H269.878V185.228H73.1513V166.706H269.878ZM150.581 73.7714C126.073 54.8666 100.192 37.8134 73.1513 22.7535V9.81934L71.8739 9.9375V22.9717L72.8575 24.0533C99.788 39.0723 125.564 56.073 149.974 74.9147L150.146 75.0489H269.878V73.7714H150.581ZM59.0994 73.7714H8.64673V75.0489H60.3769V11.0042L59.0994 11.1223V73.7714ZM269.878 86.5459H164.62L165.996 87.6764C178.956 98.3399 191.68 109.65 204.169 121.605C205.945 123.304 207.714 125.017 209.477 126.744C218.253 135.319 226.858 144.174 235.291 153.308L236.344 153.931H269.878V152.654H236.425C228.083 143.609 219.56 134.827 210.857 126.306C209.116 124.601 207.369 122.907 205.616 121.225C193.397 109.502 180.918 98.3676 168.177 87.8233H269.878V86.5459ZM8.64673 198.003V199.28H59.0994V212.131L60.3769 212.013V198.003H8.64673ZM8.64673 86.5459V87.8233H59.0994V152.654H8.64673V153.931H60.3769V86.5459H8.64673ZM128.742 73.8928C110.865 60.8724 92.0543 48.5259 72.8383 37.1982L71.8739 36.6297V75.0489H130.33L128.742 73.8928ZM73.1513 73.7714V38.8684C91.4316 49.682 109.332 61.4153 126.402 73.7714H73.1513ZM219.221 152.848C211.489 144.81 203.557 136.955 195.425 129.283C193.183 127.165 190.928 125.065 188.658 122.982C174.807 110.258 160.501 98.1578 145.739 86.68L145.567 86.5459H71.8739V153.931H220.262L219.221 152.848ZM73.1513 152.654V87.8233H145.129C159.363 98.8956 173.212 110.587 186.675 122.899C189.012 125.035 191.334 127.189 193.64 129.359C201.701 136.935 209.573 144.699 217.257 152.654H73.1513ZM128.742 73.8928C110.865 60.8724 92.0543 48.5259 72.8383 37.1982L71.8739 36.6297V75.0489H130.33L128.742 73.8928ZM73.1513 73.7714V38.8684C91.4316 49.682 109.332 61.4153 126.402 73.7714H73.1513ZM219.221 152.848C211.489 144.81 203.557 136.955 195.425 129.283C193.183 127.165 190.928 125.065 188.658 122.982C174.807 110.258 160.501 98.1578 145.739 86.68L145.567 86.5459H71.8739V153.931H220.262L219.221 152.848ZM73.1513 152.654V87.8233H145.129C159.363 98.8956 173.212 110.587 186.675 122.899C189.012 125.035 191.334 127.189 193.64 129.359C201.701 136.935 209.573 144.699 217.257 152.654H73.1513Z" fill="#3F3D56"/>
<path d="M162.154 117.333C162.154 111.708 166.713 98.3618 172.338 98.3618C177.962 98.3618 182.522 111.708 182.522 117.333C182.522 120.034 181.449 122.624 179.539 124.534C177.629 126.444 175.039 127.517 172.338 127.517C169.637 127.517 167.046 126.444 165.136 124.534C163.227 122.624 162.154 120.034 162.154 117.333Z" fill="#F2F2F2"/>
<path d="M172.338 142.11C172.327 142.11 172.316 142.108 172.306 142.103C172.295 142.099 172.286 142.093 172.278 142.085C172.271 142.077 172.265 142.068 172.26 142.058C172.256 142.048 172.254 142.037 172.254 142.026V106.915C172.254 106.893 172.263 106.871 172.278 106.856C172.294 106.84 172.315 106.831 172.338 106.831C172.36 106.831 172.381 106.84 172.397 106.856C172.413 106.871 172.421 106.893 172.421 106.915V142.026C172.421 142.037 172.419 142.048 172.415 142.058C172.411 142.068 172.405 142.077 172.397 142.085C172.389 142.093 172.38 142.099 172.37 142.103C172.36 142.108 172.349 142.11 172.338 142.11Z" fill="#3F3D56"/>
<path d="M172.337 113.693C172.326 113.693 172.316 113.691 172.305 113.687C172.295 113.683 172.286 113.677 172.278 113.669L168.247 109.638C168.24 109.63 168.233 109.621 168.229 109.611C168.225 109.601 168.223 109.59 168.223 109.579C168.223 109.568 168.225 109.557 168.229 109.547C168.233 109.537 168.24 109.527 168.247 109.52C168.255 109.512 168.264 109.506 168.275 109.501C168.285 109.497 168.296 109.495 168.307 109.495C168.318 109.495 168.329 109.497 168.339 109.501C168.349 109.506 168.358 109.512 168.366 109.52L172.397 113.55C172.408 113.562 172.416 113.577 172.42 113.593C172.423 113.61 172.421 113.626 172.415 113.642C172.408 113.657 172.398 113.67 172.384 113.679C172.37 113.688 172.354 113.693 172.337 113.693Z" fill="#3F3D56"/>
<path d="M172.338 120.672C172.321 120.672 172.305 120.667 172.291 120.658C172.277 120.648 172.267 120.635 172.26 120.62C172.254 120.605 172.252 120.588 172.256 120.572C172.259 120.555 172.267 120.541 172.278 120.529L179.029 113.778C179.037 113.771 179.046 113.764 179.056 113.76C179.066 113.756 179.077 113.754 179.088 113.754C179.099 113.754 179.11 113.756 179.12 113.76C179.13 113.764 179.139 113.771 179.147 113.778C179.155 113.786 179.161 113.795 179.165 113.806C179.17 113.816 179.172 113.827 179.172 113.838C179.172 113.849 179.17 113.86 179.165 113.87C179.161 113.88 179.155 113.889 179.147 113.897L172.397 120.647C172.389 120.655 172.38 120.661 172.37 120.665C172.36 120.67 172.349 120.672 172.338 120.672Z" fill="#3F3D56"/>
<path d="M219.256 88.5907C219.256 82.9663 223.815 69.6196 229.44 69.6196C235.064 69.6196 239.624 82.9662 239.624 88.5907C239.622 91.2906 238.548 93.8794 236.639 95.7879C234.729 97.6964 232.14 98.7685 229.44 98.7685C226.74 98.7685 224.15 97.6964 222.241 95.7879C220.331 93.8794 219.257 91.2906 219.256 88.5907Z" fill="#362FD9"/>
<path d="M229.44 113.368C229.429 113.368 229.418 113.365 229.408 113.361C229.397 113.357 229.388 113.351 229.38 113.343C229.373 113.335 229.367 113.326 229.362 113.316C229.358 113.306 229.356 113.295 229.356 113.284V78.1726C229.356 78.1504 229.365 78.1291 229.38 78.1134C229.396 78.0977 229.418 78.0889 229.44 78.0889C229.462 78.0889 229.483 78.0977 229.499 78.1134C229.515 78.1291 229.523 78.1504 229.523 78.1726V113.284C229.523 113.295 229.521 113.306 229.517 113.316C229.513 113.326 229.507 113.335 229.499 113.343C229.491 113.351 229.482 113.357 229.472 113.361C229.462 113.365 229.451 113.368 229.44 113.368Z" fill="#3F3D56"/>
<path d="M229.44 84.9507C229.429 84.9507 229.418 84.9486 229.408 84.9444C229.398 84.9402 229.388 84.934 229.381 84.9262L225.35 80.8954C225.334 80.8797 225.325 80.8584 225.325 80.8362C225.325 80.814 225.334 80.7927 225.35 80.777C225.365 80.7613 225.387 80.7524 225.409 80.7524C225.431 80.7524 225.452 80.7613 225.468 80.777L229.499 84.8078C229.511 84.8195 229.519 84.8344 229.522 84.8506C229.525 84.8669 229.523 84.8837 229.517 84.899C229.511 84.9143 229.5 84.9274 229.486 84.9366C229.473 84.9458 229.456 84.9507 229.44 84.9507Z" fill="#3F3D56"/>
<path d="M229.44 91.9292C229.423 91.9292 229.407 91.9243 229.393 91.9151C229.38 91.9059 229.369 91.8928 229.362 91.8775C229.356 91.8622 229.354 91.8454 229.358 91.8291C229.361 91.8129 229.369 91.798 229.381 91.7863L236.131 85.0359C236.147 85.0203 236.168 85.0117 236.19 85.0117C236.212 85.0118 236.233 85.0206 236.249 85.0362C236.265 85.0519 236.273 85.0731 236.274 85.0952C236.274 85.1173 236.265 85.1386 236.249 85.1543L229.499 91.9047C229.491 91.9125 229.482 91.9186 229.472 91.9229C229.462 91.9271 229.451 91.9292 229.44 91.9292Z" fill="#3F3D56"/>
<path d="M94.2233 91.4652C94.2233 85.8408 98.7828 72.4941 104.407 72.4941C110.032 72.4941 114.591 85.8408 114.591 91.4652C114.591 94.1662 113.518 96.7566 111.608 98.6664C109.699 100.576 107.108 101.649 104.407 101.649C101.706 101.649 99.116 100.576 97.2061 98.6664C95.2962 96.7566 94.2233 94.1662 94.2233 91.4652Z" fill="#362FD9"/>
<path d="M104.407 116.242C104.396 116.242 104.385 116.239 104.375 116.235C104.365 116.231 104.356 116.225 104.348 116.217C104.34 116.209 104.334 116.2 104.33 116.19C104.326 116.18 104.323 116.169 104.323 116.158V81.0466C104.323 81.0244 104.332 81.0031 104.348 80.9874C104.364 80.9717 104.385 80.9629 104.407 80.9629C104.429 80.9629 104.451 80.9717 104.466 80.9874C104.482 81.0031 104.491 81.0244 104.491 81.0466V116.158C104.491 116.169 104.489 116.18 104.485 116.19C104.48 116.2 104.474 116.209 104.466 116.217C104.459 116.225 104.449 116.231 104.439 116.235C104.429 116.239 104.418 116.242 104.407 116.242Z" fill="#3F3D56"/>
<path d="M104.407 87.8252C104.396 87.8252 104.385 87.8231 104.375 87.8189C104.365 87.8147 104.356 87.8085 104.348 87.8007L100.317 83.7699C100.309 83.7621 100.303 83.7529 100.299 83.7427C100.295 83.7326 100.293 83.7217 100.293 83.7107C100.293 83.6997 100.295 83.6888 100.299 83.6786C100.303 83.6685 100.309 83.6592 100.317 83.6515C100.325 83.6437 100.334 83.6375 100.344 83.6333C100.354 83.6291 100.365 83.627 100.376 83.627C100.387 83.627 100.398 83.6291 100.408 83.6333C100.419 83.6375 100.428 83.6437 100.436 83.6515L104.466 87.6823C104.478 87.694 104.486 87.7089 104.489 87.7252C104.493 87.7414 104.491 87.7582 104.485 87.7735C104.478 87.7888 104.467 87.8019 104.454 87.8111C104.44 87.8203 104.424 87.8252 104.407 87.8252Z" fill="#3F3D56"/>
<path d="M104.407 94.803C104.391 94.803 104.374 94.7981 104.361 94.7889C104.347 94.7797 104.336 94.7666 104.33 94.7513C104.324 94.736 104.322 94.7192 104.325 94.7029C104.328 94.6867 104.336 94.6717 104.348 94.66L111.098 87.9097C111.114 87.894 111.135 87.8852 111.158 87.8853C111.18 87.8853 111.201 87.8941 111.217 87.9098C111.232 87.9255 111.241 87.9467 111.241 87.9689C111.241 87.9911 111.232 88.0124 111.217 88.0281L104.466 94.7784C104.459 94.7862 104.449 94.7924 104.439 94.7966C104.429 94.8008 104.418 94.803 104.407 94.803Z" fill="#3F3D56"/>
<path d="M188.182 63.4064C182.398 63.4064 176.743 61.6912 171.934 58.4777C167.125 55.2642 163.376 50.6966 161.163 45.3527C158.949 40.0088 158.37 34.1285 159.498 28.4555C160.627 22.7824 163.412 17.5714 167.502 13.4813C171.592 9.39129 176.803 6.60593 182.476 5.47748C188.149 4.34904 194.03 4.9282 199.374 7.14172C204.718 9.35524 209.285 13.1037 212.499 17.9131C215.712 22.7225 217.427 28.3768 217.427 34.161C217.419 41.9147 214.335 49.3483 208.852 54.831C203.369 60.3136 195.936 63.3977 188.182 63.4064ZM188.182 5.3081C182.475 5.3081 176.897 7.00029 172.152 10.1707C167.407 13.3411 163.709 17.8473 161.525 23.1195C159.341 28.3916 158.77 34.193 159.883 39.7899C160.997 45.3868 163.745 50.5279 167.78 54.5631C171.815 58.5982 176.956 61.3462 182.553 62.4595C188.15 63.5728 193.951 63.0014 199.223 60.8176C204.496 58.6338 209.002 54.9356 212.172 50.1908C215.343 45.446 217.035 39.8675 217.035 34.161C217.026 26.5114 213.983 19.1776 208.574 13.7685C203.165 8.35938 195.831 5.31675 188.182 5.3081Z" fill="#CCCCCC"/>
<path d="M188.182 32.0019C188.13 32.0019 188.08 31.9812 188.043 31.9444C188.006 31.9076 187.986 31.8577 187.986 31.8056V5.1118C187.986 5.05975 188.006 5.00982 188.043 4.97301C188.08 4.9362 188.13 4.91553 188.182 4.91553C188.234 4.91553 188.284 4.9362 188.321 4.97301C188.357 5.00982 188.378 5.05975 188.378 5.1118V31.8056C188.378 31.8577 188.357 31.9076 188.321 31.9444C188.284 31.9812 188.234 32.0019 188.182 32.0019Z" fill="#CCCCCC"/>
<path d="M217.231 34.3569H190.537C190.485 34.3569 190.435 34.3362 190.398 34.2994C190.362 34.2626 190.341 34.2127 190.341 34.1606C190.341 34.1086 190.362 34.0587 190.398 34.0218C190.435 33.985 190.485 33.9644 190.537 33.9644H217.231C217.283 33.9644 217.333 33.985 217.37 34.0218C217.407 34.0587 217.427 34.1086 217.427 34.1606C217.427 34.2127 217.407 34.2626 217.37 34.2994C217.333 34.3362 217.283 34.3569 217.231 34.3569Z" fill="#CCCCCC"/>
<path d="M185.827 34.3569H159.145C159.093 34.3569 159.043 34.3362 159.007 34.2994C158.97 34.2626 158.949 34.2127 158.949 34.1606C158.949 34.1086 158.97 34.0587 159.007 34.0218C159.043 33.985 159.093 33.9644 159.145 33.9644H185.827C185.879 33.9644 185.929 33.985 185.965 34.0218C186.002 34.0587 186.023 34.1086 186.023 34.1606C186.023 34.2127 186.002 34.2626 185.965 34.2994C185.929 34.3362 185.879 34.3569 185.827 34.3569Z" fill="#CCCCCC"/>
<path d="M188.182 63.4062C188.13 63.4062 188.08 63.3855 188.043 63.3487C188.006 63.3119 187.986 63.262 187.986 63.2099V36.5161C187.986 36.464 188.006 36.4141 188.043 36.3773C188.08 36.3405 188.13 36.3198 188.182 36.3198C188.234 36.3198 188.284 36.3405 188.321 36.3773C188.357 36.4141 188.378 36.464 188.378 36.5161V63.2099C188.378 63.262 188.357 63.3119 188.321 63.3487C188.284 63.3855 188.234 63.4062 188.182 63.4062Z" fill="#CCCCCC"/>
<path d="M189.913 32.7625C189.874 32.7625 189.836 32.751 189.804 32.7294C189.771 32.7079 189.746 32.6772 189.731 32.6413C189.716 32.6055 189.713 32.566 189.72 32.528C189.728 32.4899 189.746 32.4549 189.774 32.4275L208.566 13.6351C208.603 13.5985 208.653 13.578 208.705 13.5781C208.757 13.5782 208.806 13.5989 208.843 13.6356C208.88 13.6723 208.901 13.7221 208.901 13.774C208.901 13.8259 208.88 13.8758 208.844 13.9126L190.051 32.705C190.033 32.7233 190.011 32.7378 189.988 32.7476C189.964 32.7575 189.938 32.7626 189.913 32.7625Z" fill="#CCCCCC"/>
<path d="M186.451 32.7625C186.426 32.7626 186.4 32.7575 186.376 32.7476C186.352 32.7378 186.331 32.7233 186.313 32.705L167.52 13.9126C167.484 13.8758 167.463 13.8259 167.463 13.774C167.463 13.7221 167.484 13.6723 167.521 13.6356C167.557 13.5989 167.607 13.5782 167.659 13.5781C167.711 13.578 167.761 13.5985 167.798 13.6351L186.59 32.4275C186.618 32.4549 186.636 32.4899 186.644 32.528C186.651 32.566 186.648 32.6055 186.633 32.6413C186.618 32.6772 186.593 32.7079 186.56 32.7294C186.528 32.751 186.49 32.7625 186.451 32.7625Z" fill="#CCCCCC"/>
<path d="M208.705 54.7445C208.679 54.7445 208.654 54.7394 208.63 54.7296C208.606 54.7197 208.584 54.7052 208.566 54.687L189.774 35.8946C189.737 35.8577 189.717 35.8079 189.717 35.7559C189.717 35.704 189.738 35.6543 189.774 35.6175C189.811 35.5808 189.861 35.5602 189.913 35.5601C189.965 35.56 190.014 35.5804 190.051 35.617L208.844 54.4094C208.871 54.4369 208.89 54.4718 208.897 54.5099C208.905 54.548 208.901 54.5874 208.886 54.6233C208.871 54.6592 208.846 54.6898 208.814 54.7114C208.782 54.7329 208.744 54.7445 208.705 54.7445Z" fill="#CCCCCC"/>
<path d="M167.659 54.7445C167.62 54.7445 167.582 54.733 167.55 54.7114C167.518 54.6898 167.493 54.6592 167.478 54.6233C167.463 54.5875 167.459 54.548 167.467 54.5099C167.474 54.4719 167.493 54.4369 167.52 54.4094L186.313 35.6171C186.35 35.5803 186.399 35.5596 186.452 35.5596C186.504 35.5596 186.553 35.5803 186.59 35.6171C186.627 35.6539 186.648 35.7038 186.648 35.7558C186.648 35.8079 186.627 35.8578 186.59 35.8946L167.798 54.687C167.78 54.7053 167.758 54.7197 167.734 54.7296C167.71 54.7395 167.685 54.7445 167.659 54.7445Z" fill="#CCCCCC"/>
<path d="M188.182 54.2795C184.203 54.2795 180.313 53.0996 177.005 50.8889C173.696 48.6783 171.118 45.5362 169.595 41.86C168.072 38.1838 167.674 34.1387 168.45 30.2361C169.226 26.3335 171.142 22.7487 173.956 19.9351C176.77 17.1214 180.354 15.2053 184.257 14.4291C188.16 13.6528 192.205 14.0512 195.881 15.5739C199.557 17.0966 202.699 19.6753 204.91 22.9838C207.121 26.2922 208.3 30.1819 208.3 34.161C208.294 39.4949 206.173 44.6086 202.401 48.3803C198.63 52.1519 193.516 54.2735 188.182 54.2795ZM188.182 14.4351C184.281 14.4351 180.467 15.592 177.223 17.7595C173.979 19.927 171.451 23.0078 169.958 26.6122C168.465 30.2167 168.074 34.1829 168.835 38.0094C169.596 41.8358 171.475 45.3506 174.234 48.1094C176.992 50.8681 180.507 52.7468 184.334 53.5079C188.16 54.2691 192.126 53.8784 195.731 52.3854C199.335 50.8924 202.416 48.3641 204.584 45.1202C206.751 41.8763 207.908 38.0624 207.908 34.161C207.902 28.9312 205.822 23.9172 202.124 20.2192C198.426 16.5211 193.412 14.441 188.182 14.4351Z" fill="#CCCCCC"/>
<path d="M188.182 36.5163C189.483 36.5163 190.537 35.4618 190.537 34.161C190.537 32.8602 189.483 31.8057 188.182 31.8057C186.881 31.8057 185.827 32.8602 185.827 34.161C185.827 35.4618 186.881 36.5163 188.182 36.5163Z" fill="#3F3D56"/>
<path d="M179.063 73.9454L176.994 74.0053L187.094 33.2393L188.971 33.8121L179.063 73.9454Z" fill="#3F3D56"/>
<path d="M197.3 73.9454L199.37 74.0053L189.27 33.2393L187.393 33.8121L197.3 73.9454Z" fill="#3F3D56"/>
<path d="M191.322 10.9995H184.845V14.5325H191.322V10.9995Z" fill="#CCCCCC"/>
<path d="M187.789 11.7852H185.238V14.5331H187.789V11.7852Z" fill="white"/>
<path d="M190.93 11.7852H188.378V14.5331H190.93V11.7852Z" fill="white"/>
<path d="M188.084 18.3601C187.095 18.359 186.147 17.9657 185.448 17.2666C184.749 16.5674 184.356 15.6195 184.355 14.6308V14.5327C184.355 14.2985 184.448 14.074 184.614 13.9084C184.779 13.7428 185.004 13.6497 185.238 13.6494H190.93C191.164 13.6497 191.389 13.7428 191.554 13.9084C191.72 14.074 191.813 14.2985 191.813 14.5327V14.6308C191.812 15.6195 191.419 16.5674 190.72 17.2666C190.021 17.9657 189.073 18.359 188.084 18.3601Z" fill="#CCCCCC"/>
<path d="M191.08 11.8831H185.088C185.004 11.8831 184.922 11.8617 184.849 11.821C184.776 11.7803 184.714 11.7216 184.67 11.6504C184.626 11.5792 184.601 11.498 184.598 11.4145C184.594 11.3309 184.611 11.2478 184.649 11.173L185.827 8.81761C185.867 8.73591 185.93 8.66719 186.007 8.61925C186.085 8.57131 186.174 8.54607 186.265 8.54639H189.902C189.993 8.54607 190.083 8.57131 190.16 8.61925C190.238 8.66719 190.3 8.73591 190.341 8.81761L191.519 11.173C191.556 11.2478 191.574 11.3309 191.57 11.4145C191.566 11.498 191.541 11.5792 191.497 11.6504C191.453 11.7216 191.392 11.7803 191.319 11.821C191.246 11.8617 191.163 11.8831 191.08 11.8831Z" fill="#362FD9"/>
<path d="M208.791 18.8516H202.314V22.3846H208.791V18.8516Z" fill="#CCCCCC"/>
<path d="M205.258 19.6362H202.707V22.3841H205.258V19.6362Z" fill="white"/>
<path d="M208.399 19.6362H205.847V22.3841H208.399V19.6362Z" fill="white"/>
<path d="M205.553 26.2116C204.564 26.2105 203.616 25.8173 202.917 25.1181C202.218 24.419 201.824 23.4711 201.823 22.4824V22.3842C201.824 22.1501 201.917 21.9255 202.082 21.76C202.248 21.5944 202.472 21.5012 202.707 21.501H208.399C208.633 21.5012 208.857 21.5944 209.023 21.76C209.188 21.9255 209.282 22.1501 209.282 22.3842V22.4824C209.281 23.4711 208.887 24.419 208.188 25.1181C207.489 25.8173 206.541 26.2105 205.553 26.2116Z" fill="#CCCCCC"/>
<path d="M203.734 16.5942C203.679 16.5941 203.626 16.6092 203.579 16.638C203.533 16.6667 203.495 16.708 203.471 16.757L202.293 19.1123C202.271 19.1572 202.26 19.2071 202.262 19.2572C202.265 19.3074 202.28 19.3561 202.306 19.3988C202.332 19.4415 202.369 19.4767 202.413 19.5012C202.457 19.5256 202.506 19.5384 202.557 19.5384H208.548C208.599 19.5384 208.648 19.5256 208.692 19.5012C208.736 19.4767 208.773 19.4415 208.799 19.3988C208.825 19.3561 208.84 19.3074 208.843 19.2572C208.845 19.2071 208.834 19.1572 208.812 19.1123L207.634 16.757C207.61 16.708 207.572 16.6667 207.526 16.638C207.479 16.6092 207.426 16.5941 207.371 16.5942H203.734Z" fill="#362FD9"/>
<path d="M215.661 36.5161H209.184V40.0491H215.661V36.5161Z" fill="#CCCCCC"/>
<path d="M212.128 37.3008H209.576V40.0487H212.128V37.3008Z" fill="white"/>
<path d="M215.268 37.3008H212.717V40.0487H215.268V37.3008Z" fill="white"/>
<path d="M212.422 43.8767C211.434 43.8756 210.486 43.4823 209.787 42.7832C209.088 42.084 208.694 41.1361 208.693 40.1474V40.0493C208.693 39.8151 208.787 39.5906 208.952 39.425C209.118 39.2594 209.342 39.1663 209.576 39.166H215.268C215.503 39.1663 215.727 39.2594 215.893 39.425C216.058 39.5906 216.151 39.8151 216.152 40.0493V40.1474C216.151 41.1361 215.757 42.084 215.058 42.7832C214.359 43.4823 213.411 43.8756 212.422 43.8767Z" fill="#CCCCCC"/>
<path d="M215.418 37.3992H209.426C209.343 37.3992 209.26 37.3779 209.187 37.3371C209.114 37.2964 209.053 37.2377 209.009 37.1665C208.965 37.0954 208.94 37.0141 208.936 36.9306C208.932 36.847 208.95 36.7639 208.987 36.6891L210.165 34.3337C210.206 34.252 210.268 34.1833 210.346 34.1354C210.423 34.0874 210.513 34.0622 210.604 34.0625H214.241C214.332 34.0622 214.421 34.0874 214.499 34.1354C214.576 34.1833 214.639 34.252 214.679 34.3337L215.857 36.6891C215.895 36.7639 215.912 36.847 215.908 36.9306C215.905 37.0141 215.88 37.0954 215.836 37.1665C215.792 37.2377 215.73 37.2964 215.657 37.3371C215.584 37.3779 215.502 37.3992 215.418 37.3992Z" fill="#362FD9"/>
<path d="M208.399 53.0034H201.921V56.5364H208.399V53.0034Z" fill="#CCCCCC"/>
<path d="M204.866 53.7886H202.314V56.5365H204.866V53.7886Z" fill="white"/>
<path d="M208.006 53.7886H205.454V56.5365H208.006V53.7886Z" fill="white"/>
<path d="M205.16 60.364C204.171 60.3629 203.223 59.9696 202.524 59.2705C201.825 58.5713 201.432 57.6234 201.431 56.6347V56.5366C201.431 56.3024 201.524 56.0779 201.69 55.9123C201.855 55.7467 202.08 55.6536 202.314 55.6533H208.006C208.24 55.6536 208.465 55.7467 208.63 55.9123C208.796 56.0779 208.889 56.3024 208.889 56.5366V56.6347C208.888 57.6234 208.495 58.5713 207.796 59.2705C207.097 59.9696 206.149 60.3629 205.16 60.364Z" fill="#CCCCCC"/>
<path d="M208.156 53.8865H202.164C202.08 53.8865 201.998 53.8652 201.925 53.8244C201.852 53.7837 201.791 53.725 201.747 53.6538C201.703 53.5827 201.678 53.5014 201.674 53.4179C201.67 53.3343 201.688 53.2512 201.725 53.1764L202.903 50.821C202.943 50.7393 203.006 50.6706 203.083 50.6227C203.161 50.5747 203.251 50.5495 203.342 50.5498H206.978C207.07 50.5495 207.159 50.5747 207.237 50.6227C207.314 50.6706 207.377 50.7393 207.417 50.821L208.595 53.1764C208.632 53.2512 208.65 53.3343 208.646 53.4179C208.642 53.5014 208.617 53.5827 208.573 53.6538C208.529 53.725 208.468 53.7837 208.395 53.8244C208.322 53.8652 208.24 53.8865 208.156 53.8865Z" fill="#362FD9"/>
<path d="M167.573 22.3838H174.05V18.8508H167.573V22.3838Z" fill="#CCCCCC"/>
<path d="M171.106 22.3838H173.657V19.6359H171.106V22.3838Z" fill="white"/>
<path d="M167.965 22.3838H170.517V19.6359H167.965V22.3838Z" fill="white"/>
<path d="M170.811 26.2116C169.823 26.2105 168.875 25.8173 168.176 25.1181C167.476 24.419 167.083 23.4711 167.082 22.4824V22.3842C167.082 22.1501 167.175 21.9255 167.341 21.76C167.507 21.5944 167.731 21.5012 167.965 21.501H173.657C173.892 21.5012 174.116 21.5944 174.282 21.76C174.447 21.9255 174.54 22.1501 174.541 22.3842V22.4824C174.539 23.4711 174.146 24.419 173.447 25.1181C172.748 25.8173 171.8 26.2105 170.811 26.2116Z" fill="#CCCCCC"/>
<path d="M173.807 19.7342H167.815C167.732 19.7342 167.65 19.7128 167.576 19.6721C167.503 19.6314 167.442 19.5726 167.398 19.5015C167.354 19.4303 167.329 19.3491 167.325 19.2655C167.321 19.182 167.339 19.0988 167.377 19.024L168.554 16.6687C168.595 16.587 168.657 16.5183 168.735 16.4703C168.812 16.4224 168.902 16.3971 168.993 16.3975H172.63C172.721 16.3971 172.81 16.4224 172.888 16.4703C172.965 16.5183 173.028 16.587 173.069 16.6687L174.246 19.024C174.284 19.0988 174.301 19.182 174.298 19.2655C174.294 19.3491 174.269 19.4303 174.225 19.5015C174.181 19.5726 174.119 19.6314 174.046 19.6721C173.973 19.7128 173.891 19.7342 173.807 19.7342Z" fill="#362FD9"/>
<path d="M160.703 40.0493H167.18V36.5163H160.703V40.0493Z" fill="#CCCCCC"/>
<path d="M164.236 40.0493H166.788V37.3014H164.236V40.0493Z" fill="white"/>
<path d="M161.095 40.0493H163.647V37.3014H161.095V40.0493Z" fill="white"/>
<path d="M163.942 43.8767C162.953 43.8756 162.005 43.4823 161.306 42.7832C160.607 42.084 160.213 41.1361 160.212 40.1474V40.0493C160.213 39.8151 160.306 39.5906 160.471 39.425C160.637 39.2594 160.861 39.1663 161.096 39.166H166.788C167.022 39.1663 167.246 39.2594 167.412 39.425C167.577 39.5906 167.671 39.8151 167.671 40.0493V40.1474C167.67 41.1361 167.276 42.084 166.577 42.7832C165.878 43.4823 164.93 43.8756 163.942 43.8767Z" fill="#CCCCCC"/>
<path d="M166.937 37.3992H160.946C160.862 37.3992 160.78 37.3779 160.707 37.3371C160.634 37.2964 160.572 37.2377 160.528 37.1665C160.484 37.0954 160.459 37.0141 160.455 36.9306C160.452 36.847 160.469 36.7639 160.507 36.6891L161.684 34.3337C161.725 34.252 161.787 34.1833 161.865 34.1354C161.943 34.0874 162.032 34.0622 162.123 34.0625H165.76C165.851 34.0622 165.94 34.0874 166.018 34.1354C166.096 34.1833 166.158 34.252 166.199 34.3337L167.376 36.6891C167.414 36.7639 167.431 36.847 167.428 36.9306C167.424 37.0141 167.399 37.0954 167.355 37.1665C167.311 37.2377 167.25 37.2964 167.176 37.3371C167.103 37.3779 167.021 37.3992 166.937 37.3992Z" fill="#362FD9"/>
<path d="M167.965 56.5366H174.442V53.0036H167.965V56.5366Z" fill="#CCCCCC"/>
<path d="M171.498 56.5366H174.05V53.7887H171.498V56.5366Z" fill="white"/>
<path d="M168.358 56.5366H170.909V53.7887H168.358V56.5366Z" fill="white"/>
<path d="M171.204 60.364C170.215 60.3629 169.267 59.9696 168.568 59.2705C167.869 58.5713 167.476 57.6234 167.475 56.6347V56.5366C167.475 56.3024 167.568 56.0779 167.734 55.9123C167.899 55.7467 168.124 55.6536 168.358 55.6533H174.05C174.284 55.6536 174.509 55.7467 174.674 55.9123C174.84 56.0779 174.933 56.3024 174.933 56.5366V56.6347C174.932 57.6234 174.539 58.5713 173.84 59.2705C173.141 59.9696 172.193 60.3629 171.204 60.364Z" fill="#CCCCCC"/>
<path d="M174.2 53.8865H168.208C168.124 53.8865 168.042 53.8652 167.969 53.8244C167.896 53.7837 167.835 53.725 167.791 53.6538C167.747 53.5827 167.722 53.5014 167.718 53.4179C167.714 53.3343 167.732 53.2512 167.769 53.1764L168.947 50.821C168.987 50.7393 169.05 50.6706 169.127 50.6227C169.205 50.5747 169.294 50.5495 169.386 50.5498H173.022C173.113 50.5495 173.203 50.5747 173.28 50.6227C173.358 50.6706 173.421 50.7393 173.461 50.821L174.639 53.1764C174.676 53.2512 174.694 53.3343 174.69 53.4179C174.686 53.5014 174.661 53.5827 174.617 53.6538C174.573 53.725 174.512 53.7837 174.439 53.8244C174.366 53.8652 174.284 53.8865 174.2 53.8865Z" fill="#362FD9"/>
<path d="M191.322 60.4624H184.845V63.9954H191.322V60.4624Z" fill="#CCCCCC"/>
<path d="M187.789 61.2471H185.238V63.995H187.789V61.2471Z" fill="white"/>
<path d="M190.93 61.2471H188.378V63.995H190.93V61.2471Z" fill="white"/>
<path d="M185.238 63.3076C185.056 63.3078 184.881 63.3803 184.752 63.5091C184.623 63.6378 184.551 63.8125 184.551 63.9946V64.0927C184.55 64.557 184.641 65.0168 184.819 65.4459C184.996 65.875 185.256 66.2649 185.584 66.5933C185.912 66.9218 186.302 67.1824 186.731 67.3601C187.16 67.5379 187.62 67.6294 188.084 67.6294C188.548 67.6294 189.008 67.5379 189.437 67.3601C189.866 67.1824 190.255 66.9218 190.583 66.5933C190.911 66.2649 191.172 65.875 191.349 65.4459C191.526 65.0168 191.617 64.557 191.617 64.0927V63.9946C191.617 63.8125 191.544 63.6378 191.415 63.5091C191.287 63.3803 191.112 63.3078 190.93 63.3076H185.238Z" fill="#CCCCCC"/>
<path d="M186.266 58.2051C186.211 58.2049 186.157 58.22 186.111 58.2488C186.064 58.2776 186.027 58.3188 186.002 58.3678L184.825 60.7231C184.802 60.768 184.792 60.8179 184.794 60.8681C184.796 60.9182 184.811 60.9669 184.837 61.0096C184.864 61.0523 184.901 61.0876 184.945 61.112C184.988 61.1364 185.038 61.1493 185.088 61.1493H191.08C191.13 61.1493 191.179 61.1364 191.223 61.112C191.267 61.0876 191.304 61.0523 191.33 61.0096C191.357 60.9669 191.372 60.9182 191.374 60.8681C191.376 60.8179 191.366 60.768 191.343 60.7231L190.165 58.3678C190.141 58.3188 190.104 58.2776 190.057 58.2488C190.011 58.22 189.957 58.2049 189.902 58.2051H186.266Z" fill="#362FD9"/>
<path d="M101.672 109.445C101.731 109.445 101.787 109.422 101.829 109.38C101.871 109.339 101.894 109.282 101.894 109.224C101.894 109.165 101.871 109.109 101.829 109.067C101.787 109.026 101.731 109.002 101.672 109.002H99.5684V108.116H101.672C101.731 108.116 101.787 108.093 101.829 108.051C101.871 108.01 101.894 107.954 101.894 107.895C101.894 107.836 101.871 107.78 101.829 107.738C101.787 107.697 101.731 107.673 101.672 107.673H83.7332C83.6745 107.673 83.6181 107.697 83.5766 107.738C83.535 107.78 83.5117 107.836 83.5117 107.895C83.5117 107.954 83.535 108.01 83.5766 108.051C83.6181 108.093 83.6745 108.116 83.7332 108.116H85.8372V109.002H83.7332C83.6745 109.002 83.6181 109.026 83.5766 109.067C83.535 109.109 83.5117 109.165 83.5117 109.224C83.5117 109.282 83.535 109.339 83.5766 109.38C83.6181 109.422 83.6745 109.445 83.7332 109.445H85.8372V110.331H83.7332C83.6745 110.331 83.6181 110.354 83.5766 110.396C83.535 110.437 83.5117 110.494 83.5117 110.552C83.5117 110.611 83.535 110.668 83.5766 110.709C83.6181 110.751 83.6745 110.774 83.7332 110.774H85.8372V111.66H83.9547C83.8372 111.66 83.7245 111.706 83.6414 111.79C83.5584 111.873 83.5117 111.985 83.5117 112.103C83.5117 112.22 83.5584 112.333 83.6414 112.416C83.7245 112.499 83.8372 112.546 83.9547 112.546H85.7468C85.7337 112.581 85.7268 112.619 85.7264 112.656V115.757C85.7264 115.845 85.7614 115.93 85.8237 115.992C85.886 116.054 85.9705 116.089 86.0586 116.089C86.1467 116.089 86.2312 116.054 86.2935 115.992C86.3558 115.93 86.3908 115.845 86.3908 115.757V112.656C86.3905 112.619 86.3836 112.581 86.3705 112.546H99.035C99.022 112.581 99.0151 112.619 99.0147 112.656V115.757C99.0147 115.845 99.0497 115.93 99.112 115.992C99.1743 116.054 99.2588 116.089 99.3469 116.089C99.435 116.089 99.5195 116.054 99.5818 115.992C99.6441 115.93 99.6791 115.845 99.6791 115.757V112.656C99.6787 112.619 99.6719 112.581 99.6588 112.546H101.451C101.568 112.546 101.681 112.499 101.764 112.416C101.847 112.333 101.894 112.22 101.894 112.103C101.894 111.985 101.847 111.873 101.764 111.79C101.681 111.706 101.568 111.66 101.451 111.66H99.5684V110.774H101.672C101.731 110.774 101.787 110.751 101.829 110.709C101.871 110.668 101.894 110.611 101.894 110.552C101.894 110.494 101.871 110.437 101.829 110.396C101.787 110.354 101.731 110.331 101.672 110.331H99.5684V109.445H101.672ZM86.2801 108.116H99.1255V109.002H86.2801V108.116ZM99.1255 111.66H86.2801V110.774H99.1255V111.66ZM99.1255 110.331H86.2801V109.445H99.1255V110.331Z" fill="#3F3D56"/>
<path d="M170.88 135.952C170.939 135.952 170.995 135.929 171.037 135.887C171.078 135.846 171.102 135.789 171.102 135.73C171.102 135.672 171.078 135.615 171.037 135.574C170.995 135.532 170.939 135.509 170.88 135.509H168.776V134.623H170.88C170.939 134.623 170.995 134.6 171.037 134.558C171.078 134.517 171.102 134.46 171.102 134.402C171.102 134.343 171.078 134.287 171.037 134.245C170.995 134.204 170.939 134.18 170.88 134.18H152.941C152.882 134.18 152.826 134.204 152.784 134.245C152.743 134.287 152.72 134.343 152.72 134.402C152.72 134.46 152.743 134.517 152.784 134.558C152.826 134.6 152.882 134.623 152.941 134.623H155.045V135.509H152.941C152.882 135.509 152.826 135.532 152.784 135.574C152.743 135.615 152.72 135.672 152.72 135.73C152.72 135.789 152.743 135.846 152.784 135.887C152.826 135.929 152.882 135.952 152.941 135.952H155.045V136.838H152.941C152.882 136.838 152.826 136.861 152.784 136.903C152.743 136.944 152.72 137.001 152.72 137.059C152.72 137.118 152.743 137.174 152.784 137.216C152.826 137.257 152.882 137.281 152.941 137.281H155.045V138.167H153.163C153.045 138.167 152.932 138.213 152.849 138.296C152.766 138.379 152.72 138.492 152.72 138.61C152.72 138.727 152.766 138.84 152.849 138.923C152.932 139.006 153.045 139.053 153.163 139.053H154.955C154.942 139.088 154.935 139.125 154.934 139.163V142.264C154.934 142.308 154.943 142.351 154.959 142.391C154.976 142.432 155 142.469 155.031 142.5C155.062 142.53 155.099 142.555 155.139 142.572C155.18 142.589 155.223 142.597 155.267 142.597C155.31 142.597 155.354 142.589 155.394 142.572C155.434 142.555 155.471 142.53 155.502 142.5C155.533 142.469 155.557 142.432 155.574 142.391C155.59 142.351 155.599 142.308 155.599 142.264V139.163C155.598 139.125 155.591 139.088 155.578 139.053H168.243C168.23 139.088 168.223 139.125 168.223 139.163V142.264C168.223 142.352 168.258 142.436 168.32 142.499C168.382 142.561 168.467 142.596 168.555 142.596C168.643 142.596 168.727 142.561 168.79 142.499C168.852 142.436 168.887 142.352 168.887 142.264V139.163C168.887 139.125 168.88 139.088 168.867 139.053H170.659C170.776 139.053 170.889 139.006 170.972 138.923C171.055 138.84 171.102 138.727 171.102 138.61C171.102 138.492 171.055 138.379 170.972 138.296C170.889 138.213 170.776 138.167 170.659 138.167H168.776V137.281H170.88C170.939 137.281 170.995 137.257 171.037 137.216C171.078 137.174 171.102 137.118 171.102 137.059C171.102 137.001 171.078 136.944 171.037 136.903C170.995 136.861 170.939 136.838 170.88 136.838H168.776V135.952L170.88 135.952ZM155.488 134.623H168.333V135.509H155.488V134.623ZM168.333 138.167H155.488V137.281H168.333V138.167ZM168.333 136.838H155.488V135.952H168.333V136.838Z" fill="#3F3D56"/>
<path d="M226.705 106.89C226.764 106.89 226.82 106.867 226.861 106.825C226.903 106.784 226.926 106.727 226.926 106.668C226.926 106.61 226.903 106.553 226.861 106.512C226.82 106.47 226.764 106.447 226.705 106.447H224.601V105.561H226.705C226.764 105.561 226.82 105.538 226.861 105.496C226.903 105.455 226.926 105.398 226.926 105.34C226.926 105.281 226.903 105.225 226.861 105.183C226.82 105.141 226.764 105.118 226.705 105.118H208.766C208.707 105.118 208.651 105.141 208.609 105.183C208.568 105.225 208.544 105.281 208.544 105.34C208.544 105.398 208.568 105.455 208.609 105.496C208.651 105.538 208.707 105.561 208.766 105.561H210.87V106.447H208.766C208.707 106.447 208.651 106.47 208.609 106.512C208.568 106.553 208.544 106.61 208.544 106.668C208.544 106.727 208.568 106.784 208.609 106.825C208.651 106.867 208.707 106.89 208.766 106.89H210.87V107.776H208.766C208.707 107.776 208.651 107.799 208.609 107.841C208.568 107.882 208.544 107.939 208.544 107.997C208.544 108.056 208.568 108.112 208.609 108.154C208.651 108.195 208.707 108.219 208.766 108.219H210.87V109.105H208.987C208.87 109.105 208.758 109.152 208.675 109.235C208.592 109.318 208.545 109.43 208.545 109.548C208.545 109.665 208.592 109.777 208.675 109.86C208.758 109.943 208.87 109.99 208.987 109.991H210.779C210.766 110.026 210.759 110.063 210.759 110.101V113.202C210.759 113.29 210.794 113.374 210.856 113.437C210.919 113.499 211.003 113.534 211.091 113.534C211.179 113.534 211.264 113.499 211.326 113.437C211.388 113.374 211.423 113.29 211.423 113.202V110.101C211.423 110.063 211.416 110.026 211.403 109.991H224.068C224.054 110.026 224.048 110.063 224.047 110.101V113.202C224.047 113.29 224.082 113.374 224.144 113.437C224.207 113.499 224.291 113.534 224.379 113.534C224.467 113.534 224.552 113.499 224.614 113.437C224.677 113.374 224.712 113.29 224.712 113.202V110.101C224.711 110.063 224.704 110.026 224.691 109.991H226.483C226.542 109.991 226.599 109.979 226.653 109.957C226.707 109.935 226.756 109.902 226.797 109.861C226.839 109.82 226.871 109.771 226.894 109.717C226.916 109.664 226.928 109.606 226.928 109.548C226.928 109.489 226.916 109.432 226.894 109.378C226.871 109.324 226.839 109.275 226.797 109.234C226.756 109.193 226.707 109.16 226.653 109.138C226.599 109.116 226.542 109.104 226.483 109.105H224.601V108.219H226.705C226.764 108.219 226.82 108.195 226.861 108.154C226.903 108.112 226.926 108.056 226.926 107.997C226.926 107.939 226.903 107.882 226.861 107.841C226.82 107.799 226.764 107.776 226.705 107.776H224.601V106.89H226.705ZM211.313 105.561H224.158V106.447H211.313V105.561ZM224.158 109.105H211.313V108.219H224.158V109.105ZM224.158 107.776H211.313V106.89H224.158V107.776Z" fill="#3F3D56"/>
<path d="M142.629 162.577C142.629 156.897 138.021 143.419 132.338 143.419C126.654 143.419 122.047 156.897 122.047 162.577C122.048 165.305 123.133 167.921 125.063 169.849C126.993 171.778 129.609 172.861 132.338 172.861C135.066 172.861 137.683 171.778 139.612 169.849C141.542 167.921 142.627 165.305 142.629 162.577Z" fill="#F2F2F2"/>
<path d="M132.338 185.365C132.306 185.365 132.277 185.353 132.254 185.331C132.232 185.309 132.22 185.279 132.22 185.248V161.224C132.22 161.208 132.223 161.193 132.229 161.179C132.235 161.164 132.243 161.151 132.254 161.14C132.265 161.129 132.278 161.12 132.292 161.114C132.307 161.109 132.322 161.105 132.338 161.105C132.353 161.105 132.369 161.109 132.383 161.114C132.397 161.12 132.41 161.129 132.421 161.14C132.432 161.151 132.441 161.164 132.447 161.179C132.452 161.193 132.455 161.208 132.455 161.224V185.248C132.455 185.279 132.443 185.309 132.421 185.331C132.399 185.353 132.369 185.365 132.338 185.365Z" fill="#CCCCCC"/>
<path d="M132.338 165.712C132.321 165.712 132.304 165.709 132.289 165.702C132.273 165.695 132.26 165.685 132.249 165.672L126.33 158.846C126.31 158.823 126.3 158.792 126.302 158.761C126.304 158.73 126.319 158.701 126.342 158.681C126.366 158.66 126.396 158.65 126.427 158.652C126.459 158.654 126.487 158.669 126.508 158.692L132.427 165.518C132.441 165.535 132.451 165.556 132.454 165.578C132.457 165.6 132.454 165.623 132.445 165.643C132.435 165.664 132.42 165.681 132.401 165.694C132.382 165.706 132.36 165.712 132.338 165.712Z" fill="#CCCCCC"/>
<path d="M132.338 169.651C132.314 169.651 132.292 169.644 132.272 169.631C132.253 169.618 132.238 169.6 132.229 169.579C132.22 169.557 132.218 169.533 132.222 169.511C132.227 169.488 132.238 169.467 132.254 169.45L135.618 166.087C135.64 166.065 135.67 166.053 135.701 166.053C135.732 166.053 135.762 166.065 135.784 166.087C135.806 166.109 135.818 166.139 135.818 166.17C135.818 166.202 135.806 166.231 135.784 166.254L132.421 169.617C132.41 169.628 132.397 169.636 132.383 169.642C132.368 169.648 132.353 169.651 132.338 169.651Z" fill="#CCCCCC"/>
<path d="M44.4729 51.1196C44.4729 45.4398 39.8654 31.9619 34.1818 31.9619C28.4981 31.9619 23.8906 45.4398 23.8906 51.1196C23.8923 53.8479 24.9773 56.4638 26.9071 58.3924C28.8368 60.321 31.4535 61.4044 34.1818 61.4044C36.91 61.4044 39.5267 60.321 41.4565 58.3924C43.3863 56.4638 44.4712 53.8479 44.4729 51.1196Z" fill="#3F3D56"/>
<path d="M34.1816 73.9084C34.1504 73.9084 34.1205 73.896 34.0984 73.8739C34.0764 73.8519 34.064 73.8219 34.064 73.7907V49.7669C34.0641 49.7358 34.0766 49.7061 34.0987 49.6841C34.1207 49.6622 34.1506 49.6499 34.1816 49.6499C34.2127 49.6499 34.2426 49.6622 34.2646 49.6841C34.2867 49.7061 34.2992 49.7358 34.2993 49.7669V73.7907C34.2993 73.8062 34.2963 73.8215 34.2904 73.8357C34.2845 73.85 34.2758 73.863 34.2649 73.8739C34.2539 73.8849 34.241 73.8935 34.2267 73.8994C34.2124 73.9054 34.1971 73.9084 34.1816 73.9084Z" fill="#CCCCCC"/>
<path d="M34.182 54.2551C34.1651 54.2551 34.1484 54.2515 34.133 54.2445C34.1177 54.2375 34.104 54.2272 34.093 54.2145L28.1743 47.3889C28.154 47.3653 28.1438 47.3346 28.1461 47.3035C28.1483 47.2724 28.1628 47.2435 28.1863 47.2231C28.2099 47.2027 28.2406 47.1925 28.2716 47.1946C28.3027 47.1968 28.3317 47.2112 28.3522 47.2347L34.2708 54.0603C34.2856 54.0773 34.2952 54.0982 34.2984 54.1206C34.3016 54.1429 34.2983 54.1657 34.289 54.1862C34.2796 54.2067 34.2645 54.2241 34.2456 54.2363C34.2266 54.2485 34.2045 54.255 34.182 54.2551Z" fill="#CCCCCC"/>
<path d="M34.1816 58.1942C34.1584 58.1942 34.1356 58.1873 34.1163 58.1744C34.0969 58.1614 34.0818 58.1431 34.0729 58.1216C34.064 58.1 34.0617 58.0764 34.0662 58.0536C34.0708 58.0307 34.082 58.0098 34.0984 57.9933L37.4615 54.6302C37.4724 54.6192 37.4854 54.6106 37.4997 54.6046C37.514 54.5987 37.5293 54.5957 37.5447 54.5957C37.5602 54.5957 37.5755 54.5987 37.5897 54.6046C37.604 54.6106 37.617 54.6192 37.6279 54.6302C37.6389 54.6411 37.6475 54.6541 37.6534 54.6683C37.6593 54.6826 37.6624 54.6979 37.6624 54.7134C37.6624 54.7288 37.6593 54.7441 37.6534 54.7584C37.6475 54.7727 37.6389 54.7856 37.6279 54.7966L34.2648 58.1597C34.2539 58.1707 34.241 58.1794 34.2267 58.1853C34.2124 58.1912 34.1971 58.1942 34.1816 58.1942Z" fill="#CCCCCC"/>
<path d="M23.0354 73.7523C23.0354 72.6129 23.488 71.5201 24.2938 70.7144C25.0995 69.9087 26.1922 69.4561 27.3317 69.4561C28.4711 69.4561 29.5639 69.9087 30.3696 70.7144C31.1753 71.5201 31.628 72.6129 31.628 73.7523" fill="#F2F2F2"/>
<path d="M27.3319 73.7524C27.3011 73.7524 27.2716 73.7401 27.2498 73.7183C27.2281 73.6966 27.2158 73.667 27.2158 73.6362V71.372C27.2158 71.3412 27.2281 71.3116 27.2498 71.2899C27.2716 71.2681 27.3011 71.2559 27.3319 71.2559C27.3627 71.2559 27.3923 71.2681 27.414 71.2899C27.4358 71.3116 27.4481 71.3412 27.4481 71.372V73.6362C27.448 73.667 27.4358 73.6966 27.414 73.7183C27.3923 73.7401 27.3627 73.7524 27.3319 73.7524Z" fill="#CCCCCC"/>
<path d="M27.3317 72.974C27.304 72.9741 27.2771 72.9641 27.2561 72.946L25.8628 71.7501C25.8512 71.7402 25.8417 71.7281 25.8348 71.7145C25.8279 71.7009 25.8238 71.686 25.8226 71.6708C25.8214 71.6556 25.8233 71.6403 25.828 71.6259C25.8328 71.6114 25.8403 71.598 25.8503 71.5864C25.8602 71.5748 25.8723 71.5653 25.8859 71.5584C25.8995 71.5515 25.9144 71.5474 25.9296 71.5462C25.9448 71.5451 25.96 71.5469 25.9745 71.5517C25.989 71.5564 26.0024 71.564 26.014 71.5739L27.4074 72.7698C27.4254 72.7853 27.4382 72.8059 27.4442 72.8288C27.4501 72.8518 27.4489 72.876 27.4406 72.8983C27.4324 72.9205 27.4175 72.9397 27.3981 72.9533C27.3786 72.9668 27.3554 72.9741 27.3317 72.974Z" fill="#CCCCCC"/>
<path d="M36.2727 73.7523C36.2727 72.6129 36.7253 71.5201 37.5311 70.7144C38.3368 69.9087 39.4296 69.4561 40.569 69.4561C41.7084 69.4561 42.8012 69.9087 43.6069 70.7144C44.4126 71.5201 44.8653 72.6129 44.8653 73.7523" fill="#F2F2F2"/>
<path d="M40.5691 73.7524C40.5383 73.7524 40.5088 73.7401 40.487 73.7183C40.4652 73.6966 40.453 73.667 40.453 73.6362V71.372C40.453 71.3412 40.4652 71.3116 40.487 71.2899C40.5088 71.2681 40.5383 71.2559 40.5691 71.2559C40.5999 71.2559 40.6295 71.2681 40.6512 71.2899C40.673 71.3116 40.6852 71.3412 40.6852 71.372V73.6362C40.6852 73.667 40.673 73.6966 40.6512 73.7183C40.6294 73.7401 40.5999 73.7524 40.5691 73.7524Z" fill="#CCCCCC"/>
<path d="M40.5689 72.9746C40.5412 72.9747 40.5144 72.9647 40.4934 72.9466L39.1 71.7507C39.0768 71.7306 39.0625 71.7021 39.0602 71.6715C39.058 71.6409 39.0679 71.6106 39.0879 71.5874C39.1079 71.5641 39.1363 71.5496 39.1669 71.5472C39.1975 71.5448 39.2278 71.5546 39.2512 71.5745L40.6446 72.7704C40.6626 72.7858 40.6755 72.8064 40.6814 72.8294C40.6874 72.8524 40.6861 72.8766 40.6779 72.8988C40.6696 72.9211 40.6548 72.9403 40.6353 72.9538C40.6158 72.9674 40.5927 72.9746 40.5689 72.9746Z" fill="#CCCCCC"/>
<path d="M260.68 162.257C260.68 156.577 256.073 143.1 250.389 143.1C244.706 143.1 240.098 156.577 240.098 162.257C240.1 164.986 241.185 167.602 243.115 169.53C245.044 171.459 247.661 172.542 250.389 172.542C253.118 172.542 255.734 171.459 257.664 169.53C259.594 167.602 260.679 164.986 260.68 162.257Z" fill="#362FD9"/>
<path d="M250.389 185.046C250.358 185.046 250.328 185.034 250.306 185.011C250.284 184.989 250.272 184.959 250.272 184.928V160.904C250.272 160.889 250.275 160.874 250.281 160.859C250.286 160.845 250.295 160.832 250.306 160.821C250.317 160.81 250.33 160.801 250.344 160.795C250.359 160.789 250.374 160.786 250.389 160.786C250.405 160.786 250.42 160.789 250.435 160.795C250.449 160.801 250.462 160.81 250.473 160.821C250.484 160.832 250.492 160.845 250.498 160.859C250.504 160.874 250.507 160.889 250.507 160.904V184.928C250.507 184.959 250.495 184.989 250.473 185.011C250.451 185.034 250.421 185.046 250.389 185.046Z" fill="#CCCCCC"/>
<path d="M250.39 165.393C250.373 165.393 250.356 165.389 250.341 165.382C250.325 165.375 250.312 165.365 250.301 165.352L244.382 158.527C244.362 158.503 244.352 158.473 244.354 158.442C244.356 158.411 244.371 158.382 244.394 158.361C244.418 158.341 244.448 158.331 244.479 158.333C244.51 158.335 244.539 158.349 244.56 158.373L250.478 165.198C250.493 165.215 250.503 165.236 250.506 165.259C250.509 165.281 250.506 165.304 250.497 165.324C250.487 165.345 250.472 165.362 250.453 165.374C250.434 165.386 250.412 165.393 250.39 165.393Z" fill="#CCCCCC"/>
<path d="M250.389 169.332C250.366 169.332 250.343 169.325 250.324 169.312C250.305 169.299 250.29 169.281 250.281 169.259C250.272 169.238 250.269 169.214 250.274 169.191C250.279 169.168 250.29 169.147 250.306 169.131L253.669 165.768C253.68 165.757 253.693 165.748 253.707 165.742C253.722 165.736 253.737 165.733 253.752 165.733C253.768 165.733 253.783 165.736 253.798 165.742C253.812 165.748 253.825 165.757 253.836 165.768C253.847 165.779 253.855 165.792 253.861 165.806C253.867 165.82 253.87 165.836 253.87 165.851C253.87 165.867 253.867 165.882 253.861 165.896C253.855 165.91 253.847 165.923 253.836 165.934L250.473 169.297C250.462 169.308 250.449 169.317 250.434 169.323C250.42 169.329 250.405 169.332 250.389 169.332Z" fill="#CCCCCC"/>
<path d="M99.1372 164.058H97.1428C96.9941 164.058 96.8515 163.999 96.7464 163.893C96.6412 163.788 96.5821 163.646 96.5819 163.497V160.879C96.5821 160.731 96.6412 160.588 96.7464 160.483C96.8515 160.378 96.9941 160.319 97.1428 160.318H99.1372C99.286 160.319 99.4285 160.378 99.5337 160.483C99.6389 160.588 99.698 160.731 99.6982 160.879V163.497C99.698 163.646 99.6389 163.788 99.5337 163.893C99.4285 163.999 99.286 164.058 99.1372 164.058Z" fill="#3F3D56"/>
<path d="M115.965 185.373H105.744C105.463 185.373 105.194 185.261 104.995 185.062C104.796 184.864 104.685 184.594 104.684 184.314V164.494C104.685 164.213 104.796 163.944 104.995 163.745C105.194 163.547 105.463 163.435 105.744 163.435H115.965C116.246 163.435 116.515 163.547 116.714 163.745C116.913 163.944 117.024 164.213 117.025 164.494V184.314C117.024 184.594 116.913 184.864 116.714 185.062C116.515 185.261 116.246 185.373 115.965 185.373Z" fill="#3F3D56"/>
<path d="M109.857 185.373H92.1568C91.8759 185.373 91.6066 185.261 91.408 185.062C91.2093 184.864 91.0976 184.594 91.0973 184.314V164.494C91.0976 164.213 91.2093 163.944 91.408 163.745C91.6066 163.547 91.8759 163.435 92.1568 163.435H109.857C110.138 163.435 110.407 163.547 110.606 163.745C110.805 163.944 110.916 164.213 110.917 164.494V184.314C110.916 184.594 110.805 184.864 110.606 185.062C110.407 185.261 110.138 185.373 109.857 185.373Z" fill="#362FD9"/>
<path d="M97.2675 164.058H95.2731C95.1244 164.058 94.9818 163.999 94.8766 163.893C94.7715 163.788 94.7123 163.646 94.7122 163.497V160.879C94.7123 160.731 94.7715 160.588 94.8766 160.483C94.9818 160.378 95.1244 160.319 95.2731 160.318H97.2675C97.4162 160.319 97.5588 160.378 97.6639 160.483C97.7691 160.588 97.8283 160.731 97.8284 160.879V163.497C97.8283 163.646 97.7691 163.788 97.6639 163.893C97.5588 163.999 97.4162 164.058 97.2675 164.058Z" fill="#362FD9"/>
<path d="M99.8852 173.22H97.5168C97.4342 173.219 97.355 173.187 97.2966 173.128C97.2382 173.07 97.2053 172.991 97.2052 172.908V169.293C97.2053 169.21 97.2382 169.131 97.2966 169.073C97.355 169.014 97.4342 168.982 97.5168 168.981H99.8852C99.9678 168.982 100.047 169.014 100.105 169.073C100.164 169.131 100.197 169.21 100.197 169.293V172.908C100.197 172.991 100.164 173.07 100.105 173.128C100.047 173.187 99.9678 173.219 99.8852 173.22Z" fill="white"/>
<path d="M104.497 173.22H102.129C102.046 173.219 101.967 173.187 101.909 173.128C101.85 173.07 101.817 172.991 101.817 172.908V169.293C101.817 169.21 101.85 169.131 101.909 169.073C101.967 169.014 102.046 168.982 102.129 168.981H104.497C104.58 168.982 104.659 169.014 104.718 169.073C104.776 169.131 104.809 169.21 104.809 169.293V172.908C104.809 172.991 104.776 173.07 104.718 173.128C104.659 173.187 104.58 173.219 104.497 173.22Z" fill="white"/>
<path d="M99.8852 179.826H97.5168C97.4342 179.826 97.355 179.794 97.2966 179.735C97.2382 179.677 97.2053 179.598 97.2052 179.515V175.9C97.2053 175.817 97.2382 175.738 97.2966 175.68C97.355 175.621 97.4342 175.588 97.5168 175.588H99.8852C99.9678 175.588 100.047 175.621 100.105 175.68C100.164 175.738 100.197 175.817 100.197 175.9V179.515C100.197 179.598 100.164 179.677 100.105 179.735C100.047 179.794 99.9678 179.826 99.8852 179.826Z" fill="white"/>
<path d="M104.497 179.826H102.129C102.046 179.826 101.967 179.794 101.909 179.735C101.85 179.677 101.817 179.598 101.817 179.515V175.9C101.817 175.817 101.85 175.738 101.909 175.68C101.967 175.621 102.046 175.588 102.129 175.588H104.497C104.58 175.588 104.659 175.621 104.718 175.68C104.776 175.738 104.809 175.817 104.809 175.9V179.515C104.809 179.598 104.776 179.677 104.718 179.735C104.659 179.794 104.58 179.826 104.497 179.826Z" fill="white"/>
<path d="M28.1909 101.932H25.8386C25.6632 101.932 25.495 101.862 25.371 101.738C25.247 101.614 25.1772 101.446 25.177 101.27V95.8305C25.1772 95.6551 25.247 95.487 25.371 95.3629C25.495 95.2389 25.6632 95.1691 25.8386 95.1689H28.1909C28.3663 95.1691 28.5345 95.2389 28.6585 95.3629C28.7825 95.487 28.8523 95.6551 28.8525 95.8305V101.27C28.8523 101.446 28.7825 101.614 28.6585 101.738C28.5345 101.862 28.3663 101.932 28.1909 101.932Z" fill="#3F3D56"/>
<path d="M37.4533 152.653H25.3976C25.0663 152.653 24.7487 152.521 24.5144 152.287C24.2801 152.053 24.1483 151.735 24.1479 151.404V102.74C24.1483 102.409 24.2801 102.091 24.5144 101.857C24.7487 101.622 25.0663 101.491 25.3976 101.49H37.4533C37.7846 101.491 38.1023 101.622 38.3366 101.857C38.5708 102.091 38.7026 102.409 38.703 102.74V151.404C38.7026 151.735 38.5708 152.053 38.3366 152.287C38.1023 152.521 37.7846 152.653 37.4533 152.653Z" fill="#3F3D56"/>
<path d="M30.249 152.653H18.1933C17.862 152.653 17.5443 152.521 17.31 152.287C17.0758 152.053 16.944 151.735 16.9436 151.404V102.74C16.944 102.409 17.0758 102.091 17.31 101.857C17.5443 101.622 17.862 101.491 18.1933 101.49H30.249C30.5803 101.491 30.8979 101.622 31.1322 101.857C31.3665 102.091 31.4983 102.409 31.4986 102.74V151.404C31.4983 151.735 31.3665 152.053 31.1322 152.287C30.8979 152.521 30.5803 152.653 30.249 152.653Z" fill="#362FD9"/>
<path d="M25.9854 101.932H23.633C23.4576 101.932 23.2895 101.862 23.1654 101.738C23.0414 101.614 22.9716 101.446 22.9714 101.27V95.8305C22.9716 95.6551 23.0414 95.487 23.1654 95.3629C23.2895 95.2389 23.4576 95.1691 23.633 95.1689H25.9854C26.1608 95.1691 26.3289 95.2389 26.453 95.3629C26.577 95.487 26.6468 95.6551 26.647 95.8305V101.27C26.6468 101.446 26.577 101.614 26.453 101.738C26.3289 101.862 26.1608 101.932 25.9854 101.932Z" fill="#362FD9"/>
<path d="M22.898 112.517H20.1046C20.0072 112.517 19.9137 112.478 19.8448 112.409C19.7759 112.34 19.7372 112.247 19.7371 112.149V107.886C19.7372 107.788 19.7759 107.695 19.8448 107.626C19.9137 107.557 20.0072 107.518 20.1046 107.518H22.898C22.9954 107.518 23.0889 107.557 23.1578 107.626C23.2267 107.695 23.2654 107.788 23.2655 107.886V112.149C23.2654 112.247 23.2267 112.34 23.1578 112.409C23.0889 112.478 22.9954 112.517 22.898 112.517Z" fill="white"/>
<path d="M28.338 112.517H25.5446C25.4471 112.517 25.3537 112.478 25.2848 112.409C25.2159 112.34 25.1771 112.247 25.177 112.149V107.886C25.1771 107.788 25.2159 107.695 25.2848 107.626C25.3537 107.557 25.4471 107.518 25.5446 107.518H28.3379C28.4354 107.518 28.5288 107.557 28.5977 107.626C28.6666 107.695 28.7054 107.788 28.7055 107.886V112.149C28.7054 112.247 28.6666 112.34 28.5977 112.409C28.5288 112.478 28.4354 112.517 28.338 112.517Z" fill="white"/>
<path d="M22.898 120.309H20.1046C20.0072 120.309 19.9137 120.27 19.8448 120.201C19.7759 120.133 19.7372 120.039 19.7371 119.942V115.678C19.7372 115.581 19.7759 115.487 19.8448 115.418C19.9137 115.349 20.0072 115.311 20.1046 115.311H22.898C22.9954 115.311 23.0889 115.349 23.1578 115.418C23.2267 115.487 23.2654 115.581 23.2655 115.678V119.942C23.2654 120.039 23.2267 120.133 23.1578 120.201C23.0889 120.27 22.9954 120.309 22.898 120.309Z" fill="white"/>
<path d="M28.338 120.309H25.5446C25.4471 120.309 25.3537 120.27 25.2848 120.201C25.2159 120.133 25.1771 120.039 25.177 119.942V115.678C25.1771 115.581 25.2159 115.487 25.2848 115.418C25.3537 115.349 25.4471 115.311 25.5446 115.311H28.3379C28.4354 115.311 28.5288 115.349 28.5977 115.418C28.6666 115.487 28.7054 115.581 28.7055 115.678V119.942C28.7054 120.039 28.6666 120.133 28.5977 120.201C28.5288 120.27 28.4354 120.309 28.338 120.309Z" fill="white"/>
<path d="M22.898 128.101H20.1046C20.0072 128.101 19.9137 128.062 19.8448 127.993C19.7759 127.925 19.7372 127.831 19.7371 127.734V123.47C19.7372 123.373 19.7759 123.279 19.8448 123.21C19.9137 123.141 20.0072 123.103 20.1046 123.103H22.898C22.9954 123.103 23.0889 123.141 23.1578 123.21C23.2267 123.279 23.2654 123.373 23.2655 123.47V127.734C23.2654 127.831 23.2267 127.925 23.1578 127.993C23.0889 128.062 22.9954 128.101 22.898 128.101Z" fill="white"/>
<path d="M28.338 128.101H25.5446C25.4471 128.101 25.3537 128.062 25.2848 127.993C25.2159 127.925 25.1771 127.831 25.177 127.734V123.47C25.1771 123.373 25.2159 123.279 25.2848 123.21C25.3537 123.141 25.4471 123.103 25.5446 123.103H28.3379C28.4354 123.103 28.5288 123.141 28.5977 123.21C28.6666 123.279 28.7054 123.373 28.7055 123.47V127.734C28.7054 127.831 28.6666 127.925 28.5977 127.993C28.5288 128.062 28.4354 128.101 28.338 128.101Z" fill="white"/>
<path d="M22.898 135.893H20.1046C20.0072 135.893 19.9137 135.854 19.8448 135.785C19.7759 135.717 19.7372 135.623 19.7371 135.526V131.262C19.7372 131.165 19.7759 131.071 19.8448 131.002C19.9137 130.933 20.0072 130.895 20.1046 130.895H22.898C22.9954 130.895 23.0889 130.933 23.1578 131.002C23.2267 131.071 23.2654 131.165 23.2655 131.262V135.526C23.2654 135.623 23.2267 135.717 23.1578 135.785C23.0889 135.854 22.9954 135.893 22.898 135.893Z" fill="white"/>
<path d="M28.338 135.893H25.5446C25.4471 135.893 25.3537 135.854 25.2848 135.785C25.2159 135.717 25.1771 135.623 25.177 135.526V131.262C25.1771 131.165 25.2159 131.071 25.2848 131.002C25.3537 130.933 25.4471 130.895 25.5446 130.895H28.3379C28.4354 130.895 28.5288 130.933 28.5977 131.002C28.6666 131.071 28.7054 131.165 28.7055 131.262V135.526C28.7054 135.623 28.6666 135.717 28.5977 135.785C28.5288 135.854 28.4354 135.893 28.338 135.893Z" fill="white"/>
<path d="M22.898 143.685H20.1046C20.0072 143.685 19.9137 143.646 19.8448 143.577C19.7759 143.509 19.7372 143.415 19.7371 143.318V139.054C19.7372 138.957 19.7759 138.863 19.8448 138.794C19.9137 138.725 20.0072 138.687 20.1046 138.687H22.898C22.9954 138.687 23.0889 138.725 23.1578 138.794C23.2267 138.863 23.2654 138.957 23.2655 139.054V143.318C23.2654 143.415 23.2267 143.509 23.1578 143.577C23.0889 143.646 22.9954 143.685 22.898 143.685Z" fill="white"/>
<path d="M28.338 143.685H25.5446C25.4471 143.685 25.3537 143.646 25.2848 143.577C25.2159 143.509 25.1771 143.415 25.177 143.318V139.054C25.1771 138.957 25.2159 138.863 25.2848 138.794C25.3537 138.725 25.4471 138.687 25.5446 138.687H28.3379C28.4354 138.687 28.5288 138.725 28.5977 138.794C28.6666 138.863 28.7054 138.957 28.7055 139.054V143.318C28.7054 143.415 28.6666 143.509 28.5977 143.577C28.5288 143.646 28.4354 143.685 28.338 143.685Z" fill="white"/>
<path d="M215.288 164.125H213.293C213.145 164.125 213.002 164.065 212.897 163.96C212.792 163.855 212.733 163.713 212.732 163.564V160.946C212.733 160.797 212.792 160.655 212.897 160.55C213.002 160.445 213.145 160.385 213.293 160.385H215.288C215.436 160.385 215.579 160.445 215.684 160.55C215.789 160.655 215.849 160.797 215.849 160.946V163.564C215.849 163.713 215.789 163.855 215.684 163.96C215.579 164.065 215.436 164.125 215.288 164.125Z" fill="#3F3D56"/>
<path d="M232.116 185.44H221.894C221.613 185.439 221.344 185.327 221.145 185.129C220.947 184.93 220.835 184.661 220.835 184.38V164.561C220.835 164.28 220.947 164.01 221.145 163.812C221.344 163.613 221.613 163.501 221.894 163.501H232.116C232.397 163.501 232.666 163.613 232.864 163.812C233.063 164.01 233.175 164.28 233.175 164.561V184.38C233.175 184.661 233.063 184.93 232.864 185.129C232.666 185.327 232.397 185.439 232.116 185.44Z" fill="#3F3D56"/>
<path d="M226.008 185.44H208.307C208.026 185.439 207.757 185.327 207.558 185.129C207.36 184.93 207.248 184.661 207.248 184.38V164.561C207.248 164.28 207.36 164.01 207.558 163.812C207.757 163.613 208.026 163.501 208.307 163.501H226.008C226.289 163.501 226.558 163.613 226.757 163.812C226.955 164.01 227.067 164.28 227.067 164.561V184.38C227.067 184.661 226.955 184.93 226.757 185.129C226.558 185.327 226.289 185.439 226.008 185.44Z" fill="#362FD9"/>
<path d="M213.418 164.125H211.424C211.275 164.125 211.132 164.065 211.027 163.96C210.922 163.855 210.863 163.713 210.863 163.564V160.946C210.863 160.797 210.922 160.655 211.027 160.55C211.132 160.445 211.275 160.385 211.424 160.385H213.418C213.567 160.385 213.709 160.445 213.814 160.55C213.92 160.655 213.979 160.797 213.979 160.946V163.564C213.979 163.713 213.92 163.855 213.814 163.96C213.709 164.065 213.567 164.125 213.418 164.125Z" fill="#362FD9"/>
<path d="M216.036 173.286H213.667C213.585 173.286 213.505 173.253 213.447 173.195C213.389 173.137 213.356 173.057 213.356 172.975V169.36C213.356 169.277 213.389 169.198 213.447 169.14C213.505 169.081 213.585 169.048 213.667 169.048H216.036C216.118 169.048 216.197 169.081 216.256 169.14C216.314 169.198 216.347 169.277 216.347 169.36V172.975C216.347 173.057 216.314 173.137 216.256 173.195C216.197 173.253 216.118 173.286 216.036 173.286Z" fill="white"/>
<path d="M220.648 173.286H218.279C218.197 173.286 218.118 173.253 218.059 173.195C218.001 173.137 217.968 173.057 217.968 172.975V169.36C217.968 169.277 218.001 169.198 218.059 169.14C218.118 169.081 218.197 169.048 218.279 169.048H220.648C220.73 169.048 220.81 169.081 220.868 169.14C220.926 169.198 220.959 169.277 220.959 169.36V172.975C220.959 173.057 220.926 173.137 220.868 173.195C220.81 173.253 220.73 173.286 220.648 173.286Z" fill="white"/>
<path d="M216.036 179.893H213.667C213.585 179.893 213.505 179.86 213.447 179.802C213.389 179.744 213.356 179.664 213.356 179.582V175.967C213.356 175.884 213.389 175.805 213.447 175.747C213.505 175.688 213.585 175.655 213.667 175.655H216.036C216.118 175.655 216.197 175.688 216.256 175.747C216.314 175.805 216.347 175.884 216.347 175.967V179.582C216.347 179.664 216.314 179.744 216.256 179.802C216.197 179.86 216.118 179.893 216.036 179.893Z" fill="white"/>
<path d="M220.648 179.893H218.279C218.197 179.893 218.118 179.86 218.059 179.802C218.001 179.744 217.968 179.664 217.968 179.582V175.967C217.968 175.884 218.001 175.805 218.059 175.747C218.118 175.688 218.197 175.655 218.279 175.655H220.648C220.73 175.655 220.81 175.688 220.868 175.747C220.926 175.805 220.959 175.884 220.959 175.967V179.582C220.959 179.664 220.926 179.744 220.868 179.802C220.81 179.86 220.73 179.893 220.648 179.893Z" fill="white"/>
</g>
<defs>
<clipPath id="clip0_225_992">
<rect width="278.525" height="225" fill="white"/>
</clipPath>
</defs>
</svg>
