<svg width="15" height="15" viewBox="0 0 15 15" fill="none" xmlns="http://www.w3.org/2000/svg">
<path d="M7.49273 0.384159C8.89874 0.384159 10.2732 0.801496 11.4422 1.5834C12.6113 2.3653 13.5225 3.47664 14.0605 4.7769C14.5986 6.07715 14.7394 7.50791 14.4651 8.88825C14.1908 10.2686 13.5137 11.5365 12.5195 12.5317C11.5253 13.5269 10.2586 14.2046 8.87961 14.4792C7.50061 14.7537 6.07124 14.6128 4.77225 14.0742C3.47326 13.5356 2.363 12.6236 1.58186 11.4534C0.800717 10.2832 0.383785 8.9074 0.383785 7.50002C0.385684 5.61336 1.13527 3.80452 2.46804 2.47044C3.80082 1.13637 5.6079 0.386059 7.49273 0.384159ZM7.49273 0C6.01081 0 4.56217 0.439868 3.32999 1.26398C2.09782 2.08809 1.13746 3.25944 0.570352 4.62989C0.00324589 6.00034 -0.145134 7.50834 0.143974 8.9632C0.433083 10.4181 1.14669 11.7544 2.19457 12.8033C3.24245 13.8522 4.57752 14.5665 6.03097 14.8559C7.48442 15.1453 8.99095 14.9968 10.3601 14.4291C11.7292 13.8615 12.8994 12.9002 13.7227 11.6668C14.546 10.4334 14.9855 8.98338 14.9855 7.50002C14.9855 5.51089 14.196 3.60323 12.7909 2.19671C11.3857 0.79018 9.47992 0 7.49273 0Z" fill="#362FD9"/>
</svg>
