<svg width="150" height="120" viewBox="0 0 150 120" fill="none" xmlns="http://www.w3.org/2000/svg">
<path d="M119.545 72.9547V99.4762C119.545 107.046 113.439 113.182 105.909 113.182C98.3789 113.182 92.2727 107.046 92.2727 99.4762V46.4332C92.2727 38.8637 98.3789 32.7274 105.909 32.7274C113.439 32.7274 119.545 38.8637 119.545 46.4332V52.8411" stroke="#362FD9" stroke-width="13.6" stroke-linejoin="round"/>
<path d="M143.182 113.182V44.1688C143.182 23.5407 126.393 6.81838 105.682 6.81838C84.9711 6.81838 68.1818 23.5407 68.1818 44.1688V60.4742" stroke="#231F20" stroke-width="13.6" stroke-linejoin="round"/>
<path d="M6.81817 86.2962V80.3037C6.81817 71.8517 13.7144 65.0001 22.2162 65.0001C30.7214 65.0001 37.6177 71.8517 37.6177 80.3037V85.2673C37.6177 93.6552 44.4605 100.455 52.898 100.455C61.339 100.455 68.1818 93.6552 68.1818 85.2673V79.1585" stroke="#362FD9" stroke-width="13.6" stroke-linejoin="round"/>
</svg>
