<svg width="15" height="15" viewBox="0 0 15 15" fill="none" xmlns="http://www.w3.org/2000/svg">
<path d="M7.49625 0.38397C8.90158 0.38397 10.2753 0.801104 11.4438 1.58262C12.6123 2.36414 13.5231 3.47495 14.0609 4.77457C14.5986 6.07419 14.7394 7.50425 14.4652 8.88392C14.191 10.2636 13.5143 11.5309 12.5206 12.5256C11.5269 13.5203 10.2608 14.1977 8.88246 14.4721C7.50413 14.7465 6.07545 14.6057 4.7771 14.0674C3.47874 13.529 2.36902 12.6174 1.58826 11.4478C0.807496 10.2782 0.390767 8.90306 0.390767 7.49636C0.392665 5.61062 1.14188 3.80266 2.47401 2.46924C3.80613 1.13582 5.61234 0.38587 7.49625 0.38397ZM7.49625 8.58476e-07C6.01403 -0.000708855 4.56491 0.438644 3.3322 1.26248C2.09949 2.08631 1.13858 3.2576 0.571035 4.62819C0.00348897 5.99877 -0.145194 7.50706 0.143798 8.96224C0.432789 10.4174 1.14647 11.7541 2.19455 12.8032C3.24263 13.8523 4.57803 14.5667 6.0318 14.856C7.48556 15.1452 8.99238 14.9964 10.3616 14.4283C11.7309 13.8602 12.901 12.8984 13.7241 11.6645C14.5471 10.4306 14.986 8.98002 14.9853 7.49636C14.9853 5.50821 14.1963 3.60148 12.7918 2.19564C11.3873 0.789796 9.48247 8.58476e-07 7.49625 8.58476e-07Z" fill="#362FD9"/>
</svg>
