<svg width="236" height="270" viewBox="0 0 236 270" fill="none" xmlns="http://www.w3.org/2000/svg">
<g clip-path="url(#clip0_225_928)">
<path d="M113.255 252.876L112.954 246.113C112.923 246.097 112.891 246.08 112.86 246.064C109.637 244.373 105.943 247.434 106.973 250.925C107.941 254.209 108.592 257.751 110.365 260.626C111.412 262.295 112.822 263.708 114.49 264.759C116.158 265.81 118.041 266.472 119.999 266.697L124.094 269.204C124.655 266.071 124.532 262.855 123.731 259.775C122.929 256.695 121.47 253.826 119.453 251.364C118.308 249.995 116.995 248.775 115.545 247.733C114.565 250.319 113.255 252.876 113.255 252.876Z" fill="#F2F2F2"/>
<path d="M76.5952 184.245C68.7121 176.115 57.2883 171.453 45.2531 171.453L44.7889 171.454C36.8616 171.457 29.0758 169.354 22.2277 165.361L21.5151 164.946L22.089 164.355C25.1963 161.14 27.7908 157.466 29.7818 153.463C28.3678 154.781 26.6813 155.773 24.8416 156.367C23.002 156.961 21.0542 157.144 19.1362 156.902C17.1112 156.661 15.1671 155.964 13.4498 154.864C11.7326 153.764 10.2866 152.29 9.22056 150.551C5.01413 143.726 0 134.042 0 126.664C0.00654796 120.429 1.31222 114.262 3.83379 108.559C6.35536 102.856 10.0375 97.7405 14.6455 93.5391C17.5628 90.9087 19.893 87.6929 21.4841 84.1015C23.0752 80.5101 23.8916 76.6237 23.88 72.6956L23.8776 72.1366C23.8768 66.965 24.5088 61.8128 25.7595 56.7948L25.8865 56.288L26.4078 56.3063C29.7699 56.4207 33.1337 56.1389 36.4299 55.4666C33.3381 55.0874 30.3135 54.2829 27.4418 53.0761L26.8809 52.8492L27.0713 52.2744C40.1924 44.1503 69.8106 48.3574 87.0018 9.02488C100.942 -22.8685 150.126 37.3366 150.126 72.1366C150.126 75.6875 146.612 80.38 149.242 82.727C177.681 108.098 158.059 124.39 151.872 140.783C150.404 144.673 153.587 148.943 153.587 153.151C153.587 153.865 153.569 154.602 153.533 155.341L153.478 156.478L152.53 155.847C150.654 154.619 148.915 153.192 147.343 151.593C148.974 155.346 149.743 159.417 149.592 163.506C149.442 167.596 148.377 171.599 146.475 175.223C143.495 180.848 140.612 184.875 137.906 187.191C129.237 194.609 118.062 198.436 106.666 197.888C95.2694 197.341 84.5127 192.46 76.5952 184.245Z" fill="#E6E6E6"/>
<path d="M124.207 268.869C124.401 268.869 124.588 268.799 124.734 268.672C124.881 268.545 124.976 268.369 125.004 268.177C125.038 267.937 128.39 243.762 125.379 211.633C122.599 181.961 113.671 139.223 86.9256 104.122C86.8615 104.038 86.7815 103.967 86.69 103.914C86.5986 103.861 86.4975 103.826 86.3926 103.812C86.2877 103.797 86.181 103.804 86.0786 103.831C85.9763 103.858 85.8803 103.905 85.7961 103.969C85.7118 104.033 85.6411 104.113 85.5879 104.205C85.5347 104.296 85.5 104.397 85.4859 104.502C85.4718 104.607 85.4786 104.714 85.5057 104.816C85.5329 104.919 85.5799 105.015 85.6442 105.099C112.159 139.896 121.015 182.321 123.775 211.783C126.768 243.725 123.443 267.712 123.409 267.95C123.392 268.064 123.401 268.181 123.434 268.292C123.466 268.402 123.523 268.505 123.598 268.592C123.674 268.679 123.768 268.749 123.873 268.797C123.978 268.844 124.092 268.869 124.207 268.869Z" fill="#3F3D56"/>
<path d="M102.381 153.633C102.552 153.633 102.717 153.58 102.855 153.48C102.993 153.38 103.095 153.239 103.148 153.077C103.201 152.915 103.201 152.741 103.148 152.579C103.096 152.417 102.993 152.276 102.856 152.176C102.758 152.106 92.9743 145.056 78.347 139.7C64.8252 134.749 44.2633 130.262 23.0951 136.999C22.9942 137.031 22.9005 137.082 22.8195 137.15C22.7385 137.218 22.6717 137.302 22.623 137.396C22.5743 137.49 22.5446 137.593 22.5356 137.698C22.5266 137.804 22.5385 137.91 22.5706 138.011C22.6027 138.112 22.6544 138.205 22.7227 138.286C22.791 138.367 22.8746 138.434 22.9687 138.482C23.0628 138.531 23.1655 138.56 23.2711 138.569C23.3766 138.578 23.4828 138.566 23.5836 138.534C44.3181 131.935 64.5073 136.349 77.7931 141.213C92.2116 146.492 101.813 153.41 101.908 153.479C102.046 153.579 102.211 153.633 102.381 153.633Z" fill="#3F3D56"/>
<path d="M139.247 61.8148C139.259 61.6451 139.218 61.4759 139.128 61.3313C139.038 61.1868 138.905 61.0743 138.747 61.0102C138.59 60.946 138.416 60.9334 138.251 60.9741C138.086 61.0148 137.937 61.1068 137.828 61.2369C137.75 61.3287 130.014 70.5798 123.619 84.7834C117.708 97.9136 111.751 118.099 116.946 139.697C116.996 139.905 117.126 140.084 117.308 140.196C117.491 140.307 117.71 140.342 117.917 140.292C118.125 140.242 118.304 140.112 118.416 139.929C118.527 139.747 118.562 139.528 118.512 139.321C113.424 118.165 119.28 98.3458 125.088 85.4448C131.392 71.4439 138.983 62.3655 139.059 62.2754C139.169 62.1456 139.235 61.9843 139.247 61.8148Z" fill="#3F3D56"/>
<path d="M138.157 103.348C138.836 108.831 142.636 113.352 148.161 113.352C150.814 113.352 153.359 112.298 155.235 110.422C157.111 108.546 158.165 106.001 158.165 103.348C158.165 97.8231 153.662 93.8549 148.161 93.3441C142.324 92.8021 137.284 96.3085 138.157 103.348Z" fill="#231F20"/>
<path d="M152.795 264.463L156.604 264.463L158.417 249.769L152.794 249.769L152.795 264.463Z" fill="#FFB6B6"/>
<path d="M152.66 268.437L164.375 268.437V268.289C164.375 267.079 163.895 265.92 163.04 265.064C162.185 264.209 161.025 263.729 159.816 263.729L157.675 262.105L153.683 263.729L152.66 263.729L152.66 268.437Z" fill="#231F20"/>
<path d="M137.789 264.463L141.598 264.463L143.41 249.769L137.788 249.769L137.789 264.463Z" fill="#FFB6B6"/>
<path d="M137.654 268.437L149.369 268.437V268.289C149.369 267.079 148.889 265.92 148.034 265.064C147.179 264.209 146.019 263.729 144.81 263.729L142.669 262.105L138.677 263.729L137.654 263.729L137.654 268.437Z" fill="#231F20"/>
<path d="M165.904 172.429L168.598 181.664L165.425 220.774C165.425 220.774 167.059 223.219 165.904 223.219C164.75 223.219 163.27 223.761 164.202 225.222C165.135 226.682 161.948 231.925 161.948 231.925L157.439 259.772L151.695 259.687C151.695 259.687 148.775 258.06 150.414 256.415C152.053 254.77 153.207 254.77 151.668 253.231C150.129 251.692 150.129 252.156 150.129 250.962C150.129 249.768 148.587 235.18 152.243 229.584L151.142 206.769L148.546 229.148L143.203 259.003L137.669 258.957C137.669 258.957 135.113 256.494 135.118 254.67C135.123 252.846 136.697 252.695 135.525 251.616C134.353 250.538 134.353 233.968 137.816 224.758C137.816 224.758 139.775 219.612 137.812 217.849C135.848 216.086 137.809 214.068 137.809 214.068C137.809 214.068 140.919 212.944 137.806 209.705C134.694 206.466 137.79 183.56 137.79 183.56C137.79 183.56 134.387 174.314 137.833 170.678C141.279 167.043 165.904 172.429 165.904 172.429Z" fill="#231F20"/>
<path d="M117.933 188.34L122.739 176.727L126.525 178.83L124.238 190.644C124.467 191.392 124.483 192.19 124.284 192.946C124.084 193.703 123.678 194.389 123.11 194.928C122.542 195.466 121.835 195.836 121.068 195.994C120.302 196.153 119.506 196.095 118.771 195.826C118.036 195.558 117.39 195.089 116.907 194.474C116.423 193.859 116.121 193.12 116.034 192.343C115.947 191.565 116.078 190.778 116.414 190.071C116.75 189.364 117.276 188.764 117.933 188.34Z" fill="#FFB6B6"/>
<path d="M198.571 96.5061L191.259 106.728L188.048 103.822L192.952 92.8336C192.899 92.0527 193.064 91.2724 193.43 90.5804C193.795 89.8884 194.347 89.3121 195.022 88.9164C195.697 88.5206 196.47 88.321 197.252 88.3401C198.035 88.3592 198.796 88.5961 199.451 89.0243C200.107 89.4525 200.629 90.055 200.961 90.764C201.292 91.473 201.42 92.2604 201.328 93.0377C201.237 93.8151 200.93 94.5515 200.443 95.1642C199.956 95.7769 199.308 96.2416 198.571 96.5061Z" fill="#FFB6B6"/>
<path d="M166.63 173.376C171.373 180.733 147.534 190.068 138.386 186.32C136.785 185.664 131.275 183.496 135.041 180.491C138.807 177.486 134.604 177.063 134.505 175.106C134.439 173.799 135.451 170.929 134.395 171.052C133.338 171.175 132.102 169.367 134.403 168.588C136.704 167.81 134.427 167.1 134.447 166.361C134.667 158.298 140.854 145.473 140.854 145.473L129.707 173.968C129.707 173.968 129.789 178.898 128.367 177.392C126.946 175.885 127.049 180.761 127.049 180.761C127.049 180.761 124.936 182.236 126.151 183.057C127.367 183.878 124.842 186.402 124.842 186.402L118.953 185.981C118.953 185.981 119.045 181.606 120.051 180.639C121.056 179.671 120.562 178.149 120.562 178.149C120.562 178.149 123.181 175.831 121.425 173.949C119.168 171.529 127.399 130.651 130.239 131.056C130.641 129.102 131.575 127.296 132.938 125.84C134.302 124.383 136.042 123.332 137.965 122.802L144.326 121.051L145.456 116.569H154.413L155.973 119.514L162.783 122.587C164.065 120.777 165.024 118.87 170.276 118.252C170.276 118.252 184.429 105.375 183.738 104.369C183.047 103.364 185.241 101.01 185.241 101.01C185.241 101.01 187.115 100.396 186.057 100.069C185 99.7416 186.998 98.9847 186.998 98.9847C186.998 98.9847 188.849 98.4983 187.976 97.8579C187.103 97.2175 190.89 96.7969 190.89 96.7969L195.802 100.805L194.809 102.488C194.809 102.488 195.414 104.781 194.624 103.944C193.834 103.107 193.686 105.536 193.686 105.536C193.686 105.536 193.282 108.195 190.89 108.997C188.497 109.798 186.683 117.41 186.683 117.41C181.04 124.747 174.381 130.47 166.49 134.238C169.565 137.768 166.63 173.376 166.63 173.376Z" fill="#362FD9"/>
<path d="M149.267 113.946C154.166 113.946 158.138 109.975 158.138 105.075C158.138 100.176 154.166 96.2041 149.267 96.2041C144.367 96.2041 140.396 100.176 140.396 105.075C140.396 109.975 144.367 113.946 149.267 113.946Z" fill="#FFB6B6"/>
<path d="M140.081 106.041C140.362 107.969 142.005 110.659 141.62 110.659C141.235 110.659 138.499 102.712 141.235 102.194C143.219 101.818 143.663 102.148 145.518 101.343L145.256 101.59C146.483 102.482 148.192 101.932 149.592 101.351C150.997 100.774 152.701 100.224 153.932 101.113C154.706 101.67 155.033 102.64 155.514 103.464C155.995 104.291 156.884 105.072 157.799 104.818C158.534 104.614 158.958 103.791 158.954 103.029C158.95 102.267 157.958 101.542 158.292 100.859C159.282 98.833 158.392 97.4524 156.233 96.4992C155.448 96.3799 154.664 96.2581 153.879 96.1337C154.29 95.5639 154.789 95.0627 155.356 94.6484C155.116 94.0336 154.702 93.5026 154.163 93.1209C153.536 92.7477 152.759 92.7746 152.032 92.8131C150.408 92.8977 148.786 92.9824 147.164 93.067C145.964 93.1286 144.721 93.2017 143.648 93.7519C142.309 94.4407 141.431 95.7835 140.793 97.1495C139.361 100.22 139.588 102.69 140.081 106.041Z" fill="#231F20"/>
<path d="M103.177 269.436L190.424 269.555C190.545 269.555 190.662 269.506 190.748 269.42C190.834 269.334 190.882 269.218 190.882 269.096C190.882 268.975 190.834 268.858 190.748 268.772C190.662 268.687 190.545 268.638 190.424 268.638L103.177 268.52C103.056 268.52 102.939 268.568 102.853 268.654C102.767 268.74 102.719 268.857 102.719 268.978C102.719 269.1 102.767 269.216 102.853 269.302C102.939 269.388 103.056 269.436 103.177 269.436Z" fill="#CACACA"/>
<path d="M71.6222 229.501C71.7831 228.396 70.6252 227.312 69.0362 227.081C67.4471 226.85 66.0285 227.558 65.8676 228.664C65.7068 229.769 66.8646 230.853 68.4537 231.084C70.0428 231.315 71.4614 230.607 71.6222 229.501Z" fill="#E6E6E6"/>
<path d="M90.5421 227.655C90.703 226.549 89.5451 225.466 87.9561 225.234C86.367 225.003 84.9484 225.712 84.7876 226.817C84.6267 227.923 85.7845 229.006 87.3736 229.237C88.9627 229.469 90.3813 228.76 90.5421 227.655Z" fill="#3F3D56"/>
<path d="M66.4415 214.184C66.6024 213.078 65.4446 211.995 63.8555 211.764C62.2664 211.532 60.8478 212.241 60.687 213.347C60.5261 214.452 61.6839 215.536 63.273 215.767C64.8621 215.998 66.2807 215.289 66.4415 214.184Z" fill="#FF6584"/>
<path d="M58.2204 207.91C58.2281 206.895 57.662 206.068 56.956 206.063C56.25 206.057 55.6715 206.876 55.6638 207.89C55.6561 208.905 56.2222 209.732 56.9282 209.738C57.6342 209.743 58.2127 208.925 58.2204 207.91Z" fill="#E6E6E6"/>
<path d="M55.4325 196.224C55.4402 195.209 54.8741 194.382 54.1681 194.377C53.4622 194.372 52.8836 195.19 52.876 196.205C52.8683 197.22 53.4344 198.047 54.1404 198.052C54.8463 198.057 55.4249 197.239 55.4325 196.224Z" fill="#3F3D56"/>
<path d="M77.1125 216.791C77.1201 215.776 76.5541 214.949 75.8481 214.943C75.1421 214.938 74.5636 215.757 74.5559 216.771C74.5482 217.786 75.1143 218.613 75.8203 218.619C76.5263 218.624 77.1048 217.806 77.1125 216.791Z" fill="#E6E6E6"/>
<path d="M67.9696 221.356C67.9773 220.341 67.4112 219.514 66.7052 219.508C65.9993 219.503 65.4207 220.321 65.4131 221.336C65.4054 222.351 65.9715 223.178 66.6774 223.183C67.3834 223.189 67.962 222.37 67.9696 221.356Z" fill="#FF6584"/>
<path d="M80.6969 229.793C80.7046 228.778 80.1385 227.951 79.4326 227.945C78.7266 227.94 78.148 228.758 78.1404 229.773C78.1327 230.788 78.6988 231.615 79.4048 231.621C80.1107 231.626 80.6893 230.807 80.6969 229.793Z" fill="#3F3D56"/>
<path d="M217.065 170.246C217.226 169.141 216.068 168.057 214.479 167.826C212.89 167.595 211.472 168.304 211.311 169.409C211.15 170.514 212.308 171.598 213.897 171.829C215.486 172.06 216.904 171.352 217.065 170.246Z" fill="#E6E6E6"/>
<path d="M235.985 168.4C236.146 167.295 234.988 166.211 233.399 165.98C231.81 165.749 230.392 166.457 230.231 167.563C230.07 168.668 231.228 169.752 232.817 169.983C234.406 170.214 235.824 169.506 235.985 168.4Z" fill="#3F3D56"/>
<path d="M211.884 154.929C212.045 153.824 210.887 152.74 209.298 152.509C207.709 152.278 206.291 152.987 206.13 154.092C205.969 155.198 207.127 156.281 208.716 156.512C210.305 156.744 211.724 156.035 211.884 154.929Z" fill="#FF6584"/>
<path d="M203.663 148.655C203.671 147.641 203.105 146.814 202.399 146.808C201.693 146.803 201.115 147.621 201.107 148.636C201.099 149.651 201.665 150.478 202.371 150.483C203.077 150.489 203.656 149.67 203.663 148.655Z" fill="#E6E6E6"/>
<path d="M200.876 136.97C200.883 135.955 200.317 135.128 199.611 135.123C198.905 135.117 198.327 135.936 198.319 136.951C198.311 137.965 198.877 138.792 199.583 138.798C200.289 138.803 200.868 137.985 200.876 136.97Z" fill="#3F3D56"/>
<path d="M222.556 157.536C222.563 156.521 221.997 155.694 221.291 155.689C220.585 155.683 220.007 156.502 219.999 157.516C219.991 158.531 220.557 159.358 221.263 159.364C221.969 159.369 222.548 158.551 222.556 157.536Z" fill="#E6E6E6"/>
<path d="M213.413 162.101C213.42 161.086 212.854 160.259 212.148 160.254C211.442 160.248 210.864 161.067 210.856 162.081C210.849 163.096 211.415 163.923 212.121 163.929C212.827 163.934 213.405 163.116 213.413 162.101Z" fill="#FF6584"/>
<path d="M226.14 170.538C226.147 169.523 225.581 168.696 224.875 168.691C224.169 168.686 223.591 169.504 223.583 170.519C223.576 171.534 224.142 172.361 224.848 172.366C225.554 172.371 226.132 171.553 226.14 170.538Z" fill="#3F3D56"/>
<path d="M146.652 60.5866C146.813 59.4812 145.655 58.3976 144.066 58.1664C142.477 57.9352 141.059 58.6439 140.898 59.7494C140.737 60.8548 141.895 61.9384 143.484 62.1696C145.073 62.4008 146.492 61.6921 146.652 60.5866Z" fill="white"/>
<path d="M165.572 58.741C165.733 57.6355 164.575 56.552 162.986 56.3208C161.397 56.0895 159.978 56.7983 159.818 57.9037C159.657 59.0091 160.815 60.0927 162.404 60.3239C163.993 60.5551 165.411 59.8464 165.572 58.741Z" fill="#3F3D56"/>
<path d="M141.472 45.2698C141.632 44.1643 140.475 43.0807 138.886 42.8495C137.296 42.6183 135.878 43.327 135.717 44.4325C135.556 45.5379 136.714 46.6215 138.303 46.8527C139.892 47.0839 141.311 46.3752 141.472 45.2698Z" fill="#FF6584"/>
<path d="M133.251 38.9958C133.258 37.9809 132.692 37.1539 131.986 37.1485C131.28 37.1432 130.702 37.9616 130.694 38.9764C130.686 39.9913 131.252 40.8183 131.958 40.8236C132.664 40.829 133.243 40.0106 133.251 38.9958Z" fill="#E6E6E6"/>
<path d="M130.463 27.3097C130.47 26.2949 129.904 25.4679 129.198 25.4625C128.492 25.4572 127.914 26.2755 127.906 27.2904C127.898 28.3052 128.464 29.1323 129.17 29.1376C129.876 29.1429 130.455 28.3246 130.463 27.3097Z" fill="#3F3D56"/>
<path d="M152.143 47.8766C152.15 46.8618 151.584 46.0347 150.878 46.0294C150.172 46.0241 149.594 46.8424 149.586 47.8573C149.578 48.8721 150.145 49.6992 150.851 49.7045C151.557 49.7098 152.135 48.8915 152.143 47.8766Z" fill="#E6E6E6"/>
<path d="M143 52.4416C143.008 51.4267 142.442 50.5997 141.736 50.5944C141.03 50.589 140.451 51.4074 140.444 52.4222C140.436 53.4371 141.002 54.2641 141.708 54.2694C142.414 54.2748 142.992 53.4564 143 52.4416Z" fill="#FF6584"/>
<path d="M155.727 60.8786C155.735 59.8637 155.169 59.0367 154.463 59.0314C153.757 59.026 153.178 59.8444 153.171 60.8592C153.163 61.8741 153.729 62.7011 154.435 62.7064C155.141 62.7118 155.72 61.8934 155.727 60.8786Z" fill="#3F3D56"/>
</g>
<defs>
<clipPath id="clip0_225_928">
<rect width="236" height="269.555" fill="white"/>
</clipPath>
</defs>
</svg>
