<svg width="16" height="16" viewBox="0 0 16 16" fill="none" xmlns="http://www.w3.org/2000/svg">
<path d="M7.97647 15.9999C6.39644 15.9968 4.85278 15.525 3.54055 14.644C2.22831 13.7631 1.20638 12.5126 0.603875 11.0505C0.00137343 9.58845 -0.154661 7.98042 0.15549 6.42961C0.46564 4.87881 1.22806 3.45483 2.3464 2.33758C3.46475 1.22034 4.88884 0.459983 6.43874 0.152574C7.98864 -0.154834 9.5948 0.00450777 11.0543 0.610464C12.5137 1.21642 13.761 2.2418 14.6385 3.55705C15.516 4.87229 15.9843 6.41837 15.9843 7.99994C15.9833 9.05154 15.7754 10.0926 15.3724 11.0638C14.9694 12.035 14.3792 12.9172 13.6356 13.66C12.892 14.4029 12.0095 14.9919 11.0385 15.3933C10.0675 15.7948 9.02705 16.0009 7.97647 15.9999Z" fill="#231F20"/>
</svg>
