<svg width="15" height="15" viewBox="0 0 15 15" fill="none" xmlns="http://www.w3.org/2000/svg">
<path d="M7.49266 14.9999C6.01075 14.9999 4.56212 14.56 3.32996 13.7359C2.0978 12.9118 1.13745 11.7405 0.570347 10.3701C0.00324612 8.99962 -0.145133 7.49163 0.143973 6.03678C0.433078 4.58194 1.14668 3.24557 2.19455 2.19668C3.24242 1.1478 4.57748 0.4335 6.03091 0.144113C7.48435 -0.145274 8.99087 0.00324928 10.36 0.570903C11.7291 1.13856 12.8993 2.09984 13.7226 3.3332C14.5459 4.56656 14.9853 6.0166 14.9853 7.49995C14.9834 9.48846 14.1933 11.395 12.7886 12.8011C11.3839 14.2072 9.47924 14.9979 7.49266 14.9999Z" fill="#362FD9"/>
</svg>
