<svg width="74" height="87" viewBox="0 0 74 87" fill="none" xmlns="http://www.w3.org/2000/svg">
<path d="M74 63.8832C74 64.8524 73.9803 65.8532 73.9488 66.8658C73.9243 68.8753 73.7572 70.8806 73.4489 72.8664C73.1651 74.5405 72.6345 76.1631 71.8745 77.6811C71.1395 79.1456 70.1762 80.4836 69.0208 81.6447C67.8634 82.8058 66.5361 83.7836 65.0846 84.5446C63.5728 85.3001 61.9591 85.831 60.2943 86.1206C58.333 86.4327 56.352 86.6038 54.3664 86.6328C53.7287 86.6328 53.0911 86.6328 52.4534 86.6525H51.3001C50.0878 86.6525 23.9359 86.6525 22.7235 86.6525H21.5702C20.9326 86.6525 20.2949 86.6525 19.6572 86.6328C17.6716 86.6038 15.6906 86.4327 13.7294 86.1206C12.0646 85.831 10.4508 85.3001 8.93904 84.5446C7.48752 83.7836 6.16025 82.8058 5.00287 81.6447C3.84741 80.4836 2.8841 79.1456 2.14915 77.6811C1.38094 76.1644 0.842357 74.5417 0.551064 72.8664C0.243532 70.8858 0.076483 68.8858 0.0511703 66.8815C0.0196809 65.8808 0.00393617 64.8682 0 63.899V22.7496C0 21.7803 0.0196809 20.7796 0.0511703 19.767C0.0757394 17.7575 0.24279 15.7522 0.551064 13.7664C0.834889 12.0923 1.3655 10.4697 2.12553 8.95169C2.86049 7.48718 3.82379 6.1492 4.97926 4.98804C6.13663 3.82702 7.46391 2.84919 8.91543 2.0882C10.4272 1.33265 12.0409 0.801733 13.7057 0.512201C15.667 0.200105 17.648 0.0289334 19.6336 0C20.2713 0 20.9089 0 21.5466 0H22.6999C23.9122 0 50.0642 0 51.2765 0H52.4298C53.0674 0 53.7051 0 54.3428 0C56.3284 0.0289334 58.3094 0.200105 60.2706 0.512201C61.9354 0.801733 63.5492 1.33265 65.061 2.0882C66.5125 2.84919 67.8397 3.82702 68.9971 4.98804C70.1526 6.1492 71.1159 7.48718 71.8508 8.95169C72.6109 10.4697 73.1415 12.0923 73.4253 13.7664C73.7328 15.747 73.8999 17.747 73.9252 19.7512C73.9567 20.752 73.9725 21.7646 73.9764 22.7338L74 63.8832Z" fill="#D0D0D0"/>
</svg>
