<svg width="17" height="15" viewBox="0 0 17 15" fill="none" xmlns="http://www.w3.org/2000/svg">
<path d="M6.06183 14.6685H10.9382C12.0446 14.6685 12.6374 14.0205 12.6374 12.9772V9.43654H15.8461C16.4942 9.43654 17 9.04138 17 8.44073C17 8.06927 16.8103 7.79265 16.5258 7.50814L9.47606 0.482101C9.16783 0.173873 8.8517 0 8.49605 0C8.1483 0 7.82427 0.173873 7.52394 0.482101L0.474198 7.50814C0.165969 7.80846 0 8.06927 0 8.44073C0 9.04138 0.505811 9.43654 1.14598 9.43654H4.36262V12.9772C4.36262 14.0205 4.95537 14.6685 6.06183 14.6685Z" fill="white"/>
</svg>
