<svg width="30" height="30" viewBox="0 0 30 30" fill="none" xmlns="http://www.w3.org/2000/svg">
<path d="M24.9225 16.25C24.6443 18.453 23.6411 20.5008 22.071 22.071C20.5008 23.6411 18.453 24.6443 16.25 24.9225V27.5H13.75V24.9225C11.547 24.6443 9.49917 23.6411 7.92904 22.071C6.35892 20.5008 5.35573 18.453 5.0775 16.25H2.5V13.75H5.0775C5.35573 11.547 6.35892 9.49917 7.92904 7.92904C9.49917 6.35892 11.547 5.35573 13.75 5.0775V2.5H16.25V5.0775C18.453 5.35573 20.5008 6.35892 22.071 7.92904C23.6411 9.49917 24.6443 11.547 24.9225 13.75H27.5V16.25H24.9225ZM15 22.5C16.9891 22.5 18.8968 21.7098 20.3033 20.3033C21.7098 18.8968 22.5 16.9891 22.5 15C22.5 13.0109 21.7098 11.1032 20.3033 9.6967C18.8968 8.29018 16.9891 7.5 15 7.5C13.0109 7.5 11.1032 8.29018 9.6967 9.6967C8.29018 11.1032 7.5 13.0109 7.5 15C7.5 16.9891 8.29018 18.8968 9.6967 20.3033C11.1032 21.7098 13.0109 22.5 15 22.5ZM15 18.75C15.9946 18.75 16.9484 18.3549 17.6517 17.6517C18.3549 16.9484 18.75 15.9946 18.75 15C18.75 14.0054 18.3549 13.0516 17.6517 12.3483C16.9484 11.6451 15.9946 11.25 15 11.25C14.0054 11.25 13.0516 11.6451 12.3483 12.3483C11.6451 13.0516 11.25 14.0054 11.25 15C11.25 15.9946 11.6451 16.9484 12.3483 17.6517C13.0516 18.3549 14.0054 18.75 15 18.75Z" fill="#362FD9"/>
</svg>
