<svg width="20" height="25" viewBox="0 0 20 25" fill="none" xmlns="http://www.w3.org/2000/svg">
<path d="M9.275 24.7672C9.48655 24.9183 9.74002 24.9995 9.99999 24.9995C10.26 24.9995 10.5134 24.9183 10.725 24.7672C11.105 24.4984 20.0361 18.0498 19.9999 9.99988C19.9999 4.4862 15.5137 0 9.99999 0C4.48631 0 0.000110046 4.4862 0.000110046 9.99363C-0.0361395 18.0498 8.895 24.4984 9.275 24.7672ZM9.99999 2.49997C14.1362 2.49997 17.4999 5.86368 17.4999 10.0061C17.5261 15.5536 12.015 20.5347 9.99999 22.1685C7.98626 20.5335 2.47383 15.5511 2.50008 9.99988C2.50008 5.86368 5.86379 2.49997 9.99999 2.49997Z" fill="#636363"/>
</svg>
