<svg width="17" height="17" viewBox="0 0 17 17" fill="none" xmlns="http://www.w3.org/2000/svg">
<path d="M8.4917 0.435376C10.0852 0.435376 11.6429 0.908355 12.9678 1.7945C14.2927 2.68065 15.3254 3.94017 15.9352 5.41378C16.545 6.88739 16.7045 8.50891 16.3936 10.0733C16.0828 11.6377 15.3154 13.0746 14.1887 14.2025C13.0619 15.3303 11.6263 16.0984 10.0635 16.4096C8.50063 16.7208 6.88069 16.561 5.40851 15.9507C3.93634 15.3403 2.67805 14.3066 1.79276 12.9804C0.907473 11.6542 0.434953 10.095 0.434953 8.49996C0.437106 6.36176 1.28663 4.31175 2.7971 2.79982C4.30756 1.28788 6.35558 0.437531 8.4917 0.435376ZM8.4917 0C6.8122 0 5.17042 0.498514 3.77397 1.4325C2.37751 2.36649 1.28911 3.694 0.646395 5.24717C0.00367864 6.80033 -0.164484 8.50939 0.16317 10.1582C0.490823 11.807 1.29958 13.3216 2.48716 14.5103C3.67475 15.6991 5.18782 16.5086 6.83505 16.8366C8.48228 17.1646 10.1897 16.9962 11.7413 16.3529C13.293 15.7096 14.6192 14.6201 15.5523 13.2223C16.4854 11.8245 16.9834 10.1811 16.9834 8.49996C16.9834 6.24563 16.0887 4.08363 14.4962 2.48958C12.9037 0.895531 10.7438 0 8.4917 0Z" fill="white"/>
</svg>
