<svg width="16" height="16" viewBox="0 0 16 16" fill="none" xmlns="http://www.w3.org/2000/svg">
<path d="M7.99217 15.9999C6.41147 15.9999 4.86627 15.5307 3.55196 14.6517C2.23766 13.7726 1.21328 12.5232 0.608371 11.0614C0.00346253 9.5996 -0.154809 7.99108 0.153571 6.43924C0.46195 4.8874 1.22313 3.46194 2.34086 2.34313C3.45858 1.22432 4.88265 0.4624 6.43298 0.15372C7.98331 -0.154959 9.59027 0.0034659 11.0506 0.608963C12.511 1.21446 13.7592 2.23983 14.6374 3.55542C15.5156 4.871 15.9843 6.41771 15.9843 7.99995C15.9823 10.121 15.1396 12.1546 13.6412 13.6545C12.1428 15.1543 10.1112 15.9978 7.99217 15.9999Z" fill="white"/>
</svg>
