<svg width="24" height="24" viewBox="0 0 24 24" fill="none" xmlns="http://www.w3.org/2000/svg">
<path d="M11.625 0.375C5.20312 0.375 0 5.57812 0 12C0 18.4219 5.20312 23.625 11.625 23.625C18.0469 23.625 23.25 18.4219 23.25 12C23.25 5.57812 18.0469 0.375 11.625 0.375ZM18.2531 18.6281C16.4812 20.4 14.1281 21.375 11.625 21.375C9.12187 21.375 6.76875 20.4 4.99687 18.6281C3.225 16.8562 2.25 14.5031 2.25 12C2.25 9.49687 3.225 7.14375 4.99687 5.37187C6.76875 3.6 9.12187 2.625 11.625 2.625C14.1281 2.625 16.4812 3.6 18.2531 5.37187C20.025 7.14375 21 9.49687 21 12C21 14.5031 20.025 16.8562 18.2531 18.6281ZM15.375 7.6875C14.1703 7.6875 12.7547 8.47969 12.5672 9.66094C12.4875 10.1859 13.1062 10.5141 13.4953 10.1672L13.9406 9.76875C14.6344 9.15 16.1062 9.15 16.8 9.76875L17.2453 10.1672C17.6437 10.5141 18.2578 10.1813 18.1734 9.66094C17.9953 8.47969 16.5797 7.6875 15.375 7.6875ZM7.875 10.5C8.70469 10.5 9.375 9.82969 9.375 9C9.375 8.17031 8.70469 7.5 7.875 7.5C7.04531 7.5 6.375 8.17031 6.375 9C6.375 9.82969 7.04531 10.5 7.875 10.5ZM16.9875 13.5H6.2625C5.87813 13.5 5.58281 13.8281 5.62969 14.2031C5.98125 16.9781 8.39062 19.125 11.3062 19.125H11.9438C14.8594 19.125 17.2687 16.9781 17.6203 14.2031C17.6672 13.8281 17.3719 13.5 16.9875 13.5Z" fill="#231F20"/>
</svg>
