<svg width="30" height="30" viewBox="0 0 30 30" fill="none" xmlns="http://www.w3.org/2000/svg">
<path d="M16.25 13.75C16.9917 13.75 17.7167 13.5301 18.3334 13.118C18.9501 12.706 19.4307 12.1203 19.7145 11.4351C19.9984 10.7498 20.0726 9.99584 19.9279 9.26841C19.7833 8.54098 19.4261 7.8728 18.9017 7.34835C18.3772 6.8239 17.709 6.46675 16.9816 6.32206C16.2542 6.17736 15.5002 6.25162 14.8149 6.53545C14.1297 6.81928 13.544 7.29993 13.132 7.91661C12.7199 8.5333 12.5 9.25832 12.5 10C12.5 10.9946 12.8951 11.9484 13.5983 12.6517C14.3016 13.3549 15.2554 13.75 16.25 13.75ZM16.25 8.75C16.4972 8.75 16.7389 8.82331 16.9445 8.96066C17.15 9.09802 17.3102 9.29324 17.4049 9.52165C17.4995 9.75006 17.5242 10.0014 17.476 10.2439C17.4277 10.4863 17.3087 10.7091 17.1339 10.8839C16.9591 11.0587 16.7363 11.1778 16.4939 11.226C16.2514 11.2742 16.0001 11.2495 15.7716 11.1549C15.5432 11.0602 15.348 10.9 15.2107 10.6945C15.0733 10.4889 15 10.2472 15 10C15 9.66848 15.1317 9.35054 15.3661 9.11612C15.6005 8.8817 15.9185 8.75 16.25 8.75ZM21.3875 13.575C22.1188 12.5263 22.5109 11.2785 22.5109 10C22.5109 8.72148 22.1188 7.47371 21.3875 6.425C21.747 6.30927 22.1223 6.25023 22.5 6.25C23.4946 6.25 24.4484 6.64509 25.1517 7.34835C25.8549 8.05161 26.25 9.00544 26.25 10C26.25 10.9946 25.8549 11.9484 25.1517 12.6517C24.4484 13.3549 23.4946 13.75 22.5 13.75C22.1223 13.7498 21.747 13.6907 21.3875 13.575ZM16.25 16.25C8.75 16.25 8.75 21.25 8.75 21.25V23.75H23.75V21.25C23.75 21.25 23.75 16.25 16.25 16.25ZM11.25 21.25C11.25 20.8875 11.65 18.75 16.25 18.75C20.625 18.75 21.175 20.7 21.25 21.25M30 21.25V23.75H26.25V21.25C26.2208 20.3208 26.0068 19.4067 25.6205 18.5611C25.2342 17.7156 24.6833 16.9554 24 16.325C30 16.9375 30 21.25 30 21.25ZM10 15H6.25V18.75H3.75V15H0V12.5H3.75V8.75H6.25V12.5H10V15Z" fill="#636363"/>
</svg>
