<svg width="30" height="30" viewBox="0 0 30 30" fill="none" xmlns="http://www.w3.org/2000/svg">
<path d="M26.8853 24.289C27.2302 24.6339 27.4239 25.1017 27.4239 25.5895C27.4239 26.0773 27.2302 26.5451 26.8853 26.89C26.5404 27.2349 26.0726 27.4286 25.5848 27.4286C25.097 27.4286 24.6292 27.2349 24.2843 26.89L14.5706 17.1732L4.85384 26.8869C4.50893 27.2318 4.04114 27.4256 3.55337 27.4256C3.0656 27.4256 2.59781 27.2318 2.2529 26.8869C1.908 26.542 1.71423 26.0742 1.71423 25.5864C1.71423 25.0987 1.908 24.6309 2.2529 24.286L11.9697 14.5723L2.25596 4.85549C1.91106 4.51058 1.71729 4.04279 1.71729 3.55502C1.71729 3.06725 1.91106 2.59946 2.25596 2.25456C2.60087 1.90965 3.06866 1.71589 3.55643 1.71589C4.0442 1.71589 4.51199 1.90965 4.8569 2.25456L14.5706 11.9713L24.2874 2.25303C24.6323 1.90812 25.1001 1.71436 25.5879 1.71436C26.0756 1.71436 26.5434 1.90812 26.8883 2.25303C27.2332 2.59793 27.427 3.06572 27.427 3.55349C27.427 4.04126 27.2332 4.50905 26.8883 4.85396L17.1715 14.5723L26.8853 24.289Z" fill="#636363"/>
</svg>
