<svg width="22" height="22" viewBox="0 0 22 22" fill="none" xmlns="http://www.w3.org/2000/svg">
<g clip-path="url(#clip0_282_1864)">
<path d="M14 0V21.42L4.737 16.21H0V5.21H4.737L14 0ZM3.999 7.21H2V14.21H3.999V7.21ZM5.999 14.625L12 18V3.42L5.999 6.794V14.625ZM19.979 5.692L20.582 6.49C21.4998 7.70558 21.9961 9.18735 21.9956 10.7105C21.995 12.2337 21.4977 13.7151 20.579 14.93L19.976 15.728L18.381 14.522L18.984 13.724C19.6405 12.8561 19.9959 11.7976 19.9963 10.7093C19.9967 9.62106 19.6419 8.56238 18.986 7.694L18.383 6.897L19.979 5.692ZM17.186 7.8L17.789 8.598C18.248 9.20573 18.4962 9.94659 18.496 10.7082C18.4958 11.4697 18.2473 12.2105 17.788 12.818L17.184 13.616L15.59 12.41L16.193 11.613C16.39 11.3527 16.4967 11.0352 16.4969 10.7087C16.4971 10.3822 16.3907 10.0646 16.194 9.804L15.591 9.006L17.186 7.8Z" fill="#231F20"/>
</g>
<defs>
<clipPath id="clip0_282_1864">
<rect width="22" height="21.42" fill="white"/>
</clipPath>
</defs>
</svg>
