<svg width="84" height="93" viewBox="0 0 84 93" fill="none" xmlns="http://www.w3.org/2000/svg">
<path d="M83.8547 28.6014C83.8547 25.0548 83.713 23.2973 83.4335 22.3909C83.1539 21.4846 82.8823 21.2796 82.4256 21.0511C82.0746 20.8541 81.6734 20.765 81.2721 20.7949C80.7348 20.7637 80.1972 20.8511 79.6974 21.0511C79.7988 20.8589 79.9202 20.6779 80.0596 20.5112C79.969 19.4118 79.8391 17.2838 79.6423 16.1765C79.3025 14.2088 78.6681 12.3037 77.7605 10.5255C76.8724 8.80016 75.7148 7.22775 74.3315 5.86766C72.9441 4.50228 71.3496 3.36514 69.6073 2.49839C67.7939 1.60199 65.8585 0.977922 63.8634 0.64627C61.4894 0.280582 59.0923 0.0856759 56.6905 0.0630507C55.5094 0.023644 54.289 0.00394067 53.1473 0H27.1642C25.9831 0 24.8021 0.023644 23.621 0.0630507C21.2282 0.0894514 18.8404 0.28699 16.4757 0.654153C14.4792 0.985206 12.5424 1.6093 10.7279 2.50627C8.98598 3.37376 7.39166 4.51082 6.00368 5.87555C4.61055 7.23358 3.44361 8.80611 2.54714 10.5334C1.63604 12.3102 1.00145 14.2158 0.665326 16.1843C0.292981 18.5085 0.0916602 20.8569 0.0629894 23.2106C0.023621 24.3928 0.00393684 25.575 0 26.7138V66.2861C0 67.4289 0.023621 68.615 0.0629894 69.7893C0.0916602 72.143 0.292981 74.4914 0.665326 76.8155C1.00145 78.7841 1.63604 80.6897 2.54714 82.4665C3.43523 84.1918 4.59279 85.7643 5.97612 87.1243C7.3641 88.4891 8.95842 89.6261 10.7003 90.4936C12.5148 91.3906 14.4516 92.0147 16.4481 92.3457C18.8219 92.7142 21.219 92.9118 23.621 92.9368C24.8021 92.9762 26.0225 92.996 27.1642 92.9999H53.1473C54.3087 92.9999 55.5094 92.9762 56.6905 92.9368C59.0833 92.9103 61.4712 92.7128 63.8359 92.3457C65.831 92.0141 67.7664 91.39 69.5797 90.4936C71.3221 89.6269 72.9165 88.4897 74.3039 87.1243C75.6873 85.7643 76.8448 84.1918 77.7329 82.4665C78.6405 80.6883 79.2749 78.7832 79.6147 76.8155C79.784 75.8816 79.9021 74.924 79.9887 73.9783C80.0041 73.7561 79.9961 73.5328 79.9651 73.3123C79.9297 73.0995 79.8864 72.9813 79.8627 72.8355H80.0793C80.1541 71.7518 80.1934 70.7115 80.2171 69.7893C80.2525 68.6071 80.2761 67.4249 80.28 66.2861V49.3018H80.0871L80.28 48.6516V37.2236C80.2123 37.0632 80.1334 36.9078 80.0438 36.7586C80.4368 36.8532 80.8407 36.8942 81.2446 36.8808C81.6459 36.9107 82.0471 36.8216 82.3981 36.6246C82.8547 36.3961 83.1421 36.1399 83.4059 35.2848C83.6697 34.4297 83.8271 32.2347 83.8271 28.6763L83.8547 28.6014Z" fill="#D0D0D0"/>
</svg>
