<svg width="23" height="23" viewBox="0 0 23 23" fill="none" xmlns="http://www.w3.org/2000/svg">
<path d="M20.9821 12.7785C20.8899 12.6861 20.7743 12.6206 20.6477 12.5889C20.521 12.5573 20.3882 12.5607 20.2634 12.5988C18.8929 13.0131 17.4356 13.0479 16.0469 12.6993C14.6582 12.3508 13.3901 11.632 12.3777 10.6196C11.3653 9.6072 10.6465 8.33909 10.298 6.9504C9.94946 5.56171 9.9842 4.10448 10.3985 2.73398C10.437 2.60909 10.4407 2.47609 10.4092 2.34928C10.3777 2.22246 10.3122 2.10662 10.2198 2.01423C10.1274 1.92183 10.0116 1.85637 9.88478 1.82489C9.75796 1.7934 9.62496 1.79709 9.50008 1.83554C7.6053 2.41597 5.94185 3.57922 4.74645 5.15976C3.70104 6.54771 3.06336 8.19969 2.90507 9.93008C2.74677 11.6605 3.07413 13.4007 3.85035 14.9553C4.62658 16.5099 5.82093 17.8173 7.29921 18.7305C8.77749 19.6437 10.4811 20.1267 12.2188 20.125C14.2459 20.1313 16.2192 19.4723 17.8358 18.2491C19.4163 17.0537 20.5796 15.3902 21.16 13.4955C21.198 13.371 21.2015 13.2386 21.1702 13.1124C21.1389 12.9861 21.0739 12.8707 20.9821 12.7785ZM16.9715 17.1009C15.4491 18.2475 13.5638 18.8057 11.6626 18.6725C9.76135 18.5394 7.9722 17.724 6.62449 16.3764C5.27677 15.0288 4.46121 13.2397 4.32793 11.3385C4.19465 9.43727 4.75263 7.5519 5.89914 6.02944C6.64611 5.04301 7.6118 4.24339 8.72024 3.69351C8.65709 4.13664 8.62527 4.58367 8.625 5.03128C8.62762 7.50859 9.61289 9.88369 11.3646 11.6354C13.1163 13.3871 15.4914 14.3724 17.9688 14.375C18.4173 14.3749 18.8652 14.3431 19.3092 14.2798C18.7588 15.3884 17.9586 16.3541 16.9715 17.1009Z" fill="#231F20"/>
</svg>
