<svg width="19" height="16" viewBox="0 0 19 16" fill="none" xmlns="http://www.w3.org/2000/svg">
<path d="M14.7979 9.43485V12.6811C14.7979 13.6076 14.0505 14.3586 13.1288 14.3586C12.2072 14.3586 11.4598 13.6076 11.4598 12.6811V6.18863C11.4598 5.26213 12.2072 4.51106 13.1288 4.51106C14.0505 4.51106 14.7979 5.26213 14.7979 6.18863V6.97295" stroke="#3731D9" stroke-width="1.66908" stroke-linejoin="round"/>
<path d="M17.6907 14.3586V5.91147C17.6907 3.3866 15.6357 1.3398 13.1007 1.3398C10.5657 1.3398 8.51075 3.3866 8.51075 5.91147V7.90724" stroke="#3731D9" stroke-width="1.66908" stroke-linejoin="round"/>
<path d="M0.999993 11.0678V10.3343C0.999993 9.2998 1.84409 8.46117 2.8847 8.46117C3.92574 8.46117 4.76984 9.2998 4.76984 10.3343V10.9419C4.76984 11.9685 5.60739 12.8008 6.64013 12.8008C7.67331 12.8008 8.51086 11.9685 8.51086 10.9419V10.1941" stroke="#3731D9" stroke-width="1.66908" stroke-linejoin="round"/>
</svg>
