<svg width="11" height="10" viewBox="0 0 11 10" fill="none" xmlns="http://www.w3.org/2000/svg">
<path d="M9.91575 9.93964C9.91847 9.60542 10.0216 9.27976 10.2118 9.00503C10.4019 8.7303 10.6703 8.51921 10.982 8.39924C7.33949 6.44611 4.17507 3.70872 1.7166 0.384215C1.64193 0.283772 1.54822 0.199037 1.44083 0.134844C1.33344 0.070652 1.21447 0.02826 1.09071 0.0100911C0.966951 -0.00807782 0.840829 -0.00166609 0.719545 0.0289544C0.598262 0.0595749 0.48419 0.113809 0.383845 0.188557C0.283499 0.263306 0.198846 0.357101 0.134717 0.464597C0.0705868 0.572094 0.0282374 0.69118 0.0100862 0.815059C-0.0265719 1.06524 0.0375593 1.31976 0.188373 1.52262C2.7801 5.02615 6.10626 7.91964 9.93352 10.0001C9.92286 9.97877 9.91575 9.95742 9.91575 9.93964Z" fill="#362FD9"/>
</svg>
