<svg width="20" height="20" viewBox="0 0 20 20" fill="none" xmlns="http://www.w3.org/2000/svg">
<path d="M0.00200582 6.63011C-0.0209942 7.04111 0.209006 7.42411 0.583006 7.59611L8.08701 11.0381L11.529 18.5411C11.693 18.8971 12.049 19.1241 12.438 19.1241L12.495 19.1221C12.6957 19.1109 12.8884 19.0394 13.0478 18.917C13.2073 18.7947 13.3262 18.6271 13.389 18.4361L16.1865 9.92011L18.984 1.40411C19.101 1.04611 19.007 0.651108 18.741 0.384108C18.475 0.117108 18.081 0.0261076 17.721 0.141108L0.688006 5.73611C0.497054 5.79891 0.329462 5.91781 0.207091 6.07728C0.0847195 6.23675 0.0132505 6.42941 0.00200582 6.63011ZM16.466 2.65911L12.284 15.3891L9.75001 9.86711C9.65034 9.6494 9.47572 9.47478 9.25801 9.37511L3.73401 6.84111L16.466 2.65911Z" fill="white"/>
</svg>
