<svg width="257" height="196" viewBox="0 0 257 196" fill="none" xmlns="http://www.w3.org/2000/svg">
<g clip-path="url(#clip0_225_1143)">
<path d="M155.836 58.9618C156.156 58.9765 156.473 58.8926 156.743 58.7213C157.014 58.5501 157.225 58.2999 157.348 58.0046C157.472 57.7093 157.502 57.3831 157.433 57.0704C157.365 56.7576 157.203 56.4733 156.968 56.256C156.928 56.0996 156.9 55.9872 156.861 55.8308C156.875 55.7967 156.889 55.7627 156.903 55.7287C158.34 52.3017 163.211 52.3253 164.636 55.7574C165.901 58.8036 167.511 61.855 167.908 65.0758C168.083 66.4995 168.009 67.9426 167.69 69.3411C170.661 62.8611 172.203 55.8181 172.213 48.6896C172.214 46.9008 172.115 45.1134 171.916 43.3357C171.751 41.8783 171.523 40.4313 171.231 38.9947C169.639 31.1998 166.221 23.8939 161.257 17.6767C158.854 16.3658 156.911 14.3499 155.689 11.9007C155.247 11.0202 154.934 10.0804 154.761 9.11038C155.032 9.14593 155.783 5.01825 155.578 4.76499C155.956 4.19185 156.632 3.90695 157.045 3.34767C159.096 0.566177 161.923 1.05184 163.398 4.83167C166.55 6.42257 166.581 9.06097 164.647 11.5985C163.416 13.2129 163.247 15.3974 162.167 17.1257C162.278 17.2679 162.394 17.4056 162.505 17.5478C164.536 20.1588 166.305 22.9625 167.789 25.9187C167.369 22.64 167.989 18.69 169.045 16.1438C170.248 13.2427 172.502 10.7994 174.487 8.29134C176.871 5.27882 181.761 6.59354 182.181 10.4124C182.185 10.4494 182.189 10.4863 182.192 10.5233C181.898 10.6896 181.609 10.8661 181.327 11.0529C180.972 11.2899 180.697 11.6286 180.538 12.0245C180.379 12.4204 180.343 12.8551 180.436 13.2716C180.528 13.6882 180.744 14.0671 181.055 14.3588C181.367 14.6505 181.759 14.8414 182.18 14.9064L182.224 14.9131C182.119 15.9757 181.933 17.0288 181.668 18.0632C184.215 27.9112 178.717 31.498 170.867 31.6592C170.694 31.748 170.525 31.8369 170.352 31.9213C171.842 36.1454 172.777 40.5454 173.133 45.0107C173.334 47.645 173.323 50.2914 173.097 52.9238L173.111 52.8306C173.68 49.9033 175.241 47.2621 177.532 45.3528C180.934 42.5581 185.74 41.5289 189.411 39.2825C191.177 38.2012 193.441 39.5986 193.133 41.6469C193.128 41.6796 193.123 41.7123 193.118 41.745C192.571 41.9678 192.038 42.2246 191.523 42.5136C191.228 42.68 190.94 42.8566 190.657 43.0433C190.302 43.2803 190.028 43.6189 189.869 44.0149C189.71 44.4108 189.674 44.8455 189.766 45.262C189.858 45.6786 190.074 46.0575 190.386 46.3492C190.697 46.6409 191.089 46.8318 191.511 46.8968L191.554 46.9034C191.585 46.9079 191.612 46.9123 191.643 46.9168C190.708 49.1489 189.396 51.2035 187.764 52.9905C186.172 61.5874 179.333 62.403 172.018 59.8995H172.013C171.211 63.3874 170.048 66.7824 168.543 70.0298H156.147C156.103 69.8921 156.063 69.7499 156.023 69.6122C157.17 69.6843 158.322 69.6157 159.453 69.4078C158.533 68.2792 157.613 67.1418 156.693 66.0133C156.673 65.9922 156.654 65.9699 156.636 65.9466C156.169 65.369 155.698 64.7958 155.232 64.2183L155.231 64.2176C155.207 62.447 155.41 60.6807 155.836 58.962L155.836 58.9618Z" fill="#F2F2F2"/>
<path d="M195.637 27.2375C193.332 18.8339 211.922 11.6276 216.804 18.395C217.483 17.4329 219.992 16.8485 221.143 17.1436C222.294 17.4388 223.262 18.1766 224.206 18.8909C225.505 19.8885 226.851 20.9215 227.648 22.3558C228.451 23.7843 228.574 25.7323 227.494 26.9718C226.638 27.9576 224.112 28.5951 222.825 28.8548C221.928 29.0378 221.172 29.1854 220.523 29.2916C219.933 28.4419 219.662 27.4116 219.756 26.3815C219.319 26.6764 218.952 27.0642 218.683 27.5174C218.413 27.9705 218.248 28.4776 218.197 29.0024C218.18 29.2208 225.452 55.9782 225.452 55.9782C224.578 56.4755 223.659 56.8886 222.707 57.2119C220.824 54.3337 219.381 51.1901 218.428 47.8855C218.208 50.0952 218.236 52.3225 218.51 54.5261C218.656 55.7618 218.865 56.9892 219.136 58.2035C210.494 60.0688 197.496 59.455 191.841 51.5216C191.84 51.4888 191.839 51.4559 191.839 51.4231C191.834 51.1099 191.721 50.8081 191.518 50.5692C191.316 50.3303 191.037 50.1692 190.729 50.1136C190.42 50.0579 190.102 50.1112 189.829 50.2642C189.556 50.4172 189.344 50.6604 189.231 50.9523C189.094 51.3023 188.967 51.6053 188.855 51.8462C187.208 45.9552 189.339 39.1375 195.637 27.2375Z" fill="#231F20"/>
<path d="M180.931 168.126V168.401C180.921 168.31 180.921 168.217 180.931 168.126Z" fill="#231F20"/>
<path d="M189.394 120.568C189.614 120.508 189.838 120.465 190.064 120.438C189.804 120.48 189.581 120.523 189.394 120.568Z" fill="#231F20"/>
<path d="M189.198 120.618C189.258 120.601 189.324 120.584 189.394 120.568C189.329 120.585 189.266 120.597 189.198 120.618Z" fill="#231F20"/>
<path d="M251.722 195.663H220.046C219.594 195.303 219.28 194.798 219.157 194.233C219.033 193.668 219.108 193.078 219.368 192.561C220.233 190.577 218.538 188.763 218.538 188.763C217.962 188.089 217.562 187.283 217.372 186.417C217.183 185.55 217.21 184.651 217.452 183.798C218.291 180.867 215.002 172.593 215.002 172.593C215.002 172.593 213.229 183.276 211.057 195.663H180.931C180.427 194.804 180.161 193.825 180.161 192.828C180.161 191.831 180.427 190.853 180.931 189.993C182.687 187.016 180.931 186.445 180.931 186.445C180.931 186.445 179.176 183.114 180.931 180.696C182.687 178.277 180.931 168.401 180.931 168.401C180.998 168.838 181.498 168.044 182.268 166.38C183.44 163.847 185.232 159.293 187.042 154.006C188.336 150.232 189.64 146.08 190.731 142.021H190.733C191.019 140.954 191.29 139.897 191.546 138.85C192.046 136.797 192.474 134.801 192.8 132.928C193.507 128.892 193.739 125.426 193.197 123.171C192.747 121.295 191.763 120.26 190.064 120.437C190.974 120.287 192.308 120.144 193.951 120.009C194.247 119.985 194.554 119.961 194.872 119.935C207.13 119.008 233.428 118.477 233.428 118.477L241.484 132.901L251.685 151.174C251.685 151.174 251.407 175.687 251.722 195.663Z" fill="#231F20"/>
<path d="M217.912 56.1296L199.354 52.1929L195.669 59.6101L183.26 66.7942C183.26 66.7942 191.259 99.4993 191.213 104.099C191.097 115.777 172.412 141.956 186.525 139.942C200.639 137.928 203.506 129.492 208.037 130.826C212.123 132.029 217.113 137.381 220.453 133.553C223.794 129.726 224.97 134.146 227.083 134.298C228.086 134.371 227.482 129.465 230.007 134.451C232.533 139.436 245.926 132.725 241.386 128.186C233.827 120.626 232.29 64.8988 232.29 64.8988L223.875 62.3094L217.912 56.1296Z" fill="#E6E6E6"/>
<path d="M182.909 174.9C183.655 174.011 184.024 172.866 183.938 171.709C183.853 170.551 183.319 169.473 182.45 168.703C182.271 168.55 182.08 168.411 181.878 168.289L184.981 153.06L177.807 148.767L175.812 170.088C175.371 170.964 175.232 171.962 175.417 172.926C175.602 173.889 176.101 174.764 176.836 175.414C177.258 175.78 177.747 176.059 178.277 176.236C178.807 176.413 179.366 176.483 179.923 176.444C180.48 176.404 181.023 176.256 181.523 176.006C182.022 175.757 182.468 175.411 182.834 174.989C182.859 174.96 182.884 174.93 182.909 174.9Z" fill="#A0616A"/>
<path d="M205.182 94.6285C205.137 94.1389 204.512 93.9166 203.647 93.6097C202.778 93.3419 201.952 92.9507 201.194 92.448C199.278 91.064 200.032 89.6164 201.075 87.6159C201.279 87.2268 201.49 86.822 201.689 86.4012C202.279 85.1548 201.34 80.0131 198.892 71.1162C198.138 68.3773 198.14 66.4429 197.619 65.1594C197.1 63.876 196.06 63.2435 193.226 63.1112C189.8 62.9383 186.446 64.1307 183.898 66.427C183.829 66.4879 183.758 66.554 183.689 66.6176C183.559 66.7393 183.432 66.8637 183.308 66.9907C180.951 69.3612 179.603 72.551 179.545 75.8928L179.531 76.4617L178.947 103.644L177.303 127.498L175.038 160.357L176.716 160.439L183.411 160.772L184.223 160.812L186.15 152.73L188.468 143.005L189.32 139.433L191.964 128.35L193.197 123.171L193.951 120.009L194.258 118.718L195.756 112.441C195.79 112.308 199.236 98.7144 203.208 96.4412C204.69 95.5944 205.224 95.1022 205.182 94.6285Z" fill="#E6E6E6"/>
<path d="M249.748 174.738C248.912 173.934 248.421 172.836 248.382 171.676C248.343 170.516 248.758 169.387 249.539 168.528C249.7 168.356 249.876 168.198 250.063 168.055L245.343 153.247L252.014 148.208L256.287 169.192C256.82 170.016 257.066 170.993 256.985 171.971C256.904 172.948 256.502 173.872 255.841 174.597C255.461 175.006 255.004 175.337 254.497 175.569C253.989 175.802 253.441 175.932 252.883 175.952C252.325 175.973 251.769 175.884 251.245 175.689C250.722 175.495 250.242 175.199 249.833 174.819C249.804 174.792 249.776 174.766 249.748 174.738Z" fill="#A0616A"/>
<path d="M253.012 142.608C253.012 142.608 247.809 124.303 249.396 122.321C250.982 120.339 246.296 119.952 248.316 116.262C250.335 112.571 247.548 111.954 247.548 111.954L246.035 103.468L243.331 82.6258L243.249 82.0059L242.463 75.9421C242.243 74.2102 241.676 72.5403 240.797 71.0324C239.917 69.5244 238.742 68.2094 237.342 67.1659C237.271 67.1111 237.198 67.0586 237.125 67.006C236.792 66.7663 236.452 66.5443 236.105 66.3399C233.509 64.8087 230.461 64.2297 227.485 64.7026C221.877 65.576 223.622 67.6673 222.713 73.2698C221.235 82.3793 220.851 87.5909 221.572 88.7684C221.815 89.1649 222.07 89.5442 222.313 89.9084C223.565 91.7881 224.47 93.1441 222.713 94.7289C222.013 95.3081 221.234 95.7848 220.399 96.1446C219.573 96.5445 218.976 96.8315 218.984 97.3231C218.993 97.7993 219.577 98.2294 221.14 98.9114C223.034 99.7404 225.069 102.875 226.736 106.077C228.058 108.657 229.237 111.309 230.268 114.019L244.592 154.304L246.928 160.874L247.734 160.746L254.352 159.697L256.012 159.434L253.012 142.608Z" fill="#E6E6E6"/>
<path d="M210.083 51.9148C218.445 51.9148 225.223 45.1359 225.223 36.7738C225.223 28.4117 218.445 21.6328 210.083 21.6328C201.72 21.6328 194.942 28.4117 194.942 36.7738C194.942 45.1359 201.72 51.9148 210.083 51.9148Z" fill="#A0616A"/>
<path d="M187.373 28.4176C185.068 20.014 203.659 12.8078 208.54 19.5752C209.219 18.6131 211.728 18.0287 212.879 18.3238C214.03 18.619 214.998 19.3568 215.943 20.0711C217.241 21.0686 218.587 22.1016 219.384 23.536C220.187 24.9645 220.311 26.9124 219.23 28.152C218.374 29.1378 215.848 29.7753 214.561 30.035C213.664 30.218 212.908 30.3656 212.259 30.4718C211.669 29.6221 211.398 28.5918 211.492 27.5617C211.055 27.8565 210.688 28.2444 210.419 28.6975C210.15 29.1507 209.984 29.6578 209.933 30.1826C209.916 30.401 217.188 57.1584 217.188 57.1584C216.314 57.6557 215.395 58.0687 214.443 58.3921C212.56 55.5138 211.118 52.3703 210.164 49.0656C209.944 51.2754 209.972 53.5027 210.246 55.7063C210.392 56.942 210.601 58.1694 210.872 59.3837C202.23 61.249 189.232 60.6351 183.577 52.7018C183.576 52.669 183.575 52.6361 183.575 52.6032C183.57 52.2901 183.457 51.9882 183.255 51.7493C183.052 51.5104 182.773 51.3494 182.465 51.2938C182.156 51.2381 181.838 51.2914 181.565 51.4444C181.292 51.5974 181.08 51.8406 180.967 52.1325C180.83 52.4825 180.703 52.7855 180.591 53.0264C178.944 47.1354 181.075 40.3177 187.373 28.4176Z" fill="#231F20"/>
<path d="M112.283 80.7362C111.963 80.7509 111.647 80.6669 111.376 80.4957C111.106 80.3245 110.894 80.0743 110.771 79.779C110.647 79.4837 110.618 79.1575 110.686 78.8448C110.754 78.532 110.916 78.2477 111.151 78.0304C111.191 77.874 111.219 77.7616 111.258 77.6052C111.244 77.5711 111.23 77.5371 111.216 77.5031C109.779 74.0761 104.908 74.0997 103.483 77.5318C102.218 80.578 100.608 83.6294 100.211 86.8502C100.037 88.2739 100.11 89.717 100.429 91.1155C97.4585 84.6355 95.9159 77.5925 95.906 70.464C95.9054 68.6752 96.0047 66.8878 96.2037 65.1101C96.3681 63.6527 96.5962 62.2057 96.8879 60.7691C98.4801 52.9743 101.899 45.6683 106.863 39.4511C109.265 38.1402 111.208 36.1243 112.43 33.6751C112.872 32.7947 113.185 31.8548 113.359 30.8848C113.087 30.9203 112.337 26.7927 112.541 26.5394C112.163 25.9663 111.487 25.6814 111.075 25.1221C109.023 22.3406 106.197 22.8263 104.721 26.6061C101.569 28.197 101.538 30.8354 103.473 33.3729C104.703 34.9873 104.872 37.1718 105.952 38.9001C105.841 39.0423 105.725 39.1801 105.614 39.3223C103.584 41.9332 101.814 44.7369 100.33 47.6931C100.75 44.4144 100.13 40.4644 99.0739 37.9182C97.8713 35.0171 95.6173 32.5738 93.6323 30.0658C91.248 27.0532 86.3588 28.368 85.9387 32.1868C85.9346 32.2238 85.9307 32.2607 85.9268 32.2977C86.2216 32.464 86.5102 32.6406 86.7926 32.8273C87.1474 33.0643 87.4222 33.403 87.5812 33.7989C87.7402 34.1948 87.7759 34.6295 87.6836 35.046C87.5913 35.4626 87.3754 35.8415 87.0641 36.1332C86.7527 36.425 86.3605 36.6158 85.9389 36.6808L85.8957 36.6875C86.0007 37.7501 86.1864 38.8032 86.4511 39.8377C83.9046 49.6856 89.4023 53.2724 97.2522 53.4336C97.4255 53.5224 97.5944 53.6113 97.7677 53.6957C96.2771 57.9198 95.3421 62.3199 94.9863 66.7851C94.7848 69.4195 94.7967 72.0658 95.0218 74.6983L95.0085 74.605C94.4397 71.6777 92.8782 69.0365 90.5876 67.1272C87.1855 64.3325 82.3789 63.3033 78.7086 61.0569C76.9418 59.9756 74.6778 61.373 74.9862 63.4213C74.9911 63.454 74.9961 63.4867 75.0012 63.5194C75.5483 63.7423 76.0811 63.999 76.5963 64.2881C76.8911 64.4544 77.1797 64.631 77.4621 64.8177C77.8168 65.0547 78.0917 65.3934 78.2507 65.7893C78.4097 66.1852 78.4454 66.6199 78.3531 67.0364C78.2608 67.453 78.0449 67.8319 77.7335 68.1236C77.4222 68.4154 77.03 68.6062 76.6083 68.6712L76.5651 68.6779C76.534 68.6823 76.5074 68.6867 76.4763 68.6912C77.4112 70.9234 78.7233 72.9779 80.3551 74.7649C81.9474 83.3618 88.7861 84.1774 96.1015 81.674H96.106C96.9086 85.1618 98.0715 88.5568 99.576 91.8042H111.972C112.017 91.6665 112.057 91.5243 112.097 91.3866C110.949 91.4587 109.797 91.3901 108.667 91.1822C109.586 90.0537 110.506 88.9162 111.426 87.7877C111.446 87.7666 111.466 87.7443 111.484 87.721C111.95 87.1434 112.421 86.5703 112.888 85.9927L112.888 85.992C112.913 84.2214 112.709 82.4551 112.283 80.7365L112.283 80.7362Z" fill="#F2F2F2"/>
<path d="M54.4411 18.395C54.1597 19.0507 45.4847 18.9804 45.0873 19.5642C42.024 24.0716 53.0668 43.2492 50.0034 47.7624L49.5767 48.271C50.5761 47.8104 51.5361 47.2688 52.4471 46.6516C52.5289 44.8043 52.6108 42.951 52.6985 41.1037C53.616 42.2775 54.3566 43.5794 54.8966 44.9679C55.6098 44.4652 56.1949 43.5332 59.2519 41.7C60.4896 40.3405 61.9163 39.166 63.4883 38.2127L54.4411 18.395Z" fill="#231F20"/>
<path d="M60.7405 55.3351C59.7832 54.7115 58.6909 54.3252 57.5544 54.2082C56.4179 54.0912 55.2699 54.2469 54.2056 54.6625C53.1413 55.078 52.1915 55.7414 51.4349 56.5975C50.6783 57.4536 50.1368 58.4778 49.8554 59.5851L36.6723 93.9347L14.0122 81.0699C13.9127 79.5912 13.3475 78.182 12.3976 77.0444C11.4477 75.9068 10.1619 75.0992 8.72464 74.7376C7.28739 74.3759 5.77252 74.4787 4.3973 75.0312C3.02208 75.5837 1.85717 76.5575 1.06963 77.813C0.282093 79.0685 -0.0876053 80.5412 0.0135604 82.0198C0.114726 83.4984 0.68156 84.907 1.63276 86.0435C2.58396 87.18 3.87066 87.9861 5.30831 88.3462C6.74597 88.7062 8.26072 88.6017 9.63531 88.0477C14.4073 93.1408 35.0958 114.023 43.6606 105.864C50.8598 99.0055 61.2491 72.4262 63.75 63.2479C64.1506 61.7802 64.0751 60.2232 63.5342 58.8012C62.9934 57.3792 62.0152 56.1656 60.7405 55.3351Z" fill="#FFB6B6"/>
<path d="M35.9865 107.303L40.1466 126.107L70.5671 128.858L73.3628 112.486L35.9865 107.303Z" fill="#FFB6B6"/>
<path d="M82.4542 155.522C82.4403 155.792 82.4237 156.058 82.4042 156.328C82.1124 160.224 81.7789 164.718 81.4177 169.642C80.848 177.456 80.2116 186.354 79.5697 195.664H15.7626L28.1373 158.469C28.1373 158.469 33.1339 155.718 30.5901 151.096C28.0462 146.475 33.0516 150.158 33.0982 143.558C33.1447 136.958 37.63 129.936 37.63 129.936L38.3664 119.943L38.7861 119.952L71.9915 120.505L72.5974 120.516L73.6172 129.094C79.8096 136.463 82.9687 145.911 82.4542 155.522Z" fill="#231F20"/>
<path d="M54.9729 46.2224L70.1146 45.4424L77.1475 56.5553C77.1475 56.5553 90.3801 58.7676 89.4629 74.3606C88.5457 89.9536 73.3628 103.637 73.3628 103.637L74.0118 101.411L72.8846 104.632L73.0291 106.441L74.5668 108.356L74.7252 110.337L73.3628 113.47C73.5399 113.754 73.6339 114.082 73.6342 114.417C73.6344 114.752 73.5408 115.08 73.364 115.364C73.1872 115.648 72.9343 115.877 72.634 116.025C72.3337 116.173 71.9979 116.233 71.6649 116.2L49.7863 114.007C49.2882 112.637 48.8885 110.998 46.8918 113.727L44.8308 113.527L36.2632 112.697L35.759 110.86C35.4724 109.816 35.4278 108.721 35.6284 107.657C35.829 106.594 36.2696 105.59 36.9167 104.722C36.1725 102.392 36.3675 99.863 37.46 97.6743L37.5009 97.5922L38.4108 96.8338C38.4108 96.8338 28.4569 81.8794 39.8837 70.616L44.4698 62.8195L49.6014 56.5588L54.9729 46.2224Z" fill="#362FD9"/>
<path d="M58.7413 39.6629C66.6713 39.6629 73.0999 33.2343 73.0999 25.3043C73.0999 17.3743 66.6713 10.9458 58.7413 10.9458C50.8113 10.9458 44.3828 17.3743 44.3828 25.3043C44.3828 33.2343 50.8113 39.6629 58.7413 39.6629Z" fill="#FFB6B6"/>
<path d="M69.6468 45.9882C68.4775 45.0112 67.6637 43.6753 67.3317 42.1882C67.0662 43.9938 67.1355 45.8329 67.5364 47.6134C66.7588 48.198 66.0047 48.7534 65.2915 49.2561C64.7515 47.8676 64.0109 46.5656 63.0933 45.3919C63.0056 47.2392 62.9238 49.0924 62.8419 50.9398C61.9309 51.557 60.9709 52.0986 59.9715 52.5592L60.3983 52.0506C63.4616 47.5374 55.5343 39.2301 58.5977 34.7228C59.4571 33.46 55.5753 23.4807 52.6171 23.0306C49.9864 22.6331 50.0975 23.393 47.5486 23.9484C47.2839 22.8445 46.873 21.7809 46.3268 20.7857C46.4722 21.8946 46.4386 23.0197 46.2274 24.1179C45.3213 24.153 44.6083 23.5756 43.6434 23.4281C37.4875 22.4869 38.113 15.8282 39.8259 13.7178C41.5447 11.6132 47.2505 10.9818 49.8812 10.2978C50.1209 10.064 50.6645 10.2101 50.9043 9.98797C55.9459 5.37393 62.6888 4.60981 68.7568 6.65486C75.2278 8.83574 79.2624 13.0567 81.3331 19.5639L81.927 24.7712C82.4598 26.4456 81.7896 34.2361 81.3331 35.9329C79.5588 42.5285 75.7801 39.2359 69.6468 45.9882Z" fill="#231F20"/>
<path d="M90.5828 114.016L90.0176 69.9905C89.9881 68.1253 89.2265 66.3466 87.8971 65.038C86.5677 63.7295 84.7771 62.9961 82.9118 62.9961C81.9468 62.9961 80.9919 63.1926 80.1053 63.5737C79.2188 63.9548 78.4191 64.5124 77.7551 65.2126C77.0911 65.9129 76.5766 66.741 76.2431 67.6465C75.9096 68.552 75.7639 69.516 75.8151 70.4796L77.8042 116.193L77.842 144.021C76.6696 144.518 75.6787 145.364 75.0039 146.444C74.3291 147.524 74.0032 148.786 74.0703 150.057C74.1374 151.329 74.5943 152.549 75.3791 153.552C76.1638 154.555 77.2383 155.292 78.4565 155.663C79.6746 156.034 80.9775 156.021 82.1881 155.626C83.3986 155.231 84.4581 154.472 85.2227 153.454C85.9872 152.435 86.4198 151.206 86.4615 149.934C86.5032 148.661 86.1521 147.406 85.4559 146.34L90.5828 114.016Z" fill="#FFB6B6"/>
<path d="M164.689 170.973C164.689 170.973 163.815 186.697 163.413 195.665H133.315C132.695 187.504 132.487 181.508 132.487 181.508L130.84 195.665H100.417L98.531 169.446L107.646 146.853C107.646 146.853 157.04 143.427 161.622 147.773C166.201 152.116 164.689 170.973 164.689 170.973Z" fill="#231F20"/>
<path d="M138.073 38.7053C147.153 38.7053 154.514 31.3447 154.514 22.265C154.514 13.1853 147.153 5.82471 138.073 5.82471C128.994 5.82471 121.633 13.1853 121.633 22.265C121.633 31.3447 128.994 38.7053 138.073 38.7053Z" fill="#FFB6B6"/>
<path d="M157.236 16.9229C155.548 17.6929 154.453 23.2696 153.126 21.9731C151.799 20.6767 151.888 18.9895 150.098 18.5111C148.653 18.1231 147.098 18.5665 145.78 19.2659C145.545 19.3893 145.316 19.5235 145.094 19.657C144.947 19.5589 144.801 19.4666 144.644 19.3815C143.465 18.7505 142.089 18.5957 140.8 18.949C141.819 19.2903 142.705 19.9434 143.332 20.8158C142.891 21.1115 142.444 21.4078 141.987 21.6705C138.169 23.8739 132.736 19.0826 128.717 17.2826C131.234 22.0068 129.995 23.9632 127.809 28.849L127.733 29.1272C127.857 27.9027 124.068 26.9902 124.288 28.7139C124.444 29.9378 125.503 32.6581 126.096 33.7387C121.871 28.8527 118.983 22.8736 119.592 16.7056C119.725 15.4099 119.685 14.0428 120.353 12.9183C121.022 11.7995 122.417 11.0144 123.651 11.441C123.547 9.47397 123.977 7.51538 124.897 5.77345C125.816 4.03152 127.191 2.57135 128.874 1.54819C130.557 0.525025 132.486 -0.0228885 134.456 -0.0373056C136.426 -0.0517227 138.363 0.467899 140.061 1.46631C141.639 2.39214 142.956 3.70157 144.402 4.83105C145.848 5.96052 147.515 6.94504 149.349 7.03828C150.512 7.09439 151.778 6.81038 152.777 7.41289C153.935 8.112 154.133 9.57572 154.307 10.9842C153.274 11.086 152.296 11.4933 151.496 12.1542C152.564 12.0452 153.64 12.2759 154.569 12.8134C154.587 12.8214 154.604 12.831 154.62 12.8421C155.232 15.1698 155.169 15.6858 157.236 16.9229Z" fill="#231F20"/>
<path d="M100.49 154.807C114.49 138.419 109.762 117.575 104.205 96.5348L105.262 65.4513C105.314 63.9266 105.732 62.4367 106.481 61.1075C107.23 59.7783 108.287 58.6488 109.565 57.8144L123.857 48.4771L129.42 40.4341L144.754 41.9675L153.257 50.96L162.67 58.1456C165.033 59.9497 166.831 62.392 167.852 65.1844C168.873 67.9768 169.075 71.0029 168.433 73.906L159.426 114.64C159.426 114.64 163.193 135.756 160.894 138.089C158.596 140.421 152.673 138.09 157.37 140.708C163.006 143.85 168.132 143.27 165.279 146.122C162.427 148.975 166.037 152.941 166.037 152.941L100.49 154.807Z" fill="#362FD9"/>
<path d="M106.476 178.624L108.81 161.995L99.4967 159.336L97.6546 177.005C96.8839 177.712 96.3255 178.619 96.0424 179.626C95.7592 180.633 95.7625 181.698 96.0518 182.703C96.3411 183.708 96.9049 184.612 97.68 185.314C98.455 186.016 99.4105 186.488 100.439 186.677C101.468 186.866 102.528 186.764 103.502 186.383C104.476 186.001 105.324 185.356 105.951 184.52C106.578 183.683 106.96 182.688 107.053 181.646C107.145 180.605 106.945 179.558 106.476 178.624Z" fill="#FFB6B6"/>
<path d="M124.206 51.4746C124.206 51.4746 97.6973 60.1025 97.0652 66.4154C96.4331 72.7283 96.6427 76.5928 93.8448 101.854L93.9922 169.902C93.9922 169.902 111.765 173.707 109.942 169.639C108.12 165.57 108.756 163.656 108.756 163.656C108.756 163.656 112.566 162.152 111.612 157.375C110.658 152.598 115.442 128.925 115.442 128.925L118.461 86.4684L124.206 51.4746Z" fill="#362FD9"/>
<path d="M156.893 177.743L155.651 160.997L165.118 158.953L165.801 176.704C166.524 177.46 167.022 178.402 167.238 179.425C167.455 180.448 167.382 181.511 167.028 182.495C166.674 183.479 166.052 184.344 165.232 184.994C164.413 185.644 163.429 186.052 162.39 186.173C161.352 186.295 160.3 186.124 159.353 185.68C158.406 185.236 157.602 184.536 157.031 183.661C156.46 182.785 156.144 181.767 156.12 180.721C156.095 179.676 156.363 178.644 156.893 177.743Z" fill="#FFB6B6"/>
<path d="M147.511 49.707C147.511 49.707 173.4 60.0492 173.618 66.3899C173.836 72.7306 173.374 76.5732 174.515 101.964L169.92 169.856C169.92 169.856 151.936 172.491 154.021 168.551C156.106 164.61 155.596 162.659 155.596 162.659C155.596 162.659 151.892 160.909 153.156 156.205C154.42 151.5 151.195 127.565 151.195 127.565L150.957 85.0015L147.511 49.707Z" fill="#362FD9"/>
</g>
<defs>
<clipPath id="clip0_225_1143">
<rect width="257" height="195.665" fill="white"/>
</clipPath>
</defs>
</svg>
