<svg width="13" height="12" viewBox="0 0 13 12" fill="none" xmlns="http://www.w3.org/2000/svg">
<path d="M11.7379 11.7662C11.7411 11.3705 11.8632 10.985 12.0883 10.6598C12.3134 10.3346 12.6311 10.0847 13 9.94271C8.68821 7.63066 4.94229 4.39024 2.03205 0.454819C1.94365 0.335919 1.83273 0.235612 1.7056 0.159624C1.57847 0.0836352 1.43764 0.0334531 1.29114 0.0119454C1.14464 -0.00956222 0.995342 -0.00197226 0.851771 0.0342752C0.7082 0.0705226 0.573166 0.134723 0.454381 0.223207C0.335596 0.311691 0.235387 0.422723 0.159472 0.549973C0.083558 0.677223 0.0334263 0.818193 0.0119396 0.964837C-0.0314548 1.261 0.0444613 1.56229 0.222989 1.80242C3.29098 5.94977 7.22836 9.37497 11.7589 11.8378C11.7463 11.8125 11.7379 11.7872 11.7379 11.7662Z" fill="white"/>
</svg>
