<svg width="66" height="77" viewBox="0 0 66 77" fill="none" xmlns="http://www.w3.org/2000/svg">
<path d="M65.757 56.7671C65.757 57.6284 65.7395 58.5177 65.7115 59.4175C65.6897 61.2032 65.5413 62.985 65.2673 64.7497C65.0151 66.2373 64.5436 67.6791 63.8682 69.0281C63.2152 70.3294 62.3592 71.5184 61.3324 72.5502C60.304 73.5819 59.1245 74.4508 57.8347 75.127C56.4913 75.7984 55.0573 76.2702 53.578 76.5275C51.8352 76.8048 50.0749 76.9569 48.3104 76.9826C47.7438 76.9826 47.1772 76.9826 46.6105 77.0001H45.5857C44.5084 77.0001 21.2696 77.0001 20.1923 77.0001H19.1675C18.6008 77.0001 18.0342 77.0001 17.4676 76.9826C15.7031 76.9569 13.9428 76.8048 12.2 76.5275C10.7207 76.2702 9.28669 75.7984 7.94331 75.127C6.65347 74.4508 5.47405 73.5819 4.44559 72.5502C3.41884 71.5184 2.56284 70.3294 1.90975 69.0281C1.22712 67.6803 0.748526 66.2384 0.48968 64.7497C0.216404 62.9897 0.0679635 61.2125 0.0454703 59.4315C0.0174886 58.5422 0.00349771 57.6424 0 56.7811V20.2155C0 19.3542 0.0174886 18.4649 0.0454703 17.5651C0.0673027 15.7794 0.215745 13.9975 0.48968 12.2329C0.741889 10.7453 1.21339 9.30348 1.88877 7.95454C2.54185 6.65317 3.39786 5.46423 4.42461 4.43242C5.45306 3.40072 6.63249 2.53182 7.92232 1.85559C9.2657 1.1842 10.6997 0.712427 12.179 0.455146C13.9218 0.177815 15.6821 0.0257104 17.4466 0C18.0132 0 18.5799 0 19.1465 0H20.1713C21.2486 0 44.4874 0 45.5647 0H46.5895C47.1562 0 47.7228 0 48.2894 0C50.0539 0.0257104 51.8142 0.177815 53.557 0.455146C55.0363 0.712427 56.4703 1.1842 57.8137 1.85559C59.1035 2.53182 60.283 3.40072 61.3114 4.43242C62.3382 5.46423 63.1942 6.65317 63.8473 7.95454C64.5226 9.30348 64.9941 10.7453 65.2463 12.2329C65.5196 13.9929 65.6681 15.7701 65.6906 17.5511C65.7185 18.4404 65.7325 19.3402 65.736 20.2015L65.757 56.7671Z" fill="#231F20"/>
</svg>
