<svg width="4" height="3" viewBox="0 0 4 3" fill="none" xmlns="http://www.w3.org/2000/svg">
<path d="M3.29595 0.996619C2.38804 0.706415 1.4992 0.370391 0.62562 0C0.684064 0.176093 0.713694 0.360487 0.71336 0.546043C0.710566 0.819971 0.644758 1.08957 0.521045 1.33393C0.397332 1.57828 0.219039 1.79082 0 1.95506C0.874851 2.32163 1.76496 2.65256 2.67033 2.94786C2.76797 2.97795 2.86953 2.99339 2.9717 2.99368C3.21576 2.9951 3.45227 2.90907 3.6385 2.75115C3.82472 2.59324 3.94835 2.37384 3.98706 2.13262C4.02576 1.89141 3.97698 1.6443 3.84953 1.43595C3.72208 1.2276 3.52437 1.07177 3.29214 0.996619H3.29595Z" fill="#362FD9"/>
</svg>
