<svg width="19" height="19" viewBox="0 0 19 19" fill="none" xmlns="http://www.w3.org/2000/svg">
<path d="M13.1576 2.36714C13.0656 2.27499 12.9564 2.20187 12.8362 2.15198C12.716 2.1021 12.5871 2.07642 12.4569 2.07642C12.3268 2.07642 12.1979 2.1021 12.0777 2.15198C11.9574 2.20187 11.8482 2.27499 11.7563 2.36714L5.17756 8.94589C5.10417 9.01913 5.04595 9.10613 5.00622 9.2019C4.96649 9.29767 4.94604 9.40033 4.94604 9.50402C4.94604 9.6077 4.96649 9.71037 5.00622 9.80614C5.04595 9.90191 5.10417 9.9889 5.17756 10.0621L11.7563 16.6409C12.1442 17.0288 12.7696 17.0288 13.1576 16.6409C13.5455 16.253 13.5455 15.6276 13.1576 15.2396L7.4259 9.50006L13.1655 3.76048C13.5455 3.38048 13.5455 2.74714 13.1576 2.36714Z" fill="#231F20" stroke="#231F20" stroke-width="0.2"/>
</svg>
