<svg width="270" height="273" viewBox="0 0 270 273" fill="none" xmlns="http://www.w3.org/2000/svg">
<g clip-path="url(#clip0_251_1210)">
<path d="M68.1088 261.022C67.8108 261.036 67.5159 260.958 67.2639 260.798C67.0119 260.639 66.8151 260.406 66.7 260.13C66.585 259.855 66.5573 259.551 66.6207 259.26C66.6841 258.969 66.8356 258.704 67.0546 258.501C67.0913 258.355 67.1176 258.251 67.1543 258.105C66.8692 257.381 66.3743 256.758 65.733 256.317C65.0917 255.876 64.3333 255.636 63.5549 255.629C62.7766 255.621 62.0138 255.847 61.3643 256.276C60.7148 256.705 60.2082 257.318 59.9095 258.037C58.1857 262.072 55.9546 266.249 57.0641 270.693C49.7352 255.16 52.2276 235.839 63.0588 222.556C66.0527 220.906 68.4792 217.976 69.111 214.574C67.6293 215.076 65.7819 213.871 66.896 212.31C67.3788 211.714 67.8664 211.122 68.3493 210.525C62.7208 204.531 56.0146 213.952 62.2099 222.042C60.1833 224.583 58.4278 227.329 56.9721 230.235C57.3083 227.149 56.9071 224.028 55.8015 221.127C54.681 218.424 52.5808 216.148 50.7313 213.811C48.4826 210.963 43.8544 212.277 43.5518 215.89C45.6271 216.572 45.8967 219.57 43.5228 219.98C44.1446 226.702 48.5361 232.88 54.5844 235.828C52.3508 242.095 51.4786 248.766 52.026 255.397C50.9584 247.647 42.6401 245.767 36.826 242.687C36.456 242.45 36.0249 242.325 35.5853 242.329C35.1457 242.332 34.7166 242.463 34.3504 242.707C33.9842 242.95 33.6967 243.294 33.523 243.698C33.3493 244.102 33.2968 244.548 33.3721 244.981C34.1745 245.307 34.9426 245.712 35.665 246.19C36.0034 246.418 36.2632 246.745 36.4088 247.126C36.5543 247.507 36.5784 247.923 36.4778 248.319C36.3772 248.714 36.1568 249.068 35.8469 249.334C35.5369 249.599 35.1526 249.761 34.7465 249.8C37.6771 257.053 45.2541 261.923 53.0361 261.896C53.784 265.146 54.8675 268.309 56.2693 271.335H67.8194C67.8608 271.206 67.898 271.074 67.9353 270.946C66.8662 271.013 65.7929 270.949 64.7393 270.755C67.5678 267.406 69.7553 265.698 68.1091 261.023L68.1088 261.022Z" fill="#F2F2F2"/>
<path d="M171.08 261.022C171.378 261.036 171.673 260.958 171.925 260.798C172.177 260.639 172.373 260.406 172.489 260.13C172.604 259.855 172.631 259.551 172.568 259.26C172.504 258.969 172.353 258.704 172.134 258.501C172.097 258.355 172.071 258.251 172.034 258.105C172.319 257.381 172.814 256.758 173.456 256.317C174.097 255.876 174.855 255.636 175.634 255.629C176.412 255.621 177.175 255.847 177.824 256.276C178.474 256.705 178.98 257.318 179.279 258.037C181.003 262.072 183.234 266.249 182.124 270.693C189.453 255.16 186.961 235.839 176.13 222.556C173.136 220.906 170.709 217.976 170.078 214.574C171.559 215.076 173.407 213.871 172.293 212.31C171.81 211.714 171.322 211.122 170.839 210.525C176.468 204.531 183.174 213.952 176.979 222.042C179.005 224.583 180.761 227.329 182.216 230.235C181.88 227.149 182.281 224.028 183.387 221.127C184.508 218.424 186.608 216.148 188.457 213.811C190.706 210.963 195.334 212.277 195.637 215.89C193.561 216.572 193.292 219.57 195.666 219.98C195.044 226.702 190.653 232.88 184.604 235.828C186.838 242.095 187.71 248.766 187.163 255.397C188.23 247.647 196.548 245.767 202.363 242.687C202.733 242.45 203.164 242.325 203.603 242.329C204.043 242.332 204.472 242.463 204.838 242.707C205.204 242.95 205.492 243.294 205.666 243.698C205.839 244.102 205.892 244.548 205.817 244.981C205.014 245.307 204.246 245.712 203.524 246.19C203.185 246.418 202.925 246.745 202.78 247.126C202.634 247.507 202.61 247.923 202.711 248.319C202.811 248.714 203.032 249.068 203.342 249.334C203.652 249.599 204.036 249.761 204.442 249.8C201.511 257.053 193.934 261.923 186.152 261.896C185.405 265.146 184.321 268.309 182.919 271.335H171.369C171.328 271.206 171.291 271.074 171.253 270.946C172.322 271.013 173.396 270.949 174.449 270.755C171.621 267.406 169.434 265.698 171.08 261.022Z" fill="#F2F2F2"/>
<path d="M175.362 262.737L170.388 263.868L163.656 245.221L170.997 243.551L175.362 262.737Z" fill="#FFB6B6"/>
<path d="M176.719 267.886L161.423 271.366L161.378 271.173C161.019 269.594 161.302 267.937 162.164 266.566C163.027 265.196 164.398 264.224 165.977 263.864L168.289 261.109L173.985 262.043L175.32 261.739L176.719 267.886Z" fill="#231F20"/>
<path d="M255.602 171.843L258.337 176.149L243.028 188.747L238.992 182.391L255.602 171.843Z" fill="#FFB6B6"/>
<path d="M259.998 168.839L268.408 182.081L268.24 182.188C266.873 183.056 265.217 183.345 263.637 182.992C262.056 182.64 260.681 181.674 259.813 180.307L256.441 179.053L255.41 173.374L254.676 172.219L259.998 168.839Z" fill="#231F20"/>
<path d="M97.0464 125.804L95.8178 118.683L114.495 110.249L118.529 103.108C118.399 102.481 118.444 101.83 118.66 101.228C118.877 100.626 119.255 100.095 119.754 99.6938C120.253 99.293 120.853 99.0379 121.488 98.9567C122.123 98.8756 122.768 98.9715 123.352 99.2339C123.936 99.4962 124.436 99.9149 124.796 100.444C125.157 100.972 125.365 101.59 125.397 102.23C125.428 102.869 125.282 103.504 124.975 104.066C124.669 104.628 124.212 105.094 123.657 105.412L117.022 115.671L97.0464 125.804Z" fill="#A0616A"/>
<path d="M91.3689 119.983L99.7799 115.687L102.006 124.047L96.1641 128.378L91.3689 119.983Z" fill="#6C63FF"/>
<path d="M72.495 262.09L77.5805 262.089L79.9999 242.473L72.4938 242.474L72.495 262.09Z" fill="#A0616A"/>
<path d="M79.2727 262.547V259.1L77.9358 259.181L72.4933 259.504L71.2337 259.581L70.2708 271.128L70.2192 271.747H73.8303L73.9464 271.132L74.4708 268.338L75.825 271.132L76.1216 271.747H85.6954C86.2651 271.743 86.8103 271.515 87.2128 271.112C87.6152 270.709 87.8424 270.163 87.8448 269.593C88.2489 267.706 80.2873 263.626 79.2727 262.547Z" fill="#231F20"/>
<path d="M12.1264 184.241L10.9409 189.187L29.4525 196.113L31.202 188.814L12.1264 184.241Z" fill="#A0616A"/>
<path d="M10.5034 190.725L13.8561 191.529L14.0884 190.21L15.0439 184.843L15.2623 183.6L4.25814 179.971L3.66817 179.776L2.8262 183.288L3.39694 183.544L5.99195 184.706L2.95892 185.371L2.29195 185.516L0.0597445 194.826C-0.0695804 195.381 0.0251891 195.964 0.323492 196.45C0.621796 196.935 1.09954 197.283 1.65297 197.418C3.39397 198.251 9.21756 191.46 10.5034 190.725Z" fill="#231F20"/>
<path d="M80.3582 135.134L73.8121 132.074L60.758 147.872L52.8065 149.883C52.2362 149.592 51.5967 149.465 50.9586 149.515C50.3205 149.565 49.7086 149.79 49.1906 150.166C48.6725 150.542 48.2684 151.054 48.0229 151.645C47.7775 152.236 47.7002 152.884 47.7996 153.516C47.899 154.148 48.1712 154.741 48.5862 155.228C49.0012 155.715 49.5429 156.078 50.1513 156.277C50.7597 156.476 51.4112 156.503 52.0339 156.354C52.6565 156.206 53.2261 155.889 53.6797 155.437L65.3232 151.737L80.3582 135.134Z" fill="#A0616A"/>
<path d="M173.163 76.6529C171.776 76.6529 170.419 76.2414 169.266 75.4706C168.112 74.6997 167.213 73.604 166.682 72.322C166.151 71.0401 166.012 69.6295 166.282 68.2686C166.553 66.9077 167.221 65.6576 168.203 64.6764C169.184 63.6953 170.434 63.0271 171.795 62.7564C173.156 62.4857 174.566 62.6246 175.848 63.1556C177.13 63.6866 178.226 64.5858 178.997 65.7396C179.768 66.8933 180.179 68.2497 180.179 69.6372C180.177 71.4973 179.437 73.2805 178.122 74.5958C176.807 75.911 175.023 76.6508 173.163 76.6529ZM173.163 63.4267C171.935 63.4267 170.734 63.7909 169.713 64.4734C168.692 65.1558 167.896 66.1257 167.426 67.2606C166.955 68.3954 166.832 69.6441 167.072 70.8489C167.312 72.0536 167.903 73.1602 168.772 74.0288C169.64 74.8973 170.747 75.4888 171.952 75.7285C173.156 75.9681 174.405 75.8451 175.54 75.375C176.675 74.905 177.645 74.1089 178.327 73.0876C179.01 72.0663 179.374 70.8656 179.374 69.6372C179.372 67.9907 178.717 66.4121 177.553 65.2478C176.388 64.0835 174.81 63.4286 173.163 63.4267Z" fill="#E6E6E6"/>
<path d="M172.668 72.2801C172.654 72.2801 172.64 72.2797 172.626 72.279C172.501 72.273 172.38 72.2401 172.269 72.1826C172.158 72.1251 172.061 72.0444 171.985 71.9459L170.88 70.5251C170.81 70.4354 170.758 70.3329 170.728 70.2233C170.698 70.1137 170.69 69.9993 170.704 69.8865C170.718 69.7738 170.754 69.6649 170.81 69.5661C170.867 69.4673 170.942 69.3806 171.031 69.3108L171.071 69.2799C171.161 69.21 171.263 69.1586 171.373 69.1284C171.483 69.0982 171.597 69.09 171.71 69.104C171.823 69.1181 171.932 69.1543 172.03 69.2105C172.129 69.2667 172.216 69.3419 172.286 69.4316C172.341 69.5033 172.412 69.5621 172.493 69.6039C172.573 69.6458 172.662 69.6697 172.753 69.6742C172.844 69.6786 172.934 69.6634 173.018 69.6295C173.103 69.5957 173.179 69.5441 173.241 69.4782L175.485 67.1092C175.643 66.9428 175.861 66.8459 176.09 66.8397C176.319 66.8334 176.542 66.9184 176.709 67.076L176.745 67.111C176.828 67.1892 176.894 67.2828 176.94 67.3866C176.987 67.4903 177.012 67.6022 177.015 67.7158C177.018 67.8294 176.999 67.9425 176.958 68.0486C176.918 68.1547 176.857 68.2518 176.778 68.3343L173.296 72.0099C173.215 72.0953 173.118 72.1633 173.01 72.2097C172.902 72.2562 172.786 72.2802 172.668 72.2801Z" fill="#E6E6E6"/>
<path d="M138.141 161.592C136.753 161.592 135.397 161.181 134.243 160.41C133.09 159.639 132.19 158.543 131.659 157.261C131.128 155.98 130.989 154.569 131.26 153.208C131.531 151.847 132.199 150.597 133.18 149.616C134.161 148.635 135.411 147.967 136.772 147.696C138.133 147.425 139.544 147.564 140.826 148.095C142.108 148.626 143.203 149.525 143.974 150.679C144.745 151.833 145.157 153.189 145.157 154.577C145.155 156.437 144.415 158.22 143.099 159.535C141.784 160.85 140.001 161.59 138.141 161.592ZM138.141 148.366C136.913 148.366 135.712 148.73 134.691 149.413C133.669 150.095 132.873 151.065 132.403 152.2C131.933 153.335 131.81 154.584 132.05 155.788C132.289 156.993 132.881 158.1 133.749 158.968C134.618 159.837 135.725 160.428 136.929 160.668C138.134 160.908 139.383 160.785 140.518 160.314C141.652 159.844 142.622 159.048 143.305 158.027C143.987 157.006 144.351 155.805 144.351 154.577C144.35 152.93 143.695 151.352 142.53 150.187C141.366 149.023 139.788 148.368 138.141 148.366Z" fill="#E6E6E6"/>
<path d="M137.646 157.22C137.632 157.22 137.618 157.219 137.604 157.218C137.479 157.212 137.357 157.18 137.247 157.122C137.136 157.065 137.039 156.984 136.962 156.885L135.857 155.465C135.788 155.375 135.736 155.272 135.706 155.163C135.676 155.053 135.668 154.939 135.682 154.826C135.696 154.713 135.732 154.604 135.788 154.506C135.844 154.407 135.919 154.32 136.009 154.25L136.049 154.219C136.138 154.149 136.241 154.098 136.351 154.068C136.46 154.038 136.575 154.029 136.687 154.043C136.8 154.058 136.909 154.094 137.008 154.15C137.107 154.206 137.193 154.281 137.263 154.371C137.319 154.443 137.39 154.502 137.47 154.543C137.551 154.585 137.64 154.609 137.73 154.614C137.821 154.618 137.912 154.603 137.996 154.569C138.08 154.535 138.156 154.484 138.219 154.418L140.463 152.049C140.621 151.882 140.838 151.785 141.068 151.779C141.297 151.773 141.519 151.858 141.686 152.015L141.723 152.05C141.805 152.129 141.872 152.222 141.918 152.326C141.964 152.43 141.99 152.542 141.993 152.655C141.996 152.769 141.977 152.882 141.936 152.988C141.895 153.094 141.834 153.191 141.756 153.274L138.274 156.949C138.193 157.035 138.096 157.103 137.988 157.149C137.88 157.196 137.763 157.22 137.646 157.22Z" fill="#E6E6E6"/>
<path d="M61.2525 66.9913C59.865 66.9913 58.5086 66.5798 57.3549 65.8089C56.2011 65.038 55.3019 63.9423 54.7709 62.6604C54.2399 61.3784 54.101 59.9678 54.3717 58.6069C54.6424 57.246 55.3106 55.996 56.2917 55.0148C57.2729 54.0336 58.5229 53.3655 59.8839 53.0948C61.2448 52.8241 62.6554 52.963 63.9373 53.494C65.2193 54.025 66.315 54.9242 67.0858 56.0779C67.8567 57.2316 68.2682 58.5881 68.2682 59.9756C68.2661 61.8356 67.5263 63.6189 66.2111 64.9341C64.8958 66.2494 63.1126 66.9892 61.2525 66.9913ZM61.2525 53.7651C60.0242 53.7651 58.8235 54.1293 57.8022 54.8118C56.7808 55.4942 55.9848 56.4641 55.5147 57.599C55.0447 58.7338 54.9217 59.9825 55.1613 61.1872C55.401 62.392 55.9925 63.4986 56.861 64.3671C57.7296 65.2357 58.8362 65.8272 60.0409 66.0668C61.2456 66.3065 62.4944 66.1835 63.6292 65.7134C64.764 65.2434 65.734 64.4473 66.4164 63.426C67.0988 62.4047 67.4631 61.2039 67.4631 59.9756C67.4612 58.3291 66.8063 56.7505 65.642 55.5862C64.4777 54.4219 62.8991 53.7669 61.2525 53.7651Z" fill="#E6E6E6"/>
<path d="M60.7574 62.619C60.7433 62.619 60.7292 62.6185 60.7151 62.6179C60.5906 62.6118 60.4688 62.579 60.3582 62.5215C60.2475 62.464 60.1506 62.3832 60.0741 62.2848L58.9689 60.8639C58.8991 60.7743 58.8477 60.6717 58.8175 60.5621C58.7874 60.4526 58.7791 60.3382 58.7932 60.2254C58.8073 60.1126 58.8434 60.0037 58.8996 59.905C58.9558 59.8062 59.0309 59.7194 59.1206 59.6497L59.1603 59.6187C59.25 59.5489 59.3526 59.4974 59.4622 59.4672C59.5718 59.4371 59.6862 59.4288 59.799 59.4429C59.9118 59.457 60.0207 59.4932 60.1195 59.5494C60.2183 59.6056 60.3051 59.6807 60.3748 59.7705C60.4307 59.8422 60.5013 59.9009 60.5819 59.9428C60.6626 59.9846 60.7513 60.0086 60.842 60.013C60.9328 60.0174 61.0234 60.0022 61.1077 59.9684C61.192 59.9346 61.268 59.8829 61.3305 59.817L63.5744 57.4481C63.7324 57.2817 63.9499 57.1848 64.1792 57.1785C64.4086 57.1723 64.631 57.2573 64.7978 57.4148L64.8346 57.4499C64.9171 57.528 64.9834 57.6217 65.0297 57.7254C65.076 57.8292 65.1014 57.9411 65.1045 58.0547C65.1076 58.1683 65.0882 58.2814 65.0476 58.3875C65.0069 58.4936 64.9458 58.5907 64.8676 58.6731L61.3853 62.3487C61.3045 62.4341 61.2072 62.5021 61.0992 62.5486C60.9913 62.5951 60.875 62.619 60.7574 62.619Z" fill="#E6E6E6"/>
<path d="M117.42 187.677C101.152 187.677 82.455 169.624 65.9132 178.202C15.8291 204.172 22.7235 160.715 8.33472 144.552L8.8071 143.605C24.6834 157.841 44.5056 169.423 66.1307 177.1C85.6731 184.038 105.362 187.252 123.062 186.404L123.092 187.543C121.223 187.633 119.332 187.678 117.42 187.677Z" fill="#F2F2F2"/>
<path d="M95.1038 65.6179C96.9819 65.6179 98.5044 63.5764 98.5044 61.058C98.5044 58.5396 96.9819 56.498 95.1038 56.498C93.2258 56.498 91.7033 58.5396 91.7033 61.058C91.7033 63.5764 93.2258 65.6179 95.1038 65.6179Z" fill="#E6E6E6"/>
<path d="M134.38 136.754C132.825 137.79 131.234 135.324 132.819 134.335C134.373 133.299 135.964 135.764 134.38 136.754Z" fill="#E6E6E6"/>
<path d="M125.431 53.7537C127.877 53.7537 129.859 51.7712 129.859 49.3256C129.859 46.88 127.877 44.8975 125.431 44.8975C122.986 44.8975 121.003 46.88 121.003 49.3256C121.003 51.7712 122.986 53.7537 125.431 53.7537Z" fill="#FF6584"/>
<path opacity="0.3" d="M140.919 73.591L166.116 0L138.448 72.7101C138.311 72.8827 138.218 73.0854 138.175 73.3014C138.132 73.5175 138.141 73.7406 138.202 73.9524C138.263 74.1641 138.373 74.3583 138.524 74.5189C138.674 74.6795 138.861 74.8019 139.069 74.8758C139.276 74.9498 139.498 74.9732 139.716 74.9442C139.935 74.9152 140.143 74.8345 140.324 74.7089C140.505 74.5833 140.653 74.4163 140.757 74.2219C140.86 74.0275 140.916 73.8112 140.919 73.591Z" fill="#F0F0F0"/>
<path d="M115.486 163.246C117.865 163.246 119.794 161.318 119.794 158.938C119.794 156.559 117.865 154.63 115.486 154.63C113.106 154.63 111.177 156.559 111.177 158.938C111.177 161.318 113.106 163.246 115.486 163.246Z" fill="#F2F2F2"/>
<path d="M73.7587 160.582C73.7587 160.582 63.0183 167.575 65.8583 172.223C65.9562 172.383 53.0289 189.457 53.0289 189.457L28.6251 187.907L27.7653 196.075L49.4913 202.368C49.4913 202.368 54.8063 206.272 58.9123 201.97C63.0183 197.668 76.6949 184.493 76.6949 184.493L77.3546 211.093L70.489 247.952L80.7401 247.302L90.7176 210.323L94.4005 168.435L73.7587 160.582Z" fill="#231F20"/>
<path d="M81.4093 118.607L76.8928 122.03L71.7448 133.017L76.695 139.74C76.695 139.74 80.859 146.957 74.1939 153.946C67.5289 160.934 62.4108 168.399 67.7455 168.132C73.0803 167.866 94.6867 178.855 94.8288 169.852C94.971 160.848 95.2587 153.946 95.2587 153.946L100.923 139.578C100.923 139.578 104.298 131.007 101.929 128.441C99.5593 125.876 96.3867 122.597 96.3867 122.597L90.6173 116.828H85.4078L81.4093 118.607Z" fill="#6C63FF"/>
<path d="M89.8404 97.4967C99.9729 103.263 91.6546 118.476 81.3332 113.058C71.201 107.293 79.5193 92.0796 89.8404 97.4967Z" fill="#A0616A"/>
<path d="M95.2586 100.694C94.5486 101.617 93.0653 101.184 90.1605 101.843C90.1669 100.858 90.0531 99.8766 89.8218 98.9196C89.6057 100.105 89.132 101.228 88.4343 102.21C85.912 102.489 89.004 110.152 87.7126 115.786C86.0486 103.9 82.5488 107.014 84.3169 109.372C85.4488 110.881 84.6942 115.408 81.2984 113.145C75.6957 115.807 67.7156 102.58 76.5599 96.3767C76.4019 93.0236 80.1329 92.494 82.4303 93.5249C88.006 89.3714 94.3762 94.6934 95.2586 100.694Z" fill="#231F20"/>
<path d="M69.2608 92.021C67.005 105.891 54.9136 89.4702 49.2284 103.12C47.4408 108.063 50.5078 111.599 52.4477 115.702C52.8905 119.073 48.504 120.784 48.0445 123.888C47.9167 131.004 59.3966 130.568 62.6059 126.079C65.9035 121.379 61.9657 115.074 63.9478 110.029C66.7336 103.026 78.0629 102.974 79.0499 94.8261C77.1384 92.1041 71.9986 88.9865 69.2608 92.021Z" fill="#231F20"/>
<path d="M78.3992 93.3759C78.3254 93.407 78.2516 93.4381 78.1855 93.473H78.1816C78.1195 93.5041 78.0574 93.5352 77.9952 93.5701C77.9874 93.574 77.9836 93.5779 77.9758 93.5818C77.8942 93.5041 77.8127 93.4264 77.7272 93.3487C77.7051 93.4753 77.7104 93.6051 77.7427 93.7294L77.7544 93.776C77.8321 93.8576 77.9136 93.9353 77.9991 94.0168C78.0768 93.9586 78.1506 93.8964 78.2283 93.8382C78.2749 93.7993 78.3215 93.7605 78.372 93.7216C78.3798 93.6206 78.3914 93.5041 78.4031 93.3759L78.3992 93.3759ZM80.7374 89.0567C79.0051 88.6605 78.4458 90.925 78.2787 92.0165C77.6495 88.0546 75.0316 89.3014 75.9366 92.0048C76.2251 92.8052 76.679 93.5358 77.2689 94.1489C77.3504 94.2421 77.4398 94.3353 77.533 94.4286C77.4281 94.9723 77.9564 94.8325 78.6711 94.3315C79.1988 93.9561 79.6868 93.5279 80.1276 93.0535C81.5531 91.5581 82.664 89.5578 80.7374 89.0567ZM80.7918 91.2862C80.2574 91.9754 79.6577 92.6115 79.0012 93.1856C78.7954 93.3721 78.5856 93.5507 78.372 93.7216C78.3681 93.7566 78.3681 93.7877 78.3642 93.8149C78.3492 93.8526 78.331 93.889 78.3098 93.9236C78.0923 94.3159 77.8476 94.1023 77.7544 93.776C77.7466 93.7643 77.735 93.7527 77.7272 93.7411C77.4168 93.4204 77.1468 93.063 76.9232 92.6768C75.319 89.8957 77.902 88.0041 77.7738 93.1973C77.7502 93.2449 77.7345 93.2961 77.7272 93.3487C77.7051 93.4753 77.7104 93.6051 77.7427 93.7294L77.7544 93.776C77.8321 93.8576 77.9136 93.9353 77.9991 94.0168C78.0768 93.9586 78.1506 93.8964 78.2283 93.8382C78.2749 93.7993 78.3215 93.7605 78.372 93.7216C78.3798 93.6206 78.3914 93.5041 78.4031 93.3759V93.3721C78.504 92.3311 78.7799 90.4589 79.2887 89.9501C80.4073 89.0917 81.8561 90.02 80.7918 91.2862ZM78.3992 93.3759C78.3254 93.407 78.2516 93.4381 78.1855 93.473H78.1816C78.1195 93.5041 78.0574 93.5352 77.9952 93.5701C77.9874 93.574 77.9836 93.5779 77.9758 93.5818C77.8942 93.5041 77.8127 93.4264 77.7272 93.3487C77.7051 93.4753 77.7104 93.6051 77.7427 93.7294L77.7544 93.776C77.8321 93.8576 77.9136 93.9353 77.9991 94.0168C78.0768 93.9586 78.1506 93.8964 78.2283 93.8382C78.2749 93.7993 78.3215 93.7605 78.372 93.7216C78.3798 93.6206 78.3914 93.5041 78.4031 93.3759L78.3992 93.3759Z" fill="#231F20"/>
<path d="M172.051 169.846L168.309 179.605L150.754 214.233L166.18 254.516L174.141 252.414L167.579 214.233L186.404 191.36L208.761 206.523C208.761 206.523 218.676 214.263 222.448 206.925C226.219 199.587 250.626 183.98 250.626 183.98L244.588 177.539L216.482 190.692L197.083 163.387L172.051 169.846Z" fill="#231F20"/>
<path d="M190.934 123.812L184.774 117.193L174.207 115.74L161.259 124.804L161.389 134.837L167.79 158.479C167.79 158.479 165.352 175.464 172.162 175.294C178.971 175.124 182.683 171.729 185.457 172.42C188.23 173.111 200.02 176.052 200.767 172.971C201.514 169.89 205.486 172.096 205.312 169.182C205.137 166.267 194.56 145.259 194.56 145.259L197.19 124.249L190.934 123.812Z" fill="#6C63FF"/>
<path d="M229.938 93.3458C229.993 93.8947 229.927 94.449 229.745 94.9696C229.563 95.4903 229.269 95.9646 228.883 96.3593C228.498 96.7539 228.03 97.0593 227.514 97.2538C226.998 97.4483 226.445 97.5273 225.895 97.4852L211.729 124.427L207.926 118.588L222.406 93.1612C222.538 92.2419 223.002 91.403 223.712 90.8034C224.421 90.2037 225.325 89.8851 226.254 89.9079C227.182 89.9306 228.07 90.2932 228.749 90.9268C229.428 91.5604 229.851 92.4212 229.938 93.3458Z" fill="#FFB6B6"/>
<path d="M185.341 128.821C185.341 128.821 184.779 133.613 190.174 134.8C195.57 135.986 210.517 127.445 212.967 126.141C213.734 125.732 214.776 123.73 215.844 121.172C216.323 120.024 216.809 118.764 217.277 117.485C217.548 116.746 218.845 116.544 219.1 115.81C219.354 115.081 218.566 113.819 218.796 113.132C219.888 109.868 220.661 107.278 220.661 107.278L217.085 100.562C212.084 103.205 209.519 109.029 207.633 115.738L185.341 128.821Z" fill="#6C63FF"/>
<path d="M122.333 99.5328C122.417 100.078 122.62 100.598 122.926 101.057C123.233 101.515 123.637 101.901 124.109 102.186C124.58 102.472 125.109 102.651 125.658 102.71C126.206 102.769 126.761 102.707 127.283 102.529L147.741 125.068L149.962 118.463L129.58 97.4691C129.222 96.6121 128.562 95.9161 127.725 95.513C126.888 95.11 125.933 95.0279 125.04 95.2823C124.146 95.5367 123.378 96.1099 122.879 96.8933C122.38 97.6767 122.186 98.6159 122.333 99.5328Z" fill="#FFB6B6"/>
<path d="M174.389 122.719C174.389 122.719 176.132 127.218 171.206 129.717C166.279 132.216 149.67 127.687 146.971 127.037C146.126 126.834 144.617 125.156 142.943 122.947C142.191 121.955 141.406 120.857 140.633 119.736C140.185 119.088 138.879 119.217 138.448 118.571C138.019 117.928 138.467 116.509 138.072 115.901C136.199 113.014 134.802 110.701 134.802 110.701L136.583 103.303C142.086 104.611 146.027 109.607 149.533 115.631L174.389 122.719Z" fill="#6C63FF"/>
<path d="M179.701 114.056C185.254 114.056 189.755 109.554 189.755 104.002C189.755 98.4487 185.254 93.9473 179.701 93.9473C174.148 93.9473 169.647 98.4487 169.647 104.002C169.647 109.554 174.148 114.056 179.701 114.056Z" fill="#FFB6B6"/>
<path d="M191.178 98.2449C190.12 96.6087 188.136 95.5182 186.212 95.8246C186.033 94.5968 185.52 93.4416 184.73 92.4848C183.94 91.5281 182.902 90.8064 181.73 90.3985C180.559 89.9905 179.297 89.9119 178.084 90.1712C176.87 90.4305 175.751 91.0177 174.848 91.8689C174.551 91.6599 174.206 91.5311 173.844 91.4949C173.483 91.4587 173.118 91.5165 172.786 91.6625C172.124 91.9636 171.548 92.4261 171.111 93.0074C170.007 94.3842 169.296 96.0346 169.056 97.7829C168.816 99.5312 169.054 101.312 169.745 102.936C169.51 102.081 170.366 101.277 171.232 101.085C172.098 100.893 173.005 101.075 173.883 100.95C175.008 100.79 176.019 100.137 177.146 99.9901C178.102 99.928 179.06 100.051 179.969 100.353C180.877 100.654 181.834 100.783 182.79 100.732C183.739 100.619 184.96 104.213 184.944 106.744C184.941 107.224 185.04 107.84 185.508 107.942C186.086 108.067 186.42 107.27 186.97 107.053C187.223 106.98 187.494 107.009 187.727 107.133C187.96 107.256 188.135 107.466 188.217 107.716C188.286 107.971 188.293 108.238 188.238 108.497C188.183 108.755 188.067 108.996 187.9 109.2C187.562 109.605 187.161 109.953 186.713 110.23L186.939 110.419C187.154 110.646 187.441 110.791 187.751 110.829C188.061 110.868 188.375 110.797 188.639 110.63C189.158 110.278 189.578 109.8 189.859 109.24C190.92 107.6 191.678 105.783 192.098 103.876C192.452 101.96 192.236 99.8811 191.178 98.2449Z" fill="#231F20"/>
<path d="M265.559 137.9C252.591 147.722 226.787 144.619 218.779 161.444C194.534 212.385 173.792 173.58 152.563 169.384L152.368 168.343C173.619 170.106 196.414 167.371 218.287 160.434C238.054 154.166 255.69 144.841 269.288 133.478L270 134.367C268.564 135.568 267.084 136.745 265.559 137.9Z" fill="#F2F2F2"/>
<path d="M210.729 271.322C210.42 272.237 34.0705 272.237 33.7372 271.324C34.0457 270.407 210.395 270.407 210.729 271.322Z" fill="#CCCCCC"/>
</g>
<defs>
<clipPath id="clip0_251_1210">
<rect width="270" height="272.008" fill="white"/>
</clipPath>
</defs>
</svg>
