<svg width="17" height="17" viewBox="0 0 17 17" fill="none" xmlns="http://www.w3.org/2000/svg">
<path d="M8.49578 0.435167C10.0885 0.435167 11.6454 0.907921 12.9697 1.79365C14.294 2.67937 15.3262 3.93829 15.9357 5.4112C16.5452 6.88411 16.7047 8.50485 16.3939 10.0685C16.0832 11.6321 15.3163 13.0684 14.19 14.1957C13.0638 15.323 11.6289 16.0907 10.0668 16.4018C8.50471 16.7128 6.88554 16.5532 5.41406 15.9431C3.94259 15.333 2.68489 14.2998 1.80003 12.9742C0.915165 11.6486 0.442871 10.0902 0.442871 8.49591C0.445022 6.35873 1.29414 4.3097 2.80389 2.79849C4.31363 1.28727 6.36067 0.437321 8.49578 0.435167ZM8.49578 9.72943e-07C6.81593 -0.000803372 5.17358 0.497131 3.77651 1.43081C2.37943 2.36449 1.2904 3.69196 0.647175 5.2453C0.00395418 6.79863 -0.164554 8.50803 0.162971 10.1572C0.490496 11.8065 1.29934 13.3214 2.48717 14.5104C3.675 15.6994 5.18845 16.509 6.83606 16.8368C8.48367 17.1647 10.1914 16.996 11.7432 16.3522C13.2951 15.7083 14.6212 14.6182 15.554 13.2198C16.4868 11.8213 16.9842 10.1774 16.9834 8.49591C16.9834 6.24266 16.0892 4.08169 14.4975 2.4884C12.9057 0.895106 10.7468 9.72943e-07 8.49578 9.72943e-07Z" fill="#231F20"/>
</svg>
