<svg width="26" height="26" viewBox="0 0 26 26" fill="none" xmlns="http://www.w3.org/2000/svg">
<g opacity="0.75">
<path d="M3.00201 10.6301C2.97901 11.0411 3.20901 11.4241 3.58301 11.5961L11.087 15.0381L14.529 22.5411C14.693 22.8971 15.049 23.1241 15.438 23.1241L15.495 23.1221C15.6957 23.1109 15.8884 23.0394 16.0478 22.917C16.2073 22.7947 16.3262 22.6271 16.389 22.4361L21.984 5.40411C22.101 5.04611 22.007 4.65111 21.741 4.38411C21.475 4.11711 21.081 4.02611 20.721 4.14111L3.68801 9.73611C3.49705 9.79891 3.32946 9.91781 3.20709 10.0773C3.08472 10.2368 3.01325 10.4294 3.00201 10.6301ZM19.466 6.65911L15.284 19.3891L12.75 13.8671C12.6503 13.6494 12.4757 13.4748 12.258 13.3751L6.73401 10.8411L19.466 6.65911Z" fill="white"/>
</g>
</svg>
