<svg width="59" height="72" viewBox="0 0 59 72" fill="none" xmlns="http://www.w3.org/2000/svg">
<path d="M59 57.8173C59 58.4078 59 59.022 58.9686 59.6323C58.9526 60.8508 58.8488 62.0666 58.6578 63.2702C58.4817 64.2902 58.1528 65.2777 57.6824 66.1995C57.224 67.0928 56.6265 67.9075 55.9124 68.613C55.1916 69.3189 54.3647 69.9074 53.4619 70.3571C52.5234 70.8224 51.5214 71.1461 50.4883 71.3178C49.266 71.5077 48.0317 71.6103 46.7949 71.6249C46.1774 71.6446 45.552 71.6524 44.9541 71.6564H14.0459C13.4481 71.6564 12.8227 71.6564 12.2051 71.6249C10.9683 71.6103 9.73404 71.5077 8.51174 71.3178C7.47864 71.1461 6.4766 70.8224 5.53814 70.3571C4.63531 69.9074 3.80845 69.3189 3.08767 68.613C2.37353 67.9075 1.77607 67.0928 1.31767 66.1995C0.847201 65.2777 0.518345 64.2902 0.3422 63.2702C0.151268 62.0666 0.0474196 60.8508 0.0314667 59.6323C0.0314667 59.022 0.00393334 58.4078 0 57.8173V13.8391C0 13.2486 -2.93056e-08 12.6344 0.0314667 12.0241C0.0474196 10.8055 0.151268 9.58974 0.3422 8.38616C0.518345 7.3662 0.847201 6.37867 1.31767 5.45691C1.77607 4.56355 2.37353 3.74887 3.08767 3.04343C3.80845 2.33748 4.63531 1.74895 5.53814 1.29927C6.4766 0.834037 7.47864 0.51031 8.51174 0.338596C9.73014 0.149239 10.9604 0.0466154 12.1933 0.031498C12.8109 0.031498 13.4363 0.00393716 14.0341 0H44.9423C45.5402 0 46.1656 7.2162e-07 46.7831 0.031498C48.0199 0.0460564 49.2542 0.148681 50.4765 0.338596C51.5096 0.51031 52.5116 0.834037 53.4501 1.29927C54.3529 1.74895 55.1798 2.33748 55.9006 3.04343C56.6147 3.74887 57.2122 4.56355 57.6706 5.45691C58.141 6.37867 58.4699 7.3662 58.646 8.38616C58.837 9.58974 58.9408 10.8055 58.9568 12.0241C58.9764 12.6344 58.9843 13.2486 58.9882 13.8391L59 57.8173Z" fill="white"/>
</svg>
