<svg width="13" height="12" viewBox="0 0 13 12" fill="none" xmlns="http://www.w3.org/2000/svg">
<path d="M11.738 11.7662C11.7412 11.3706 11.8633 10.9851 12.0884 10.6599C12.3135 10.3347 12.6312 10.0848 13.0001 9.94276C8.68826 7.6307 4.94232 4.39026 2.03206 0.454822C1.94366 0.33592 1.83274 0.235613 1.70561 0.159624C1.57848 0.0836357 1.43765 0.0334533 1.29115 0.0119455C1.14465 -0.00956227 0.995347 -0.00197227 0.851775 0.0342753C0.708203 0.0705229 0.573168 0.134724 0.454383 0.223208C0.335598 0.311693 0.235388 0.422725 0.159473 0.549976C0.0835584 0.677226 0.0334265 0.818198 0.0119397 0.964842C-0.0314549 1.261 0.0444616 1.56229 0.22299 1.80243C3.291 5.9498 7.2284 9.37501 11.759 11.8378C11.7464 11.8126 11.738 11.7873 11.738 11.7662Z" fill="#231F20"/>
</svg>
