<svg width="17" height="17" viewBox="0 0 17 17" fill="none" xmlns="http://www.w3.org/2000/svg">
<path d="M8.49172 0.43517C10.0844 0.43517 11.6414 0.907924 12.9657 1.79365C14.29 2.67938 15.3221 3.93829 15.9316 5.4112C16.5411 6.88411 16.7006 8.50485 16.3899 10.0685C16.0792 11.6321 15.3122 13.0684 14.186 14.1957C13.0598 15.323 11.6249 16.0907 10.0628 16.4018C8.50065 16.7128 6.88148 16.5532 5.41 15.9431C3.93852 15.333 2.68083 14.2998 1.79597 12.9742C0.911103 11.6486 0.438809 10.0902 0.438809 8.49591C0.442033 6.35906 1.2915 4.31066 2.80101 2.79967C4.31053 1.28869 6.35694 0.438397 8.49172 0.43517ZM8.49172 9.73525e-07C6.81204 1.16598e-06 5.17009 0.498619 3.77355 1.43279C2.37701 2.36696 1.28861 3.69472 0.646008 5.24812C0.00341006 6.80153 -0.164517 8.51079 0.163467 10.1597C0.491451 11.8087 1.30061 13.3232 2.48861 14.5118C3.6766 15.7004 5.19006 16.5096 6.83755 16.8371C8.48505 17.1646 10.1926 16.9957 11.7442 16.3518C13.2958 15.7078 14.6217 14.6177 15.5543 13.2194C16.4869 11.821 16.9842 10.1772 16.9834 8.49591C16.9834 7.37987 16.7638 6.27477 16.337 5.24373C15.9102 4.21269 15.2846 3.27593 14.496 2.48696C13.7074 1.69799 12.7713 1.07226 11.741 0.645544C10.7108 0.218824 9.60667 -0.000533273 8.49172 9.73525e-07Z" fill="#231F20"/>
</svg>
