<svg width="15" height="15" viewBox="0 0 15 15" fill="none" xmlns="http://www.w3.org/2000/svg">
<path d="M7.49266 0.383972C8.89799 0.383972 10.2718 0.801107 11.4403 1.58263C12.6087 2.36415 13.5195 3.47495 14.0573 4.77457C14.5951 6.07419 14.7358 7.50425 14.4616 8.88392C14.1874 10.2636 13.5107 11.5309 12.517 12.5256C11.5233 13.5203 10.2572 14.1977 8.87887 14.4721C7.50055 14.7465 6.07187 14.6057 4.77351 14.0674C3.47516 13.529 2.36543 12.6174 1.58467 11.4478C0.80391 10.2782 0.387182 8.90306 0.387182 7.49636C0.38908 5.61062 1.1383 3.80266 2.47042 2.46924C3.80255 1.13582 5.60875 0.385872 7.49266 0.383972ZM7.49266 8.5899e-07C6.0106 1.0288e-06 4.56183 0.439956 3.32959 1.26422C2.09735 2.08848 1.137 3.26003 0.570004 4.63068C0.00300789 6.00132 -0.145161 7.50949 0.144236 8.96444C0.433632 10.4194 1.14759 11.7557 2.19582 12.8045C3.24404 13.8532 4.57944 14.5673 6.03311 14.8562C7.48678 15.1452 8.99342 14.9962 10.3625 14.428C11.7315 13.8598 12.9015 12.8979 13.7243 11.6641C14.5472 10.4303 14.986 8.97987 14.9853 7.49636C14.9853 6.51163 14.7915 5.53654 14.4149 4.6268C14.0383 3.71707 13.4864 2.89052 12.7906 2.19437C12.0947 1.49822 11.2687 0.946112 10.3597 0.569595C9.45068 0.193079 8.47644 -0.000470533 7.49266 8.5899e-07Z" fill="#362FD9"/>
</svg>
