<svg width="36" height="29" viewBox="0 0 36 29" fill="none" xmlns="http://www.w3.org/2000/svg">
<path d="M28.6908 17.5092V23.8744C28.6908 25.691 27.2253 27.1637 25.4181 27.1637C23.6109 27.1637 22.1454 25.691 22.1454 23.8744V11.144C22.1454 9.32736 23.6109 7.85466 25.4181 7.85466C27.2253 7.85466 28.6908 9.32736 28.6908 11.144V12.6819" stroke="#362FD9" stroke-width="3.21535" stroke-linejoin="round"/>
<path d="M34.3636 27.1637V10.6006C34.3636 5.64983 30.3342 1.63649 25.3636 1.63649C20.3931 1.63649 16.3637 5.64983 16.3637 10.6006V14.5139" stroke="#231F20" stroke-width="3.21535" stroke-linejoin="round"/>
<path d="M1.63635 20.7112V19.273C1.63635 17.2445 3.29145 15.6001 5.33186 15.6001C7.37313 15.6001 9.02824 17.2445 9.02824 19.273V20.4643C9.02824 22.4773 10.6705 24.1092 12.6955 24.1092C14.7214 24.1092 16.3636 22.4773 16.3636 20.4643V18.9981" stroke="#362FD9" stroke-width="3.21535" stroke-linejoin="round"/>
</svg>
