<svg width="59" height="72" viewBox="0 0 59 72" fill="none" xmlns="http://www.w3.org/2000/svg">
<path d="M59 57.8172C59 58.4078 59 59.022 58.9685 59.6322C58.9525 60.8508 58.8487 62.0666 58.6578 63.2702C58.4816 64.2901 58.1528 65.2777 57.6823 66.1994C57.2239 67.0928 56.6264 67.9074 55.9123 68.6129C55.1915 69.3188 54.3647 69.9074 53.4618 70.3571C52.5234 70.8223 51.5213 71.146 50.4882 71.3177C49.2659 71.5076 48.0317 71.6103 46.7948 71.6248C46.1773 71.6445 45.5519 71.6524 44.954 71.6563H14.0459C13.4481 71.6563 12.8227 71.6563 12.2051 71.6248C10.9683 71.6103 9.73403 71.5076 8.51173 71.3177C7.47863 71.146 6.47659 70.8223 5.53813 70.3571C4.6353 69.9074 3.80845 69.3188 3.08766 68.6129C2.37353 67.9074 1.77607 67.0928 1.31767 66.1994C0.8472 65.2777 0.518345 64.2901 0.3422 63.2702C0.151268 62.0666 0.0474195 60.8508 0.0314666 59.6322C0.0314666 59.022 0.00393333 58.4078 0 57.8172V13.8391C0 13.2485 -2.93056e-08 12.6343 0.0314666 12.0241C0.0474195 10.8055 0.151268 9.58973 0.3422 8.38615C0.518345 7.36619 0.8472 6.37866 1.31767 5.4569C1.77607 4.56354 2.37353 3.74887 3.08766 3.04343C3.80845 2.33748 4.6353 1.74895 5.53813 1.29926C6.47659 0.834036 7.47863 0.51031 8.51173 0.338596C9.73013 0.149238 10.9604 0.0466153 12.1933 0.031498C12.8109 0.031498 13.4363 0.00393716 14.0341 0H44.9422C45.5401 0 46.1655 7.2162e-07 46.783 0.031498C48.0199 0.0460564 49.2541 0.148681 50.4764 0.338596C51.5095 0.51031 52.5116 0.834036 53.45 1.29926C54.3529 1.74895 55.1797 2.33748 55.9005 3.04343C56.6146 3.74887 57.2121 4.56354 57.6705 5.4569C58.141 6.37866 58.4698 7.36619 58.646 8.38615C58.8369 9.58973 58.9407 10.8055 58.9567 12.0241C58.9764 12.6343 58.9842 13.2485 58.9882 13.8391L59 57.8172Z" fill="#231F20"/>
</svg>
