<svg width="22" height="22" viewBox="0 0 22 22" fill="none" xmlns="http://www.w3.org/2000/svg">
<path d="M19.8687 13.4428L18.4615 12.2397C18.5281 11.8315 18.5625 11.4147 18.5625 10.9979C18.5625 10.5811 18.5281 10.1643 18.4615 9.7561L19.8687 8.55298C19.9749 8.46211 20.0509 8.34109 20.0865 8.206C20.1222 8.07091 20.116 7.92816 20.0686 7.79673L20.0492 7.74087C19.6618 6.65811 19.0817 5.65438 18.3369 4.77817L18.2982 4.73306C18.2079 4.62682 18.0875 4.55045 17.9529 4.51402C17.8182 4.47758 17.6757 4.48279 17.5441 4.52895L15.7975 5.14985C15.1529 4.62134 14.4332 4.20454 13.6555 3.91235L13.3182 2.08618C13.2927 1.94877 13.2261 1.82236 13.1271 1.72374C13.028 1.62511 12.9014 1.55895 12.7639 1.53403L12.7059 1.52329C11.5865 1.32134 10.4092 1.32134 9.28984 1.52329L9.23183 1.53403C9.09433 1.55895 8.96766 1.62511 8.86865 1.72374C8.76964 1.82236 8.70299 1.94877 8.67754 2.08618L8.33808 3.92095C7.56656 4.2132 6.84807 4.62977 6.21113 5.15415L4.45156 4.52895C4.32 4.48242 4.1774 4.47703 4.0427 4.51349C3.908 4.54994 3.78759 4.62652 3.69746 4.73306L3.65879 4.77817C2.91488 5.655 2.33487 6.65857 1.94648 7.74087L1.92715 7.79673C1.83047 8.06528 1.90996 8.36606 2.12695 8.55298L3.55137 9.76899C3.48476 10.1729 3.45254 10.5854 3.45254 10.9958C3.45254 11.4083 3.48476 11.8208 3.55137 12.2225L2.12695 13.4385C2.02081 13.5294 1.94484 13.6504 1.90915 13.7855C1.87346 13.9206 1.87974 14.0633 1.92715 14.1948L1.94648 14.2506C2.33535 15.3334 2.91113 16.3325 3.65879 17.2133L3.69746 17.2584C3.78781 17.3647 3.90823 17.441 4.04285 17.4775C4.17746 17.5139 4.31996 17.5087 4.45156 17.4625L6.21113 16.8374C6.85137 17.3637 7.56679 17.7805 8.33808 18.0706L8.67754 19.9053C8.70299 20.0427 8.76964 20.1691 8.86865 20.2678C8.96766 20.3664 9.09433 20.4326 9.23183 20.4575L9.28984 20.4682C10.4195 20.6712 11.5762 20.6712 12.7059 20.4682L12.7639 20.4575C12.9014 20.4326 13.028 20.3664 13.1271 20.2678C13.2261 20.1691 13.2927 20.0427 13.3182 19.9053L13.6555 18.0791C14.4329 17.7877 15.1567 17.3696 15.7975 16.8417L17.5441 17.4625C17.6757 17.5091 17.8183 17.5145 17.953 17.478C18.0877 17.4416 18.2081 17.365 18.2982 17.2584L18.3369 17.2133C19.0846 16.3303 19.6604 15.3334 20.0492 14.2506L20.0686 14.1948C20.1652 13.9305 20.0857 13.6297 19.8687 13.4428ZM16.9361 10.0096C16.9898 10.334 17.0178 10.667 17.0178 11C17.0178 11.3331 16.9898 11.6661 16.9361 11.9905L16.7943 12.852L18.3992 14.2249C18.1559 14.7854 17.8488 15.3159 17.484 15.8061L15.4902 15.0993L14.8156 15.6536C14.3021 16.0747 13.7307 16.4055 13.1119 16.6375L12.2934 16.9448L11.9088 19.0288C11.302 19.0975 10.6894 19.0975 10.0826 19.0288L9.69804 16.9405L8.88594 16.629C8.27363 16.3969 7.7043 16.0661 7.19512 15.6471L6.52051 15.0907L4.51387 15.804C4.14863 15.312 3.84355 14.7813 3.59863 14.2227L5.2207 12.837L5.08105 11.9776C5.02949 11.6575 5.00156 11.3266 5.00156 11C5.00156 10.6713 5.02734 10.3426 5.08105 10.0225L5.2207 9.16313L3.59863 7.77739C3.8414 7.21665 4.14863 6.68813 4.51387 6.19614L6.52051 6.90942L7.19512 6.35298C7.7043 5.93403 8.27363 5.60317 8.88594 5.37114L9.70019 5.06392L10.0848 2.97563C10.6885 2.90688 11.3051 2.90688 11.9109 2.97563L12.2955 5.05962L13.1141 5.36685C13.7307 5.59888 14.3043 5.92974 14.8178 6.35083L15.4924 6.90513L17.4861 6.19829C17.8514 6.69028 18.1564 7.22095 18.4014 7.77954L16.7965 9.15239L16.9361 10.0096ZM11 7.00395C8.91172 7.00395 7.21875 8.69692 7.21875 10.7852C7.21875 12.8735 8.91172 14.5665 11 14.5665C13.0883 14.5665 14.7812 12.8735 14.7812 10.7852C14.7812 8.69692 13.0883 7.00395 11 7.00395ZM12.7016 12.4868C12.4784 12.7106 12.2132 12.8881 11.9211 13.009C11.6291 13.1299 11.3161 13.1919 11 13.1915C10.3576 13.1915 9.7539 12.9401 9.29844 12.4868C9.07462 12.2636 8.89714 11.9984 8.7762 11.7063C8.65526 11.4143 8.59326 11.1013 8.59375 10.7852C8.59375 10.1428 8.84512 9.53911 9.29844 9.08364C9.7539 8.62817 10.3576 8.37895 11 8.37895C11.6424 8.37895 12.2461 8.62817 12.7016 9.08364C12.9254 9.30682 13.1029 9.57204 13.2238 9.86406C13.3447 10.1561 13.4067 10.4691 13.4062 10.7852C13.4062 11.4276 13.1549 12.0313 12.7016 12.4868Z" fill="#231F20"/>
</svg>
