<svg width="27" height="27" viewBox="0 0 27 27" fill="none" xmlns="http://www.w3.org/2000/svg">
<path fill-rule="evenodd" clip-rule="evenodd" d="M24.2392 5.74977C24.5556 6.06622 24.7333 6.49536 24.7333 6.94283C24.7333 7.39029 24.5556 7.81944 24.2392 8.13589L11.5908 20.7843C11.4237 20.9515 11.2252 21.0841 11.0068 21.1746C10.7884 21.265 10.5543 21.3116 10.3179 21.3116C10.0815 21.3116 9.84739 21.265 9.62898 21.1746C9.41057 21.0841 9.21212 20.9515 9.04497 20.7843L2.76072 14.5011C2.59954 14.3455 2.47099 14.1593 2.38255 13.9534C2.29411 13.7475 2.24756 13.5261 2.24561 13.302C2.24366 13.0779 2.28636 12.8557 2.37121 12.6483C2.45606 12.441 2.58136 12.2525 2.7398 12.0941C2.89825 11.9357 3.08666 11.8104 3.29405 11.7255C3.50143 11.6407 3.72364 11.598 3.94771 11.5999C4.17177 11.6019 4.39321 11.6484 4.59909 11.7368C4.80497 11.8253 4.99118 11.9538 5.14684 12.115L10.3173 17.2855L21.852 5.74977C22.0087 5.59295 22.1948 5.46856 22.3996 5.38368C22.6044 5.29881 22.8239 5.25513 23.0456 5.25513C23.2673 5.25513 23.4868 5.29881 23.6916 5.38368C23.8964 5.46856 24.0825 5.59295 24.2392 5.74977Z" fill="white"/>
</svg>
