<svg width="24" height="24" viewBox="0 0 24 24" fill="none" xmlns="http://www.w3.org/2000/svg">
<path d="M4.85 22V12.125H6.85V20H13.85V15.175L16.475 12.55C16.9583 12.0667 17.3333 11.525 17.6 10.925C17.8667 10.325 18 9.68333 18 9C18 8.33333 17.8623 7.7 17.587 7.1C17.3117 6.5 16.941 5.95833 16.475 5.475L15.85 4.825L12.675 8H8.675L7.6 9.075L6.175 7.675L7.85 6H11.85L15.85 2L17.9 4.05C18.5667 4.71667 19.0833 5.471 19.45 6.313C19.8167 7.155 20 8.05067 20 9C20 9.95 19.8167 10.846 19.45 11.688C19.0833 12.53 18.5667 13.284 17.9 13.95L15.85 16V22H4.85ZM9.775 17.325L4.575 12.125C4.39167 11.9417 4.25 11.725 4.15 11.475C4.05 11.225 4 10.9667 4 10.7C4 10.4333 4.05 10.179 4.15 9.937C4.25 9.695 4.39167 9.48267 4.575 9.3L6.675 7.175L9.775 10.25C10.2417 10.7167 10.6043 11.2543 10.863 11.863C11.1217 12.4717 11.2507 13.109 11.25 13.775C11.25 14.4417 11.125 15.0793 10.875 15.688C10.625 16.2967 10.2583 16.8423 9.775 17.325Z" fill="#231F20"/>
</svg>
