<svg width="22" height="22" viewBox="0 0 22 22" fill="none" xmlns="http://www.w3.org/2000/svg">
<path d="M7.27833 19.7512C7.02055 19.4934 6.87574 19.1437 6.87574 18.7791C6.87574 18.4145 7.02055 18.0648 7.27833 17.807L14.0846 11.0007L7.27833 4.19447C7.02786 3.93515 6.88927 3.58782 6.8924 3.2273C6.89553 2.86678 7.04014 2.52191 7.29508 2.26697C7.55001 2.01203 7.89488 1.86743 8.2554 1.8643C8.61592 1.86116 8.96325 1.99976 9.22258 2.25022L17.001 10.0286C17.2587 10.2865 17.4035 10.6361 17.4035 11.0007C17.4035 11.3653 17.2587 11.715 17.001 11.9729L9.22258 19.7512C8.96472 20.009 8.61505 20.1538 8.25045 20.1538C7.88585 20.1538 7.53618 20.009 7.27833 19.7512Z" fill="white"/>
</svg>
