<svg width="53" height="64" viewBox="0 0 53 64" fill="none" xmlns="http://www.w3.org/2000/svg">
<path d="M52.696 51.6396C52.696 52.1671 52.6961 52.7157 52.6679 53.2607C52.6537 54.3491 52.5609 55.435 52.3904 56.51C52.2331 57.421 51.9394 58.303 51.5192 59.1263C51.1097 59.9242 50.5761 60.6518 49.9383 61.2819C49.2945 61.9124 48.556 62.438 47.7496 62.8397C46.9115 63.2552 46.0165 63.5443 45.0938 63.6977C44.0021 63.8673 42.8997 63.959 41.795 63.972C41.2434 63.9896 40.6849 63.9966 40.1509 64.0001H12.5452C12.0112 64.0001 11.4526 64.0001 10.9011 63.972C9.79636 63.959 8.69398 63.8673 7.60228 63.6977C6.67957 63.5443 5.78459 63.2552 4.9464 62.8397C4.14004 62.438 3.40153 61.9124 2.75776 61.2819C2.11993 60.6518 1.5863 59.9242 1.17688 59.1263C0.75668 58.303 0.462961 57.421 0.305637 56.51C0.135105 55.435 0.0423529 54.3491 0.0281045 53.2607C0.0281045 52.7157 0.00351307 52.1671 0 51.6396V12.3605C0 11.833 -2.67165e-08 11.2844 0.0281045 10.7394C0.0423529 9.651 0.135105 8.5651 0.305637 7.49012C0.462961 6.57914 0.75668 5.69713 1.17688 4.87385C1.5863 4.07595 2.11993 3.34832 2.75776 2.71825C3.40153 2.08773 4.14004 1.56208 4.9464 1.16044C5.78459 0.744923 6.67957 0.455785 7.60228 0.302418C8.6905 0.133293 9.78934 0.0416346 10.8905 0.0281326C11.4421 0.0281326 12.0006 0.00351649 12.5346 0H40.1403C40.6743 0 41.2329 6.44536e-07 41.7845 0.0281326C42.8892 0.0411354 43.9915 0.132795 45.0832 0.302418C46.0059 0.455785 46.9009 0.744923 47.7391 1.16044C48.5455 1.56208 49.284 2.08773 49.9277 2.71825C50.5656 3.34832 51.0992 4.07595 51.5086 4.87385C51.9288 5.69713 52.2226 6.57914 52.3799 7.49012C52.5504 8.5651 52.6432 9.651 52.6574 10.7394C52.675 11.2844 52.682 11.833 52.6855 12.3605L52.696 51.6396Z" fill="#362FD9"/>
</svg>
