<svg width="22" height="22" viewBox="0 0 22 22" fill="none" xmlns="http://www.w3.org/2000/svg">
<path d="M7.27833 19.751C7.02055 19.4931 6.87574 19.1435 6.87574 18.7789C6.87574 18.4143 7.02055 18.0646 7.27833 17.8067L14.0846 11.0005L7.27833 4.19423C7.02786 3.9349 6.88927 3.58757 6.8924 3.22705C6.89553 2.86653 7.04014 2.52166 7.29508 2.26673C7.55001 2.01179 7.89488 1.86719 8.2554 1.86405C8.61592 1.86092 8.96325 1.99951 9.22258 2.24998L17.001 10.0284C17.2587 10.2862 17.4035 10.6359 17.4035 11.0005C17.4035 11.3651 17.2587 11.7148 17.001 11.9726L9.22258 19.751C8.96473 20.0088 8.61505 20.1536 8.25045 20.1536C7.88585 20.1536 7.53618 20.0088 7.27833 19.751Z" fill="white"/>
</svg>
