<svg width="5" height="4" viewBox="0 0 5 4" fill="none" xmlns="http://www.w3.org/2000/svg">
<path d="M4.11994 1.24578C2.98505 0.883021 1.874 0.462989 0.782026 0C0.855082 0.220117 0.892119 0.450609 0.891702 0.682555C0.888209 1.02496 0.805949 1.36197 0.651308 1.66741C0.496666 1.97286 0.2738 2.23853 0 2.44382C1.09357 2.90204 2.2062 3.31571 3.33792 3.68483C3.45997 3.72245 3.58692 3.74175 3.71463 3.7421C4.0197 3.74388 4.31535 3.63635 4.54813 3.43895C4.7809 3.24155 4.93545 2.9673 4.98383 2.66578C5.03221 2.36427 4.97123 2.05537 4.81192 1.79494C4.6526 1.5345 4.40547 1.33972 4.11518 1.24578H4.11994Z" fill="#231F20"/>
</svg>
