<svg width="15" height="15" viewBox="0 0 15 15" fill="none" xmlns="http://www.w3.org/2000/svg">
<path d="M7.47794 14.9999C5.99666 14.997 4.54948 14.5546 3.31926 13.7288C2.08904 12.9029 1.13098 11.7305 0.566132 10.3599C0.00128759 8.98917 -0.144994 7.48164 0.145772 6.02776C0.436538 4.57388 1.1513 3.2389 2.19975 2.19148C3.2482 1.14407 4.58329 0.431234 6.03632 0.143039C7.48935 -0.145157 8.99512 0.00422603 10.3634 0.57231C11.7316 1.14039 12.9009 2.10169 13.7236 3.33473C14.5462 4.56777 14.9853 6.01722 14.9853 7.49994C14.9844 8.48582 14.7894 9.46185 14.4116 10.3723C14.0338 11.2828 13.4805 12.1098 12.7834 12.8063C12.0863 13.5027 11.2589 14.0549 10.3486 14.4313C9.43832 14.8076 8.46286 15.0009 7.47794 14.9999Z" fill="#362FD9"/>
</svg>
